G04 DipTrace 3.3.1.3*
G04 BottomMask.gbr*
%MOIN*%
G04 #@! TF.FileFunction,Soldermask,Bot*
G04 #@! TF.Part,Single*
%ADD36C,0.125*%
%ADD40C,0.05788*%
%ADD42C,0.03788*%
%ADD46C,0.08788*%
%ADD56C,0.06725*%
%ADD58R,0.06725X0.06725*%
%ADD60R,0.05788X0.06788*%
%ADD62R,0.06788X0.05788*%
%FSLAX26Y26*%
G04*
G70*
G90*
G75*
G01*
G04 BotMask*
%LPD*%
D42*
X1275000Y1208031D3*
D40*
X900000Y950000D3*
X750000Y525000D3*
X1150000Y950000D3*
D42*
X1550000Y575000D3*
X1087500Y662500D3*
X1237500Y812500D3*
D40*
X1175000Y500000D3*
X1350000Y175000D3*
X1575000Y300000D3*
X1325000Y450000D3*
Y725000D3*
D60*
X1250000Y350000D3*
Y260000D3*
X450000Y525000D3*
Y615000D3*
Y875000D3*
Y965000D3*
X1400000Y650000D3*
Y560000D3*
X650000Y525000D3*
Y615000D3*
Y875000D3*
Y965000D3*
D62*
X1187500Y1250000D3*
X1097500D3*
X1125000Y875000D3*
X1035000D3*
D36*
X400000Y125000D3*
X1600000D3*
X400000Y1375000D3*
X1600000D3*
D58*
X125000Y650000D3*
D56*
Y748425D3*
Y848425D3*
D58*
Y1225000D3*
D56*
Y1323425D3*
D58*
Y175000D3*
D56*
Y273425D3*
D58*
X1875000Y1225000D3*
D56*
Y1323425D3*
D58*
Y175000D3*
D56*
Y273425D3*
D46*
X325000Y525000D3*
Y750000D3*
Y975000D3*
Y1150000D3*
Y350000D3*
X1325000Y1262500D3*
Y975000D3*
X1637500Y1025000D3*
Y1187500D3*
M02*
