G04 DipTrace 3.3.1.3*
G04 Bottom.gbr*
%MOIN*%
G04 #@! TF.FileFunction,Copper,L2,Bot*
G04 #@! TF.Part,Single*
G04 #@! TA.AperFunction,ViaPad*
%ADD14C,0.03*%
G04 #@! TA.AperFunction,Conductor*
%ADD16C,0.01*%
G04 #@! TA.AperFunction,CopperBalancing*
%ADD17C,0.025*%
%ADD18C,0.013*%
%ADD21R,0.06X0.05*%
%ADD22R,0.05X0.06*%
G04 #@! TA.AperFunction,ViaPad*
%ADD23C,0.05*%
G04 #@! TA.AperFunction,ComponentPad*
%ADD24R,0.05937X0.05937*%
%ADD25C,0.05937*%
%ADD32C,0.08*%
%FSLAX26Y26*%
G04*
G70*
G90*
G75*
G01*
G04 Bottom*
%LPD*%
X650000Y525000D2*
D14*
X450000D1*
X1275000Y1208031D2*
Y1225000D1*
X1250000Y1250000D1*
X1187500D1*
X1250000Y350000D2*
Y375000D1*
X1325000Y450000D1*
X1400000Y650000D2*
X1325000Y725000D1*
X325000Y525000D2*
X325224D1*
X450000D1*
X650000Y965000D2*
X450000D1*
X1035000Y875000D2*
X975000D1*
X900000Y950000D1*
X450000Y965000D2*
X335000D1*
X325000Y975000D1*
X750000Y525000D2*
X660000Y615000D1*
X650000D1*
X1150000Y950000D2*
X1125000Y925000D1*
Y875000D1*
X1550000Y575000D2*
X1535000Y560000D1*
X1400000D1*
X1087500Y662500D2*
D16*
X1237500Y812500D1*
X125000Y175000D2*
D14*
X150000D1*
X325000Y350000D1*
X1275000Y1208031D3*
D23*
X900000Y950000D3*
X750000Y525000D3*
X1150000Y950000D3*
D14*
X1550000Y575000D3*
X1087500Y662500D3*
X1237500Y812500D3*
D23*
X1175000Y500000D3*
X1350000Y175000D3*
X1575000Y300000D3*
X1325000Y450000D3*
Y725000D3*
X82791Y1437631D2*
D17*
X284987D1*
X515017D2*
X1484991D1*
X57924Y1412762D2*
X284987D1*
X515017D2*
X1484991D1*
X40018Y1387894D2*
X284987D1*
X515017D2*
X1484991D1*
X40018Y1363025D2*
X82636D1*
X167371D2*
X284987D1*
X515017D2*
X1484991D1*
X40018Y1338156D2*
X68282D1*
X181724D2*
X284987D1*
X515017D2*
X1484991D1*
X40018Y1313287D2*
X67241D1*
X182765D2*
X284987D1*
X515017D2*
X1279554D1*
X1370424D2*
X1484991D1*
X40018Y1288419D2*
X78546D1*
X171462D2*
X284987D1*
X515017D2*
X1038483D1*
X1388726D2*
X1484991D1*
X40018Y1263550D2*
X66308D1*
X183698D2*
X292487D1*
X507517D2*
X1038483D1*
X1394000D2*
X1492490D1*
X40018Y1238681D2*
X66308D1*
X183698D2*
X1038483D1*
X1389587D2*
X1592535D1*
X40018Y1213812D2*
X66308D1*
X183698D2*
X303790D1*
X346218D2*
X1038483D1*
X1372793D2*
X1573911D1*
X40018Y1188944D2*
X66308D1*
X183698D2*
X268588D1*
X381420D2*
X1235667D1*
X1314337D2*
X1568529D1*
X40018Y1164075D2*
X257500D1*
X392508D2*
X1572762D1*
X40018Y1139206D2*
X256890D1*
X393118D2*
X1589270D1*
X40018Y1114337D2*
X266364D1*
X383644D2*
X1685009D1*
X40018Y1089469D2*
X294963D1*
X355045D2*
X1618694D1*
X1656314D2*
X1685009D1*
X40018Y1064600D2*
X1581591D1*
X40018Y1039731D2*
X307272D1*
X342738D2*
X1307256D1*
X1342722D2*
X1570143D1*
X40018Y1014862D2*
X269270D1*
X380739D2*
X396013D1*
X504000D2*
X595996D1*
X703983D2*
X1269255D1*
X1380723D2*
X1569282D1*
X40018Y989993D2*
X257715D1*
X703983D2*
X865055D1*
X934933D2*
X1257699D1*
X1392278D2*
X1578469D1*
X40018Y965125D2*
X256747D1*
X703983D2*
X848261D1*
X951727D2*
X1256731D1*
X1393247D2*
X1606063D1*
X1668945D2*
X1685009D1*
X40018Y940256D2*
X265789D1*
X703983D2*
X846933D1*
X970925D2*
X1265810D1*
X1384203D2*
X1685009D1*
X40018Y915387D2*
X293025D1*
X356983D2*
X396013D1*
X504000D2*
X595996D1*
X703983D2*
X859349D1*
X1184005D2*
X1293046D1*
X1356967D2*
X1685009D1*
X40018Y890518D2*
X85291D1*
X164715D2*
X396013D1*
X504000D2*
X595996D1*
X703983D2*
X898283D1*
X1184005D2*
X1685009D1*
X40018Y865650D2*
X69037D1*
X180971D2*
X396013D1*
X504000D2*
X595996D1*
X703983D2*
X923151D1*
X1184005D2*
X1685009D1*
X40018Y840781D2*
X66848D1*
X183160D2*
X396013D1*
X504000D2*
X595996D1*
X703983D2*
X949024D1*
X1184005D2*
X1204627D1*
X1270379D2*
X1685009D1*
X40018Y815912D2*
X76680D1*
X173328D2*
X313694D1*
X336314D2*
X1193647D1*
X1281360D2*
X1685009D1*
X40018Y791043D2*
X85902D1*
X164105D2*
X270167D1*
X379806D2*
X1168995D1*
X1275510D2*
X1685009D1*
X40018Y766175D2*
X69180D1*
X180791D2*
X258003D1*
X392007D2*
X1144126D1*
X1238227D2*
X1291575D1*
X1358438D2*
X1685009D1*
X40018Y741306D2*
X66776D1*
X183232D2*
X256567D1*
X393441D2*
X1119259D1*
X1213360D2*
X1273633D1*
X1376345D2*
X1685009D1*
X40018Y716437D2*
X76320D1*
X173686D2*
X265108D1*
X384900D2*
X1094391D1*
X1188491D2*
X1271731D1*
X1394753D2*
X1685009D1*
X40018Y691568D2*
X66308D1*
X183698D2*
X290765D1*
X359244D2*
X1055385D1*
X1163623D2*
X1283322D1*
X1453999D2*
X1685009D1*
X40018Y666699D2*
X66308D1*
X183698D2*
X396013D1*
X504000D2*
X595996D1*
X703983D2*
X1043722D1*
X1138756D2*
X1322112D1*
X1453999D2*
X1685009D1*
X40018Y641831D2*
X66308D1*
X183698D2*
X396013D1*
X504000D2*
X595996D1*
X703983D2*
X1048997D1*
X1125982D2*
X1346010D1*
X1453999D2*
X1685009D1*
X40018Y616962D2*
X66308D1*
X183698D2*
X396013D1*
X504000D2*
X595996D1*
X703983D2*
X1346010D1*
X1453999D2*
X1685009D1*
X40018Y592093D2*
X396013D1*
X504000D2*
X595996D1*
X703983D2*
X1346010D1*
X1453999D2*
X1685009D1*
X40018Y567224D2*
X271136D1*
X378873D2*
X396013D1*
X504000D2*
X595996D1*
X703983D2*
X1346010D1*
X1453999D2*
X1685009D1*
X40018Y542356D2*
X258289D1*
X703983D2*
X1346010D1*
X1453999D2*
X1685009D1*
X40018Y517487D2*
X256424D1*
X703983D2*
X1346010D1*
X1453999D2*
X1685009D1*
X40018Y492618D2*
X264425D1*
X703983D2*
X1293584D1*
X1356429D2*
X1685009D1*
X40018Y467749D2*
X288684D1*
X361325D2*
X1274171D1*
X1375843D2*
X1685009D1*
X40018Y442881D2*
X1256696D1*
X1378499D2*
X1685009D1*
X40018Y418012D2*
X1231827D1*
X1367877D2*
X1685009D1*
X40018Y393143D2*
X271890D1*
X378118D2*
X1196014D1*
X1329337D2*
X1685009D1*
X40018Y368274D2*
X258576D1*
X391432D2*
X1196014D1*
X1304469D2*
X1685009D1*
X40018Y343406D2*
X256316D1*
X393656D2*
X1196014D1*
X1304003D2*
X1685009D1*
X40018Y318537D2*
X89024D1*
X160983D2*
X232345D1*
X386085D2*
X1196014D1*
X1304003D2*
X1685009D1*
X40018Y293668D2*
X70077D1*
X179895D2*
X207478D1*
X362832D2*
X1196014D1*
X1304003D2*
X1685009D1*
X40018Y268799D2*
X66488D1*
X304987D2*
X1196014D1*
X1304003D2*
X1685009D1*
X40018Y243930D2*
X74671D1*
X280119D2*
X1196014D1*
X1304003D2*
X1685009D1*
X40018Y219062D2*
X66308D1*
X255251D2*
X284987D1*
X515017D2*
X1196014D1*
X1304003D2*
X1484991D1*
X40018Y194193D2*
X66308D1*
X230383D2*
X284987D1*
X515017D2*
X1484991D1*
X40018Y169324D2*
X66308D1*
X205516D2*
X284987D1*
X515017D2*
X1484991D1*
X40018Y144455D2*
X66308D1*
X183698D2*
X284987D1*
X515017D2*
X1484991D1*
X40018Y119587D2*
X66308D1*
X183698D2*
X284987D1*
X515017D2*
X1484991D1*
X50461Y94718D2*
X284987D1*
X515017D2*
X1484991D1*
X75328Y69849D2*
X284987D1*
X515017D2*
X1484991D1*
X100196Y44980D2*
X284987D1*
X515017D2*
X1484991D1*
X1207686Y406500D2*
X1222794D1*
X1274134Y458056D1*
X1276021Y465915D1*
X1279113Y473381D1*
X1283336Y480270D1*
X1288584Y486416D1*
X1294730Y491664D1*
X1301619Y495887D1*
X1309085Y498979D1*
X1316944Y500866D1*
X1325000Y501500D1*
X1333056Y500866D1*
X1340915Y498979D1*
X1348381Y495887D1*
X1355270Y491664D1*
X1361416Y486416D1*
X1366664Y480270D1*
X1370887Y473381D1*
X1373979Y465915D1*
X1375866Y458056D1*
X1376500Y450000D1*
X1375866Y441944D1*
X1373979Y434085D1*
X1370887Y426619D1*
X1366664Y419730D1*
X1361416Y413584D1*
X1355270Y408336D1*
X1348381Y404113D1*
X1340915Y401021D1*
X1332790Y399102D1*
X1301491Y367801D1*
X1301500Y203500D1*
X1198500D1*
Y406500D1*
X1207686D1*
X501500Y483500D2*
Y468500D1*
X398500D1*
Y483535D1*
X376975Y483500D1*
X372022Y477978D1*
X364088Y471201D1*
X355190Y465748D1*
X345550Y461755D1*
X335403Y459319D1*
X325000Y458500D1*
X314597Y459319D1*
X304450Y461755D1*
X294810Y465748D1*
X285912Y471201D1*
X277978Y477978D1*
X271201Y485912D1*
X265748Y494810D1*
X261755Y504450D1*
X259319Y514597D1*
X258500Y525000D1*
X259319Y535403D1*
X261755Y545550D1*
X265748Y555190D1*
X271201Y564088D1*
X277978Y572022D1*
X285912Y578799D1*
X294810Y584252D1*
X304450Y588245D1*
X314597Y590681D1*
X325000Y591500D1*
X335403Y590681D1*
X345550Y588245D1*
X355190Y584252D1*
X364088Y578799D1*
X372022Y572022D1*
X376892Y566507D1*
X398535Y566500D1*
X398500Y671500D1*
X501500D1*
Y566496D1*
X598525Y566500D1*
X598500Y671500D1*
X701500D1*
Y468500D1*
X598500D1*
Y483535D1*
X501475Y483500D1*
X501500Y908499D2*
Y818500D1*
X398500D1*
Y923504D1*
X367072Y923500D1*
X359747Y918299D1*
X350449Y913562D1*
X340524Y910337D1*
X330218Y908705D1*
X319782D1*
X309476Y910337D1*
X299551Y913562D1*
X290253Y918299D1*
X281812Y924433D1*
X274433Y931812D1*
X268299Y940253D1*
X263562Y949551D1*
X260337Y959476D1*
X258705Y969782D1*
Y980218D1*
X260337Y990524D1*
X263562Y1000449D1*
X268299Y1009747D1*
X274433Y1018188D1*
X281812Y1025567D1*
X290253Y1031701D1*
X299551Y1036438D1*
X309476Y1039663D1*
X319782Y1041295D1*
X330218D1*
X340524Y1039663D1*
X350449Y1036438D1*
X359747Y1031701D1*
X368188Y1025567D1*
X375567Y1018188D1*
X381701Y1009747D1*
X383525Y1006490D1*
X398479Y1006500D1*
X398500Y1021500D1*
X501500D1*
Y1006465D1*
X598525Y1006500D1*
X598500Y1021500D1*
X701500D1*
Y818500D1*
X598500D1*
Y923504D1*
X501475Y923500D1*
X501465Y908500D1*
X1402219Y706500D2*
X1451500D1*
Y503500D1*
X1348500D1*
Y642841D1*
X1316944Y674134D1*
X1309085Y676021D1*
X1301619Y679113D1*
X1294730Y683336D1*
X1288584Y688584D1*
X1283336Y694730D1*
X1279113Y701619D1*
X1276021Y709085D1*
X1274134Y716944D1*
X1273500Y725000D1*
X1274134Y733056D1*
X1276021Y740915D1*
X1279113Y748381D1*
X1283336Y755270D1*
X1288584Y761416D1*
X1294730Y766664D1*
X1301619Y770887D1*
X1309085Y773979D1*
X1316944Y775866D1*
X1325000Y776500D1*
X1333056Y775866D1*
X1340915Y773979D1*
X1348381Y770887D1*
X1355270Y766664D1*
X1361416Y761416D1*
X1366664Y755270D1*
X1370887Y748381D1*
X1373979Y740915D1*
X1375898Y732790D1*
X1402175Y706514D1*
X1140186Y1301500D2*
X1244000D1*
Y1291488D1*
X1253256Y1291373D1*
X1259688Y1290353D1*
X1262836Y1289465D1*
X1265748Y1292690D1*
X1271201Y1301588D1*
X1277978Y1309522D1*
X1285912Y1316299D1*
X1294810Y1321752D1*
X1304450Y1325745D1*
X1314597Y1328181D1*
X1325000Y1329000D1*
X1335403Y1328181D1*
X1345550Y1325745D1*
X1355190Y1321752D1*
X1364088Y1316299D1*
X1372022Y1309522D1*
X1378799Y1301588D1*
X1384252Y1292690D1*
X1388245Y1283050D1*
X1390681Y1272903D1*
X1391500Y1262500D1*
X1390681Y1252097D1*
X1388245Y1241950D1*
X1384252Y1232310D1*
X1378799Y1223412D1*
X1372022Y1215478D1*
X1364088Y1208701D1*
X1355190Y1203248D1*
X1345550Y1199255D1*
X1335403Y1196819D1*
X1325000Y1196000D1*
X1314941Y1196778D1*
X1313341Y1192150D1*
X1310385Y1186348D1*
X1306556Y1181080D1*
X1301951Y1176475D1*
X1296684Y1172647D1*
X1290882Y1169690D1*
X1284688Y1167678D1*
X1278256Y1166659D1*
X1271744D1*
X1265312Y1167678D1*
X1259118Y1169690D1*
X1253316Y1172647D1*
X1248049Y1176475D1*
X1243444Y1181080D1*
X1239615Y1186348D1*
X1236659Y1192150D1*
X1234644Y1198356D1*
X1179696Y1198500D1*
X1041000D1*
Y1301500D1*
X1140186D1*
X1070337Y926500D2*
X1181500D1*
Y823500D1*
X978500D1*
Y833512D1*
X971744Y833627D1*
X965312Y834647D1*
X959118Y836659D1*
X953316Y839615D1*
X948047Y843444D1*
X919672Y871638D1*
X891944Y899134D1*
X884085Y901021D1*
X876619Y904113D1*
X869730Y908336D1*
X863584Y913584D1*
X858336Y919730D1*
X854113Y926619D1*
X851021Y934085D1*
X849134Y941944D1*
X848500Y950000D1*
X849134Y958056D1*
X851021Y965915D1*
X854113Y973381D1*
X858336Y980270D1*
X863584Y986416D1*
X869730Y991664D1*
X876619Y995887D1*
X884085Y998979D1*
X891944Y1000866D1*
X900000Y1001500D1*
X908056Y1000866D1*
X915915Y998979D1*
X923381Y995887D1*
X930270Y991664D1*
X936416Y986416D1*
X941664Y980270D1*
X945887Y973381D1*
X948979Y965915D1*
X950898Y957790D1*
X982199Y926491D1*
X1070337Y926500D1*
X78001Y706185D2*
X87941D1*
X82825Y711303D1*
X78344Y717121D1*
X74659Y723474D1*
X71835Y730253D1*
X69919Y737343D1*
X68944Y744621D1*
X68927Y751965D1*
X69867Y759248D1*
X71749Y766346D1*
X74542Y773139D1*
X78197Y779509D1*
X82651Y785348D1*
X87828Y790556D1*
X93640Y795045D1*
X99383Y798423D1*
X91975Y802971D1*
X85272Y808697D1*
X79546Y815400D1*
X74938Y822917D1*
X71564Y831063D1*
X69507Y839636D1*
X68815Y848425D1*
X69507Y857214D1*
X71564Y865787D1*
X74938Y873933D1*
X79546Y881450D1*
X85272Y888154D1*
X91975Y893879D1*
X99492Y898487D1*
X107638Y901861D1*
X116211Y903919D1*
X125000Y904610D1*
X133789Y903919D1*
X142362Y901861D1*
X150508Y898487D1*
X158025Y893879D1*
X164728Y888154D1*
X170454Y881450D1*
X175062Y873933D1*
X178436Y865787D1*
X180493Y857214D1*
X181185Y848425D1*
X180493Y839636D1*
X178436Y831063D1*
X175062Y822917D1*
X170454Y815400D1*
X164728Y808697D1*
X158025Y802971D1*
X150613Y798423D1*
X156029Y795265D1*
X161873Y790818D1*
X167087Y785647D1*
X171583Y779840D1*
X175282Y773495D1*
X178122Y766723D1*
X180055Y759638D1*
X181047Y752362D1*
X181064Y744753D1*
X180108Y737472D1*
X178207Y730378D1*
X175399Y723593D1*
X171730Y717231D1*
X167262Y711403D1*
X162045Y706184D1*
X181185Y706185D1*
Y593815D1*
X68815D1*
Y706185D1*
X78001D1*
Y1281185D2*
X87941D1*
X82277Y1286936D1*
X77094Y1294068D1*
X73092Y1301924D1*
X70367Y1310310D1*
X68988Y1319017D1*
Y1327833D1*
X70367Y1336541D1*
X73092Y1344927D1*
X77094Y1352782D1*
X82277Y1359915D1*
X88510Y1366148D1*
X95643Y1371331D1*
X103499Y1375333D1*
X111885Y1378058D1*
X120592Y1379437D1*
X129408D1*
X138115Y1378058D1*
X146501Y1375333D1*
X154357Y1371331D1*
X161490Y1366148D1*
X167723Y1359915D1*
X172906Y1352782D1*
X176908Y1344927D1*
X179633Y1336541D1*
X181012Y1327833D1*
Y1319017D1*
X179633Y1310310D1*
X176908Y1301924D1*
X172906Y1294068D1*
X167723Y1286936D1*
X162008Y1281181D1*
X181185Y1281185D1*
Y1168815D1*
X68815D1*
Y1281185D1*
X78001D1*
Y231185D2*
X87941D1*
X82277Y236936D1*
X77094Y244068D1*
X73092Y251924D1*
X70367Y260310D1*
X68988Y269017D1*
Y277833D1*
X70367Y286541D1*
X73092Y294927D1*
X77094Y302782D1*
X82277Y309915D1*
X88510Y316148D1*
X95643Y321331D1*
X103499Y325333D1*
X111885Y328058D1*
X120592Y329437D1*
X129408D1*
X138115Y328058D1*
X146501Y325333D1*
X154357Y321331D1*
X161490Y316148D1*
X167723Y309915D1*
X172906Y302782D1*
X176908Y294927D1*
X179633Y286541D1*
X181012Y277833D1*
Y269017D1*
X180382Y264079D1*
X258917Y342608D1*
X258500Y350000D1*
X259319Y360403D1*
X261755Y370550D1*
X265748Y380190D1*
X271201Y389088D1*
X277978Y397022D1*
X285912Y403799D1*
X294810Y409252D1*
X304450Y413245D1*
X314597Y415681D1*
X325000Y416500D1*
X335403Y415681D1*
X345550Y413245D1*
X355190Y409252D1*
X364088Y403799D1*
X372022Y397022D1*
X378799Y389088D1*
X384252Y380190D1*
X388245Y370550D1*
X390681Y360403D1*
X391500Y350000D1*
X390681Y339597D1*
X388245Y329450D1*
X384252Y319810D1*
X378799Y310912D1*
X372022Y302978D1*
X364088Y296201D1*
X355190Y290748D1*
X345550Y286755D1*
X335403Y284319D1*
X325000Y283500D1*
X317656Y283957D1*
X181184Y147493D1*
X181185Y118815D1*
X68815D1*
Y231185D1*
X78001D1*
X391475Y748163D2*
X390866Y740843D1*
X389455Y733634D1*
X387257Y726626D1*
X384299Y719902D1*
X380618Y713546D1*
X376259Y707634D1*
X371273Y702240D1*
X365723Y697428D1*
X359677Y693257D1*
X353207Y689778D1*
X346394Y687035D1*
X339319Y685060D1*
X332070Y683877D1*
X324734Y683500D1*
X317402Y683936D1*
X310161Y685177D1*
X303102Y687209D1*
X296311Y690007D1*
X289870Y693537D1*
X283857Y697756D1*
X278345Y702612D1*
X273404Y708046D1*
X269092Y713992D1*
X265462Y720378D1*
X262558Y727126D1*
X260416Y734151D1*
X259062Y741371D1*
X258513Y748696D1*
X258774Y756037D1*
X259844Y763303D1*
X261709Y770408D1*
X264346Y777264D1*
X267723Y783787D1*
X271798Y789898D1*
X276524Y795522D1*
X281840Y800591D1*
X287682Y805042D1*
X293980Y808822D1*
X300657Y811885D1*
X307630Y814192D1*
X314816Y815715D1*
X322126Y816438D1*
X329471Y816349D1*
X336761Y815451D1*
X343908Y813756D1*
X350824Y811281D1*
X357425Y808059D1*
X363630Y804129D1*
X369365Y799538D1*
X374558Y794344D1*
X379146Y788608D1*
X383073Y782400D1*
X386293Y775798D1*
X388764Y768881D1*
X390457Y761734D1*
X391352Y754442D1*
X391475Y748163D1*
X391295Y1144782D2*
X389663Y1134476D1*
X386438Y1124551D1*
X381701Y1115253D1*
X375567Y1106812D1*
X368188Y1099433D1*
X359747Y1093299D1*
X350449Y1088562D1*
X340524Y1085337D1*
X330218Y1083705D1*
X319782D1*
X309476Y1085337D1*
X299551Y1088562D1*
X290253Y1093299D1*
X281812Y1099433D1*
X274433Y1106812D1*
X268299Y1115253D1*
X263562Y1124551D1*
X260337Y1134476D1*
X258705Y1144782D1*
Y1155218D1*
X260337Y1165524D1*
X263562Y1175449D1*
X268299Y1184747D1*
X274433Y1193188D1*
X281812Y1200567D1*
X290253Y1206701D1*
X299551Y1211438D1*
X309476Y1214663D1*
X319782Y1216295D1*
X330218D1*
X340524Y1214663D1*
X350449Y1211438D1*
X359747Y1206701D1*
X368188Y1200567D1*
X375567Y1193188D1*
X381701Y1184747D1*
X386438Y1175449D1*
X389663Y1165524D1*
X391295Y1155218D1*
Y1144782D1*
X1391295Y969782D2*
X1389663Y959476D1*
X1386438Y949551D1*
X1381701Y940253D1*
X1375567Y931812D1*
X1368188Y924433D1*
X1359747Y918299D1*
X1350449Y913562D1*
X1340524Y910337D1*
X1330218Y908705D1*
X1319782D1*
X1309476Y910337D1*
X1299551Y913562D1*
X1290253Y918299D1*
X1281812Y924433D1*
X1274433Y931812D1*
X1268299Y940253D1*
X1263562Y949551D1*
X1260337Y959476D1*
X1258705Y969782D1*
Y980218D1*
X1260337Y990524D1*
X1263562Y1000449D1*
X1268299Y1009747D1*
X1274433Y1018188D1*
X1281812Y1025567D1*
X1290253Y1031701D1*
X1299551Y1036438D1*
X1309476Y1039663D1*
X1319782Y1041295D1*
X1330218D1*
X1340524Y1039663D1*
X1350449Y1036438D1*
X1359747Y1031701D1*
X1368188Y1025567D1*
X1375567Y1018188D1*
X1381701Y1009747D1*
X1386438Y1000449D1*
X1389663Y990524D1*
X1391295Y980218D1*
Y969782D1*
X1687499Y981198D2*
X1680688Y974433D1*
X1672247Y968299D1*
X1662949Y963562D1*
X1653024Y960337D1*
X1642718Y958705D1*
X1632282D1*
X1621976Y960337D1*
X1612051Y963562D1*
X1602753Y968299D1*
X1594312Y974433D1*
X1586933Y981812D1*
X1580799Y990253D1*
X1576062Y999551D1*
X1572837Y1009476D1*
X1571205Y1019782D1*
Y1030218D1*
X1572837Y1040524D1*
X1576062Y1050449D1*
X1580799Y1059747D1*
X1586933Y1068188D1*
X1594312Y1075567D1*
X1602753Y1081701D1*
X1612051Y1086438D1*
X1621976Y1089663D1*
X1632282Y1091295D1*
X1642718D1*
X1653024Y1089663D1*
X1662949Y1086438D1*
X1672247Y1081701D1*
X1680688Y1075567D1*
X1687499Y1068802D1*
X1687500Y1143626D1*
X1680688Y1136933D1*
X1672247Y1130799D1*
X1662949Y1126062D1*
X1653024Y1122837D1*
X1642718Y1121205D1*
X1632282D1*
X1621976Y1122837D1*
X1612051Y1126062D1*
X1602753Y1130799D1*
X1594312Y1136933D1*
X1586933Y1144312D1*
X1580799Y1152753D1*
X1576062Y1162051D1*
X1572837Y1171976D1*
X1571205Y1182282D1*
Y1192718D1*
X1572837Y1203024D1*
X1576062Y1212949D1*
X1580799Y1222247D1*
X1586933Y1230688D1*
X1594312Y1238067D1*
X1602753Y1244201D1*
X1612051Y1248938D1*
X1621976Y1252163D1*
X1632282Y1253795D1*
X1642718D1*
X1653024Y1252163D1*
X1662949Y1248938D1*
X1672247Y1244201D1*
X1680688Y1238067D1*
X1687499Y1231302D1*
X1687500Y1262474D1*
X1498045Y1262654D1*
X1495217Y1263451D1*
X1492652Y1264887D1*
X1490495Y1266882D1*
X1488862Y1269325D1*
X1487845Y1272081D1*
X1487500Y1275004D1*
Y1462495D1*
X512503Y1462500D1*
X512346Y1273045D1*
X511549Y1270217D1*
X510113Y1267652D1*
X508118Y1265495D1*
X505675Y1263862D1*
X502919Y1262845D1*
X499996Y1262500D1*
X298045Y1262654D1*
X295217Y1263451D1*
X292652Y1264887D1*
X290495Y1266882D1*
X288862Y1269325D1*
X287845Y1272081D1*
X287500Y1275004D1*
Y1462495D1*
X105177Y1462500D1*
X37513Y1394835D1*
X37500Y105190D1*
X105165Y37513D1*
X287495Y37500D1*
X287654Y226955D1*
X288451Y229783D1*
X289887Y232348D1*
X291882Y234505D1*
X294325Y236138D1*
X297081Y237155D1*
X300004Y237500D1*
X501955Y237346D1*
X504783Y236549D1*
X507348Y235113D1*
X509505Y233118D1*
X511138Y230675D1*
X512155Y227919D1*
X512500Y224996D1*
Y37505D1*
X1487497Y37500D1*
X1487654Y226955D1*
X1488451Y229783D1*
X1489887Y232348D1*
X1491882Y234505D1*
X1494325Y236138D1*
X1497081Y237155D1*
X1500004Y237500D1*
X1687495D1*
X1687500Y981142D1*
X1314472Y1195219D2*
X1311976Y1189190D1*
X1308575Y1183638D1*
X1304345Y1178686D1*
X1299394Y1174457D1*
X1293841Y1171055D1*
X1287824Y1168563D1*
X1281492Y1167042D1*
X1275000Y1166531D1*
X1268508Y1167042D1*
X1262176Y1168563D1*
X1256159Y1171055D1*
X1250606Y1174457D1*
X1245655Y1178686D1*
X1241425Y1183638D1*
X1238024Y1189190D1*
X1235531Y1195207D1*
X1234647Y1198344D1*
X1084332Y703881D2*
X1196127Y815756D1*
X1197147Y822188D1*
X1199159Y828382D1*
X1202115Y834184D1*
X1205944Y839451D1*
X1210549Y844056D1*
X1215816Y847885D1*
X1221618Y850841D1*
X1227812Y852853D1*
X1234244Y853873D1*
X1240756D1*
X1247188Y852853D1*
X1253382Y850841D1*
X1259184Y847885D1*
X1264451Y844056D1*
X1269056Y839451D1*
X1272885Y834184D1*
X1275841Y828382D1*
X1277853Y822188D1*
X1278873Y815756D1*
Y809244D1*
X1277853Y802812D1*
X1275841Y796618D1*
X1272885Y790816D1*
X1269056Y785549D1*
X1264451Y780944D1*
X1259184Y777115D1*
X1253382Y774159D1*
X1247188Y772147D1*
X1240667Y771125D1*
X1128873Y659244D1*
X1127853Y652812D1*
X1125841Y646618D1*
X1122885Y640816D1*
X1119056Y635549D1*
X1114451Y630944D1*
X1109184Y627115D1*
X1103382Y624159D1*
X1097188Y622147D1*
X1090756Y621127D1*
X1084244D1*
X1077812Y622147D1*
X1071618Y624159D1*
X1065816Y627115D1*
X1060549Y630944D1*
X1055944Y635549D1*
X1052115Y640816D1*
X1049159Y646618D1*
X1047147Y652812D1*
X1046127Y659244D1*
Y665756D1*
X1047147Y672188D1*
X1049159Y678382D1*
X1052115Y684184D1*
X1055944Y689451D1*
X1060549Y694056D1*
X1065816Y697885D1*
X1071618Y700841D1*
X1077812Y702853D1*
X1084333Y703875D1*
X1250000Y260000D2*
D18*
Y203535D1*
X1198535Y260000D2*
X1301465D1*
X450000Y671465D2*
Y615000D1*
X398535D2*
X501465D1*
X450000Y875000D2*
Y818535D1*
X398535Y875000D2*
X501465D1*
X1400000Y560000D2*
Y503535D1*
X1348535Y560000D2*
X1451465D1*
X650000Y671465D2*
Y615000D1*
X598535D2*
X701465D1*
X650000Y875000D2*
Y818535D1*
X598535Y875000D2*
X701465D1*
X1097500Y1301463D2*
Y1198535D1*
X1041037Y1250000D2*
X1097500D1*
X1125000Y926463D2*
Y823535D1*
Y875000D2*
X1181465D1*
X68850Y748425D2*
X181150D1*
X325000Y816465D2*
Y683535D1*
X258535Y750000D2*
X391465D1*
D22*
X1250000Y350000D3*
Y260000D3*
X450000Y525000D3*
Y615000D3*
Y875000D3*
Y965000D3*
X1400000Y650000D3*
Y560000D3*
X650000Y525000D3*
Y615000D3*
Y875000D3*
Y965000D3*
D21*
X1187500Y1250000D3*
X1097500D3*
X1125000Y875000D3*
X1035000D3*
D24*
X125000Y650000D3*
D25*
Y748425D3*
Y848425D3*
D24*
Y1225000D3*
D25*
Y1323425D3*
D24*
Y175000D3*
D25*
Y273425D3*
D24*
X1875000Y1225000D3*
D25*
Y1323425D3*
D24*
Y175000D3*
D25*
Y273425D3*
D32*
X325000Y525000D3*
Y750000D3*
Y975000D3*
Y1150000D3*
Y350000D3*
X1325000Y1262500D3*
Y975000D3*
X1637500Y1025000D3*
Y1187500D3*
M02*
