M48
INCH
T01C0.015
T02C0.025
T03C0.0394
T04C0.063
T05C0.125
%
T01
X+012750Y+012080
X+012375Y+008125
X+010875Y+006625
X+015500Y+005750
T02
X+011750Y+005000
X+013250Y+004500
X+013250Y+007250
X+011500Y+009500
X+009000Y+009500
X+007500Y+005250
X+013500Y+001750
X+015750Y+003000
T03
X+001250Y+006500
X+001250Y+007484
X+001250Y+008484
X+001250Y+012250
X+001250Y+013234
X+001250Y+002734
X+001250Y+001750
X+018750Y+001750
X+018750Y+002734
X+018750Y+012250
X+018750Y+013234
T04
X+003250Y+005250
X+003250Y+003500
X+003250Y+007500
X+003250Y+009750
X+003250Y+011500
X+013250Y+012625
X+013250Y+009750
X+016375Y+010250
X+016375Y+011875
T05
X+004000Y+001250
X+016000Y+001250
X+016000Y+013750
X+004000Y+013750
T00
M30
