G04 DipTrace 3.3.1.3*
G04 Top.gbr*
%MOIN*%
G04 #@! TF.FileFunction,Copper,L1,Top*
G04 #@! TF.Part,Single*
G04 #@! TA.AperFunction,CopperBalancing*
%ADD14C,0.03*%
G04 #@! TA.AperFunction,Conductor*
%ADD15C,0.023622*%
%ADD16C,0.01*%
G04 #@! TA.AperFunction,CopperBalancing*
%ADD17C,0.025*%
%ADD21R,0.06X0.05*%
%ADD22R,0.05X0.06*%
G04 #@! TA.AperFunction,ViaPad*
%ADD23C,0.05*%
G04 #@! TA.AperFunction,ComponentPad*
%ADD24R,0.05937X0.05937*%
%ADD25C,0.05937*%
%ADD26R,0.07874X0.023622*%
%ADD28R,0.047244X0.047244*%
%ADD29R,0.059055X0.062992*%
%ADD31R,0.062992X0.059055*%
G04 #@! TA.AperFunction,ComponentPad*
%ADD32C,0.08*%
%ADD34R,0.043307X0.023622*%
%FSLAX26Y26*%
G04*
G70*
G90*
G75*
G01*
G04 Top*
%LPD*%
X1187598Y1175000D2*
D15*
X1241969D1*
D14*
X1275000Y1208031D1*
X1281299Y650000D2*
D15*
Y656299D1*
X900000Y950000D2*
D14*
Y1000000D1*
X925000Y1025000D1*
D15*
X975000D1*
X750000Y425000D2*
D14*
Y525000D1*
X1187598Y1025000D2*
D15*
Y987598D1*
D14*
X1150000Y950000D1*
X1175000Y575197D2*
D15*
Y548386D1*
D14*
Y500000D1*
X1615000Y375000D2*
X1625000D1*
X1575000Y325000D1*
Y300000D1*
X1625000Y575000D2*
D15*
X1570630D1*
D14*
X1550000D1*
X1350000Y225000D2*
D15*
Y198189D1*
D14*
Y175000D1*
X525000Y615000D2*
Y675000D1*
X450000Y750000D1*
X325000D1*
X525000Y875000D2*
Y825000D1*
X450000Y750000D1*
X1137402Y325000D2*
D16*
X1087500D1*
X1025000Y387500D1*
Y537500D1*
X975000Y587500D1*
Y600000D1*
X1350000Y275000D2*
X1225000D1*
X1175000Y325000D1*
X1137402D1*
X1525000Y375000D2*
Y325000D1*
X1475000Y275000D1*
X1350000D1*
X1298228Y826870D2*
X1289370D1*
Y839370D1*
X1137402Y375000D2*
X1100000D1*
X1087500Y387500D1*
Y662500D1*
X1237500Y812500D2*
X1251870Y826870D1*
X1298228D1*
Y948228D1*
X1325000Y975000D1*
X750000Y335000D2*
D14*
X690000D1*
X675000Y350000D1*
X625000D1*
X565000D1*
X975000Y1075000D2*
D15*
X1029370D1*
D14*
X1050000D1*
X1062500Y1062500D1*
Y987500D1*
X675000Y600000D1*
Y400000D1*
X625000Y350000D1*
X565000Y1150000D2*
X750000D1*
X975000Y1125000D2*
D15*
X920630D1*
D14*
X875000D1*
X850000Y1150000D1*
X750000D1*
X1837598Y925000D2*
D15*
Y951811D1*
D14*
Y1187598D1*
X1875000Y1225000D1*
X1837598Y875000D2*
D15*
X1891969D1*
D14*
X1912500D1*
X1937500Y850000D1*
Y212500D1*
X1900000Y175000D1*
X1875000D1*
X1281299Y575197D2*
D16*
X1375197D1*
X1537500Y737500D1*
Y862500D1*
X1550000Y875000D1*
X1625000D1*
X1637500Y1187500D2*
X1700000Y1125000D1*
Y912500D1*
X1662500Y875000D1*
X1625000D1*
X1350000Y325000D2*
X1225000D1*
X1200000Y350000D1*
Y400000D1*
X1175000Y425000D1*
X1137500D1*
X1112500Y450000D1*
Y587500D1*
X1137598Y612598D1*
X1175000D1*
X1625000Y925000D2*
X1550000D1*
X1512500Y887500D1*
Y750000D1*
X1375098Y612598D1*
X1175000D1*
X1637500Y1025000D2*
Y937500D1*
X1625000Y925000D1*
X975000Y287500D2*
Y387500D1*
Y510000D1*
X1137402Y275000D2*
X1087500D1*
X975000Y387500D1*
X125000Y1225000D2*
D14*
X200000Y1150000D1*
X324827D1*
X475000D1*
X325000Y350000D2*
X475000D1*
X975000Y1175000D2*
D16*
X925000D1*
X900000Y1200000D1*
Y1275000D1*
X950000Y1325000D1*
X975000D1*
X750000Y1240000D2*
X865000D1*
X900000Y1275000D1*
X1065000Y1325000D2*
Y1322500D1*
X1100000Y1287500D1*
Y1100000D1*
X1125000Y1075000D1*
X1187598D1*
X1300000D1*
X1325000Y1050000D1*
X1425000D1*
X1187598Y1125000D2*
X1300000D1*
X1325000Y1150000D1*
X1350000Y1175000D1*
X1462598D1*
X1464370Y1176772D1*
X1424960Y866240D2*
Y974960D1*
X1450000Y1000000D1*
X1550000D1*
X1575000Y1025000D1*
Y1150000D1*
X1548228Y1176772D1*
X1464370D1*
X1325000Y1262500D2*
Y1150000D1*
D14*
X1275000Y1208031D3*
D23*
X900000Y950000D3*
X750000Y525000D3*
X1150000Y950000D3*
D14*
X1550000Y575000D3*
X1087500Y662500D3*
X1237500Y812500D3*
D23*
X1175000Y500000D3*
X1350000Y175000D3*
X1575000Y300000D3*
X1325000Y450000D3*
Y725000D3*
X40018Y1012631D2*
D17*
X267655D1*
X382317D2*
X471011D1*
X578998D2*
X906645D1*
X40018Y987762D2*
X257249D1*
X392759D2*
X471011D1*
X578998D2*
X906645D1*
X40018Y962894D2*
X257105D1*
X392903D2*
X471011D1*
X578998D2*
X976691D1*
X40018Y938025D2*
X267225D1*
X382784D2*
X471011D1*
X578998D2*
X951823D1*
X40018Y913156D2*
X298049D1*
X351959D2*
X471011D1*
X578998D2*
X926955D1*
X40018Y888287D2*
X82887D1*
X167084D2*
X471011D1*
X578998D2*
X902088D1*
X40018Y863419D2*
X68354D1*
X181653D2*
X471011D1*
X578998D2*
X877220D1*
X40018Y838550D2*
X67206D1*
X182801D2*
X471011D1*
X578998D2*
X852352D1*
X40018Y813681D2*
X78330D1*
X171641D2*
X303360D1*
X346648D2*
X452495D1*
X567444D2*
X827484D1*
X576500Y908498D2*
Y818500D1*
X565986D1*
X565350Y815300D1*
X566995Y812500D1*
X828842D1*
X1002996Y986686D1*
X909130Y986689D1*
Y1037514D1*
X347688Y1037500D1*
X354169Y1034761D1*
X360582Y1031180D1*
X366561Y1026913D1*
X372032Y1022013D1*
X376930Y1016539D1*
X381195Y1010558D1*
X384774Y1004144D1*
X387623Y997374D1*
X389709Y990330D1*
X391005Y983100D1*
X391500Y975000D1*
X391094Y967666D1*
X389882Y960421D1*
X387879Y953354D1*
X385108Y946552D1*
X381604Y940096D1*
X377409Y934066D1*
X372575Y928536D1*
X367160Y923573D1*
X361231Y919237D1*
X354860Y915581D1*
X348125Y912650D1*
X341107Y910480D1*
X333893Y909097D1*
X326571Y908519D1*
X319229Y908751D1*
X311958Y909791D1*
X304846Y911628D1*
X297979Y914237D1*
X291443Y917588D1*
X285316Y921639D1*
X279673Y926341D1*
X274583Y931637D1*
X270108Y937462D1*
X266303Y943745D1*
X263214Y950409D1*
X260879Y957373D1*
X259326Y964553D1*
X258574Y971860D1*
X258633Y979205D1*
X259502Y986498D1*
X261169Y993652D1*
X263616Y1000578D1*
X266811Y1007192D1*
X270717Y1013413D1*
X275284Y1019165D1*
X280458Y1024379D1*
X286176Y1028990D1*
X292367Y1032943D1*
X298957Y1036188D1*
X302288Y1037500D1*
X37505D1*
X37500Y812483D1*
X81634Y812702D1*
X77345Y818663D1*
X73870Y825133D1*
X71269Y832001D1*
X69586Y839149D1*
X68849Y846456D1*
X69072Y853796D1*
X70251Y861045D1*
X72364Y868078D1*
X75377Y874775D1*
X79238Y881023D1*
X83880Y886713D1*
X89225Y891749D1*
X95182Y896045D1*
X101647Y899527D1*
X108512Y902137D1*
X115658Y903828D1*
X122964Y904573D1*
X130305Y904359D1*
X137555Y903189D1*
X144591Y901084D1*
X151292Y898079D1*
X157543Y894226D1*
X163239Y889590D1*
X168281Y884251D1*
X172584Y878300D1*
X176074Y871838D1*
X178692Y864976D1*
X180392Y857832D1*
X181146Y850527D1*
X180915Y842922D1*
X179720Y835676D1*
X177589Y828648D1*
X174561Y821958D1*
X170685Y815720D1*
X168195Y812503D1*
X302277Y812500D1*
X309476Y814663D1*
X319782Y816295D1*
X330218D1*
X340524Y814663D1*
X347559Y812504D1*
X453780Y812500D1*
X473509Y832199D1*
X473500Y1021500D1*
X576500D1*
X576493Y908500D1*
X525000Y1021464D2*
D14*
Y965000D1*
X473536D2*
X576464D1*
X125000Y904574D2*
Y848425D1*
X68851D2*
X181149D1*
X325000Y975000D2*
Y908536D1*
X258536Y975000D2*
X391464D1*
X975000Y1025000D2*
Y986725D1*
X909166Y1025000D2*
X975000D1*
X1714984Y1437631D2*
D17*
X1917179D1*
X1714984Y1412762D2*
X1942047D1*
X1714984Y1387894D2*
X1959989D1*
X1714984Y1363025D2*
X1832636D1*
X1917371D2*
X1959989D1*
X1714984Y1338156D2*
X1818283D1*
X1931725D2*
X1959989D1*
X1714984Y1313287D2*
X1817242D1*
X1932765D2*
X1959989D1*
X1714984Y1288419D2*
X1828545D1*
X1921462D2*
X1959989D1*
X1707520Y1263550D2*
X1816309D1*
X1933698D2*
X1959989D1*
X1164987Y1238681D2*
X1260427D1*
X1389586D2*
X1592535D1*
X1682473D2*
X1816309D1*
X1933698D2*
X1959989D1*
X1164987Y1213812D2*
X1277221D1*
X1372793D2*
X1403856D1*
X1524870D2*
X1573911D1*
X1701061D2*
X1802924D1*
X1933698D2*
X1959989D1*
X1255954Y1188944D2*
X1291000D1*
X1706480D2*
X1793630D1*
X1933698D2*
X1959989D1*
X1255954Y1164075D2*
X1291000D1*
X1707987D2*
X1793594D1*
X1881594D2*
X1959989D1*
X1361238Y1139206D2*
X1403856D1*
X1524870D2*
X1538745D1*
X1730630D2*
X1793594D1*
X1881594D2*
X1959989D1*
X1336370Y1114337D2*
X1541005D1*
X1608982D2*
X1663622D1*
X1734003D2*
X1793594D1*
X1881594D2*
X1959989D1*
X1332566Y1089469D2*
X1372386D1*
X1608982D2*
X1618695D1*
X1656313D2*
X1665990D1*
X1734003D2*
X1793594D1*
X1881594D2*
X1959989D1*
X1734003Y1064600D2*
X1793594D1*
X1881594D2*
X1959989D1*
X1255954Y1039731D2*
X1288237D1*
X1734003D2*
X1793594D1*
X1881594D2*
X1959989D1*
X1255954Y1014862D2*
X1269255D1*
X1734003D2*
X1793594D1*
X1881594D2*
X1959989D1*
X1734003Y989993D2*
X1793594D1*
X1881594D2*
X1959989D1*
X1224986Y965125D2*
X1256731D1*
X1462180D2*
X1603516D1*
X1734003D2*
X1793594D1*
X1881594D2*
X1959989D1*
X1076461Y940256D2*
X1096939D1*
X1203060D2*
X1264231D1*
X1458950D2*
X1518219D1*
X1734003D2*
X1769229D1*
X1905960D2*
X1959989D1*
X1051593Y915387D2*
X1109355D1*
X1190644D2*
X1264231D1*
X1356968D2*
X1372350D1*
X1477574D2*
X1493351D1*
X1734003D2*
X1769229D1*
X1924548D2*
X1959989D1*
X1026725Y890518D2*
X1264231D1*
X1332243D2*
X1372350D1*
X1725068D2*
X1769229D1*
X1001822Y865650D2*
X1239686D1*
X1356752D2*
X1372350D1*
X1700200D2*
X1769229D1*
X976954Y840781D2*
X1204627D1*
X1356752D2*
X1372350D1*
X1693382D2*
X1769229D1*
X952086Y815912D2*
X1193647D1*
X1356752D2*
X1372386D1*
X1693382D2*
X1769229D1*
X927219Y791043D2*
X1199460D1*
X1356752D2*
X1372386D1*
X1693382D2*
X1769229D1*
X902351Y766175D2*
X1372386D1*
X1693382D2*
X1769229D1*
X877483Y741306D2*
X1372386D1*
X1693382D2*
X1769229D1*
X852615Y716437D2*
X1431882D1*
X1693382D2*
X1769229D1*
X827748Y691568D2*
X1055385D1*
X1119630D2*
X1407014D1*
X1538613D2*
X1556615D1*
X1693382D2*
X1769229D1*
X40018Y666699D2*
X66309D1*
X183698D2*
X263134D1*
X802880D2*
X1043722D1*
X1331956D2*
X1382146D1*
X1513746D2*
X1556615D1*
X1693382D2*
X1769229D1*
X40018Y641831D2*
X66309D1*
X183698D2*
X288001D1*
X778012D2*
X920999D1*
X1028986D2*
X1048997D1*
X1488878D2*
X1556615D1*
X1693382D2*
X1769229D1*
X40018Y616962D2*
X66309D1*
X183698D2*
X312869D1*
X753144D2*
X920999D1*
X1028986D2*
X1053483D1*
X1464010D2*
X1556615D1*
X1693382D2*
X1769229D1*
X40018Y592093D2*
X337737D1*
X728277D2*
X920999D1*
X1028986D2*
X1053483D1*
X1439142D2*
X1509679D1*
X1693382D2*
X1769229D1*
X40018Y567224D2*
X271136D1*
X781995D2*
X920999D1*
X1042335D2*
X1053499D1*
X1414275D2*
X1506736D1*
X1693382D2*
X1769229D1*
X40018Y542356D2*
X258289D1*
X800978D2*
X920999D1*
X1331956D2*
X1521879D1*
X1693382D2*
X1769229D1*
X40018Y517487D2*
X256423D1*
X393585D2*
X471011D1*
X578998D2*
X630983D1*
X803454D2*
X920999D1*
X1225954D2*
X1893496D1*
X40018Y492618D2*
X264426D1*
X385583D2*
X471011D1*
X578998D2*
X630983D1*
X794016D2*
X920999D1*
X1228466D2*
X1893496D1*
X40018Y467749D2*
X288683D1*
X361325D2*
X630983D1*
X803992D2*
X920999D1*
X1217665D2*
X1893496D1*
X40018Y442881D2*
X630983D1*
X803992D2*
X940986D1*
X1204173D2*
X1893496D1*
X40018Y418012D2*
X630983D1*
X803992D2*
X940986D1*
X1228359D2*
X1466008D1*
X1674004D2*
X1893496D1*
X40018Y393143D2*
X271889D1*
X378119D2*
X416000D1*
X803992D2*
X940986D1*
X1233992D2*
X1281635D1*
X1418365D2*
X1466008D1*
X1674004D2*
X1893496D1*
X40018Y368274D2*
X258576D1*
X803992D2*
X940986D1*
X1233992D2*
X1281635D1*
X1418365D2*
X1466008D1*
X1674004D2*
X1893496D1*
X188973Y343406D2*
X256316D1*
X803992D2*
X920999D1*
X1418365D2*
X1466008D1*
X1674004D2*
X1893496D1*
X211078Y318537D2*
X263923D1*
X803992D2*
X920999D1*
X1418365D2*
X1471498D1*
X1629723D2*
X1839024D1*
X233183Y293668D2*
X287176D1*
X362832D2*
X683768D1*
X803992D2*
X920999D1*
X1628611D2*
X1820077D1*
X255287Y268799D2*
X920999D1*
X1028986D2*
X1046665D1*
X1515863D2*
X1531532D1*
X1618456D2*
X1816488D1*
X277392Y243930D2*
X920999D1*
X1028986D2*
X1069021D1*
X1205788D2*
X1217294D1*
X1482706D2*
X1824670D1*
X515017Y219062D2*
X920999D1*
X1028986D2*
X1069021D1*
X1205788D2*
X1281635D1*
X1418365D2*
X1484990D1*
X1714984D2*
X1816309D1*
X515017Y194193D2*
X920999D1*
X1028986D2*
X1069021D1*
X1205788D2*
X1281635D1*
X1418365D2*
X1484990D1*
X1714984D2*
X1816309D1*
X515017Y169324D2*
X920999D1*
X1028986D2*
X1296311D1*
X1403689D2*
X1484990D1*
X1714984D2*
X1816309D1*
X515017Y144455D2*
X920999D1*
X1028986D2*
X1306036D1*
X1393964D2*
X1484990D1*
X1714984D2*
X1816309D1*
X1933698D2*
X1959989D1*
X515017Y119587D2*
X1484990D1*
X1714984D2*
X1816309D1*
X1933698D2*
X1959989D1*
X515017Y94718D2*
X1484990D1*
X1714984D2*
X1949547D1*
X515017Y69849D2*
X1484990D1*
X1714984D2*
X1924679D1*
X515017Y44980D2*
X1484990D1*
X1714984D2*
X1899811D1*
X1477686Y426500D2*
X1671500D1*
Y323500D1*
X1632207D1*
X1624125Y315435D1*
X1625866Y308056D1*
X1626500Y300000D1*
X1625866Y291944D1*
X1623979Y284086D1*
X1620887Y276619D1*
X1616664Y269729D1*
X1611416Y263584D1*
X1605271Y258336D1*
X1598381Y254113D1*
X1590914Y251021D1*
X1583056Y249134D1*
X1575000Y248500D1*
X1566944Y249134D1*
X1559086Y251021D1*
X1551619Y254113D1*
X1544729Y258336D1*
X1538584Y263584D1*
X1533336Y269729D1*
X1529113Y276619D1*
X1526726Y282174D1*
X1495458Y251047D1*
X1491459Y248142D1*
X1487055Y245898D1*
X1482354Y244370D1*
X1477471Y243597D1*
X1415899Y243500D1*
X1415870Y186689D1*
X1400189D1*
X1401341Y179041D1*
Y170959D1*
X1400077Y162978D1*
X1397580Y155292D1*
X1393911Y148091D1*
X1389161Y141553D1*
X1383447Y135839D1*
X1376909Y131089D1*
X1369708Y127420D1*
X1362022Y124923D1*
X1354041Y123659D1*
X1345959D1*
X1337978Y124923D1*
X1330292Y127420D1*
X1323091Y131089D1*
X1316553Y135839D1*
X1310839Y141553D1*
X1306089Y148091D1*
X1302420Y155292D1*
X1299923Y162978D1*
X1298659Y170959D1*
Y179041D1*
X1299858Y186697D1*
X1284130Y186689D1*
Y243493D1*
X1222529Y243597D1*
X1217646Y244370D1*
X1212945Y245898D1*
X1208541Y248142D1*
X1204535Y251054D1*
X1203272Y249006D1*
Y186689D1*
X1071531D1*
Y247843D1*
X1067042Y251047D1*
X1026480Y291472D1*
X1026500Y141000D1*
X923500D1*
Y344000D1*
X943488D1*
X943500Y453491D1*
X923500Y453500D1*
Y656500D1*
X1026500D1*
Y580533D1*
X1048953Y557958D1*
X1051858Y553959D1*
X1054102Y549555D1*
X1056000Y543668D1*
X1055943Y635548D1*
X1052115Y640816D1*
X1049159Y646619D1*
X1047147Y652812D1*
X1046128Y659244D1*
Y665756D1*
X1047147Y672188D1*
X1049159Y678381D1*
X1052115Y684184D1*
X1055943Y689452D1*
X1060548Y694057D1*
X1065816Y697885D1*
X1071619Y700841D1*
X1077812Y702853D1*
X1084244Y703872D1*
X1090756D1*
X1097188Y702853D1*
X1103381Y700841D1*
X1109184Y697885D1*
X1114452Y694057D1*
X1119057Y689452D1*
X1122885Y684184D1*
X1125841Y678381D1*
X1126846Y675993D1*
Y688311D1*
X1223154D1*
Y644127D1*
X1233168Y644098D1*
X1233146Y688311D1*
X1329453D1*
Y644094D1*
X1362064Y644098D1*
X1455310Y737358D1*
X1374878Y737378D1*
X1374839Y916362D1*
X1393462D1*
X1393557Y977432D1*
X1394330Y982314D1*
X1395858Y987015D1*
X1398102Y991419D1*
X1401007Y995418D1*
X1405351Y999899D1*
X1386668Y999878D1*
X1389663Y990524D1*
X1391295Y980218D1*
Y969782D1*
X1389663Y959476D1*
X1386438Y949552D1*
X1381701Y940254D1*
X1375567Y931812D1*
X1368188Y924433D1*
X1359746Y918299D1*
X1350448Y913562D1*
X1340524Y910337D1*
X1330218Y908705D1*
X1329708Y908685D1*
X1329728Y884893D1*
X1354256Y884866D1*
Y768874D1*
X1242201D1*
Y771278D1*
X1237500Y771000D1*
X1231008Y771511D1*
X1224676Y773031D1*
X1218659Y775523D1*
X1213107Y778926D1*
X1208155Y783155D1*
X1203926Y788107D1*
X1200523Y793659D1*
X1198031Y799676D1*
X1196511Y806008D1*
X1196000Y812500D1*
X1196511Y818992D1*
X1198031Y825324D1*
X1200523Y831341D1*
X1203926Y836893D1*
X1208155Y841845D1*
X1213107Y846074D1*
X1218659Y849477D1*
X1224676Y851969D1*
X1231008Y853489D1*
X1235758Y853932D1*
X1239816Y855972D1*
X1242145Y856831D1*
X1242201Y884866D1*
X1266710D1*
X1266728Y942955D1*
X1263562Y949552D1*
X1260337Y959476D1*
X1258705Y969782D1*
Y980218D1*
X1260337Y990524D1*
X1263562Y1000448D1*
X1268299Y1009746D1*
X1274433Y1018188D1*
X1281812Y1025567D1*
X1290254Y1031701D1*
X1295754Y1034687D1*
X1286969Y1043484D1*
X1253458Y1043500D1*
X1253469Y986689D1*
X1229103D1*
X1228588Y981106D1*
X1227067Y974774D1*
X1224575Y968758D1*
X1221173Y963205D1*
X1216943Y958253D1*
X1200866Y941944D1*
X1198979Y934086D1*
X1195887Y926619D1*
X1191664Y919729D1*
X1186416Y913584D1*
X1180271Y908336D1*
X1173381Y904113D1*
X1165914Y901021D1*
X1158056Y899134D1*
X1150000Y898500D1*
X1141944Y899134D1*
X1134086Y901021D1*
X1126619Y904113D1*
X1119729Y908336D1*
X1113584Y913584D1*
X1108336Y919729D1*
X1104113Y926619D1*
X1101021Y934086D1*
X1099134Y941944D1*
X1098500Y950000D1*
X1099134Y958056D1*
X1101021Y965914D1*
X1104113Y973381D1*
X1094057Y960548D1*
X1065862Y932172D1*
X716488Y582798D1*
X716553Y564161D1*
X723091Y568911D1*
X730292Y572580D1*
X737978Y575077D1*
X745959Y576341D1*
X754041D1*
X762022Y575077D1*
X769708Y572580D1*
X776909Y568911D1*
X783447Y564161D1*
X789161Y558447D1*
X793911Y551909D1*
X797580Y544708D1*
X800077Y537022D1*
X801341Y529041D1*
Y520959D1*
X800077Y512978D1*
X797580Y505292D1*
X793911Y498091D1*
X791498Y494518D1*
X791500Y481472D1*
X801500Y481500D1*
Y278500D1*
X698500D1*
Y293535D1*
X686744Y293628D1*
X680312Y294647D1*
X674119Y296659D1*
X668316Y299615D1*
X663048Y303443D1*
X657788Y308522D1*
X624987Y308500D1*
X621500Y300450D1*
Y298500D1*
X418500D1*
Y308512D1*
X376929Y308500D1*
X372023Y302977D1*
X364088Y296200D1*
X355190Y290748D1*
X345550Y286755D1*
X335403Y284319D1*
X325000Y283500D1*
X314597Y284319D1*
X304450Y286755D1*
X294810Y290748D1*
X285912Y296200D1*
X277977Y302977D1*
X271200Y310912D1*
X265748Y319810D1*
X261755Y329450D1*
X259319Y339597D1*
X258500Y350000D1*
X259319Y360403D1*
X261755Y370550D1*
X265748Y380190D1*
X271200Y389088D1*
X277977Y397023D1*
X285912Y403800D1*
X294810Y409252D1*
X304450Y413245D1*
X314597Y415681D1*
X325000Y416500D1*
X335403Y415681D1*
X345550Y413245D1*
X355190Y409252D1*
X364088Y403800D1*
X372023Y397023D1*
X376893Y391506D1*
X418478Y391500D1*
X418500Y401500D1*
X617839D1*
X633488Y417178D1*
X633500Y537472D1*
X576500Y537405D1*
Y468500D1*
X473500D1*
Y537505D1*
X398045Y537654D1*
X395216Y538451D1*
X392653Y539887D1*
X388903Y543419D1*
X390756Y534921D1*
X391449Y527608D1*
X391272Y519494D1*
X390260Y512219D1*
X388453Y505100D1*
X385871Y498223D1*
X382546Y491673D1*
X378520Y485530D1*
X373840Y479868D1*
X368565Y474757D1*
X362758Y470259D1*
X356490Y466428D1*
X349838Y463313D1*
X342883Y460950D1*
X335710Y459368D1*
X328407Y458587D1*
X321061Y458617D1*
X313764Y459456D1*
X306604Y461095D1*
X299668Y463514D1*
X293042Y466683D1*
X286805Y470563D1*
X281034Y475108D1*
X275800Y480261D1*
X271166Y485960D1*
X267189Y492135D1*
X263917Y498712D1*
X261390Y505609D1*
X259639Y512743D1*
X258686Y520026D1*
X258542Y527370D1*
X259209Y534685D1*
X260678Y541882D1*
X262933Y548872D1*
X265944Y555572D1*
X269676Y561899D1*
X274083Y567775D1*
X279111Y573130D1*
X284699Y577897D1*
X290779Y582019D1*
X297276Y585445D1*
X304112Y588134D1*
X311202Y590053D1*
X318461Y591178D1*
X325799Y591495D1*
X333128Y591001D1*
X340358Y589702D1*
X343431Y588890D1*
X244830Y687493D1*
X181210Y687500D1*
X181185Y593815D1*
X68815D1*
Y687494D1*
X37530Y687500D1*
X37500Y350022D1*
X176711Y349882D1*
X179554Y349141D1*
X182146Y347756D1*
X184343Y345805D1*
X280633Y237478D1*
X501955Y237346D1*
X504784Y236549D1*
X507347Y235113D1*
X509505Y233118D1*
X511138Y230675D1*
X512155Y227918D1*
X512500Y225000D1*
Y37505D1*
X1487497Y37500D1*
X1487654Y226955D1*
X1488451Y229784D1*
X1489887Y232347D1*
X1491882Y234505D1*
X1494325Y236138D1*
X1497082Y237155D1*
X1500000Y237500D1*
X1701955Y237346D1*
X1704784Y236549D1*
X1707347Y235113D1*
X1709505Y233118D1*
X1711138Y230675D1*
X1712155Y227918D1*
X1712500Y225000D1*
Y37505D1*
X1894823Y37500D1*
X1962487Y105165D1*
X1962500Y178838D1*
X1931169Y147479D1*
X1931185Y118815D1*
X1818815D1*
Y231185D1*
X1837941D1*
X1832825Y236303D1*
X1828344Y242121D1*
X1824659Y248474D1*
X1821835Y255253D1*
X1819919Y262342D1*
X1818944Y269621D1*
X1818927Y276965D1*
X1819867Y284248D1*
X1821750Y291347D1*
X1824542Y298139D1*
X1828197Y304509D1*
X1832651Y310348D1*
X1837828Y315556D1*
X1843641Y320044D1*
X1849989Y323736D1*
X1856765Y326569D1*
X1863852Y328493D1*
X1871130Y329477D1*
X1878473Y329503D1*
X1885758Y328571D1*
X1892859Y326696D1*
X1896001Y325533D1*
X1896000Y536714D1*
X1771729Y536689D1*
X1771728Y813311D1*
Y963311D1*
X1796094D1*
X1796226Y1190854D1*
X1797245Y1197286D1*
X1799257Y1203480D1*
X1802214Y1209282D1*
X1806042Y1214551D1*
X1818834Y1227524D1*
X1818815Y1281185D1*
X1837941D1*
X1832825Y1286303D1*
X1828344Y1292121D1*
X1824659Y1298474D1*
X1821835Y1305253D1*
X1819919Y1312342D1*
X1818944Y1319621D1*
X1818927Y1326965D1*
X1819867Y1334248D1*
X1821750Y1341347D1*
X1824542Y1348139D1*
X1828197Y1354509D1*
X1832651Y1360348D1*
X1837828Y1365556D1*
X1843641Y1370044D1*
X1849989Y1373736D1*
X1856765Y1376569D1*
X1863852Y1378493D1*
X1871130Y1379477D1*
X1878473Y1379503D1*
X1885758Y1378571D1*
X1892859Y1376696D1*
X1899654Y1373912D1*
X1906029Y1370265D1*
X1911873Y1365818D1*
X1917087Y1360647D1*
X1921582Y1354839D1*
X1925282Y1348495D1*
X1928122Y1341723D1*
X1930055Y1334638D1*
X1931047Y1327362D1*
X1931065Y1319753D1*
X1930107Y1312472D1*
X1928208Y1305378D1*
X1925399Y1298593D1*
X1921730Y1292231D1*
X1917262Y1286403D1*
X1912045Y1281183D1*
X1931185Y1281185D1*
Y1168815D1*
X1879117D1*
X1879098Y963286D1*
X1903469Y963311D1*
Y916482D1*
X1915756Y916372D1*
X1922188Y915353D1*
X1928381Y913341D1*
X1934184Y910385D1*
X1939452Y906557D1*
X1962517Y883673D1*
X1962500Y1394809D1*
X1894835Y1462487D1*
X1712501Y1462500D1*
X1712346Y1273045D1*
X1711549Y1270216D1*
X1710113Y1267653D1*
X1708118Y1265495D1*
X1705675Y1263862D1*
X1702918Y1262845D1*
X1700000Y1262500D1*
X1391504D1*
X1390681Y1252097D1*
X1388245Y1241950D1*
X1384252Y1232310D1*
X1378800Y1223412D1*
X1372023Y1215477D1*
X1364088Y1208700D1*
X1360781Y1206491D1*
X1406374Y1206500D1*
Y1232800D1*
X1522366D1*
Y1208291D1*
X1550699Y1208175D1*
X1555582Y1207402D1*
X1560283Y1205874D1*
X1564687Y1203630D1*
X1568686Y1200725D1*
X1571819Y1197903D1*
X1574255Y1208050D1*
X1578248Y1217690D1*
X1583700Y1226588D1*
X1590477Y1234523D1*
X1598412Y1241300D1*
X1607310Y1246752D1*
X1616950Y1250745D1*
X1627097Y1253181D1*
X1637500Y1254000D1*
X1647903Y1253181D1*
X1658050Y1250745D1*
X1667690Y1246752D1*
X1676588Y1241300D1*
X1684523Y1234523D1*
X1691300Y1226588D1*
X1696752Y1217690D1*
X1700745Y1208050D1*
X1703181Y1197903D1*
X1704000Y1187500D1*
X1703181Y1177097D1*
X1701149Y1168383D1*
X1723953Y1145458D1*
X1726858Y1141459D1*
X1729102Y1137055D1*
X1730630Y1132354D1*
X1731403Y1127471D1*
X1731500Y1060696D1*
X1731403Y910029D1*
X1730630Y905146D1*
X1729102Y900445D1*
X1726858Y896041D1*
X1723953Y892042D1*
X1690886Y858838D1*
X1690870Y536689D1*
X1586511Y536659D1*
X1580318Y534647D1*
X1573886Y533628D1*
X1550000Y533500D1*
X1543508Y534011D1*
X1537176Y535531D1*
X1531159Y538023D1*
X1525607Y541426D1*
X1520655Y545655D1*
X1516426Y550607D1*
X1513023Y556159D1*
X1510531Y562176D1*
X1509011Y568508D1*
X1508500Y575000D1*
X1509011Y581492D1*
X1510531Y587824D1*
X1513023Y593841D1*
X1516426Y599393D1*
X1520655Y604345D1*
X1525607Y608574D1*
X1531159Y611977D1*
X1537176Y614469D1*
X1543508Y615989D1*
X1550000Y616500D1*
X1559150D1*
X1559130Y714571D1*
X1395655Y551244D1*
X1391656Y548339D1*
X1387251Y546095D1*
X1382550Y544567D1*
X1377668Y543794D1*
X1329445Y543697D1*
X1329453Y536886D1*
X1233146D1*
Y581131D1*
X1223129Y581098D1*
X1223154Y536886D1*
X1216515D1*
X1216664Y530271D1*
X1220887Y523381D1*
X1223979Y515914D1*
X1225866Y508056D1*
X1226500Y500000D1*
X1225866Y491944D1*
X1223979Y484086D1*
X1220887Y476619D1*
X1216664Y469729D1*
X1211416Y463584D1*
X1205271Y458336D1*
X1198381Y454113D1*
X1192085Y451453D1*
X1195458Y448953D1*
X1222274Y422274D1*
X1225484Y418515D1*
X1228067Y414301D1*
X1229958Y409734D1*
X1231112Y404928D1*
X1231500Y399990D1*
Y363075D1*
X1238031Y356517D1*
X1284101Y356500D1*
X1284130Y413311D1*
X1415870D1*
Y306506D1*
X1461923Y306500D1*
X1478937Y323485D1*
X1468500Y323500D1*
Y426500D1*
X1477686D1*
X1568316Y963311D2*
X1606031D1*
X1606000Y966459D1*
X1598412Y971200D1*
X1590477Y977977D1*
X1583700Y985912D1*
X1582397Y987863D1*
X1570458Y976047D1*
X1566459Y973142D1*
X1562055Y970898D1*
X1557354Y969370D1*
X1552471Y968597D1*
X1485696Y968500D1*
X1463053D1*
X1456466Y961918D1*
X1456460Y916361D1*
X1475083Y916362D1*
X1475122Y757177D1*
X1480988Y763036D1*
X1481097Y889971D1*
X1481870Y894854D1*
X1483398Y899555D1*
X1485642Y903959D1*
X1488547Y907958D1*
X1527726Y947274D1*
X1531485Y950484D1*
X1535699Y953067D1*
X1540266Y954958D1*
X1545072Y956112D1*
X1550010Y956500D1*
X1559130Y960180D1*
Y963311D1*
X1568316D1*
X1384065Y1100122D2*
X1543508Y1100162D1*
X1543500Y1136923D1*
X1535193Y1145260D1*
X1522356Y1145272D1*
X1522366Y1120744D1*
X1406374D1*
Y1143531D1*
X1363019Y1143500D1*
X1320450Y1101041D1*
X1320458Y1098953D1*
X1338031Y1081517D1*
X1374843Y1081500D1*
X1374878Y1100122D1*
X1384065D1*
X1293511Y1203976D2*
X1285912Y1208700D1*
X1277977Y1215477D1*
X1271200Y1223412D1*
X1265748Y1232310D1*
X1261755Y1241950D1*
X1259319Y1252097D1*
X1258501Y1262480D1*
X1162491Y1262500D1*
X1162500Y1213315D1*
X1253469Y1213311D1*
Y1156506D1*
X1286962Y1156500D1*
X1293483Y1163031D1*
X1293500Y1203934D1*
X1606509Y1083803D2*
X1612052Y1086438D1*
X1621976Y1089663D1*
X1632282Y1091295D1*
X1642718D1*
X1653024Y1089663D1*
X1662948Y1086438D1*
X1668491Y1083803D1*
X1668500Y1111980D1*
X1656640Y1123812D1*
X1647903Y1121819D1*
X1637500Y1121000D1*
X1627097Y1121819D1*
X1616950Y1124255D1*
X1607310Y1128248D1*
X1606509Y1128697D1*
X1606500Y1083865D1*
X1099482Y968671D2*
X1096074Y963107D1*
X525000Y525000D2*
D14*
Y468536D1*
X473536Y525000D2*
X576464D1*
X125000Y650000D2*
Y593851D1*
X68851Y650000D2*
X181149D1*
X1875000Y1379574D2*
Y1323425D1*
X1818851D2*
X1931149D1*
X1875000Y329574D2*
Y273425D1*
X1818851D2*
X1875000D1*
X1837598Y575000D2*
Y536725D1*
X1771765Y575000D2*
X1837598D1*
X1425000Y787500D2*
Y737414D1*
X1374914Y787500D2*
X1475086D1*
X975000Y197500D2*
Y141036D1*
X923536Y197500D2*
X1026464D1*
X325000Y591464D2*
Y458536D1*
X258536Y525000D2*
X391464D1*
X1187598Y1213275D2*
Y1175000D1*
X1253433D1*
X1350000Y413275D2*
Y375000D1*
X1284166D2*
X1415834D1*
X1137402Y225000D2*
Y186725D1*
X1071567Y225000D2*
X1203236D1*
X1281299Y688275D2*
Y650000D1*
X1233182D2*
X1329417D1*
D21*
X1525000Y375000D3*
X1615000D3*
D22*
X525000Y525000D3*
Y615000D3*
Y875000D3*
Y965000D3*
D24*
X125000Y650000D3*
D25*
Y748425D3*
Y848425D3*
D24*
Y1225000D3*
D25*
Y1323425D3*
D24*
Y175000D3*
D25*
Y273425D3*
D24*
X1875000Y1225000D3*
D25*
Y1323425D3*
D24*
Y175000D3*
D25*
Y273425D3*
D26*
X1625000Y925000D3*
Y875000D3*
Y825000D3*
Y775000D3*
Y725000D3*
Y675000D3*
Y625000D3*
Y575000D3*
X1837598D3*
Y625000D3*
Y675000D3*
Y725000D3*
Y775000D3*
Y825000D3*
Y875000D3*
Y925000D3*
D21*
X475000Y1150000D3*
X565000D3*
X475000Y350000D3*
X565000D3*
D22*
X750000Y425000D3*
Y335000D3*
Y1150000D3*
Y1240000D3*
D21*
X975000Y1325000D3*
X1065000D3*
D28*
X1425000Y787500D3*
D29*
X1298228Y826870D3*
D28*
X1424960Y866240D3*
X1425000Y1050000D3*
D31*
X1464370Y1176772D3*
D28*
X1503740Y1050040D3*
D22*
X975000Y600000D3*
Y510000D3*
Y287500D3*
Y197500D3*
D32*
X325000Y525000D3*
Y750000D3*
Y975000D3*
Y1150000D3*
Y350000D3*
X1325000Y1262500D3*
Y975000D3*
X1637500Y1025000D3*
Y1187500D3*
D26*
X975000Y1175000D3*
Y1125000D3*
Y1075000D3*
Y1025000D3*
X1187598D3*
Y1075000D3*
Y1125000D3*
Y1175000D3*
X1350000Y225000D3*
Y275000D3*
Y325000D3*
Y375000D3*
X1137402D3*
Y325000D3*
Y275000D3*
Y225000D3*
D34*
X1175000Y650000D3*
Y612598D3*
Y575197D3*
X1281299D3*
Y650000D3*
M02*
