G04 DipTrace 3.3.1.3*
G04 TopMask.gbr*
%MOIN*%
G04 #@! TF.FileFunction,Soldermask,Top*
G04 #@! TF.Part,Single*
%ADD36C,0.125*%
%ADD44R,0.051187X0.031502*%
%ADD46C,0.08788*%
%ADD48R,0.070872X0.066935*%
%ADD50R,0.066935X0.070872*%
%ADD52R,0.055124X0.055124*%
%ADD54R,0.08662X0.031502*%
%ADD56C,0.06725*%
%ADD58R,0.06725X0.06725*%
%ADD60R,0.05788X0.06788*%
%ADD62R,0.06788X0.05788*%
%FSLAX26Y26*%
G04*
G70*
G90*
G75*
G01*
G04 TopMask*
%LPD*%
D62*
X1525000Y375000D3*
X1615000D3*
D60*
X525000Y525000D3*
Y615000D3*
Y875000D3*
Y965000D3*
D36*
X400000Y125000D3*
X1600000D3*
X400000Y1375000D3*
X1600000D3*
D58*
X125000Y650000D3*
D56*
Y748425D3*
Y848425D3*
D58*
Y1225000D3*
D56*
Y1323425D3*
D58*
Y175000D3*
D56*
Y273425D3*
D58*
X1875000Y1225000D3*
D56*
Y1323425D3*
D58*
Y175000D3*
D56*
Y273425D3*
D54*
X1625000Y925000D3*
Y875000D3*
Y825000D3*
Y775000D3*
Y725000D3*
Y675000D3*
Y625000D3*
Y575000D3*
X1837598D3*
Y625000D3*
Y675000D3*
Y725000D3*
Y775000D3*
Y825000D3*
Y875000D3*
Y925000D3*
D62*
X475000Y1150000D3*
X565000D3*
X475000Y350000D3*
X565000D3*
D60*
X750000Y425000D3*
Y335000D3*
Y1150000D3*
Y1240000D3*
D62*
X975000Y1325000D3*
X1065000D3*
D52*
X1425000Y787500D3*
D50*
X1298228Y826870D3*
D52*
X1424960Y866240D3*
X1425000Y1050000D3*
D48*
X1464370Y1176772D3*
D52*
X1503740Y1050040D3*
D60*
X975000Y600000D3*
Y510000D3*
Y287500D3*
Y197500D3*
D46*
X325000Y525000D3*
Y750000D3*
Y975000D3*
Y1150000D3*
Y350000D3*
X1325000Y1262500D3*
Y975000D3*
X1637500Y1025000D3*
Y1187500D3*
D54*
X975000Y1175000D3*
Y1125000D3*
Y1075000D3*
Y1025000D3*
X1187598D3*
Y1075000D3*
Y1125000D3*
Y1175000D3*
X1350000Y225000D3*
Y275000D3*
Y325000D3*
Y375000D3*
X1137402D3*
Y325000D3*
Y275000D3*
Y225000D3*
D44*
X1175000Y650000D3*
Y612598D3*
Y575197D3*
X1281299D3*
Y650000D3*
M02*
