G04 DipTrace 3.3.1.3*
G04 TopSilk.gbr*
%MOIN*%
G04 #@! TF.FileFunction,Legend,Top*
G04 #@! TF.Part,Single*
%ADD10C,0.009843*%
%ADD12C,0.003*%
%ADD16C,0.01*%
%ADD19C,0.02*%
%ADD20C,0.012*%
%ADD23C,0.05*%
%ADD27C,0.015761*%
%ADD30C,0.015748*%
%ADD33C,0.015395*%
%ADD64C,0.006562*%
%ADD65C,0.008749*%
%ADD66C,0.004632*%
%FSLAX26Y26*%
G04*
G70*
G90*
G75*
G01*
G04 TopSilk*
%LPD*%
X1475000Y420000D2*
D20*
X1549993D1*
X1475000Y330000D2*
X1549993D1*
X1590007D2*
X1665000D1*
X1590007Y420000D2*
X1665000D1*
X1475000Y330000D2*
Y420000D1*
X1665000Y330000D2*
Y420000D1*
X480000Y475000D2*
Y549993D1*
X570000Y475000D2*
Y549993D1*
Y590007D2*
Y665000D1*
X480000Y590007D2*
Y665000D1*
X570000Y475000D2*
X480000D1*
X570000Y665000D2*
X480000D1*
Y825000D2*
Y899993D1*
X570000Y825000D2*
Y899993D1*
Y940007D2*
Y1015000D1*
X480000Y940007D2*
Y1015000D1*
X570000Y825000D2*
X480000D1*
X570000Y1015000D2*
X480000D1*
D23*
X125000Y474213D3*
X25000Y549213D2*
D10*
X225000D1*
Y949213D1*
X25000D1*
Y549213D1*
D23*
X125000Y1049213D3*
X25000Y1124213D2*
D10*
X225000D1*
Y1424213D1*
X25000D1*
Y1124213D1*
D23*
X125000Y-787D3*
X25000Y74213D2*
D10*
X225000D1*
Y374213D1*
X25000D1*
Y74213D1*
D23*
X1875000Y1049213D3*
X1775000Y1124213D2*
D10*
X1975000D1*
Y1424213D1*
X1775000D1*
Y1124213D1*
D23*
X1875000Y-787D3*
X1775000Y74213D2*
D10*
X1975000D1*
Y374213D1*
X1775000D1*
Y74213D1*
X1680111Y946835D2*
Y553165D1*
X1782487Y946835D2*
Y553165D1*
X1680111D2*
X1782487D1*
X1680111Y946835D2*
X1711605D1*
X1750994D2*
X1782487D1*
X1711605D2*
G03X1750994Y946835I19694J11D01*
G01*
X425000Y1195000D2*
D20*
X499993D1*
X425000Y1105000D2*
X499993D1*
X540007D2*
X615000D1*
X540007Y1195000D2*
X615000D1*
X425000Y1105000D2*
Y1195000D1*
X615000Y1105000D2*
Y1195000D1*
X425000Y395000D2*
X499993D1*
X425000Y305000D2*
X499993D1*
X540007D2*
X615000D1*
X540007Y395000D2*
X615000D1*
X425000Y305000D2*
Y395000D1*
X615000Y305000D2*
Y395000D1*
X795000Y475000D2*
Y400007D1*
X705000Y475000D2*
Y400007D1*
Y359993D2*
Y285000D1*
X795000Y359993D2*
Y285000D1*
X705000Y475000D2*
X795000D1*
X705000Y285000D2*
X795000D1*
X705000Y1100000D2*
Y1174993D1*
X795000Y1100000D2*
Y1174993D1*
Y1215007D2*
Y1290000D1*
X705000Y1215007D2*
Y1290000D1*
X795000Y1100000D2*
X705000D1*
X795000Y1290000D2*
X705000D1*
X925000Y1370000D2*
X999993D1*
X925000Y1280000D2*
X999993D1*
X1040007D2*
X1115000D1*
X1040007Y1370000D2*
X1115000D1*
X925000Y1280000D2*
Y1370000D1*
X1115000Y1280000D2*
Y1370000D1*
X1380371Y767809D2*
D10*
X1284320D1*
X1380371Y885931D2*
X1284320Y885919D1*
Y767821D2*
X1284300Y781591D1*
X1284320Y885931D2*
X1284300Y872149D1*
D27*
X1461595Y787500D3*
X1405309Y1094629D2*
D10*
Y1190680D1*
X1523431Y1094629D2*
X1523419Y1190680D1*
X1405321D2*
X1419091Y1190700D1*
X1523431Y1190680D2*
X1509649Y1190700D1*
D30*
X1425000Y1013405D3*
X1020000Y650000D2*
D20*
Y575007D1*
X930000Y650000D2*
Y575007D1*
Y534993D2*
Y460000D1*
X1020000Y534993D2*
Y460000D1*
X930000Y650000D2*
X1020000D1*
X930000Y460000D2*
X1020000D1*
Y337500D2*
Y262507D1*
X930000Y337500D2*
Y262507D1*
Y222493D2*
Y147500D1*
X1020000Y222493D2*
Y147500D1*
X930000Y337500D2*
X1020000D1*
X930000Y147500D2*
X1020000D1*
X275000Y525000D2*
D10*
G02X275000Y525000I50000J0D01*
G01*
Y750000D2*
G02X275000Y750000I50000J0D01*
G01*
Y975000D2*
G02X275000Y975000I50000J0D01*
G01*
Y1150000D2*
G02X275000Y1150000I50000J0D01*
G01*
Y350000D2*
G02X275000Y350000I50000J0D01*
G01*
X1275000Y1262500D2*
G02X1275000Y1262500I50000J0D01*
G01*
Y975000D2*
G02X1275000Y975000I50000J0D01*
G01*
X1587500Y1025000D2*
G02X1587500Y1025000I50000J0D01*
G01*
Y1187500D2*
G02X1587500Y1187500I50000J0D01*
G01*
X1030111Y1198427D2*
Y1001573D1*
X1132487Y1198427D2*
Y1001573D1*
X1030111D2*
X1132487D1*
X1061605Y1198427D2*
X1030111D1*
X1100994D2*
X1132487D1*
X1061605D2*
G03X1100994Y1198427I19694J9D01*
G01*
X1294889Y201573D2*
Y398427D1*
X1192513Y201573D2*
Y398427D1*
X1294889D2*
X1192513D1*
X1263395Y201573D2*
X1294889D1*
X1224006D2*
X1192513D1*
X1263395D2*
G03X1224006Y201573I-19694J-9D01*
G01*
D33*
X1158375Y676914D3*
X1212440Y671651D2*
D10*
Y553543D1*
X1243931Y671651D2*
Y553543D1*
X1212440D2*
X1243931D1*
X1212440Y671651D2*
X1243931D1*
X100000Y1487500D2*
D16*
X1900000D1*
X100000Y12500D2*
X1900000D1*
X12500Y1400000D2*
Y100000D1*
X1987500Y1400000D2*
Y100000D1*
X12500Y1400000D2*
G02X100000Y1487500I85417J2083D01*
G01*
Y12500D2*
G02X12500Y100000I-2083J85417D01*
G01*
X1987500D2*
G02X1900000Y12500I-85417J-2083D01*
G01*
Y1487500D2*
G02X1987500Y1400000I2083J-85417D01*
G01*
X312500Y125000D2*
D19*
G02X312500Y125000I87500J0D01*
G01*
Y1375000D2*
G02X312500Y1375000I87500J0D01*
G01*
X1512500Y125000D2*
G02X1512500Y125000I87500J0D01*
G01*
Y1375000D2*
G02X1512500Y1375000I87500J0D01*
G01*
X716781Y877719D2*
D12*
X731781D1*
X632781Y874719D2*
X674781D1*
X713895D2*
X734667D1*
X631755Y871719D2*
X677191D1*
X711291D2*
X737280D1*
X755781D2*
X767781D1*
X630862Y868719D2*
X678946D1*
X709139D2*
X739536D1*
X750834D2*
X771690D1*
X630294Y865719D2*
X679950D1*
X707514D2*
X741642D1*
X745853D2*
X774691D1*
X629999Y862719D2*
X680438D1*
X706311D2*
X776851D1*
X629861Y859719D2*
X680648D1*
X706666D2*
X778289D1*
X656781Y856719D2*
X680732D1*
X707635D2*
X778996D1*
X656781Y853719D2*
X680764D1*
X709234D2*
X778994D1*
X911781D2*
X923781D1*
X656781Y850719D2*
X680775D1*
X711439D2*
X778316D1*
X910280D2*
X922755D1*
X656781Y847719D2*
X680779D1*
X714053D2*
X737191D1*
X747226D2*
X777001D1*
X908526D2*
X921851D1*
X656781Y844719D2*
X680769D1*
X716880D2*
X735957D1*
X748738D2*
X774830D1*
X906681D2*
X921176D1*
X656781Y841719D2*
X680663D1*
X719781D2*
X734068D1*
X752032D2*
X771601D1*
X904644D2*
X920500D1*
X1043781D2*
X1064781D1*
X656781Y838719D2*
X680281D1*
X717806D2*
X731937D1*
X755781D2*
X767781D1*
X902222D2*
X919638D1*
X1039522D2*
X1062932D1*
X656769Y835719D2*
X679563D1*
X715699D2*
X729866D1*
X899307D2*
X918700D1*
X1036162D2*
X1061327D1*
X656664Y832719D2*
X678794D1*
X713280D2*
X727720D1*
X895587D2*
X917690D1*
X1033565D2*
X1060114D1*
X656281Y829719D2*
X678270D1*
X710679D2*
X725274D1*
X890941D2*
X916363D1*
X1032640D2*
X1059393D1*
X655563Y826719D2*
X677992D1*
X708194D2*
X722575D1*
X886193D2*
X914781D1*
X1032118D2*
X1059018D1*
X654794Y823719D2*
X677865D1*
X705967D2*
X719812D1*
X743781D2*
X767781D1*
X812781D2*
X848781D1*
X882489D2*
X932781D1*
X965781D2*
X1097781D1*
X1130781D2*
X1154781D1*
X1169781D2*
X1193781D1*
X654270Y820719D2*
X677812D1*
X703757D2*
X717248D1*
X743317D2*
X766744D1*
X806559D2*
X852002D1*
X879929D2*
X930000D1*
X959662D2*
X1096282D1*
X1130317D2*
X1153744D1*
X1169667D2*
X1193317D1*
X653992Y817719D2*
X677780D1*
X701287D2*
X714987D1*
X742562D2*
X765745D1*
X801198D2*
X854364D1*
X877833D2*
X926007D1*
X954591D2*
X1095036D1*
X1129562D2*
X1152745D1*
X1169282D2*
X1192562D1*
X653865Y814719D2*
X677668D1*
X698580D2*
X712764D1*
X741680D2*
X764794D1*
X796943D2*
X856041D1*
X875781D2*
X920759D1*
X950767D2*
X1093869D1*
X1128680D2*
X1151794D1*
X1168551D2*
X1191680D1*
X653812Y811719D2*
X677283D1*
X695813D2*
X710290D1*
X740772D2*
X763782D1*
X793867D2*
X819359D1*
X831370D2*
X855982D1*
X882156D2*
X915708D1*
X948018D2*
X972256D1*
X989317D2*
X1004203D1*
X1040317D2*
X1052317D1*
X1070317D2*
X1092801D1*
X1127772D2*
X1150770D1*
X1167677D2*
X1190772D1*
X653792Y808719D2*
X676563D1*
X693249D2*
X707581D1*
X739763D2*
X762868D1*
X791700D2*
X817499D1*
X832605D2*
X854406D1*
X887781D2*
X911587D1*
X945942D2*
X970117D1*
X988562D2*
X1006072D1*
X1039562D2*
X1051562D1*
X1069573D2*
X1091817D1*
X1126763D2*
X1149763D1*
X1166771D2*
X1189763D1*
X653785Y805719D2*
X675794D1*
X690988D2*
X704814D1*
X738761D2*
X762185D1*
X790254D2*
X816112D1*
X834531D2*
X851903D1*
X886282D2*
X909672D1*
X944302D2*
X968382D1*
X987680D2*
X1007543D1*
X1038680D2*
X1050680D1*
X1068785D2*
X1090790D1*
X1125761D2*
X1148803D1*
X1165762D2*
X1188761D1*
X653770Y802719D2*
X675282D1*
X688752D2*
X702249D1*
X737802D2*
X761504D1*
X789446D2*
X814906D1*
X836781D2*
X848781D1*
X885036D2*
X908147D1*
X943096D2*
X967020D1*
X986760D2*
X1009079D1*
X1037760D2*
X1049760D1*
X1068154D2*
X1089872D1*
X1124802D2*
X1147774D1*
X1164761D2*
X1187802D1*
X653664Y799719D2*
X675118D1*
X686164D2*
X699988D1*
X736774D2*
X760639D1*
X789056D2*
X813938D1*
X883869D2*
X907008D1*
X942398D2*
X965915D1*
X985657D2*
X1010781D1*
X1036657D2*
X1048657D1*
X1067493D2*
X1089187D1*
X1123774D2*
X1146765D1*
X1163802D2*
X1186774D1*
X653281Y796719D2*
X675454D1*
X682980D2*
X697764D1*
X735764D2*
X759700D1*
X788887D2*
X813448D1*
X882789D2*
X906224D1*
X942163D2*
X964998D1*
X984331D2*
X1009270D1*
X1035376D2*
X1047376D1*
X1066635D2*
X1088502D1*
X1122636D2*
X1145801D1*
X1162727D2*
X1185756D1*
X652563Y793719D2*
X676426D1*
X679087D2*
X695290D1*
X734804D2*
X758690D1*
X788820D2*
X813351D1*
X881689D2*
X905394D1*
X942252D2*
X964377D1*
X982579D2*
X1007907D1*
X1034054D2*
X1046054D1*
X1065708D2*
X1087623D1*
X1121318D2*
X1144758D1*
X1161252D2*
X1184711D1*
X651794Y790719D2*
X692569D1*
X733786D2*
X757363D1*
X788794D2*
X814634D1*
X880173D2*
X904040D1*
X943589D2*
X965040D1*
X980278D2*
X1006252D1*
X1032846D2*
X1044846D1*
X1064794D2*
X1086673D1*
X1114498D2*
X1143725D1*
X1159204D2*
X1183370D1*
X651270Y787719D2*
X689685D1*
X732893D2*
X755781D1*
X788781D2*
X816548D1*
X878111D2*
X902060D1*
X945531D2*
X972422D1*
X974995D2*
X1004048D1*
X1031781D2*
X1043781D1*
X1063907D2*
X1085781D1*
X1102014D2*
X1142781D1*
X1153122D2*
X1181781D1*
X650992Y784719D2*
X686623D1*
X732429D2*
X1001231D1*
X1063181D2*
X1211781D1*
X650865Y781719D2*
X683180D1*
X732336D2*
X785229D1*
X795884D2*
X941229D1*
X951884D2*
X997485D1*
X1063757D2*
X1209970D1*
X650811Y778719D2*
X679162D1*
X733414D2*
X781177D1*
X800989D2*
X872781D1*
X878781D2*
X937177D1*
X956989D2*
X992510D1*
X1065644D2*
X1112781D1*
X1122884D2*
X1203517D1*
X650781Y775719D2*
X674781D1*
X734781D2*
X776781D1*
X806781D2*
X869781D1*
X881781D2*
X932781D1*
X962781D2*
X986781D1*
X1067781D2*
X1106781D1*
X1127989D2*
X1192618D1*
X1133781Y772719D2*
X1148895D1*
X1154317D2*
X1178781D1*
X1131932Y769719D2*
X1146291D1*
X1153562D2*
X1177641D1*
X1130327Y766719D2*
X1144128D1*
X1152680D2*
X1176352D1*
X1129114Y763719D2*
X1142396D1*
X1151772D2*
X1174947D1*
X1128395Y760719D2*
X1141161D1*
X1150751D2*
X1173396D1*
X1128038Y757719D2*
X1140352D1*
X1149626D2*
X1171628D1*
X1127893Y754719D2*
X1140755D1*
X1148120D2*
X1169679D1*
X1127959Y751719D2*
X1142990D1*
X1145755D2*
X1167622D1*
X1128244Y748719D2*
X1165043D1*
X1129743Y745719D2*
X1161423D1*
X1133034Y742719D2*
X1156822D1*
X1136781Y739719D2*
X1151781D1*
X716781Y877719D2*
X713895Y874719D1*
X711291Y871719D1*
X709139Y868719D1*
X707514Y865719D1*
X706311Y862719D1*
X706666Y859719D1*
X707635Y856719D1*
X709234Y853719D1*
X711439Y850719D1*
X714053Y847719D1*
X716880Y844719D1*
X719781Y841719D1*
X717806Y838719D1*
X715699Y835719D1*
X713280Y832719D1*
X710679Y829719D1*
X708194Y826719D1*
X705967Y823719D1*
X703757Y820719D1*
X701287Y817719D1*
X698580Y814719D1*
X695813Y811719D1*
X693249Y808719D1*
X690988Y805719D1*
X688752Y802719D1*
X686164Y799719D1*
X682980Y796719D1*
X679087Y793719D1*
X674781Y790719D1*
X731781Y877719D2*
X734667Y874719D1*
X737280Y871719D1*
X739536Y868719D1*
X741642Y865719D1*
X743781Y862719D1*
X632781Y874719D2*
X631755Y871719D1*
X630862Y868719D1*
X630294Y865719D1*
X629999Y862719D1*
X629861Y859719D1*
X629781Y856719D1*
X656781D1*
Y853719D1*
Y850719D1*
Y847719D1*
Y844719D1*
Y841719D1*
Y838719D1*
X656769Y835719D1*
X656664Y832719D1*
X656281Y829719D1*
X655563Y826719D1*
X654794Y823719D1*
X654270Y820719D1*
X653992Y817719D1*
X653865Y814719D1*
X653812Y811719D1*
X653792Y808719D1*
X653785Y805719D1*
X653770Y802719D1*
X653664Y799719D1*
X653281Y796719D1*
X652563Y793719D1*
X651794Y790719D1*
X651270Y787719D1*
X650992Y784719D1*
X650865Y781719D1*
X650811Y778719D1*
X650781Y775719D1*
X674781Y874719D2*
X677191Y871719D1*
X678946Y868719D1*
X679950Y865719D1*
X680438Y862719D1*
X680648Y859719D1*
X680732Y856719D1*
X680764Y853719D1*
X680775Y850719D1*
X680779Y847719D1*
X680769Y844719D1*
X680663Y841719D1*
X680281Y838719D1*
X679563Y835719D1*
X678794Y832719D1*
X678270Y829719D1*
X677992Y826719D1*
X677865Y823719D1*
X677812Y820719D1*
X677780Y817719D1*
X677668Y814719D1*
X677283Y811719D1*
X676563Y808719D1*
X675794Y805719D1*
X675282Y802719D1*
X675118Y799719D1*
X675454Y796719D1*
X676426Y793719D1*
X677781Y790719D1*
X755781Y871719D2*
X750834Y868719D1*
X745853Y865719D1*
X740781Y862719D1*
X767781Y871719D2*
X771690Y868719D1*
X774691Y865719D1*
X776851Y862719D1*
X778289Y859719D1*
X778996Y856719D1*
X778994Y853719D1*
X778316Y850719D1*
X777001Y847719D1*
X774830Y844719D1*
X771601Y841719D1*
X767781Y838719D1*
X911781Y853719D2*
X910280Y850719D1*
X908526Y847719D1*
X906681Y844719D1*
X904644Y841719D1*
X902222Y838719D1*
X899307Y835719D1*
X895587Y832719D1*
X890941Y829719D1*
X886193Y826719D1*
X882489Y823719D1*
X879929Y820719D1*
X877833Y817719D1*
X875781Y814719D1*
X882156Y811719D1*
X887781Y808719D1*
X886282Y805719D1*
X885036Y802719D1*
X883869Y799719D1*
X882789Y796719D1*
X881689Y793719D1*
X880173Y790719D1*
X878111Y787719D1*
X875781Y784719D1*
X923781Y853719D2*
X922755Y850719D1*
X921851Y847719D1*
X921176Y844719D1*
X920500Y841719D1*
X919638Y838719D1*
X918700Y835719D1*
X917690Y832719D1*
X916363Y829719D1*
X914781Y826719D1*
X932781Y823719D1*
X930000Y820719D1*
X926007Y817719D1*
X920759Y814719D1*
X915708Y811719D1*
X911587Y808719D1*
X909672Y805719D1*
X908147Y802719D1*
X907008Y799719D1*
X906224Y796719D1*
X905394Y793719D1*
X904040Y790719D1*
X902060Y787719D1*
X899781Y784719D1*
X737781Y850719D2*
X737191Y847719D1*
X735957Y844719D1*
X734068Y841719D1*
X731937Y838719D1*
X729866Y835719D1*
X727720Y832719D1*
X725274Y829719D1*
X722575Y826719D1*
X719812Y823719D1*
X717248Y820719D1*
X714987Y817719D1*
X712764Y814719D1*
X710290Y811719D1*
X707581Y808719D1*
X704814Y805719D1*
X702249Y802719D1*
X699988Y799719D1*
X697764Y796719D1*
X695290Y793719D1*
X692569Y790719D1*
X689685Y787719D1*
X686623Y784719D1*
X683180Y781719D1*
X679162Y778719D1*
X674781Y775719D1*
X746781Y850719D2*
X747226Y847719D1*
X748738Y844719D1*
X752032Y841719D1*
X755781Y838719D1*
X1043781Y841719D2*
X1039522Y838719D1*
X1036162Y835719D1*
X1033565Y832719D1*
X1032640Y829719D1*
X1032118Y826719D1*
X1031781Y823719D1*
X1064781Y841719D2*
X1062932Y838719D1*
X1061327Y835719D1*
X1060114Y832719D1*
X1059393Y829719D1*
X1059018Y826719D1*
X1058781Y823719D1*
X743781D2*
X743317Y820719D1*
X742562Y817719D1*
X741680Y814719D1*
X740772Y811719D1*
X739763Y808719D1*
X738761Y805719D1*
X737802Y802719D1*
X736774Y799719D1*
X735764Y796719D1*
X734804Y793719D1*
X733786Y790719D1*
X732893Y787719D1*
X732429Y784719D1*
X732336Y781719D1*
X733414Y778719D1*
X734781Y775719D1*
X767781Y823719D2*
X766744Y820719D1*
X765745Y817719D1*
X764794Y814719D1*
X763782Y811719D1*
X762868Y808719D1*
X762185Y805719D1*
X761504Y802719D1*
X760639Y799719D1*
X759700Y796719D1*
X758690Y793719D1*
X757363Y790719D1*
X755781Y787719D1*
X812781Y823719D2*
X806559Y820719D1*
X801198Y817719D1*
X796943Y814719D1*
X793867Y811719D1*
X791700Y808719D1*
X790254Y805719D1*
X789446Y802719D1*
X789056Y799719D1*
X788887Y796719D1*
X788820Y793719D1*
X788794Y790719D1*
X788781Y787719D1*
X758781Y784719D1*
X848781Y823719D2*
X852002Y820719D1*
X854364Y817719D1*
X856041Y814719D1*
X855982Y811719D1*
X854406Y808719D1*
X851903Y805719D1*
X848781Y802719D1*
X965781Y823719D2*
X959662Y820719D1*
X954591Y817719D1*
X950767Y814719D1*
X948018Y811719D1*
X945942Y808719D1*
X944302Y805719D1*
X943096Y802719D1*
X942398Y799719D1*
X942163Y796719D1*
X942252Y793719D1*
X943589Y790719D1*
X945531Y787719D1*
X947781Y784719D1*
X1097781Y823719D2*
X1096282Y820719D1*
X1095036Y817719D1*
X1093869Y814719D1*
X1092801Y811719D1*
X1091817Y808719D1*
X1090790Y805719D1*
X1089872Y802719D1*
X1089187Y799719D1*
X1088502Y796719D1*
X1087623Y793719D1*
X1086673Y790719D1*
X1085781Y787719D1*
X1115781Y784719D1*
X1130781Y823719D2*
X1130317Y820719D1*
X1129562Y817719D1*
X1128680Y814719D1*
X1127772Y811719D1*
X1126763Y808719D1*
X1125761Y805719D1*
X1124802Y802719D1*
X1123774Y799719D1*
X1122636Y796719D1*
X1121318Y793719D1*
X1114498Y790719D1*
X1102014Y787719D1*
X1085781Y784719D1*
X1154781Y823719D2*
X1153744Y820719D1*
X1152745Y817719D1*
X1151794Y814719D1*
X1150770Y811719D1*
X1149763Y808719D1*
X1148803Y805719D1*
X1147774Y802719D1*
X1146765Y799719D1*
X1145801Y796719D1*
X1144758Y793719D1*
X1143725Y790719D1*
X1142781Y787719D1*
X1157781Y784719D1*
X1169781Y823719D2*
X1169667Y820719D1*
X1169282Y817719D1*
X1168551Y814719D1*
X1167677Y811719D1*
X1166771Y808719D1*
X1165762Y805719D1*
X1164761Y802719D1*
X1163802Y799719D1*
X1162727Y796719D1*
X1161252Y793719D1*
X1159204Y790719D1*
X1153122Y787719D1*
X1145781Y784719D1*
X1193781Y823719D2*
X1193317Y820719D1*
X1192562Y817719D1*
X1191680Y814719D1*
X1190772Y811719D1*
X1189763Y808719D1*
X1188761Y805719D1*
X1187802Y802719D1*
X1186774Y799719D1*
X1185756Y796719D1*
X1184711Y793719D1*
X1183370Y790719D1*
X1181781Y787719D1*
X1211781Y784719D1*
X1209970Y781719D1*
X1203517Y778719D1*
X1192618Y775719D1*
X1178781Y772719D1*
X1177641Y769719D1*
X1176352Y766719D1*
X1174947Y763719D1*
X1173396Y760719D1*
X1171628Y757719D1*
X1169679Y754719D1*
X1167622Y751719D1*
X1165043Y748719D1*
X1161423Y745719D1*
X1156822Y742719D1*
X1151781Y739719D1*
X821781Y814719D2*
X819359Y811719D1*
X817499Y808719D1*
X816112Y805719D1*
X814906Y802719D1*
X813938Y799719D1*
X813448Y796719D1*
X813351Y793719D1*
X814634Y790719D1*
X816548Y787719D1*
X818781Y784719D1*
X830781Y814719D2*
X831370Y811719D1*
X832605Y808719D1*
X834531Y805719D1*
X836781Y802719D1*
X974781Y814719D2*
X972256Y811719D1*
X970117Y808719D1*
X968382Y805719D1*
X967020Y802719D1*
X965915Y799719D1*
X964998Y796719D1*
X964377Y793719D1*
X965040Y790719D1*
X972422Y787719D1*
X980781Y784719D1*
X989781Y814719D2*
X989317Y811719D1*
X988562Y808719D1*
X987680Y805719D1*
X986760Y802719D1*
X985657Y799719D1*
X984331Y796719D1*
X982579Y793719D1*
X980278Y790719D1*
X974995Y787719D1*
X968781Y784719D1*
X1001781Y814719D2*
X1004203Y811719D1*
X1006072Y808719D1*
X1007543Y805719D1*
X1009079Y802719D1*
X1010781Y799719D1*
X1009270Y796719D1*
X1007907Y793719D1*
X1006252Y790719D1*
X1004048Y787719D1*
X1001231Y784719D1*
X997485Y781719D1*
X992510Y778719D1*
X986781Y775719D1*
X1040781Y814719D2*
X1040317Y811719D1*
X1039562Y808719D1*
X1038680Y805719D1*
X1037760Y802719D1*
X1036657Y799719D1*
X1035376Y796719D1*
X1034054Y793719D1*
X1032846Y790719D1*
X1031781Y787719D1*
X1052781Y814719D2*
X1052317Y811719D1*
X1051562Y808719D1*
X1050680Y805719D1*
X1049760Y802719D1*
X1048657Y799719D1*
X1047376Y796719D1*
X1046054Y793719D1*
X1044846Y790719D1*
X1043781Y787719D1*
X1070781Y814719D2*
X1070317Y811719D1*
X1069573Y808719D1*
X1068785Y805719D1*
X1068154Y802719D1*
X1067493Y799719D1*
X1066635Y796719D1*
X1065708Y793719D1*
X1064794Y790719D1*
X1063907Y787719D1*
X1063181Y784719D1*
X1063757Y781719D1*
X1065644Y778719D1*
X1067781Y775719D1*
X788781Y784719D2*
X785229Y781719D1*
X781177Y778719D1*
X776781Y775719D1*
X791781Y784719D2*
X795884Y781719D1*
X800989Y778719D1*
X806781Y775719D1*
X944781Y784719D2*
X941229Y781719D1*
X937177Y778719D1*
X932781Y775719D1*
X947781Y784719D2*
X951884Y781719D1*
X956989Y778719D1*
X962781Y775719D1*
X875781Y781719D2*
X872781Y778719D1*
X869781Y775719D1*
X875781Y781719D2*
X878781Y778719D1*
X881781Y775719D1*
X1118781Y781719D2*
X1112781Y778719D1*
X1106781Y775719D1*
X1118781Y781719D2*
X1122884Y778719D1*
X1127989Y775719D1*
X1133781Y772719D1*
X1131932Y769719D1*
X1130327Y766719D1*
X1129114Y763719D1*
X1128395Y760719D1*
X1128038Y757719D1*
X1127893Y754719D1*
X1127959Y751719D1*
X1128244Y748719D1*
X1129743Y745719D1*
X1133034Y742719D1*
X1136781Y739719D1*
X1151781Y775719D2*
X1148895Y772719D1*
X1146291Y769719D1*
X1144128Y766719D1*
X1142396Y763719D1*
X1141161Y760719D1*
X1140352Y757719D1*
X1140755Y754719D1*
X1142990Y751719D1*
X1145781Y748719D1*
X1154781Y775719D2*
X1154317Y772719D1*
X1153562Y769719D1*
X1152680Y766719D1*
X1151772Y763719D1*
X1150751Y760719D1*
X1149626Y757719D1*
X1148120Y754719D1*
X1145755Y751719D1*
X1142781Y748719D1*
X1570601Y457736D2*
D64*
X1569175Y460588D1*
X1566290Y463473D1*
X1563438Y464899D1*
X1557701D1*
X1554816Y463473D1*
X1551964Y460588D1*
X1550505Y457736D1*
X1549079Y453425D1*
Y446229D1*
X1550505Y441951D1*
X1551964Y439066D1*
X1554816Y436214D1*
X1557701Y434755D1*
X1563438D1*
X1566290Y436214D1*
X1569175Y439066D1*
X1570601Y441951D1*
X1583725Y459129D2*
X1586610Y460588D1*
X1590921Y464866D1*
Y434755D1*
X1687634Y332000D2*
X1689060Y327689D1*
X1693371Y324804D1*
X1700534Y323378D1*
X1704845D1*
X1712008Y324804D1*
X1716319Y327689D1*
X1717745Y332000D1*
Y334852D1*
X1716319Y339163D1*
X1712008Y342014D1*
X1704845Y343474D1*
X1700534D1*
X1693371Y342015D1*
X1689060Y339163D1*
X1687634Y334852D1*
Y332000D1*
X1693371Y342015D2*
X1712008Y324804D1*
X1714860Y358023D2*
X1716319Y356597D1*
X1717745Y358023D1*
X1716319Y359482D1*
X1714860Y358023D1*
X1687634Y375490D2*
Y391242D1*
X1699108Y382653D1*
Y386964D1*
X1700534Y389816D1*
X1701960Y391242D1*
X1706271Y392701D1*
X1709123D1*
X1713434Y391242D1*
X1716319Y388390D1*
X1717745Y384079D1*
Y379768D1*
X1716319Y375490D1*
X1714860Y374064D1*
X1712008Y372605D1*
X1687634Y408710D2*
Y424462D1*
X1699108Y415873D1*
Y420184D1*
X1700534Y423036D1*
X1701960Y424462D1*
X1706271Y425921D1*
X1709123D1*
X1713434Y424462D1*
X1716319Y421610D1*
X1717745Y417299D1*
Y412988D1*
X1716319Y408710D1*
X1714860Y407284D1*
X1712008Y405825D1*
X1697649Y439044D2*
X1712008D1*
X1716286Y440470D1*
X1717745Y443355D1*
Y447666D1*
X1716286Y450518D1*
X1712008Y454829D1*
X1697649D2*
X1717745D1*
X1687601Y486622D2*
Y467952D1*
X1717745D1*
X1701960D2*
Y479426D1*
X511668Y707736D2*
X510242Y710588D1*
X507357Y713473D1*
X504505Y714899D1*
X498768D1*
X495883Y713473D1*
X493031Y710588D1*
X491572Y707736D1*
X490146Y703425D1*
Y696229D1*
X491572Y691951D1*
X493031Y689066D1*
X495883Y686214D1*
X498768Y684755D1*
X504505D1*
X507357Y686214D1*
X510242Y689066D1*
X511668Y691951D1*
X531954Y714866D2*
X527676Y713440D1*
X526217Y710588D1*
Y707703D1*
X527676Y704851D1*
X530528Y703392D1*
X536265Y701966D1*
X540576Y700540D1*
X543428Y697655D1*
X544854Y694803D1*
Y690492D1*
X543428Y687640D1*
X542002Y686181D1*
X537691Y684755D1*
X531954D1*
X527676Y686181D1*
X526217Y687640D1*
X524791Y690492D1*
Y694803D1*
X526217Y697655D1*
X529102Y700540D1*
X533380Y701966D1*
X539117Y703392D1*
X542002Y704851D1*
X543428Y707703D1*
Y710588D1*
X542002Y713440D1*
X537691Y714866D1*
X531954D1*
X586910Y519442D2*
X585451Y522327D1*
X581173Y526638D1*
X611284D1*
X581173Y548383D2*
X582599Y544072D1*
X586910Y541187D1*
X594073Y539761D1*
X598384D1*
X605547Y541187D1*
X609858Y544072D1*
X611284Y548383D1*
Y551235D1*
X609858Y555546D1*
X605547Y558398D1*
X598384Y559857D1*
X594073D1*
X586910Y558398D1*
X582599Y555546D1*
X581173Y551235D1*
Y548383D1*
X586910Y558398D2*
X605547Y541187D1*
X591188Y572980D2*
X605547D1*
X609825Y574406D1*
X611284Y577291D1*
Y581602D1*
X609825Y584454D1*
X605547Y588765D1*
X591188D2*
X611284D1*
X581140Y620559D2*
Y601889D1*
X611284D1*
X595499D2*
Y613363D1*
X512364Y795236D2*
X510938Y798088D1*
X508053Y800973D1*
X505201Y802399D1*
X499464D1*
X496579Y800973D1*
X493727Y798088D1*
X492268Y795236D1*
X490842Y790925D1*
Y783729D1*
X492268Y779451D1*
X493727Y776566D1*
X496579Y773714D1*
X499464Y772255D1*
X505201D1*
X508053Y773714D1*
X510938Y776566D1*
X512364Y779451D1*
X544158Y792351D2*
X542699Y788040D1*
X539847Y785155D1*
X535536Y783729D1*
X534110D1*
X529799Y785155D1*
X526947Y788040D1*
X525488Y792351D1*
Y793777D1*
X526947Y798088D1*
X529799Y800940D1*
X534110Y802366D1*
X535536D1*
X539847Y800940D1*
X542699Y798088D1*
X544158Y792351D1*
Y785155D1*
X542699Y777992D1*
X539847Y773681D1*
X535536Y772255D1*
X532684D1*
X528373Y773681D1*
X526947Y776566D1*
X586910Y919442D2*
X585451Y922327D1*
X581173Y926638D1*
X611284D1*
X581173Y948383D2*
X582599Y944072D1*
X586910Y941187D1*
X594073Y939761D1*
X598384D1*
X605547Y941187D1*
X609858Y944072D1*
X611284Y948383D1*
Y951235D1*
X609858Y955546D1*
X605547Y958398D1*
X598384Y959857D1*
X594073D1*
X586910Y958398D1*
X582599Y955546D1*
X581173Y951235D1*
Y948383D1*
X586910Y958398D2*
X605547Y941187D1*
X591188Y972980D2*
X605547D1*
X609825Y974406D1*
X611284Y977291D1*
Y981602D1*
X609825Y984454D1*
X605547Y988765D1*
X591188D2*
X611284D1*
X581140Y1020559D2*
Y1001889D1*
X611284D1*
X595499D2*
Y1013363D1*
X122020Y994111D2*
Y971163D1*
X120594Y966852D1*
X119135Y965427D1*
X116283Y963967D1*
X113398D1*
X110546Y965427D1*
X109120Y966852D1*
X107661Y971163D1*
Y974015D1*
X135143Y988341D2*
X138028Y989800D1*
X142339Y994078D1*
Y963967D1*
X258386Y589134D2*
Y602067D1*
X256960Y606345D1*
X255501Y607804D1*
X252649Y609230D1*
X248338D1*
X245486Y607804D1*
X244027Y606345D1*
X242601Y602067D1*
Y589134D1*
X272745D1*
X242601Y622354D2*
X272745Y629550D1*
X242601Y636713D1*
X272745Y643876D1*
X242601Y651072D1*
X256960Y664195D2*
Y677095D1*
X255501Y681406D1*
X254075Y682865D1*
X251223Y684291D1*
X248338D1*
X245486Y682865D1*
X244027Y681406D1*
X242601Y677095D1*
Y664195D1*
X272745D1*
X256960Y674243D2*
X272745Y684291D1*
X115570Y1469111D2*
Y1446163D1*
X114144Y1441852D1*
X112685Y1440427D1*
X109833Y1438967D1*
X106948D1*
X104096Y1440427D1*
X102670Y1441852D1*
X101211Y1446163D1*
Y1449015D1*
X130152Y1461915D2*
Y1463341D1*
X131578Y1466226D1*
X133004Y1467652D1*
X135889Y1469078D1*
X141626D1*
X144478Y1467652D1*
X145904Y1466226D1*
X147363Y1463341D1*
Y1460489D1*
X145904Y1457604D1*
X143052Y1453326D1*
X128693Y1438967D1*
X148789D1*
X256960Y1220802D2*
Y1233702D1*
X255501Y1238013D1*
X254075Y1239472D1*
X251223Y1240898D1*
X248338D1*
X245486Y1239472D1*
X244027Y1238013D1*
X242601Y1233702D1*
Y1220802D1*
X272745D1*
X256960Y1230850D2*
X272745Y1240898D1*
X242601Y1272658D2*
Y1254022D1*
X272745Y1254021D1*
Y1272658D1*
X256960Y1254022D2*
Y1265495D1*
X249764Y1307304D2*
X246912Y1305878D1*
X244027Y1302993D1*
X242601Y1300141D1*
Y1294404D1*
X244027Y1291519D1*
X246912Y1288667D1*
X249764Y1287208D1*
X254075Y1285782D1*
X261271D1*
X265549Y1287208D1*
X268434Y1288667D1*
X271286Y1291519D1*
X272745Y1294404D1*
Y1300141D1*
X271286Y1302993D1*
X268434Y1305878D1*
X265549Y1307304D1*
X248371Y1320427D2*
X246912Y1323312D1*
X242634Y1327623D1*
X272745D1*
X115570Y419111D2*
Y396163D1*
X114144Y391852D1*
X112685Y390427D1*
X109833Y388967D1*
X106948D1*
X104096Y390427D1*
X102670Y391852D1*
X101211Y396163D1*
Y399015D1*
X131578Y419078D2*
X147330D1*
X138741Y407604D1*
X143052D1*
X145904Y406178D1*
X147330Y404752D1*
X148789Y400441D1*
Y397589D1*
X147330Y393278D1*
X144478Y390393D1*
X140167Y388967D1*
X135856D1*
X131578Y390393D1*
X130152Y391852D1*
X128693Y394704D1*
X256960Y164352D2*
Y177252D1*
X255501Y181563D1*
X254075Y183022D1*
X251223Y184448D1*
X248338D1*
X245486Y183022D1*
X244027Y181563D1*
X242601Y177252D1*
Y164352D1*
X272745D1*
X256960Y174400D2*
X272745Y184448D1*
X242601Y216208D2*
Y197572D1*
X272745D1*
Y216208D1*
X256960Y197572D2*
Y209045D1*
X249764Y250854D2*
X246912Y249428D1*
X244027Y246543D1*
X242601Y243691D1*
Y237954D1*
X244027Y235069D1*
X246912Y232217D1*
X249764Y230758D1*
X254075Y229332D1*
X261271D1*
X265549Y230758D1*
X268434Y232217D1*
X271286Y235069D1*
X272745Y237954D1*
Y243691D1*
X271286Y246543D1*
X268434Y249428D1*
X265549Y250854D1*
X249797Y265436D2*
X248371D1*
X245486Y266862D1*
X244060Y268288D1*
X242634Y271173D1*
Y276910D1*
X244060Y279762D1*
X245486Y281188D1*
X248371Y282647D1*
X251223D1*
X254108Y281188D1*
X258386Y278336D1*
X272745Y263977D1*
Y284073D1*
X1864857Y1469111D2*
Y1446163D1*
X1863431Y1441852D1*
X1861972Y1440427D1*
X1859120Y1438967D1*
X1856235D1*
X1853383Y1440427D1*
X1851957Y1441852D1*
X1850498Y1446163D1*
Y1449015D1*
X1892339Y1438967D2*
Y1469078D1*
X1877980Y1449015D1*
X1899502D1*
X1760245Y1242307D2*
X1730101Y1242308D1*
X1760245Y1230834D1*
X1730101Y1219360D1*
X1760245D1*
X1730101Y1265479D2*
X1760245D1*
X1730101Y1255431D2*
Y1275527D1*
X1744460Y1288650D2*
Y1301550D1*
X1743001Y1305861D1*
X1741575Y1307320D1*
X1738723Y1308746D1*
X1735838D1*
X1732986Y1307320D1*
X1731527Y1305861D1*
X1730101Y1301550D1*
Y1288650D1*
X1760245D1*
X1744460Y1298698D2*
X1760245Y1308746D1*
X1735871Y1321870D2*
X1734412Y1324755D1*
X1730134Y1329066D1*
X1760245D1*
X1865570Y419111D2*
Y396163D1*
X1864144Y391852D1*
X1862685Y390427D1*
X1859833Y388967D1*
X1856948D1*
X1854096Y390427D1*
X1852670Y391852D1*
X1851211Y396163D1*
Y399015D1*
X1895904Y419078D2*
X1881578D1*
X1880152Y406178D1*
X1881578Y407604D1*
X1885889Y409063D1*
X1890167D1*
X1894478Y407604D1*
X1897363Y404752D1*
X1898789Y400441D1*
Y397589D1*
X1897363Y393278D1*
X1894478Y390393D1*
X1890167Y388967D1*
X1885889D1*
X1881578Y390393D1*
X1880152Y391852D1*
X1878693Y394704D1*
X1760245Y185858D2*
X1730101D1*
X1760245Y174384D1*
X1730101Y162910D1*
X1760245D1*
X1730101Y209029D2*
X1760245D1*
X1730101Y198981D2*
Y219077D1*
X1744460Y232200D2*
Y245100D1*
X1743001Y249411D1*
X1741575Y250870D1*
X1738723Y252296D1*
X1735838D1*
X1732986Y250870D1*
X1731527Y249411D1*
X1730101Y245100D1*
Y232200D1*
X1760245D1*
X1744460Y242248D2*
X1760245Y252296D1*
X1737297Y266879D2*
X1735871D1*
X1732986Y268305D1*
X1731560Y269731D1*
X1730134Y272616D1*
Y278353D1*
X1731560Y281205D1*
X1732986Y282631D1*
X1735871Y284090D1*
X1738723D1*
X1741608Y282631D1*
X1745886Y279779D1*
X1760245Y265420D1*
Y285516D1*
X1718271Y991733D2*
X1715419Y990341D1*
X1712534Y987456D1*
X1711108Y984571D1*
X1709649Y980259D1*
Y973097D1*
X1711108Y968786D1*
X1712534Y965934D1*
X1715419Y963049D1*
X1718271Y961623D1*
X1724008D1*
X1726893Y963049D1*
X1729745Y965934D1*
X1731171Y968786D1*
X1732630Y973097D1*
Y980259D1*
X1731171Y984571D1*
X1729745Y987456D1*
X1726893Y990341D1*
X1724008Y991733D1*
X1718271D1*
X1722582Y967360D2*
X1731171Y958738D1*
X1745753Y985963D2*
X1748638Y987422D1*
X1752949Y991700D1*
Y961589D1*
X1606426Y542025D2*
Y520503D1*
X1607852Y516192D1*
X1610737Y513340D1*
X1615048Y511881D1*
X1617900D1*
X1622211Y513340D1*
X1625096Y516192D1*
X1626522Y520503D1*
Y542025D1*
X1639645D2*
Y511881D1*
X1656856D1*
X1690076Y542025D2*
Y511881D1*
X1669980Y542025D1*
Y511881D1*
X1704658Y534829D2*
Y536255D1*
X1706084Y539140D1*
X1707510Y540566D1*
X1710395Y541992D1*
X1716132D1*
X1718984Y540566D1*
X1720410Y539140D1*
X1721869Y536255D1*
Y533403D1*
X1720410Y530518D1*
X1717558Y526240D1*
X1703199Y511881D1*
X1723295D1*
X1745040Y541992D2*
X1740729Y540566D1*
X1737844Y536255D1*
X1736418Y529092D1*
Y524781D1*
X1737844Y517618D1*
X1740729Y513307D1*
X1745040Y511881D1*
X1747892D1*
X1752203Y513307D1*
X1755055Y517618D1*
X1756514Y524781D1*
Y529092D1*
X1755055Y536255D1*
X1752203Y540566D1*
X1747892Y541992D1*
X1745040D1*
X1755055Y536255D2*
X1737844Y517618D1*
X1778260Y541992D2*
X1773949Y540566D1*
X1771064Y536255D1*
X1769638Y529092D1*
Y524781D1*
X1771064Y517618D1*
X1773949Y513307D1*
X1778260Y511881D1*
X1781112D1*
X1785423Y513307D1*
X1788275Y517618D1*
X1789734Y524781D1*
Y529092D1*
X1788275Y536255D1*
X1785423Y540566D1*
X1781112Y541992D1*
X1778260D1*
X1788275Y536255D2*
X1771064Y517618D1*
X1805742Y541992D2*
X1821494D1*
X1812905Y530518D1*
X1817216D1*
X1820068Y529092D1*
X1821494Y527666D1*
X1822953Y523355D1*
Y520503D1*
X1821494Y516192D1*
X1818642Y513307D1*
X1814331Y511881D1*
X1810020D1*
X1805742Y513307D1*
X1804316Y514766D1*
X1802857Y517618D1*
X1836076Y542025D2*
Y511881D1*
X1846124D1*
X1850435Y513340D1*
X1853321Y516192D1*
X1854746Y519077D1*
X1856172Y523355D1*
Y530551D1*
X1854746Y534862D1*
X1853321Y537714D1*
X1850435Y540599D1*
X1846124Y542025D1*
X1836076D1*
X499792Y1225540D2*
X512692D1*
X517003Y1226999D1*
X518462Y1228425D1*
X519888Y1231277D1*
Y1234162D1*
X518462Y1237014D1*
X517003Y1238473D1*
X512692Y1239899D1*
X499792D1*
Y1209755D1*
X509840Y1225540D2*
X519888Y1209755D1*
X533012Y1234129D2*
X535897Y1235588D1*
X540208Y1239866D1*
Y1209755D1*
X499792Y1088090D2*
X502677Y1089549D1*
X506988Y1093827D1*
Y1063716D1*
X520112Y1093860D2*
Y1063716D1*
X540208Y1093860D2*
X520112Y1073764D1*
X527275Y1080960D2*
X540208Y1063716D1*
X493342Y425540D2*
X506242D1*
X510553Y426999D1*
X512012Y428425D1*
X513438Y431277D1*
Y434162D1*
X512012Y437014D1*
X510553Y438473D1*
X506242Y439899D1*
X493342D1*
Y409755D1*
X503390Y425540D2*
X513438Y409755D1*
X528021Y432703D2*
Y434129D1*
X529447Y437014D1*
X530873Y438440D1*
X533758Y439866D1*
X539495D1*
X542347Y438440D1*
X543773Y437014D1*
X545232Y434129D1*
Y431277D1*
X543773Y428392D1*
X540921Y424114D1*
X526562Y409755D1*
X546658D1*
X499792Y288090D2*
X502677Y289549D1*
X506988Y293827D1*
Y263716D1*
X520112Y293860D2*
Y263716D1*
X540208Y293860D2*
X520112Y273764D1*
X527275Y280960D2*
X540208Y263716D1*
X674460Y353342D2*
Y366242D1*
X673001Y370553D1*
X671575Y372012D1*
X668723Y373438D1*
X665838D1*
X662986Y372012D1*
X661527Y370553D1*
X660101Y366242D1*
Y353342D1*
X690245D1*
X674460Y363390D2*
X690245Y373438D1*
X660134Y389447D2*
Y405199D1*
X671608Y396610D1*
Y400921D1*
X673034Y403773D1*
X674460Y405199D1*
X678771Y406658D1*
X681623D1*
X685934Y405199D1*
X688819Y402347D1*
X690245Y398036D1*
Y393725D1*
X688819Y389447D1*
X687360Y388021D1*
X684508Y386562D1*
X811910Y359792D2*
X810451Y362677D1*
X806173Y366988D1*
X836284D1*
X806140Y380112D2*
X836284D1*
X806140Y400208D2*
X826236Y380112D1*
X819040Y387275D2*
X836284Y400208D1*
X674460Y1167629D2*
Y1180529D1*
X673001Y1184840D1*
X671575Y1186299D1*
X668723Y1187725D1*
X665838D1*
X662986Y1186299D1*
X661527Y1184840D1*
X660101Y1180529D1*
Y1167629D1*
X690245D1*
X674460Y1177677D2*
X690245Y1187725D1*
Y1215208D2*
X660134D1*
X680197Y1200849D1*
Y1222371D1*
X811910Y1174792D2*
X810451Y1177677D1*
X806173Y1181988D1*
X836284D1*
X806140Y1195112D2*
X836284D1*
X806140Y1215208D2*
X826236Y1195112D1*
X819040Y1202275D2*
X836284Y1215208D1*
X993342Y1400540D2*
X1006242D1*
X1010553Y1401999D1*
X1012012Y1403425D1*
X1013438Y1406277D1*
Y1409162D1*
X1012012Y1412014D1*
X1010553Y1413473D1*
X1006242Y1414899D1*
X993342D1*
Y1384755D1*
X1003390Y1400540D2*
X1013438Y1384755D1*
X1043773Y1414866D2*
X1029447D1*
X1028021Y1401966D1*
X1029447Y1403392D1*
X1033758Y1404851D1*
X1038036D1*
X1042347Y1403392D1*
X1045232Y1400540D1*
X1046658Y1396229D1*
Y1393377D1*
X1045232Y1389066D1*
X1042347Y1386181D1*
X1038036Y1384755D1*
X1033758D1*
X1029447Y1386181D1*
X1028021Y1387640D1*
X1026562Y1390492D1*
X933183Y1250590D2*
X936068Y1252049D1*
X940379Y1256327D1*
Y1226216D1*
X962124Y1256327D2*
X957813Y1254901D1*
X954928Y1250590D1*
X953502Y1243427D1*
Y1239116D1*
X954928Y1231953D1*
X957813Y1227642D1*
X962124Y1226216D1*
X964976D1*
X969287Y1227642D1*
X972139Y1231953D1*
X973598Y1239116D1*
Y1243427D1*
X972139Y1250590D1*
X969287Y1254901D1*
X964976Y1256327D1*
X962124D1*
X972139Y1250590D2*
X954928Y1231953D1*
X986721Y1256360D2*
Y1226216D1*
X1006817Y1256360D2*
X986721Y1236264D1*
X993884Y1243460D2*
X1006817Y1226216D1*
X1230660Y732902D2*
X1243560D1*
X1247871Y734361D1*
X1249330Y735787D1*
X1250756Y738639D1*
Y741524D1*
X1249330Y744376D1*
X1247871Y745835D1*
X1243560Y747261D1*
X1230660D1*
Y717117D1*
X1240708Y732902D2*
X1250756Y717117D1*
X1281090Y742950D2*
X1279664Y745802D1*
X1275353Y747228D1*
X1272501D1*
X1268190Y745802D1*
X1265305Y741491D1*
X1263879Y734328D1*
Y727165D1*
X1265305Y721428D1*
X1268190Y718543D1*
X1272501Y717117D1*
X1273927D1*
X1278205Y718543D1*
X1281090Y721428D1*
X1282516Y725739D1*
Y727165D1*
X1281090Y731476D1*
X1278205Y734328D1*
X1273927Y735754D1*
X1272501D1*
X1268190Y734328D1*
X1265305Y731476D1*
X1263879Y727165D1*
X1558338Y1079255D2*
Y1092154D1*
X1556879Y1096465D1*
X1555453Y1097925D1*
X1552601Y1099350D1*
X1549716D1*
X1546864Y1097925D1*
X1545405Y1096465D1*
X1543979Y1092154D1*
Y1079255D1*
X1574123D1*
X1558338Y1089303D2*
X1574123Y1099350D1*
Y1118211D2*
X1544012Y1132570D1*
Y1112474D1*
X899460Y528359D2*
Y541259D1*
X898001Y545570D1*
X896575Y547029D1*
X893723Y548455D1*
X890838D1*
X887986Y547029D1*
X886527Y545570D1*
X885101Y541259D1*
Y528359D1*
X915245D1*
X899460Y538407D2*
X915245Y548455D1*
X885134Y568741D2*
X886560Y564463D1*
X889412Y563004D1*
X892297D1*
X895149Y564463D1*
X896608Y567315D1*
X898034Y573052D1*
X899460Y577363D1*
X902345Y580215D1*
X905197Y581641D1*
X909508D1*
X912360Y580215D1*
X913819Y578789D1*
X915245Y574478D1*
Y568741D1*
X913819Y564463D1*
X912360Y563004D1*
X909508Y561578D1*
X905197D1*
X902345Y563004D1*
X899460Y565889D1*
X898034Y570167D1*
X896608Y575904D1*
X895149Y578789D1*
X892297Y580215D1*
X889412D1*
X886560Y578789D1*
X885134Y574478D1*
Y568741D1*
X1036910Y534792D2*
X1035451Y537677D1*
X1031173Y541988D1*
X1061284D1*
X1031140Y555112D2*
X1061284D1*
X1031140Y575208D2*
X1051236Y555112D1*
X1044040Y562275D2*
X1061284Y575208D1*
X899460Y216555D2*
Y229455D1*
X898001Y233766D1*
X896575Y235225D1*
X893723Y236651D1*
X890838D1*
X887986Y235225D1*
X886527Y233766D1*
X885101Y229455D1*
Y216555D1*
X915245D1*
X899460Y226603D2*
X915245Y236651D1*
X895149Y268445D2*
X899460Y266986D1*
X902345Y264134D1*
X903771Y259823D1*
Y258397D1*
X902345Y254086D1*
X899460Y251234D1*
X895149Y249775D1*
X893723D1*
X889412Y251234D1*
X886560Y254086D1*
X885134Y258397D1*
Y259823D1*
X886560Y264134D1*
X889412Y266986D1*
X895149Y268445D1*
X902345D1*
X909508Y266986D1*
X913819Y264134D1*
X915245Y259823D1*
Y256971D1*
X913819Y252660D1*
X910934Y251234D1*
X1036910Y222292D2*
X1035451Y225177D1*
X1031173Y229488D1*
X1061284D1*
X1031140Y242612D2*
X1061284D1*
X1031140Y262708D2*
X1051236Y242612D1*
X1044040Y249775D2*
X1061284Y262708D1*
X298231Y619899D2*
Y589755D1*
X288183Y619899D2*
X308279D1*
X321402Y604114D2*
X334335D1*
X338613Y605540D1*
X340072Y606999D1*
X341498Y609851D1*
Y614162D1*
X340072Y617014D1*
X338613Y618473D1*
X334335Y619899D1*
X321402D1*
Y589755D1*
X354621Y614129D2*
X357506Y615588D1*
X361817Y619866D1*
Y589755D1*
X291781Y844899D2*
Y814755D1*
X281733Y844899D2*
X301829D1*
X314952Y829114D2*
X327885D1*
X332163Y830540D1*
X333622Y831999D1*
X335048Y834851D1*
Y839162D1*
X333622Y842014D1*
X332163Y843473D1*
X327885Y844899D1*
X314952D1*
Y814755D1*
X349630Y837703D2*
Y839129D1*
X351056Y842014D1*
X352482Y843440D1*
X355367Y844866D1*
X361104D1*
X363956Y843440D1*
X365382Y842014D1*
X366841Y839129D1*
Y836277D1*
X365382Y833392D1*
X362530Y829114D1*
X348171Y814755D1*
X368267D1*
X291781Y1069899D2*
Y1039755D1*
X281733Y1069899D2*
X301829D1*
X314952Y1054114D2*
X327885D1*
X332163Y1055540D1*
X333622Y1056999D1*
X335048Y1059851D1*
Y1064162D1*
X333622Y1067014D1*
X332163Y1068473D1*
X327885Y1069899D1*
X314952D1*
Y1039755D1*
X351056Y1069866D2*
X366808D1*
X358219Y1058392D1*
X362530D1*
X365382Y1056966D1*
X366808Y1055540D1*
X368267Y1051229D1*
Y1048377D1*
X366808Y1044066D1*
X363956Y1041181D1*
X359645Y1039755D1*
X355334D1*
X351056Y1041181D1*
X349630Y1042640D1*
X348171Y1045492D1*
X303568Y1244899D2*
Y1214755D1*
X293520Y1244899D2*
X313616D1*
X326739Y1229114D2*
X339672D1*
X343950Y1230540D1*
X345409Y1231999D1*
X346835Y1234851D1*
Y1239162D1*
X345409Y1242014D1*
X343950Y1243473D1*
X339672Y1244899D1*
X326739D1*
Y1214755D1*
X374317D2*
Y1244866D1*
X359958Y1224803D1*
X381480D1*
X291781Y444899D2*
Y414755D1*
X281733Y444899D2*
X301829D1*
X314952Y429114D2*
X327885D1*
X332163Y430540D1*
X333622Y431999D1*
X335048Y434851D1*
Y439162D1*
X333622Y442014D1*
X332163Y443473D1*
X327885Y444899D1*
X314952D1*
Y414755D1*
X365382Y444866D2*
X351056D1*
X349630Y431966D1*
X351056Y433392D1*
X355367Y434851D1*
X359645D1*
X363956Y433392D1*
X366841Y430540D1*
X368267Y426229D1*
Y423377D1*
X366841Y419066D1*
X363956Y416181D1*
X359645Y414755D1*
X355367D1*
X351056Y416181D1*
X349630Y417640D1*
X348171Y420492D1*
X1292510Y1357399D2*
Y1327255D1*
X1282462Y1357399D2*
X1302558D1*
X1315682Y1341614D2*
X1328615D1*
X1332892Y1343040D1*
X1334352Y1344499D1*
X1335778Y1347351D1*
Y1351662D1*
X1334352Y1354514D1*
X1332892Y1355973D1*
X1328615Y1357399D1*
X1315682D1*
Y1327255D1*
X1366112Y1353088D2*
X1364686Y1355940D1*
X1360375Y1357366D1*
X1357523D1*
X1353212Y1355940D1*
X1350327Y1351629D1*
X1348901Y1344466D1*
Y1337303D1*
X1350327Y1331566D1*
X1353212Y1328681D1*
X1357523Y1327255D1*
X1358949D1*
X1363227Y1328681D1*
X1366112Y1331566D1*
X1367538Y1335877D1*
Y1337303D1*
X1366112Y1341614D1*
X1363227Y1344466D1*
X1358949Y1345892D1*
X1357523D1*
X1353212Y1344466D1*
X1350327Y1341614D1*
X1348901Y1337303D1*
X1291781Y1069899D2*
Y1039755D1*
X1281733Y1069899D2*
X1301829D1*
X1314952Y1054114D2*
X1327885D1*
X1332163Y1055540D1*
X1333622Y1056999D1*
X1335048Y1059851D1*
Y1064162D1*
X1333622Y1067014D1*
X1332163Y1068473D1*
X1327885Y1069899D1*
X1314952D1*
Y1039755D1*
X1353908D2*
X1368267Y1069866D1*
X1348171D1*
X1604297Y1119899D2*
Y1089755D1*
X1594249Y1119899D2*
X1614345D1*
X1627469Y1104114D2*
X1640402D1*
X1644680Y1105540D1*
X1646139Y1106999D1*
X1647565Y1109851D1*
Y1114162D1*
X1646139Y1117014D1*
X1644680Y1118473D1*
X1640402Y1119899D1*
X1627469D1*
Y1089755D1*
X1667851Y1119866D2*
X1663573Y1118440D1*
X1662114Y1115588D1*
Y1112703D1*
X1663573Y1109851D1*
X1666425Y1108392D1*
X1672162Y1106966D1*
X1676473Y1105540D1*
X1679325Y1102655D1*
X1680751Y1099803D1*
Y1095492D1*
X1679325Y1092640D1*
X1677899Y1091181D1*
X1673588Y1089755D1*
X1667851D1*
X1663573Y1091181D1*
X1662114Y1092640D1*
X1660688Y1095492D1*
Y1099803D1*
X1662114Y1102655D1*
X1664999Y1105540D1*
X1669277Y1106966D1*
X1675014Y1108392D1*
X1677899Y1109851D1*
X1679325Y1112703D1*
Y1115588D1*
X1677899Y1118440D1*
X1673588Y1119866D1*
X1667851D1*
X1529994Y1269899D2*
Y1239755D1*
X1519946Y1269899D2*
X1540042D1*
X1553165Y1254114D2*
X1566098D1*
X1570376Y1255540D1*
X1571835Y1256999D1*
X1573261Y1259851D1*
Y1264162D1*
X1571835Y1267014D1*
X1570376Y1268473D1*
X1566098Y1269899D1*
X1553165D1*
Y1239755D1*
X1605054Y1259851D2*
X1603595Y1255540D1*
X1600743Y1252655D1*
X1596432Y1251229D1*
X1595006D1*
X1590695Y1252655D1*
X1587843Y1255540D1*
X1586384Y1259851D1*
Y1261277D1*
X1587843Y1265588D1*
X1590695Y1268440D1*
X1595006Y1269866D1*
X1596432D1*
X1600743Y1268440D1*
X1603595Y1265588D1*
X1605054Y1259851D1*
Y1252655D1*
X1603595Y1245492D1*
X1600743Y1241181D1*
X1596432Y1239755D1*
X1593580D1*
X1589269Y1241181D1*
X1587843Y1244066D1*
X1061091Y1243326D2*
Y1221804D1*
X1062517Y1217493D1*
X1065403Y1214641D1*
X1069714Y1213182D1*
X1072565D1*
X1076876Y1214641D1*
X1079762Y1217493D1*
X1081187Y1221804D1*
Y1243326D1*
X1094311Y1237556D2*
X1097196Y1239015D1*
X1101507Y1243293D1*
Y1213182D1*
X992435Y960289D2*
X980928Y990433D1*
X969454Y960289D1*
X973765Y970337D2*
X988124D1*
X1005559Y990433D2*
Y960289D1*
X1015607D1*
X1019918Y961748D1*
X1022803Y964600D1*
X1024229Y967485D1*
X1025655Y971763D1*
Y978959D1*
X1024229Y983270D1*
X1022803Y986122D1*
X1019918Y989007D1*
X1015607Y990433D1*
X1005559D1*
X1045941Y990400D2*
X1041663Y988974D1*
X1040204Y986122D1*
Y983237D1*
X1041663Y980385D1*
X1044515Y978926D1*
X1050252Y977500D1*
X1054563Y976074D1*
X1057415Y973189D1*
X1058841Y970337D1*
Y966026D1*
X1057415Y963174D1*
X1055989Y961715D1*
X1051678Y960289D1*
X1045941D1*
X1041663Y961715D1*
X1040204Y963174D1*
X1038778Y966026D1*
Y970337D1*
X1040204Y973189D1*
X1043089Y976074D1*
X1047367Y977500D1*
X1053104Y978926D1*
X1055989Y980385D1*
X1057415Y983237D1*
Y986122D1*
X1055989Y988974D1*
X1051678Y990400D1*
X1045941D1*
X1073423Y983237D2*
Y984663D1*
X1074849Y987548D1*
X1076275Y988974D1*
X1079160Y990400D1*
X1084897D1*
X1087749Y988974D1*
X1089175Y987548D1*
X1090634Y984663D1*
Y981811D1*
X1089175Y978926D1*
X1086323Y974648D1*
X1071964Y960289D1*
X1092060D1*
X1122394Y986122D2*
X1120969Y988974D1*
X1116658Y990400D1*
X1113806D1*
X1109495Y988974D1*
X1106610Y984663D1*
X1105184Y977500D1*
Y970337D1*
X1106610Y964600D1*
X1109495Y961715D1*
X1113806Y960289D1*
X1115232D1*
X1119509Y961715D1*
X1122394Y964600D1*
X1123820Y968911D1*
Y970337D1*
X1122394Y974648D1*
X1119509Y977500D1*
X1115232Y978926D1*
X1113806D1*
X1109495Y977500D1*
X1106610Y974648D1*
X1105184Y970337D1*
X1159925Y960289D2*
X1148418Y990433D1*
X1136944Y960289D1*
X1141255Y970337D2*
X1155614D1*
X1173048Y976074D2*
X1185948D1*
X1190259Y977533D1*
X1191718Y978959D1*
X1193144Y981811D1*
Y984696D1*
X1191718Y987548D1*
X1190259Y989007D1*
X1185948Y990433D1*
X1173048D1*
Y960289D1*
X1183096Y976074D2*
X1193144Y960289D1*
X1217043Y443326D2*
Y421804D1*
X1218469Y417493D1*
X1221354Y414641D1*
X1225665Y413182D1*
X1228517D1*
X1232828Y414641D1*
X1235713Y417493D1*
X1237139Y421804D1*
Y443326D1*
X1251722Y436130D2*
Y437556D1*
X1253148Y440441D1*
X1254573Y441867D1*
X1257459Y443293D1*
X1263196D1*
X1266047Y441867D1*
X1267473Y440441D1*
X1268933Y437556D1*
Y434704D1*
X1267473Y431819D1*
X1264621Y427541D1*
X1250262Y413182D1*
X1270358D1*
X1064267Y184269D2*
Y154125D1*
X1054219Y184269D2*
X1074315D1*
X1087439D2*
Y154125D1*
X1104649D1*
X1139295Y177106D2*
X1137869Y179958D1*
X1134984Y182843D1*
X1132132Y184269D1*
X1126395D1*
X1123510Y182843D1*
X1120658Y179958D1*
X1119199Y177106D1*
X1117773Y172795D1*
Y165599D1*
X1119199Y161321D1*
X1120658Y158436D1*
X1123510Y155584D1*
X1126395Y154125D1*
X1132132D1*
X1134984Y155584D1*
X1137869Y158436D1*
X1139295Y161321D1*
X1169629Y184235D2*
X1155303D1*
X1153877Y171336D1*
X1155303Y172762D1*
X1159614Y174221D1*
X1163892D1*
X1168203Y172762D1*
X1171088Y169910D1*
X1172514Y165599D1*
Y162747D1*
X1171088Y158436D1*
X1168203Y155551D1*
X1163892Y154125D1*
X1159614D1*
X1155303Y155551D1*
X1153877Y157010D1*
X1152418Y159862D1*
X1202848Y184235D2*
X1188523D1*
X1187097Y171336D1*
X1188523Y172762D1*
X1192834Y174221D1*
X1197111D1*
X1201422Y172762D1*
X1204308Y169910D1*
X1205734Y165599D1*
Y162747D1*
X1204308Y158436D1*
X1201422Y155551D1*
X1197111Y154125D1*
X1192834D1*
X1188523Y155551D1*
X1187097Y157010D1*
X1185638Y159862D1*
X1236068Y184235D2*
X1221742D1*
X1220316Y171336D1*
X1221742Y172762D1*
X1226053Y174221D1*
X1230331D1*
X1234642Y172762D1*
X1237527Y169910D1*
X1238953Y165599D1*
Y162747D1*
X1237527Y158436D1*
X1234642Y155551D1*
X1230331Y154125D1*
X1226053D1*
X1221742Y155551D1*
X1220316Y157010D1*
X1218857Y159862D1*
X1273598Y177106D2*
X1272172Y179958D1*
X1269287Y182843D1*
X1266435Y184269D1*
X1260698D1*
X1257813Y182843D1*
X1254961Y179958D1*
X1253502Y177106D1*
X1252076Y172795D1*
Y165599D1*
X1253502Y161321D1*
X1254961Y158436D1*
X1257813Y155584D1*
X1260698Y154125D1*
X1266435D1*
X1269287Y155584D1*
X1272172Y158436D1*
X1273598Y161321D1*
X1286722Y184269D2*
Y154125D1*
X1296770D1*
X1301081Y155584D1*
X1303966Y158436D1*
X1305392Y161321D1*
X1306818Y165599D1*
Y172795D1*
X1305392Y177106D1*
X1303966Y179958D1*
X1301081Y182843D1*
X1296770Y184269D1*
X1286722D1*
X1212657Y529513D2*
Y507991D1*
X1214083Y503680D1*
X1216968Y500828D1*
X1221279Y499369D1*
X1224131D1*
X1228442Y500828D1*
X1231327Y503680D1*
X1232753Y507991D1*
Y529513D1*
X1248762Y529480D2*
X1264514D1*
X1255925Y518006D1*
X1260236D1*
X1263088Y516580D1*
X1264514Y515154D1*
X1265973Y510843D1*
Y507991D1*
X1264514Y503680D1*
X1261662Y500795D1*
X1257351Y499369D1*
X1253040D1*
X1248762Y500795D1*
X1247336Y502254D1*
X1245877Y505106D1*
X1387060Y486563D2*
X1356949Y500922D1*
Y480826D1*
X1387060Y528404D2*
X1356949D1*
X1377012Y514045D1*
Y535567D1*
X1356916Y548690D2*
X1387060D1*
X1356916Y568786D2*
X1387060D1*
X1371275Y548690D2*
Y568786D1*
X1364079Y603432D2*
X1361227Y602006D1*
X1358342Y599121D1*
X1356916Y596269D1*
Y590532D1*
X1358342Y587647D1*
X1361227Y584795D1*
X1364079Y583336D1*
X1368390Y581910D1*
X1375586D1*
X1379864Y583336D1*
X1382749Y584795D1*
X1385601Y587647D1*
X1387060Y590532D1*
Y596269D1*
X1385601Y599121D1*
X1382749Y602006D1*
X1379864Y603432D1*
X1362686Y616555D2*
X1361227Y619440D1*
X1356949Y623751D1*
X1387060D1*
X1364079Y658396D2*
X1361227Y656970D1*
X1358342Y654085D1*
X1356916Y651233D1*
Y645496D1*
X1358342Y642611D1*
X1361227Y639759D1*
X1364079Y638300D1*
X1368390Y636874D1*
X1375586D1*
X1379864Y638300D1*
X1382749Y639759D1*
X1385601Y642611D1*
X1387060Y645496D1*
Y651233D1*
X1385601Y654085D1*
X1382749Y656970D1*
X1379864Y658396D1*
X1375586D1*
Y651233D1*
X1356949Y680142D2*
X1358375Y675831D1*
X1362686Y672946D1*
X1369849Y671520D1*
X1374160D1*
X1381323Y672946D1*
X1385634Y675831D1*
X1387060Y680142D1*
Y682994D1*
X1385634Y687305D1*
X1381323Y690157D1*
X1374160Y691616D1*
X1369849D1*
X1362686Y690157D1*
X1358375Y687305D1*
X1356949Y682994D1*
Y680142D1*
X1362686Y690157D2*
X1381323Y672946D1*
X1387060Y719098D2*
X1356949D1*
X1377012Y704739D1*
Y726261D1*
X410537Y941591D2*
D65*
Y963699D1*
X390419Y981197D2*
X430611Y996495D1*
X390419Y1011794D1*
X393315Y496291D2*
X427759D1*
X410559Y479091D2*
Y513535D1*
X390419Y531033D2*
X430611Y546331D1*
X390419Y561630D1*
X399970Y720287D2*
X396167Y718386D1*
X392320Y714539D1*
X390419Y710736D1*
Y703087D1*
X392320Y699240D1*
X396167Y695438D1*
X399970Y693492D1*
X405718Y691591D1*
X415313D1*
X421016Y693492D1*
X424863Y695438D1*
X428666Y699240D1*
X430611Y703087D1*
Y710736D1*
X428666Y714539D1*
X424863Y718386D1*
X421016Y720287D1*
X415313D1*
Y710736D1*
X390419Y764579D2*
X430611D1*
X390419Y737785D1*
X430611D1*
X390419Y782077D2*
X430611D1*
Y795475D1*
X428666Y801223D1*
X424863Y805069D1*
X421016Y806971D1*
X415313Y808872D1*
X405718D1*
X399970Y806971D1*
X396167Y805069D1*
X392320Y801223D1*
X390419Y795475D1*
Y782077D1*
X677253Y52674D2*
Y92866D1*
X661954Y52674D1*
X646655Y92866D1*
Y52674D1*
X704301Y79468D2*
X700498Y77567D1*
X696652Y73720D1*
X694750Y67972D1*
Y64170D1*
X696652Y58422D1*
X700498Y54619D1*
X704301Y52674D1*
X710049D1*
X713896Y54619D1*
X717698Y58422D1*
X719644Y64170D1*
Y67972D1*
X717698Y73720D1*
X713896Y77567D1*
X710049Y79468D1*
X704301D1*
X742890Y92866D2*
Y60323D1*
X744791Y54619D1*
X748638Y52674D1*
X752440D1*
X737142Y79468D2*
X750539D1*
X779489D2*
X775686Y77567D1*
X771839Y73720D1*
X769938Y67972D1*
Y64170D1*
X771839Y58422D1*
X775686Y54619D1*
X779489Y52674D1*
X785237D1*
X789083Y54619D1*
X792886Y58422D1*
X794831Y64170D1*
Y67972D1*
X792886Y73720D1*
X789083Y77567D1*
X785237Y79468D1*
X779489D1*
X812329D2*
Y52674D1*
Y67972D2*
X814275Y73720D1*
X818077Y77567D1*
X821924Y79468D1*
X827672D1*
X889197Y92866D2*
Y52674D1*
X902594D1*
X908342Y54619D1*
X912189Y58422D1*
X914090Y62268D1*
X915992Y67972D1*
Y77567D1*
X914090Y83315D1*
X912189Y87118D1*
X908342Y90964D1*
X902594Y92866D1*
X889197D1*
X933489Y79468D2*
Y52674D1*
Y67972D2*
X935435Y73720D1*
X939237Y77567D1*
X943084Y79468D1*
X948832D1*
X966330Y92866D2*
X968231Y90964D1*
X970177Y92866D1*
X968231Y94811D1*
X966330Y92866D1*
X968231Y79468D2*
Y52674D1*
X987675Y79468D2*
X999171Y52674D1*
X1010623Y79468D1*
X1028120Y67972D2*
X1051068D1*
Y71819D1*
X1049167Y75666D1*
X1047266Y77567D1*
X1043419Y79468D1*
X1037671D1*
X1033868Y77567D1*
X1030022Y73720D1*
X1028120Y67972D1*
Y64170D1*
X1030022Y58422D1*
X1033868Y54619D1*
X1037671Y52674D1*
X1043419D1*
X1047266Y54619D1*
X1051068Y58422D1*
X1068566Y79468D2*
Y52674D1*
Y67972D2*
X1070512Y73720D1*
X1074314Y77567D1*
X1078161Y79468D1*
X1083909D1*
X1145434Y92866D2*
Y52674D1*
X1162678D1*
X1168426Y54619D1*
X1170327Y56520D1*
X1172229Y60323D1*
Y66071D1*
X1170327Y69918D1*
X1168426Y71819D1*
X1162678Y73720D1*
X1168426Y75666D1*
X1170327Y77567D1*
X1172229Y81370D1*
Y85216D1*
X1170327Y89019D1*
X1168426Y90964D1*
X1162678Y92866D1*
X1145434D1*
Y73720D2*
X1162678D1*
X1199277Y79468D2*
X1195474Y77567D1*
X1191628Y73720D1*
X1189726Y67972D1*
Y64170D1*
X1191628Y58422D1*
X1195474Y54619D1*
X1199277Y52674D1*
X1205025D1*
X1208872Y54619D1*
X1212674Y58422D1*
X1214620Y64170D1*
Y67972D1*
X1212674Y73720D1*
X1208872Y77567D1*
X1205025Y79468D1*
X1199277D1*
X1255066D2*
Y52674D1*
Y73720D2*
X1251263Y77567D1*
X1247416Y79468D1*
X1241712D1*
X1237866Y77567D1*
X1234063Y73720D1*
X1232118Y67972D1*
Y64170D1*
X1234063Y58422D1*
X1237866Y54619D1*
X1241712Y52674D1*
X1247416D1*
X1251263Y54619D1*
X1255066Y58422D1*
X1272563Y79468D2*
Y52674D1*
Y67972D2*
X1274509Y73720D1*
X1278311Y77567D1*
X1282158Y79468D1*
X1287906D1*
X1328352Y92866D2*
Y52674D1*
Y73720D2*
X1324549Y77567D1*
X1320703Y79468D1*
X1314955D1*
X1311152Y77567D1*
X1307305Y73720D1*
X1305404Y67972D1*
Y64170D1*
X1307305Y58422D1*
X1311152Y54619D1*
X1314955Y52674D1*
X1320703D1*
X1324549Y54619D1*
X1328352Y58422D1*
X532097Y195685D2*
D66*
X544997D1*
X549308Y197144D1*
X550767Y198570D1*
X552193Y201422D1*
Y204307D1*
X550767Y207159D1*
X549308Y208618D1*
X544997Y210044D1*
X532097D1*
Y179900D1*
X542145Y195685D2*
X552193Y179900D1*
X578667Y199996D2*
Y179900D1*
Y195685D2*
X575815Y198570D1*
X572930Y199996D1*
X568652D1*
X565767Y198570D1*
X562915Y195685D1*
X561456Y191374D1*
Y188522D1*
X562915Y184211D1*
X565767Y181359D1*
X568652Y179900D1*
X572930D1*
X575815Y181359D1*
X578667Y184211D1*
X589390Y199996D2*
X597979Y179900D1*
X595127Y174163D1*
X592242Y171278D1*
X589390Y169852D1*
X587931D1*
X606601Y199996D2*
X597979Y179900D1*
X665121Y205733D2*
X662269Y208618D1*
X657958Y210044D1*
X652221D1*
X647910Y208618D1*
X645025Y205733D1*
Y202881D1*
X646484Y199996D1*
X647910Y198570D1*
X650762Y197144D1*
X659384Y194259D1*
X662269Y192833D1*
X663695Y191374D1*
X665121Y188522D1*
Y184211D1*
X662269Y181359D1*
X657958Y179900D1*
X652221D1*
X647910Y181359D1*
X645025Y184211D1*
X674384Y199996D2*
Y185637D1*
X675810Y181359D1*
X678696Y179900D1*
X683007D1*
X685858Y181359D1*
X690169Y185637D1*
Y199996D2*
Y179900D1*
X699433Y199996D2*
Y179900D1*
Y194259D2*
X703744Y198570D1*
X706629Y199996D1*
X710907D1*
X713792Y198570D1*
X715218Y194259D1*
Y179900D1*
X550734Y160044D2*
X532097D1*
Y129900D1*
X550734D1*
X532097Y145685D2*
X543571D1*
X578634Y160044D2*
X559997D1*
Y129900D1*
X578634D1*
X559997Y145685D2*
X571471D1*
X635728Y149996D2*
X634269Y145685D1*
X631417Y142800D1*
X627106Y141374D1*
X625680D1*
X621369Y142800D1*
X618517Y145685D1*
X617058Y149996D1*
Y151422D1*
X618517Y155733D1*
X621369Y158585D1*
X625680Y160011D1*
X627106D1*
X631417Y158585D1*
X634269Y155733D1*
X635728Y149996D1*
Y142800D1*
X634269Y135637D1*
X631417Y131326D1*
X627106Y129900D1*
X624254D1*
X619943Y131326D1*
X618517Y134211D1*
X644992Y154274D2*
X647877Y155733D1*
X652188Y160011D1*
Y129900D1*
X678662Y149996D2*
Y129900D1*
Y145685D2*
X675810Y148570D1*
X672925Y149996D1*
X668648D1*
X665762Y148570D1*
X662911Y145685D1*
X661451Y141374D1*
Y138522D1*
X662911Y134211D1*
X665762Y131359D1*
X668648Y129900D1*
X672925D1*
X675810Y131359D1*
X678662Y134211D1*
X735757Y160044D2*
X717086D1*
Y129900D1*
Y145685D2*
X728560D1*
X762231Y149996D2*
Y129900D1*
Y145685D2*
X759379Y148570D1*
X756494Y149996D1*
X752216D1*
X749331Y148570D1*
X746479Y145685D1*
X745020Y141374D1*
Y138522D1*
X746479Y134211D1*
X749331Y131359D1*
X752216Y129900D1*
X756494D1*
X759379Y131359D1*
X762231Y134211D1*
X771495Y160044D2*
Y129900D1*
X780758Y160044D2*
Y129900D1*
X820641Y152848D2*
Y154274D1*
X822067Y157159D1*
X823493Y158585D1*
X826378Y160011D1*
X832115D1*
X834967Y158585D1*
X836393Y157159D1*
X837852Y154274D1*
Y151422D1*
X836393Y148537D1*
X833541Y144259D1*
X819182Y129900D1*
X839278D1*
X857164Y160011D2*
X852853Y158585D1*
X849968Y154274D1*
X848542Y147111D1*
Y142800D1*
X849968Y135637D1*
X852853Y131326D1*
X857164Y129900D1*
X860016D1*
X864327Y131326D1*
X867179Y135637D1*
X868638Y142800D1*
Y147111D1*
X867179Y154274D1*
X864327Y158585D1*
X860016Y160011D1*
X857164D1*
X867179Y154274D2*
X849968Y135637D1*
X877901Y154274D2*
X880786Y155733D1*
X885097Y160011D1*
Y129900D1*
X913031Y149996D2*
X911572Y145685D1*
X908720Y142800D1*
X904409Y141374D1*
X902983D1*
X898672Y142800D1*
X895820Y145685D1*
X894361Y149996D1*
Y151422D1*
X895820Y155733D1*
X898672Y158585D1*
X902983Y160011D1*
X904409D1*
X908720Y158585D1*
X911572Y155733D1*
X913031Y149996D1*
Y142800D1*
X911572Y135637D1*
X908720Y131326D1*
X904409Y129900D1*
X901557D1*
X897246Y131326D1*
X895820Y134211D1*
M02*
