G04 DipTrace 3.3.1.3*
G04 TopSilk.gbr*
%MOIN*%
G04 #@! TF.FileFunction,Legend,Top*
G04 #@! TF.Part,Single*
%ADD10C,0.009843*%
%ADD12C,0.003*%
%ADD16C,0.01*%
%ADD19C,0.02*%
%ADD20C,0.012*%
%ADD23C,0.05*%
%ADD27C,0.015761*%
%ADD30C,0.015748*%
%ADD33C,0.015395*%
%ADD64C,0.006562*%
%ADD65C,0.008749*%
%ADD66C,0.004632*%
%FSLAX26Y26*%
G04*
G70*
G90*
G75*
G01*
G04 TopSilk*
%LPD*%
X1475000Y420000D2*
D20*
X1549993D1*
X1475000Y330000D2*
X1549993D1*
X1590007D2*
X1665000D1*
X1590007Y420000D2*
X1665000D1*
X1475000Y330000D2*
Y420000D1*
X1665000Y330000D2*
Y420000D1*
X480000Y475000D2*
Y549993D1*
X570000Y475000D2*
Y549993D1*
Y590007D2*
Y665000D1*
X480000Y590007D2*
Y665000D1*
X570000Y475000D2*
X480000D1*
X570000Y665000D2*
X480000D1*
Y825000D2*
Y899993D1*
X570000Y825000D2*
Y899993D1*
Y940007D2*
Y1015000D1*
X480000Y940007D2*
Y1015000D1*
X570000Y825000D2*
X480000D1*
X570000Y1015000D2*
X480000D1*
D23*
X125000Y474213D3*
X25000Y549213D2*
D10*
X225000D1*
Y949213D1*
X25000D1*
Y549213D1*
D23*
X125000Y1049213D3*
X25000Y1124213D2*
D10*
X225000D1*
Y1424213D1*
X25000D1*
Y1124213D1*
D23*
X125000Y-787D3*
X25000Y74213D2*
D10*
X225000D1*
Y374213D1*
X25000D1*
Y74213D1*
D23*
X1875000Y1049213D3*
X1775000Y1124213D2*
D10*
X1975000D1*
Y1424213D1*
X1775000D1*
Y1124213D1*
D23*
X1875000Y-787D3*
X1775000Y74213D2*
D10*
X1975000D1*
Y374213D1*
X1775000D1*
Y74213D1*
X1680111Y946835D2*
Y553165D1*
X1782487Y946835D2*
Y553165D1*
X1680111D2*
X1782487D1*
X1680111Y946835D2*
X1711605D1*
X1750994D2*
X1782487D1*
X1711605D2*
G03X1750994Y946835I19694J11D01*
G01*
X425000Y1195000D2*
D20*
X499993D1*
X425000Y1105000D2*
X499993D1*
X540007D2*
X615000D1*
X540007Y1195000D2*
X615000D1*
X425000Y1105000D2*
Y1195000D1*
X615000Y1105000D2*
Y1195000D1*
X425000Y395000D2*
X499993D1*
X425000Y305000D2*
X499993D1*
X540007D2*
X615000D1*
X540007Y395000D2*
X615000D1*
X425000Y305000D2*
Y395000D1*
X615000Y305000D2*
Y395000D1*
X795000Y475000D2*
Y400007D1*
X705000Y475000D2*
Y400007D1*
Y359993D2*
Y285000D1*
X795000Y359993D2*
Y285000D1*
X705000Y475000D2*
X795000D1*
X705000Y285000D2*
X795000D1*
X705000Y1100000D2*
Y1174993D1*
X795000Y1100000D2*
Y1174993D1*
Y1215007D2*
Y1290000D1*
X705000Y1215007D2*
Y1290000D1*
X795000Y1100000D2*
X705000D1*
X795000Y1290000D2*
X705000D1*
X925000Y1370000D2*
X999993D1*
X925000Y1280000D2*
X999993D1*
X1040007D2*
X1115000D1*
X1040007Y1370000D2*
X1115000D1*
X925000Y1280000D2*
Y1370000D1*
X1115000Y1280000D2*
Y1370000D1*
X1380371Y767809D2*
D10*
X1284320D1*
X1380371Y885931D2*
X1284320Y885919D1*
Y767821D2*
X1284300Y781591D1*
X1284320Y885931D2*
X1284300Y872149D1*
D27*
X1461595Y787500D3*
X1405309Y1094629D2*
D10*
Y1190680D1*
X1523431Y1094629D2*
X1523419Y1190680D1*
X1405321D2*
X1419091Y1190700D1*
X1523431Y1190680D2*
X1509649Y1190700D1*
D30*
X1425000Y1013405D3*
X1020000Y650000D2*
D20*
Y575007D1*
X930000Y650000D2*
Y575007D1*
Y534993D2*
Y460000D1*
X1020000Y534993D2*
Y460000D1*
X930000Y650000D2*
X1020000D1*
X930000Y460000D2*
X1020000D1*
Y337500D2*
Y262507D1*
X930000Y337500D2*
Y262507D1*
Y222493D2*
Y147500D1*
X1020000Y222493D2*
Y147500D1*
X930000Y337500D2*
X1020000D1*
X930000Y147500D2*
X1020000D1*
X275000Y525000D2*
D10*
G02X275000Y525000I50000J0D01*
G01*
Y750000D2*
G02X275000Y750000I50000J0D01*
G01*
Y975000D2*
G02X275000Y975000I50000J0D01*
G01*
Y1150000D2*
G02X275000Y1150000I50000J0D01*
G01*
Y350000D2*
G02X275000Y350000I50000J0D01*
G01*
X1275000Y1262500D2*
G02X1275000Y1262500I50000J0D01*
G01*
Y975000D2*
G02X1275000Y975000I50000J0D01*
G01*
X1587500Y1025000D2*
G02X1587500Y1025000I50000J0D01*
G01*
Y1187500D2*
G02X1587500Y1187500I50000J0D01*
G01*
X1030111Y1198427D2*
Y1001573D1*
X1132487Y1198427D2*
Y1001573D1*
X1030111D2*
X1132487D1*
X1061605Y1198427D2*
X1030111D1*
X1100994D2*
X1132487D1*
X1061605D2*
G03X1100994Y1198427I19694J9D01*
G01*
X1294889Y201573D2*
Y398427D1*
X1192513Y201573D2*
Y398427D1*
X1294889D2*
X1192513D1*
X1263395Y201573D2*
X1294889D1*
X1224006D2*
X1192513D1*
X1263395D2*
G03X1224006Y201573I-19694J-9D01*
G01*
D33*
X1158375Y676914D3*
X1212440Y671651D2*
D10*
Y553543D1*
X1243931Y671651D2*
Y553543D1*
X1212440D2*
X1243931D1*
X1212440Y671651D2*
X1243931D1*
X100000Y1487500D2*
D16*
X1900000D1*
X100000Y12500D2*
X1900000D1*
X12500Y1400000D2*
Y100000D1*
X1987500Y1400000D2*
Y100000D1*
X12500Y1400000D2*
G02X100000Y1487500I85417J2083D01*
G01*
Y12500D2*
G02X12500Y100000I-2083J85417D01*
G01*
X1987500D2*
G02X1900000Y12500I-85417J-2083D01*
G01*
Y1487500D2*
G02X1987500Y1400000I2083J-85417D01*
G01*
X312500Y125000D2*
D19*
G02X312500Y125000I87500J0D01*
G01*
Y1375000D2*
G02X312500Y1375000I87500J0D01*
G01*
X1512500Y125000D2*
G02X1512500Y125000I87500J0D01*
G01*
Y1375000D2*
G02X1512500Y1375000I87500J0D01*
G01*
X666781Y871719D2*
D12*
X669781D1*
X744781D2*
X747781D1*
X798781D2*
X801781D1*
X927781D2*
X930781D1*
X668282Y868719D2*
X675180D1*
X741655D2*
X752273D1*
X795793D2*
X804655D1*
X923058D2*
X930781D1*
X670024Y865719D2*
X679829D1*
X738141D2*
X756942D1*
X792933D2*
X807130D1*
X918955D2*
X930781D1*
X671752Y862719D2*
X683439D1*
X733817D2*
X761458D1*
X790469D2*
X809123D1*
X915502D2*
X930781D1*
X673289Y859719D2*
X686091D1*
X728471D2*
X765781D1*
X788375D2*
X809356D1*
X913930D2*
X930781D1*
X674470Y856719D2*
X688033D1*
X722477D2*
X761881D1*
X790314D2*
X807379D1*
X913778D2*
X930781D1*
X675175Y853719D2*
X689376D1*
X716918D2*
X758490D1*
X792781D2*
X804781D1*
X914206D2*
X930781D1*
X675526Y850719D2*
X690142D1*
X712280D2*
X727622D1*
X738781D2*
X755753D1*
X914847D2*
X930781D1*
X675682Y847719D2*
X690515D1*
X710180D2*
X720871D1*
X738781D2*
X754737D1*
X915320D2*
X930781D1*
X675744Y844719D2*
X690678D1*
X709432D2*
X715537D1*
X738769D2*
X754187D1*
X915579D2*
X930781D1*
X675768Y841719D2*
X690743D1*
X709047D2*
X713363D1*
X738593D2*
X753940D1*
X915700D2*
X930781D1*
X675776Y838719D2*
X690767D1*
X708881D2*
X712452D1*
X738136D2*
X753839D1*
X915752D2*
X930781D1*
X675744Y835719D2*
X690776D1*
X708817D2*
X718074D1*
X735227D2*
X753801D1*
X798781D2*
X801781D1*
X873781D2*
X876781D1*
X900781D2*
X930781D1*
X1002781D2*
X1005781D1*
X1059781D2*
X1062781D1*
X1089781D2*
X1092781D1*
X1131781D2*
X1134781D1*
X1173781D2*
X1176781D1*
X675417Y832719D2*
X690779D1*
X708793D2*
X727283D1*
X727259D2*
X753788D1*
X794289D2*
X805233D1*
X865404D2*
X880461D1*
X900781D2*
X945781D1*
X995998D2*
X1010601D1*
X1056793D2*
X1067435D1*
X1083730D2*
X1096461D1*
X1128793D2*
X1137769D1*
X1170793D2*
X1180461D1*
X674644Y829719D2*
X690780D1*
X708785D2*
X753783D1*
X789619D2*
X808863D1*
X857493D2*
X884865D1*
X900781D2*
X945781D1*
X988335D2*
X1016284D1*
X1053907D2*
X1073593D1*
X1076645D2*
X1100865D1*
X1125907D2*
X1140652D1*
X1167933D2*
X1184865D1*
X671633Y826719D2*
X690781D1*
X708782D2*
X753782D1*
X785104D2*
X812183D1*
X851297D2*
X889674D1*
X915781D2*
X930781D1*
X980400D2*
X1022409D1*
X1051370D2*
X1105674D1*
X1123370D2*
X1143152D1*
X1165469D2*
X1189674D1*
X668132Y823719D2*
X690781D1*
X708781D2*
X711781D1*
X738781D2*
X753781D1*
X780781D2*
X814729D1*
X846680D2*
X894005D1*
X915781D2*
X930781D1*
X974003D2*
X1027943D1*
X1049396D2*
X1110005D1*
X1121396D2*
X1144934D1*
X1163375D2*
X1194005D1*
X665052Y820719D2*
X690781D1*
X708781D2*
X711781D1*
X738781D2*
X753781D1*
X784118D2*
X816781D1*
X845166D2*
X858781D1*
X867781D2*
X897781D1*
X915781D2*
X930781D1*
X969380D2*
X985370D1*
X997118D2*
X1032781D1*
X1047781D2*
X1074781D1*
X1083781D2*
X1113781D1*
X1119781D2*
X1145947D1*
X1165103D2*
X1197781D1*
X662568Y817719D2*
X690781D1*
X708781D2*
X711804D1*
X738769D2*
X753781D1*
X787361D2*
X811960D1*
X844362D2*
X858781D1*
X870781D2*
X893375D1*
X915781D2*
X930781D1*
X968000D2*
X983616D1*
X1000361D2*
X1027960D1*
X1052961D2*
X1074781D1*
X1086781D2*
X1109375D1*
X1124961D2*
X1146437D1*
X1167179D2*
X1192960D1*
X661647Y814719D2*
X690781D1*
X708781D2*
X712033D1*
X738655D2*
X753781D1*
X789919D2*
X807904D1*
X844005D2*
X858781D1*
X873781D2*
X888781D1*
X915781D2*
X930781D1*
X967283D2*
X982611D1*
X1002919D2*
X1023904D1*
X1057040D2*
X1074781D1*
X1089781D2*
X1104781D1*
X1129040D2*
X1146648D1*
X1168881D2*
X1188904D1*
X661148Y811719D2*
X690781D1*
X708781D2*
X712578D1*
X738191D2*
X753781D1*
X791755D2*
X806305D1*
X843863D2*
X858781D1*
X915781D2*
X930781D1*
X966972D2*
X982124D1*
X1004755D2*
X1022305D1*
X1058466D2*
X1074781D1*
X1130466D2*
X1146732D1*
X1169905D2*
X1187305D1*
X660915Y808719D2*
X690781D1*
X708781D2*
X714916D1*
X720781D2*
X732781D1*
X737166D2*
X753781D1*
X792300D2*
X805433D1*
X843809D2*
X858781D1*
X915781D2*
X930781D1*
X966850D2*
X981913D1*
X1005300D2*
X1021433D1*
X1059227D2*
X1074781D1*
X1131227D2*
X1146764D1*
X1170415D2*
X1186433D1*
X660781Y805719D2*
X666781D1*
X675781D2*
X690781D1*
X708781D2*
X753781D1*
X792583D2*
X805037D1*
X843791D2*
X858781D1*
X915781D2*
X930781D1*
X966805D2*
X981829D1*
X1005583D2*
X1021037D1*
X1059566D2*
X1074781D1*
X1131566D2*
X1146775D1*
X1170639D2*
X1186037D1*
X675781Y802719D2*
X690781D1*
X708781D2*
X721496D1*
X731602D2*
X753781D1*
X792705D2*
X804876D1*
X843784D2*
X858781D1*
X915781D2*
X930781D1*
X966789D2*
X981798D1*
X1005705D2*
X1020876D1*
X1059702D2*
X1074781D1*
X1131702D2*
X1146779D1*
X1170728D2*
X1185876D1*
X675781Y799719D2*
X690781D1*
X708781D2*
X717244D1*
X735658D2*
X753781D1*
X792754D2*
X804814D1*
X843782D2*
X858781D1*
X915781D2*
X930781D1*
X966783D2*
X981787D1*
X1005754D2*
X1020814D1*
X1059753D2*
X1074781D1*
X1131753D2*
X1146780D1*
X1170762D2*
X1185814D1*
X675781Y796719D2*
X690781D1*
X708781D2*
X713973D1*
X737257D2*
X753781D1*
X792771D2*
X804792D1*
X843781D2*
X858781D1*
X915781D2*
X930781D1*
X966782D2*
X981783D1*
X1005771D2*
X1020792D1*
X1059772D2*
X1074781D1*
X1131772D2*
X1146781D1*
X1170775D2*
X1185792D1*
X675781Y793719D2*
X690781D1*
X708781D2*
X712836D1*
X738129D2*
X753781D1*
X792778D2*
X804785D1*
X843781D2*
X858781D1*
X915781D2*
X930781D1*
X966781D2*
X981781D1*
X1005778D2*
X1020785D1*
X1059778D2*
X1074781D1*
X1131778D2*
X1146781D1*
X1170779D2*
X1185785D1*
X675781Y790719D2*
X690793D1*
X708769D2*
X712227D1*
X738525D2*
X753781D1*
X792780D2*
X804782D1*
X843781D2*
X858781D1*
X915781D2*
X930781D1*
X966781D2*
X981781D1*
X1005780D2*
X1020782D1*
X1059780D2*
X1074781D1*
X1131780D2*
X1146781D1*
X1170780D2*
X1185782D1*
X675781Y787719D2*
X690945D1*
X708617D2*
X711978D1*
X738674D2*
X753781D1*
X792781D2*
X804793D1*
X843769D2*
X858781D1*
X915781D2*
X930793D1*
X966769D2*
X981781D1*
X1005781D2*
X1020781D1*
X1059769D2*
X1074781D1*
X1131769D2*
X1146781D1*
X1170769D2*
X1185781D1*
X675757Y784719D2*
X691332D1*
X708230D2*
X712149D1*
X738560D2*
X753781D1*
X792781D2*
X804922D1*
X843640D2*
X858828D1*
X915757D2*
X930945D1*
X966640D2*
X981804D1*
X1005781D2*
X1020781D1*
X1059640D2*
X1074828D1*
X1131640D2*
X1146781D1*
X1170582D2*
X1185781D1*
X675535Y781719D2*
X693538D1*
X706024D2*
X712800D1*
X738131D2*
X753781D1*
X792781D2*
X805238D1*
X843324D2*
X858968D1*
X915535D2*
X931332D1*
X966324D2*
X982027D1*
X1005757D2*
X1020781D1*
X1059324D2*
X1074968D1*
X1131324D2*
X1146781D1*
X1170089D2*
X1185781D1*
X675007Y778719D2*
X699168D1*
X700394D2*
X716501D1*
X735226D2*
X753781D1*
X792781D2*
X807057D1*
X841505D2*
X860281D1*
X915007D2*
X933435D1*
X964505D2*
X982554D1*
X1005500D2*
X1020757D1*
X1057505D2*
X1076281D1*
X1129505D2*
X1146781D1*
X1166829D2*
X1185781D1*
X672789Y775719D2*
X725422D1*
X727258D2*
X753781D1*
X792793D2*
X809839D1*
X838723D2*
X864194D1*
X912789D2*
X938173D1*
X961723D2*
X985003D1*
X1004867D2*
X1020488D1*
X1054723D2*
X1080194D1*
X1126723D2*
X1146781D1*
X1157691D2*
X1185781D1*
X669911Y772719D2*
X753781D1*
X792910D2*
X813232D1*
X835329D2*
X868910D1*
X909911D2*
X943470D1*
X958329D2*
X988762D1*
X1001861D2*
X1019820D1*
X1051329D2*
X1084910D1*
X1123329D2*
X1185781D1*
X666781Y769719D2*
X741330D1*
X793409D2*
X816781D1*
X831781D2*
X873781D1*
X906781D2*
X948781D1*
X954781D2*
X993887D1*
X995276D2*
X1016515D1*
X1047781D2*
X1089781D1*
X1119781D2*
X1185781D1*
X678018Y766719D2*
X731377D1*
X794627D2*
X813781D1*
X837859D2*
X869289D1*
X912299D2*
X944289D1*
X962351D2*
X1009217D1*
X1053859D2*
X1085289D1*
X1125859D2*
X1158904D1*
X1171256D2*
X1185781D1*
X689326Y763719D2*
X723803D1*
X796611D2*
X810781D1*
X843561D2*
X864619D1*
X917869D2*
X939619D1*
X969722D2*
X1000928D1*
X1059561D2*
X1080619D1*
X1131561D2*
X1153370D1*
X1172105D2*
X1185781D1*
X699458Y760719D2*
X717584D1*
X799098D2*
X807781D1*
X848406D2*
X860104D1*
X922999D2*
X935104D1*
X976083D2*
X992718D1*
X1064406D2*
X1076104D1*
X1136406D2*
X1148396D1*
X1173264D2*
X1185781D1*
X708781Y757719D2*
X711781D1*
X801781D2*
X804781D1*
X852781D2*
X855781D1*
X927781D2*
X930781D1*
X981781D2*
X984781D1*
X1068781D2*
X1071781D1*
X1140781D2*
X1143781D1*
X1174508D2*
X1185769D1*
X1175556Y754719D2*
X1185664D1*
X1176207Y751719D2*
X1185281D1*
X1176526Y748719D2*
X1184551D1*
X1176521Y745719D2*
X1183665D1*
X1176210Y742719D2*
X1182642D1*
X1140781Y739719D2*
X1155781D1*
X1174018D2*
X1181146D1*
X1136937Y736719D2*
X1164593D1*
X1168391D2*
X1179031D1*
X1134062Y733719D2*
X1176457D1*
X1131781Y730719D2*
X1173533D1*
X1141417Y727719D2*
X1170147D1*
X1149146Y724719D2*
X1166151D1*
X1155781Y721719D2*
X1161781D1*
X666781Y871719D2*
X668282Y868719D1*
X670024Y865719D1*
X671752Y862719D1*
X673289Y859719D1*
X674470Y856719D1*
X675175Y853719D1*
X675526Y850719D1*
X675682Y847719D1*
X675744Y844719D1*
X675768Y841719D1*
X675776Y838719D1*
X675744Y835719D1*
X675417Y832719D1*
X674644Y829719D1*
X671633Y826719D1*
X668132Y823719D1*
X665052Y820719D1*
X662568Y817719D1*
X661647Y814719D1*
X661148Y811719D1*
X660915Y808719D1*
X660781Y805719D1*
X669781Y871719D2*
X675180Y868719D1*
X679829Y865719D1*
X683439Y862719D1*
X686091Y859719D1*
X688033Y856719D1*
X689376Y853719D1*
X690142Y850719D1*
X690515Y847719D1*
X690678Y844719D1*
X690743Y841719D1*
X690767Y838719D1*
X690776Y835719D1*
X690779Y832719D1*
X690780Y829719D1*
X690781Y826719D1*
Y823719D1*
Y820719D1*
Y817719D1*
Y814719D1*
Y811719D1*
Y808719D1*
Y805719D1*
Y802719D1*
Y799719D1*
Y796719D1*
Y793719D1*
X690793Y790719D1*
X690945Y787719D1*
X691332Y784719D1*
X693538Y781719D1*
X699168Y778719D1*
X705781Y775719D1*
X744781Y871719D2*
X741655Y868719D1*
X738141Y865719D1*
X733817Y862719D1*
X728471Y859719D1*
X722477Y856719D1*
X716918Y853719D1*
X712280Y850719D1*
X710180Y847719D1*
X709432Y844719D1*
X709047Y841719D1*
X708881Y838719D1*
X708817Y835719D1*
X708793Y832719D1*
X708785Y829719D1*
X708782Y826719D1*
X708781Y823719D1*
Y820719D1*
Y817719D1*
Y814719D1*
Y811719D1*
Y808719D1*
Y805719D1*
Y802719D1*
Y799719D1*
Y796719D1*
Y793719D1*
X708769Y790719D1*
X708617Y787719D1*
X708230Y784719D1*
X706024Y781719D1*
X700394Y778719D1*
X693781Y775719D1*
X747781Y871719D2*
X752273Y868719D1*
X756942Y865719D1*
X761458Y862719D1*
X765781Y859719D1*
X761881Y856719D1*
X758490Y853719D1*
X755753Y850719D1*
X754737Y847719D1*
X754187Y844719D1*
X753940Y841719D1*
X753839Y838719D1*
X753801Y835719D1*
X753788Y832719D1*
X753783Y829719D1*
X753782Y826719D1*
X753781Y823719D1*
Y820719D1*
Y817719D1*
Y814719D1*
Y811719D1*
Y808719D1*
Y805719D1*
Y802719D1*
Y799719D1*
Y796719D1*
Y793719D1*
Y790719D1*
Y787719D1*
Y784719D1*
Y781719D1*
Y778719D1*
Y775719D1*
Y772719D1*
X741330Y769719D1*
X731377Y766719D1*
X723803Y763719D1*
X717584Y760719D1*
X711781Y757719D1*
X798781Y871719D2*
X795793Y868719D1*
X792933Y865719D1*
X790469Y862719D1*
X788375Y859719D1*
X790314Y856719D1*
X792781Y853719D1*
X801781Y871719D2*
X804655Y868719D1*
X807130Y865719D1*
X809123Y862719D1*
X809356Y859719D1*
X807379Y856719D1*
X804781Y853719D1*
X927781Y871719D2*
X923058Y868719D1*
X918955Y865719D1*
X915502Y862719D1*
X913930Y859719D1*
X913778Y856719D1*
X914206Y853719D1*
X914847Y850719D1*
X915320Y847719D1*
X915579Y844719D1*
X915700Y841719D1*
X915752Y838719D1*
X915781Y835719D1*
X900781D1*
Y832719D1*
Y829719D1*
Y826719D1*
X915781D1*
Y823719D1*
Y820719D1*
Y817719D1*
Y814719D1*
Y811719D1*
Y808719D1*
Y805719D1*
Y802719D1*
Y799719D1*
Y796719D1*
Y793719D1*
Y790719D1*
Y787719D1*
X915757Y784719D1*
X915535Y781719D1*
X915007Y778719D1*
X912789Y775719D1*
X909911Y772719D1*
X906781Y769719D1*
X912299Y766719D1*
X917869Y763719D1*
X922999Y760719D1*
X927781Y757719D1*
X930781Y871719D2*
Y868719D1*
Y865719D1*
Y862719D1*
Y859719D1*
Y856719D1*
Y853719D1*
Y850719D1*
Y847719D1*
Y844719D1*
Y841719D1*
Y838719D1*
Y835719D1*
Y832719D1*
X945781D1*
Y829719D1*
Y826719D1*
X930781D1*
Y823719D1*
Y820719D1*
Y817719D1*
Y814719D1*
Y811719D1*
Y808719D1*
Y805719D1*
Y802719D1*
Y799719D1*
Y796719D1*
Y793719D1*
Y790719D1*
X930793Y787719D1*
X930945Y784719D1*
X931332Y781719D1*
X933435Y778719D1*
X938173Y775719D1*
X943470Y772719D1*
X948781Y769719D1*
X944289Y766719D1*
X939619Y763719D1*
X935104Y760719D1*
X930781Y757719D1*
X735781Y853719D2*
X727622Y850719D1*
X720871Y847719D1*
X715537Y844719D1*
X713363Y841719D1*
X712452Y838719D1*
X718074Y835719D1*
X727283Y832719D1*
X738781Y829719D1*
Y853719D2*
Y850719D1*
Y847719D1*
X738769Y844719D1*
X738593Y841719D1*
X738136Y838719D1*
X735227Y835719D1*
X727259Y832719D1*
X717781Y829719D1*
X798781Y835719D2*
X794289Y832719D1*
X789619Y829719D1*
X785104Y826719D1*
X780781Y823719D1*
X784118Y820719D1*
X787361Y817719D1*
X789919Y814719D1*
X791755Y811719D1*
X792300Y808719D1*
X792583Y805719D1*
X792705Y802719D1*
X792754Y799719D1*
X792771Y796719D1*
X792778Y793719D1*
X792780Y790719D1*
X792781Y787719D1*
Y784719D1*
Y781719D1*
Y778719D1*
X792793Y775719D1*
X792910Y772719D1*
X793409Y769719D1*
X794627Y766719D1*
X796611Y763719D1*
X799098Y760719D1*
X801781Y757719D1*
Y835719D2*
X805233Y832719D1*
X808863Y829719D1*
X812183Y826719D1*
X814729Y823719D1*
X816781Y820719D1*
X811960Y817719D1*
X807904Y814719D1*
X806305Y811719D1*
X805433Y808719D1*
X805037Y805719D1*
X804876Y802719D1*
X804814Y799719D1*
X804792Y796719D1*
X804785Y793719D1*
X804782Y790719D1*
X804793Y787719D1*
X804922Y784719D1*
X805238Y781719D1*
X807057Y778719D1*
X809839Y775719D1*
X813232Y772719D1*
X816781Y769719D1*
X813781Y766719D1*
X810781Y763719D1*
X807781Y760719D1*
X804781Y757719D1*
X873781Y835719D2*
X865404Y832719D1*
X857493Y829719D1*
X851297Y826719D1*
X846680Y823719D1*
X845166Y820719D1*
X844362Y817719D1*
X844005Y814719D1*
X843863Y811719D1*
X843809Y808719D1*
X843791Y805719D1*
X843784Y802719D1*
X843782Y799719D1*
X843781Y796719D1*
Y793719D1*
Y790719D1*
X843769Y787719D1*
X843640Y784719D1*
X843324Y781719D1*
X841505Y778719D1*
X838723Y775719D1*
X835329Y772719D1*
X831781Y769719D1*
X837859Y766719D1*
X843561Y763719D1*
X848406Y760719D1*
X852781Y757719D1*
X876781Y835719D2*
X880461Y832719D1*
X884865Y829719D1*
X889674Y826719D1*
X894005Y823719D1*
X897781Y820719D1*
X893375Y817719D1*
X888781Y814719D1*
X1002781Y835719D2*
X995998Y832719D1*
X988335Y829719D1*
X980400Y826719D1*
X974003Y823719D1*
X969380Y820719D1*
X968000Y817719D1*
X967283Y814719D1*
X966972Y811719D1*
X966850Y808719D1*
X966805Y805719D1*
X966789Y802719D1*
X966783Y799719D1*
X966782Y796719D1*
X966781Y793719D1*
Y790719D1*
X966769Y787719D1*
X966640Y784719D1*
X966324Y781719D1*
X964505Y778719D1*
X961723Y775719D1*
X958329Y772719D1*
X954781Y769719D1*
X962351Y766719D1*
X969722Y763719D1*
X976083Y760719D1*
X981781Y757719D1*
X1005781Y835719D2*
X1010601Y832719D1*
X1016284Y829719D1*
X1022409Y826719D1*
X1027943Y823719D1*
X1032781Y820719D1*
X1027960Y817719D1*
X1023904Y814719D1*
X1022305Y811719D1*
X1021433Y808719D1*
X1021037Y805719D1*
X1020876Y802719D1*
X1020814Y799719D1*
X1020792Y796719D1*
X1020785Y793719D1*
X1020782Y790719D1*
X1020781Y787719D1*
Y784719D1*
Y781719D1*
X1020757Y778719D1*
X1020488Y775719D1*
X1019820Y772719D1*
X1016515Y769719D1*
X1009217Y766719D1*
X1000928Y763719D1*
X992718Y760719D1*
X984781Y757719D1*
X1059781Y835719D2*
X1056793Y832719D1*
X1053907Y829719D1*
X1051370Y826719D1*
X1049396Y823719D1*
X1047781Y820719D1*
X1052961Y817719D1*
X1057040Y814719D1*
X1058466Y811719D1*
X1059227Y808719D1*
X1059566Y805719D1*
X1059702Y802719D1*
X1059753Y799719D1*
X1059772Y796719D1*
X1059778Y793719D1*
X1059780Y790719D1*
X1059769Y787719D1*
X1059640Y784719D1*
X1059324Y781719D1*
X1057505Y778719D1*
X1054723Y775719D1*
X1051329Y772719D1*
X1047781Y769719D1*
X1053859Y766719D1*
X1059561Y763719D1*
X1064406Y760719D1*
X1068781Y757719D1*
X1062781Y835719D2*
X1067435Y832719D1*
X1073593Y829719D1*
X1080781Y826719D1*
X1089781Y835719D2*
X1083730Y832719D1*
X1076645Y829719D1*
X1068781Y826719D1*
X1092781Y835719D2*
X1096461Y832719D1*
X1100865Y829719D1*
X1105674Y826719D1*
X1110005Y823719D1*
X1113781Y820719D1*
X1109375Y817719D1*
X1104781Y814719D1*
X1131781Y835719D2*
X1128793Y832719D1*
X1125907Y829719D1*
X1123370Y826719D1*
X1121396Y823719D1*
X1119781Y820719D1*
X1124961Y817719D1*
X1129040Y814719D1*
X1130466Y811719D1*
X1131227Y808719D1*
X1131566Y805719D1*
X1131702Y802719D1*
X1131753Y799719D1*
X1131772Y796719D1*
X1131778Y793719D1*
X1131780Y790719D1*
X1131769Y787719D1*
X1131640Y784719D1*
X1131324Y781719D1*
X1129505Y778719D1*
X1126723Y775719D1*
X1123329Y772719D1*
X1119781Y769719D1*
X1125859Y766719D1*
X1131561Y763719D1*
X1136406Y760719D1*
X1140781Y757719D1*
X1134781Y835719D2*
X1137769Y832719D1*
X1140652Y829719D1*
X1143152Y826719D1*
X1144934Y823719D1*
X1145947Y820719D1*
X1146437Y817719D1*
X1146648Y814719D1*
X1146732Y811719D1*
X1146764Y808719D1*
X1146775Y805719D1*
X1146779Y802719D1*
X1146780Y799719D1*
X1146781Y796719D1*
Y793719D1*
Y790719D1*
Y787719D1*
Y784719D1*
Y781719D1*
Y778719D1*
Y775719D1*
X1164781Y772719D1*
X1173781Y835719D2*
X1170793Y832719D1*
X1167933Y829719D1*
X1165469Y826719D1*
X1163375Y823719D1*
X1165103Y820719D1*
X1167179Y817719D1*
X1168881Y814719D1*
X1169905Y811719D1*
X1170415Y808719D1*
X1170639Y805719D1*
X1170728Y802719D1*
X1170762Y799719D1*
X1170775Y796719D1*
X1170779Y793719D1*
X1170780Y790719D1*
X1170769Y787719D1*
X1170582Y784719D1*
X1170089Y781719D1*
X1166829Y778719D1*
X1157691Y775719D1*
X1146781Y772719D1*
X1176781Y835719D2*
X1180461Y832719D1*
X1184865Y829719D1*
X1189674Y826719D1*
X1194005Y823719D1*
X1197781Y820719D1*
X1192960Y817719D1*
X1188904Y814719D1*
X1187305Y811719D1*
X1186433Y808719D1*
X1186037Y805719D1*
X1185876Y802719D1*
X1185814Y799719D1*
X1185792Y796719D1*
X1185785Y793719D1*
X1185782Y790719D1*
X1185781Y787719D1*
Y784719D1*
Y781719D1*
Y778719D1*
Y775719D1*
Y772719D1*
Y769719D1*
Y766719D1*
Y763719D1*
Y760719D1*
X1185769Y757719D1*
X1185664Y754719D1*
X1185281Y751719D1*
X1184551Y748719D1*
X1183665Y745719D1*
X1182642Y742719D1*
X1181146Y739719D1*
X1179031Y736719D1*
X1176457Y733719D1*
X1173533Y730719D1*
X1170147Y727719D1*
X1166151Y724719D1*
X1161781Y721719D1*
X711781Y826719D2*
Y823719D1*
Y820719D1*
X711804Y817719D1*
X712033Y814719D1*
X712578Y811719D1*
X714916Y808719D1*
X717781Y805719D1*
X738781Y826719D2*
Y823719D1*
Y820719D1*
X738769Y817719D1*
X738655Y814719D1*
X738191Y811719D1*
X737166Y808719D1*
X735781Y805719D1*
X858781Y823719D2*
Y820719D1*
Y817719D1*
Y814719D1*
Y811719D1*
Y808719D1*
Y805719D1*
Y802719D1*
Y799719D1*
Y796719D1*
Y793719D1*
Y790719D1*
Y787719D1*
X858828Y784719D1*
X858968Y781719D1*
X860281Y778719D1*
X864194Y775719D1*
X868910Y772719D1*
X873781Y769719D1*
X869289Y766719D1*
X864619Y763719D1*
X860104Y760719D1*
X855781Y757719D1*
X864781Y823719D2*
X867781Y820719D1*
X870781Y817719D1*
X873781Y814719D1*
X987781Y823719D2*
X985370Y820719D1*
X983616Y817719D1*
X982611Y814719D1*
X982124Y811719D1*
X981913Y808719D1*
X981829Y805719D1*
X981798Y802719D1*
X981787Y799719D1*
X981783Y796719D1*
X981781Y793719D1*
Y790719D1*
Y787719D1*
X981804Y784719D1*
X982027Y781719D1*
X982554Y778719D1*
X985003Y775719D1*
X988762Y772719D1*
X993887Y769719D1*
X999781Y766719D1*
X993781Y823719D2*
X997118Y820719D1*
X1000361Y817719D1*
X1002919Y814719D1*
X1004755Y811719D1*
X1005300Y808719D1*
X1005583Y805719D1*
X1005705Y802719D1*
X1005754Y799719D1*
X1005771Y796719D1*
X1005778Y793719D1*
X1005780Y790719D1*
X1005781Y787719D1*
Y784719D1*
X1005757Y781719D1*
X1005500Y778719D1*
X1004867Y775719D1*
X1001861Y772719D1*
X995276Y769719D1*
X987781Y766719D1*
X1074781Y823719D2*
Y820719D1*
Y817719D1*
Y814719D1*
Y811719D1*
Y808719D1*
Y805719D1*
Y802719D1*
Y799719D1*
Y796719D1*
Y793719D1*
Y790719D1*
Y787719D1*
X1074828Y784719D1*
X1074968Y781719D1*
X1076281Y778719D1*
X1080194Y775719D1*
X1084910Y772719D1*
X1089781Y769719D1*
X1085289Y766719D1*
X1080619Y763719D1*
X1076104Y760719D1*
X1071781Y757719D1*
X1080781Y823719D2*
X1083781Y820719D1*
X1086781Y817719D1*
X1089781Y814719D1*
X720781Y808719D2*
X717781Y805719D1*
X732781Y808719D2*
X735781Y805719D1*
X669781Y808719D2*
X666781Y805719D1*
X675781Y808719D2*
Y805719D1*
Y802719D1*
Y799719D1*
Y796719D1*
Y793719D1*
Y790719D1*
Y787719D1*
X675757Y784719D1*
X675535Y781719D1*
X675007Y778719D1*
X672789Y775719D1*
X669911Y772719D1*
X666781Y769719D1*
X678018Y766719D1*
X689326Y763719D1*
X699458Y760719D1*
X708781Y757719D1*
X726781Y805719D2*
X721496Y802719D1*
X717244Y799719D1*
X713973Y796719D1*
X712836Y793719D1*
X712227Y790719D1*
X711978Y787719D1*
X712149Y784719D1*
X712800Y781719D1*
X716501Y778719D1*
X725422Y775719D1*
X735781Y772719D1*
X726781Y805719D2*
X731602Y802719D1*
X735658Y799719D1*
X737257Y796719D1*
X738129Y793719D1*
X738525Y790719D1*
X738674Y787719D1*
X738560Y784719D1*
X738131Y781719D1*
X735226Y778719D1*
X727258Y775719D1*
X717781Y772719D1*
X1164781Y769719D2*
X1158904Y766719D1*
X1153370Y763719D1*
X1148396Y760719D1*
X1143781Y757719D1*
X1170781Y769719D2*
X1171256Y766719D1*
X1172105Y763719D1*
X1173264Y760719D1*
X1174508Y757719D1*
X1175556Y754719D1*
X1176207Y751719D1*
X1176526Y748719D1*
X1176521Y745719D1*
X1176210Y742719D1*
X1174018Y739719D1*
X1168391Y736719D1*
X1161781Y733719D1*
X1140781Y739719D2*
X1136937Y736719D1*
X1134062Y733719D1*
X1131781Y730719D1*
X1141417Y727719D1*
X1149146Y724719D1*
X1155781Y721719D1*
Y739719D2*
X1164593Y736719D1*
X1173781Y733719D1*
X1570601Y457736D2*
D64*
X1569175Y460588D1*
X1566290Y463473D1*
X1563438Y464899D1*
X1557701D1*
X1554816Y463473D1*
X1551964Y460588D1*
X1550505Y457736D1*
X1549079Y453425D1*
Y446229D1*
X1550505Y441951D1*
X1551964Y439066D1*
X1554816Y436214D1*
X1557701Y434755D1*
X1563438D1*
X1566290Y436214D1*
X1569175Y439066D1*
X1570601Y441951D1*
X1583725Y459129D2*
X1586610Y460588D1*
X1590921Y464866D1*
Y434755D1*
X1687634Y332000D2*
X1689060Y327689D1*
X1693371Y324804D1*
X1700534Y323378D1*
X1704845D1*
X1712008Y324804D1*
X1716319Y327689D1*
X1717745Y332000D1*
Y334852D1*
X1716319Y339163D1*
X1712008Y342014D1*
X1704845Y343474D1*
X1700534D1*
X1693371Y342015D1*
X1689060Y339163D1*
X1687634Y334852D1*
Y332000D1*
X1693371Y342015D2*
X1712008Y324804D1*
X1714860Y358023D2*
X1716319Y356597D1*
X1717745Y358023D1*
X1716319Y359482D1*
X1714860Y358023D1*
X1687634Y375490D2*
Y391242D1*
X1699108Y382653D1*
Y386964D1*
X1700534Y389816D1*
X1701960Y391242D1*
X1706271Y392701D1*
X1709123D1*
X1713434Y391242D1*
X1716319Y388390D1*
X1717745Y384079D1*
Y379768D1*
X1716319Y375490D1*
X1714860Y374064D1*
X1712008Y372605D1*
X1687634Y408710D2*
Y424462D1*
X1699108Y415873D1*
Y420184D1*
X1700534Y423036D1*
X1701960Y424462D1*
X1706271Y425921D1*
X1709123D1*
X1713434Y424462D1*
X1716319Y421610D1*
X1717745Y417299D1*
Y412988D1*
X1716319Y408710D1*
X1714860Y407284D1*
X1712008Y405825D1*
X1697649Y439044D2*
X1712008D1*
X1716286Y440470D1*
X1717745Y443355D1*
Y447666D1*
X1716286Y450518D1*
X1712008Y454829D1*
X1697649D2*
X1717745D1*
X1687601Y486622D2*
Y467952D1*
X1717745D1*
X1701960D2*
Y479426D1*
X511668Y707736D2*
X510242Y710588D1*
X507357Y713473D1*
X504505Y714899D1*
X498768D1*
X495883Y713473D1*
X493031Y710588D1*
X491572Y707736D1*
X490146Y703425D1*
Y696229D1*
X491572Y691951D1*
X493031Y689066D1*
X495883Y686214D1*
X498768Y684755D1*
X504505D1*
X507357Y686214D1*
X510242Y689066D1*
X511668Y691951D1*
X531954Y714866D2*
X527676Y713440D1*
X526217Y710588D1*
Y707703D1*
X527676Y704851D1*
X530528Y703392D1*
X536265Y701966D1*
X540576Y700540D1*
X543428Y697655D1*
X544854Y694803D1*
Y690492D1*
X543428Y687640D1*
X542002Y686181D1*
X537691Y684755D1*
X531954D1*
X527676Y686181D1*
X526217Y687640D1*
X524791Y690492D1*
Y694803D1*
X526217Y697655D1*
X529102Y700540D1*
X533380Y701966D1*
X539117Y703392D1*
X542002Y704851D1*
X543428Y707703D1*
Y710588D1*
X542002Y713440D1*
X537691Y714866D1*
X531954D1*
X586910Y519442D2*
X585451Y522327D1*
X581173Y526638D1*
X611284D1*
X581173Y548383D2*
X582599Y544072D1*
X586910Y541187D1*
X594073Y539761D1*
X598384D1*
X605547Y541187D1*
X609858Y544072D1*
X611284Y548383D1*
Y551235D1*
X609858Y555546D1*
X605547Y558398D1*
X598384Y559857D1*
X594073D1*
X586910Y558398D1*
X582599Y555546D1*
X581173Y551235D1*
Y548383D1*
X586910Y558398D2*
X605547Y541187D1*
X591188Y572980D2*
X605547D1*
X609825Y574406D1*
X611284Y577291D1*
Y581602D1*
X609825Y584454D1*
X605547Y588765D1*
X591188D2*
X611284D1*
X581140Y620559D2*
Y601889D1*
X611284D1*
X595499D2*
Y613363D1*
X512364Y795236D2*
X510938Y798088D1*
X508053Y800973D1*
X505201Y802399D1*
X499464D1*
X496579Y800973D1*
X493727Y798088D1*
X492268Y795236D1*
X490842Y790925D1*
Y783729D1*
X492268Y779451D1*
X493727Y776566D1*
X496579Y773714D1*
X499464Y772255D1*
X505201D1*
X508053Y773714D1*
X510938Y776566D1*
X512364Y779451D1*
X544158Y792351D2*
X542699Y788040D1*
X539847Y785155D1*
X535536Y783729D1*
X534110D1*
X529799Y785155D1*
X526947Y788040D1*
X525488Y792351D1*
Y793777D1*
X526947Y798088D1*
X529799Y800940D1*
X534110Y802366D1*
X535536D1*
X539847Y800940D1*
X542699Y798088D1*
X544158Y792351D1*
Y785155D1*
X542699Y777992D1*
X539847Y773681D1*
X535536Y772255D1*
X532684D1*
X528373Y773681D1*
X526947Y776566D1*
X586910Y869442D2*
X585451Y872327D1*
X581173Y876638D1*
X611284D1*
X581173Y898383D2*
X582599Y894072D1*
X586910Y891187D1*
X594073Y889761D1*
X598384D1*
X605547Y891187D1*
X609858Y894072D1*
X611284Y898383D1*
Y901235D1*
X609858Y905546D1*
X605547Y908398D1*
X598384Y909857D1*
X594073D1*
X586910Y908398D1*
X582599Y905546D1*
X581173Y901235D1*
Y898383D1*
X586910Y908398D2*
X605547Y891187D1*
X591188Y922980D2*
X605547D1*
X609825Y924406D1*
X611284Y927291D1*
Y931602D1*
X609825Y934454D1*
X605547Y938765D1*
X591188D2*
X611284D1*
X581140Y970559D2*
Y951889D1*
X611284D1*
X595499D2*
Y963363D1*
X122020Y994111D2*
Y971163D1*
X120594Y966852D1*
X119135Y965427D1*
X116283Y963967D1*
X113398D1*
X110546Y965427D1*
X109120Y966852D1*
X107661Y971163D1*
Y974015D1*
X135143Y988341D2*
X138028Y989800D1*
X142339Y994078D1*
Y963967D1*
X258386Y589134D2*
Y602067D1*
X256960Y606345D1*
X255501Y607804D1*
X252649Y609230D1*
X248338D1*
X245486Y607804D1*
X244027Y606345D1*
X242601Y602067D1*
Y589134D1*
X272745D1*
X242601Y622354D2*
X272745Y629550D1*
X242601Y636713D1*
X272745Y643876D1*
X242601Y651072D1*
X256960Y664195D2*
Y677095D1*
X255501Y681406D1*
X254075Y682865D1*
X251223Y684291D1*
X248338D1*
X245486Y682865D1*
X244027Y681406D1*
X242601Y677095D1*
Y664195D1*
X272745D1*
X256960Y674243D2*
X272745Y684291D1*
X115570Y1469111D2*
Y1446163D1*
X114144Y1441852D1*
X112685Y1440427D1*
X109833Y1438967D1*
X106948D1*
X104096Y1440427D1*
X102670Y1441852D1*
X101211Y1446163D1*
Y1449015D1*
X130152Y1461915D2*
Y1463341D1*
X131578Y1466226D1*
X133004Y1467652D1*
X135889Y1469078D1*
X141626D1*
X144478Y1467652D1*
X145904Y1466226D1*
X147363Y1463341D1*
Y1460489D1*
X145904Y1457604D1*
X143052Y1453326D1*
X128693Y1438967D1*
X148789D1*
X256960Y1220802D2*
Y1233702D1*
X255501Y1238013D1*
X254075Y1239472D1*
X251223Y1240898D1*
X248338D1*
X245486Y1239472D1*
X244027Y1238013D1*
X242601Y1233702D1*
Y1220802D1*
X272745D1*
X256960Y1230850D2*
X272745Y1240898D1*
X242601Y1272658D2*
Y1254022D1*
X272745Y1254021D1*
Y1272658D1*
X256960Y1254022D2*
Y1265495D1*
X249764Y1307304D2*
X246912Y1305878D1*
X244027Y1302993D1*
X242601Y1300141D1*
Y1294404D1*
X244027Y1291519D1*
X246912Y1288667D1*
X249764Y1287208D1*
X254075Y1285782D1*
X261271D1*
X265549Y1287208D1*
X268434Y1288667D1*
X271286Y1291519D1*
X272745Y1294404D1*
Y1300141D1*
X271286Y1302993D1*
X268434Y1305878D1*
X265549Y1307304D1*
X248371Y1320427D2*
X246912Y1323312D1*
X242634Y1327623D1*
X272745D1*
X115570Y419111D2*
Y396163D1*
X114144Y391852D1*
X112685Y390427D1*
X109833Y388967D1*
X106948D1*
X104096Y390427D1*
X102670Y391852D1*
X101211Y396163D1*
Y399015D1*
X131578Y419078D2*
X147330D1*
X138741Y407604D1*
X143052D1*
X145904Y406178D1*
X147330Y404752D1*
X148789Y400441D1*
Y397589D1*
X147330Y393278D1*
X144478Y390393D1*
X140167Y388967D1*
X135856D1*
X131578Y390393D1*
X130152Y391852D1*
X128693Y394704D1*
X256960Y164352D2*
Y177252D1*
X255501Y181563D1*
X254075Y183022D1*
X251223Y184448D1*
X248338D1*
X245486Y183022D1*
X244027Y181563D1*
X242601Y177252D1*
Y164352D1*
X272745D1*
X256960Y174400D2*
X272745Y184448D1*
X242601Y216208D2*
Y197572D1*
X272745D1*
Y216208D1*
X256960Y197572D2*
Y209045D1*
X249764Y250854D2*
X246912Y249428D1*
X244027Y246543D1*
X242601Y243691D1*
Y237954D1*
X244027Y235069D1*
X246912Y232217D1*
X249764Y230758D1*
X254075Y229332D1*
X261271D1*
X265549Y230758D1*
X268434Y232217D1*
X271286Y235069D1*
X272745Y237954D1*
Y243691D1*
X271286Y246543D1*
X268434Y249428D1*
X265549Y250854D1*
X249797Y265436D2*
X248371D1*
X245486Y266862D1*
X244060Y268288D1*
X242634Y271173D1*
Y276910D1*
X244060Y279762D1*
X245486Y281188D1*
X248371Y282647D1*
X251223D1*
X254108Y281188D1*
X258386Y278336D1*
X272745Y263977D1*
Y284073D1*
X1864857Y1469111D2*
Y1446163D1*
X1863431Y1441852D1*
X1861972Y1440427D1*
X1859120Y1438967D1*
X1856235D1*
X1853383Y1440427D1*
X1851957Y1441852D1*
X1850498Y1446163D1*
Y1449015D1*
X1892339Y1438967D2*
Y1469078D1*
X1877980Y1449015D1*
X1899502D1*
X1760245Y1242307D2*
X1730101Y1242308D1*
X1760245Y1230834D1*
X1730101Y1219360D1*
X1760245D1*
X1730101Y1265479D2*
X1760245D1*
X1730101Y1255431D2*
Y1275527D1*
X1744460Y1288650D2*
Y1301550D1*
X1743001Y1305861D1*
X1741575Y1307320D1*
X1738723Y1308746D1*
X1735838D1*
X1732986Y1307320D1*
X1731527Y1305861D1*
X1730101Y1301550D1*
Y1288650D1*
X1760245D1*
X1744460Y1298698D2*
X1760245Y1308746D1*
X1735871Y1321870D2*
X1734412Y1324755D1*
X1730134Y1329066D1*
X1760245D1*
X1865570Y419111D2*
Y396163D1*
X1864144Y391852D1*
X1862685Y390427D1*
X1859833Y388967D1*
X1856948D1*
X1854096Y390427D1*
X1852670Y391852D1*
X1851211Y396163D1*
Y399015D1*
X1895904Y419078D2*
X1881578D1*
X1880152Y406178D1*
X1881578Y407604D1*
X1885889Y409063D1*
X1890167D1*
X1894478Y407604D1*
X1897363Y404752D1*
X1898789Y400441D1*
Y397589D1*
X1897363Y393278D1*
X1894478Y390393D1*
X1890167Y388967D1*
X1885889D1*
X1881578Y390393D1*
X1880152Y391852D1*
X1878693Y394704D1*
X1760245Y185858D2*
X1730101D1*
X1760245Y174384D1*
X1730101Y162910D1*
X1760245D1*
X1730101Y209029D2*
X1760245D1*
X1730101Y198981D2*
Y219077D1*
X1744460Y232200D2*
Y245100D1*
X1743001Y249411D1*
X1741575Y250870D1*
X1738723Y252296D1*
X1735838D1*
X1732986Y250870D1*
X1731527Y249411D1*
X1730101Y245100D1*
Y232200D1*
X1760245D1*
X1744460Y242248D2*
X1760245Y252296D1*
X1737297Y266879D2*
X1735871D1*
X1732986Y268305D1*
X1731560Y269731D1*
X1730134Y272616D1*
Y278353D1*
X1731560Y281205D1*
X1732986Y282631D1*
X1735871Y284090D1*
X1738723D1*
X1741608Y282631D1*
X1745886Y279779D1*
X1760245Y265420D1*
Y285516D1*
X1718271Y991733D2*
X1715419Y990341D1*
X1712534Y987456D1*
X1711108Y984571D1*
X1709649Y980259D1*
Y973097D1*
X1711108Y968786D1*
X1712534Y965934D1*
X1715419Y963049D1*
X1718271Y961623D1*
X1724008D1*
X1726893Y963049D1*
X1729745Y965934D1*
X1731171Y968786D1*
X1732630Y973097D1*
Y980259D1*
X1731171Y984571D1*
X1729745Y987456D1*
X1726893Y990341D1*
X1724008Y991733D1*
X1718271D1*
X1722582Y967360D2*
X1731171Y958738D1*
X1745753Y985963D2*
X1748638Y987422D1*
X1752949Y991700D1*
Y961589D1*
X1606426Y542025D2*
Y520503D1*
X1607852Y516192D1*
X1610737Y513340D1*
X1615048Y511881D1*
X1617900D1*
X1622211Y513340D1*
X1625096Y516192D1*
X1626522Y520503D1*
Y542025D1*
X1639645D2*
Y511881D1*
X1656856D1*
X1690076Y542025D2*
Y511881D1*
X1669980Y542025D1*
Y511881D1*
X1704658Y534829D2*
Y536255D1*
X1706084Y539140D1*
X1707510Y540566D1*
X1710395Y541992D1*
X1716132D1*
X1718984Y540566D1*
X1720410Y539140D1*
X1721869Y536255D1*
Y533403D1*
X1720410Y530518D1*
X1717558Y526240D1*
X1703199Y511881D1*
X1723295D1*
X1745040Y541992D2*
X1740729Y540566D1*
X1737844Y536255D1*
X1736418Y529092D1*
Y524781D1*
X1737844Y517618D1*
X1740729Y513307D1*
X1745040Y511881D1*
X1747892D1*
X1752203Y513307D1*
X1755055Y517618D1*
X1756514Y524781D1*
Y529092D1*
X1755055Y536255D1*
X1752203Y540566D1*
X1747892Y541992D1*
X1745040D1*
X1755055Y536255D2*
X1737844Y517618D1*
X1778260Y541992D2*
X1773949Y540566D1*
X1771064Y536255D1*
X1769638Y529092D1*
Y524781D1*
X1771064Y517618D1*
X1773949Y513307D1*
X1778260Y511881D1*
X1781112D1*
X1785423Y513307D1*
X1788275Y517618D1*
X1789734Y524781D1*
Y529092D1*
X1788275Y536255D1*
X1785423Y540566D1*
X1781112Y541992D1*
X1778260D1*
X1788275Y536255D2*
X1771064Y517618D1*
X1805742Y541992D2*
X1821494D1*
X1812905Y530518D1*
X1817216D1*
X1820068Y529092D1*
X1821494Y527666D1*
X1822953Y523355D1*
Y520503D1*
X1821494Y516192D1*
X1818642Y513307D1*
X1814331Y511881D1*
X1810020D1*
X1805742Y513307D1*
X1804316Y514766D1*
X1802857Y517618D1*
X1836076Y542025D2*
Y511881D1*
X1846124D1*
X1850435Y513340D1*
X1853321Y516192D1*
X1854746Y519077D1*
X1856172Y523355D1*
Y530551D1*
X1854746Y534862D1*
X1853321Y537714D1*
X1850435Y540599D1*
X1846124Y542025D1*
X1836076D1*
X499792Y1225540D2*
X512692D1*
X517003Y1226999D1*
X518462Y1228425D1*
X519888Y1231277D1*
Y1234162D1*
X518462Y1237014D1*
X517003Y1238473D1*
X512692Y1239899D1*
X499792D1*
Y1209755D1*
X509840Y1225540D2*
X519888Y1209755D1*
X533012Y1234129D2*
X535897Y1235588D1*
X540208Y1239866D1*
Y1209755D1*
X499792Y1088090D2*
X502677Y1089549D1*
X506988Y1093827D1*
Y1063716D1*
X520112Y1093860D2*
Y1063716D1*
X540208Y1093860D2*
X520112Y1073764D1*
X527275Y1080960D2*
X540208Y1063716D1*
X493342Y425540D2*
X506242D1*
X510553Y426999D1*
X512012Y428425D1*
X513438Y431277D1*
Y434162D1*
X512012Y437014D1*
X510553Y438473D1*
X506242Y439899D1*
X493342D1*
Y409755D1*
X503390Y425540D2*
X513438Y409755D1*
X528021Y432703D2*
Y434129D1*
X529447Y437014D1*
X530873Y438440D1*
X533758Y439866D1*
X539495D1*
X542347Y438440D1*
X543773Y437014D1*
X545232Y434129D1*
Y431277D1*
X543773Y428392D1*
X540921Y424114D1*
X526562Y409755D1*
X546658D1*
X499792Y288090D2*
X502677Y289549D1*
X506988Y293827D1*
Y263716D1*
X520112Y293860D2*
Y263716D1*
X540208Y293860D2*
X520112Y273764D1*
X527275Y280960D2*
X540208Y263716D1*
X674460Y353342D2*
Y366242D1*
X673001Y370553D1*
X671575Y372012D1*
X668723Y373438D1*
X665838D1*
X662986Y372012D1*
X661527Y370553D1*
X660101Y366242D1*
Y353342D1*
X690245D1*
X674460Y363390D2*
X690245Y373438D1*
X660134Y389447D2*
Y405199D1*
X671608Y396610D1*
Y400921D1*
X673034Y403773D1*
X674460Y405199D1*
X678771Y406658D1*
X681623D1*
X685934Y405199D1*
X688819Y402347D1*
X690245Y398036D1*
Y393725D1*
X688819Y389447D1*
X687360Y388021D1*
X684508Y386562D1*
X811910Y359792D2*
X810451Y362677D1*
X806173Y366988D1*
X836284D1*
X806140Y380112D2*
X836284D1*
X806140Y400208D2*
X826236Y380112D1*
X819040Y387275D2*
X836284Y400208D1*
X674460Y1167629D2*
Y1180529D1*
X673001Y1184840D1*
X671575Y1186299D1*
X668723Y1187725D1*
X665838D1*
X662986Y1186299D1*
X661527Y1184840D1*
X660101Y1180529D1*
Y1167629D1*
X690245D1*
X674460Y1177677D2*
X690245Y1187725D1*
Y1215208D2*
X660134D1*
X680197Y1200849D1*
Y1222371D1*
X811910Y1174792D2*
X810451Y1177677D1*
X806173Y1181988D1*
X836284D1*
X806140Y1195112D2*
X836284D1*
X806140Y1215208D2*
X826236Y1195112D1*
X819040Y1202275D2*
X836284Y1215208D1*
X993342Y1400540D2*
X1006242D1*
X1010553Y1401999D1*
X1012012Y1403425D1*
X1013438Y1406277D1*
Y1409162D1*
X1012012Y1412014D1*
X1010553Y1413473D1*
X1006242Y1414899D1*
X993342D1*
Y1384755D1*
X1003390Y1400540D2*
X1013438Y1384755D1*
X1043773Y1414866D2*
X1029447D1*
X1028021Y1401966D1*
X1029447Y1403392D1*
X1033758Y1404851D1*
X1038036D1*
X1042347Y1403392D1*
X1045232Y1400540D1*
X1046658Y1396229D1*
Y1393377D1*
X1045232Y1389066D1*
X1042347Y1386181D1*
X1038036Y1384755D1*
X1033758D1*
X1029447Y1386181D1*
X1028021Y1387640D1*
X1026562Y1390492D1*
X933183Y1250590D2*
X936068Y1252049D1*
X940379Y1256327D1*
Y1226216D1*
X962124Y1256327D2*
X957813Y1254901D1*
X954928Y1250590D1*
X953502Y1243427D1*
Y1239116D1*
X954928Y1231953D1*
X957813Y1227642D1*
X962124Y1226216D1*
X964976D1*
X969287Y1227642D1*
X972139Y1231953D1*
X973598Y1239116D1*
Y1243427D1*
X972139Y1250590D1*
X969287Y1254901D1*
X964976Y1256327D1*
X962124D1*
X972139Y1250590D2*
X954928Y1231953D1*
X986721Y1256360D2*
Y1226216D1*
X1006817Y1256360D2*
X986721Y1236264D1*
X993884Y1243460D2*
X1006817Y1226216D1*
X1230660Y732902D2*
X1243560D1*
X1247871Y734361D1*
X1249330Y735787D1*
X1250756Y738639D1*
Y741524D1*
X1249330Y744376D1*
X1247871Y745835D1*
X1243560Y747261D1*
X1230660D1*
Y717117D1*
X1240708Y732902D2*
X1250756Y717117D1*
X1281090Y742950D2*
X1279664Y745802D1*
X1275353Y747228D1*
X1272501D1*
X1268190Y745802D1*
X1265305Y741491D1*
X1263879Y734328D1*
Y727165D1*
X1265305Y721428D1*
X1268190Y718543D1*
X1272501Y717117D1*
X1273927D1*
X1278205Y718543D1*
X1281090Y721428D1*
X1282516Y725739D1*
Y727165D1*
X1281090Y731476D1*
X1278205Y734328D1*
X1273927Y735754D1*
X1272501D1*
X1268190Y734328D1*
X1265305Y731476D1*
X1263879Y727165D1*
X1558338Y1079255D2*
Y1092154D1*
X1556879Y1096465D1*
X1555453Y1097925D1*
X1552601Y1099350D1*
X1549716D1*
X1546864Y1097925D1*
X1545405Y1096465D1*
X1543979Y1092154D1*
Y1079255D1*
X1574123D1*
X1558338Y1089303D2*
X1574123Y1099350D1*
Y1118211D2*
X1544012Y1132570D1*
Y1112474D1*
X899460Y528359D2*
Y541259D1*
X898001Y545570D1*
X896575Y547029D1*
X893723Y548455D1*
X890838D1*
X887986Y547029D1*
X886527Y545570D1*
X885101Y541259D1*
Y528359D1*
X915245D1*
X899460Y538407D2*
X915245Y548455D1*
X885134Y568741D2*
X886560Y564463D1*
X889412Y563004D1*
X892297D1*
X895149Y564463D1*
X896608Y567315D1*
X898034Y573052D1*
X899460Y577363D1*
X902345Y580215D1*
X905197Y581641D1*
X909508D1*
X912360Y580215D1*
X913819Y578789D1*
X915245Y574478D1*
Y568741D1*
X913819Y564463D1*
X912360Y563004D1*
X909508Y561578D1*
X905197D1*
X902345Y563004D1*
X899460Y565889D1*
X898034Y570167D1*
X896608Y575904D1*
X895149Y578789D1*
X892297Y580215D1*
X889412D1*
X886560Y578789D1*
X885134Y574478D1*
Y568741D1*
X1036910Y534792D2*
X1035451Y537677D1*
X1031173Y541988D1*
X1061284D1*
X1031140Y555112D2*
X1061284D1*
X1031140Y575208D2*
X1051236Y555112D1*
X1044040Y562275D2*
X1061284Y575208D1*
X899460Y216555D2*
Y229455D1*
X898001Y233766D1*
X896575Y235225D1*
X893723Y236651D1*
X890838D1*
X887986Y235225D1*
X886527Y233766D1*
X885101Y229455D1*
Y216555D1*
X915245D1*
X899460Y226603D2*
X915245Y236651D1*
X895149Y268445D2*
X899460Y266986D1*
X902345Y264134D1*
X903771Y259823D1*
Y258397D1*
X902345Y254086D1*
X899460Y251234D1*
X895149Y249775D1*
X893723D1*
X889412Y251234D1*
X886560Y254086D1*
X885134Y258397D1*
Y259823D1*
X886560Y264134D1*
X889412Y266986D1*
X895149Y268445D1*
X902345D1*
X909508Y266986D1*
X913819Y264134D1*
X915245Y259823D1*
Y256971D1*
X913819Y252660D1*
X910934Y251234D1*
X1036910Y222292D2*
X1035451Y225177D1*
X1031173Y229488D1*
X1061284D1*
X1031140Y242612D2*
X1061284D1*
X1031140Y262708D2*
X1051236Y242612D1*
X1044040Y249775D2*
X1061284Y262708D1*
X298231Y619899D2*
Y589755D1*
X288183Y619899D2*
X308279D1*
X321402Y604114D2*
X334335D1*
X338613Y605540D1*
X340072Y606999D1*
X341498Y609851D1*
Y614162D1*
X340072Y617014D1*
X338613Y618473D1*
X334335Y619899D1*
X321402D1*
Y589755D1*
X354621Y614129D2*
X357506Y615588D1*
X361817Y619866D1*
Y589755D1*
X291781Y844899D2*
Y814755D1*
X281733Y844899D2*
X301829D1*
X314952Y829114D2*
X327885D1*
X332163Y830540D1*
X333622Y831999D1*
X335048Y834851D1*
Y839162D1*
X333622Y842014D1*
X332163Y843473D1*
X327885Y844899D1*
X314952D1*
Y814755D1*
X349630Y837703D2*
Y839129D1*
X351056Y842014D1*
X352482Y843440D1*
X355367Y844866D1*
X361104D1*
X363956Y843440D1*
X365382Y842014D1*
X366841Y839129D1*
Y836277D1*
X365382Y833392D1*
X362530Y829114D1*
X348171Y814755D1*
X368267D1*
X291781Y1069899D2*
Y1039755D1*
X281733Y1069899D2*
X301829D1*
X314952Y1054114D2*
X327885D1*
X332163Y1055540D1*
X333622Y1056999D1*
X335048Y1059851D1*
Y1064162D1*
X333622Y1067014D1*
X332163Y1068473D1*
X327885Y1069899D1*
X314952D1*
Y1039755D1*
X351056Y1069866D2*
X366808D1*
X358219Y1058392D1*
X362530D1*
X365382Y1056966D1*
X366808Y1055540D1*
X368267Y1051229D1*
Y1048377D1*
X366808Y1044066D1*
X363956Y1041181D1*
X359645Y1039755D1*
X355334D1*
X351056Y1041181D1*
X349630Y1042640D1*
X348171Y1045492D1*
X303568Y1244899D2*
Y1214755D1*
X293520Y1244899D2*
X313616D1*
X326739Y1229114D2*
X339672D1*
X343950Y1230540D1*
X345409Y1231999D1*
X346835Y1234851D1*
Y1239162D1*
X345409Y1242014D1*
X343950Y1243473D1*
X339672Y1244899D1*
X326739D1*
Y1214755D1*
X374317D2*
Y1244866D1*
X359958Y1224803D1*
X381480D1*
X291781Y444899D2*
Y414755D1*
X281733Y444899D2*
X301829D1*
X314952Y429114D2*
X327885D1*
X332163Y430540D1*
X333622Y431999D1*
X335048Y434851D1*
Y439162D1*
X333622Y442014D1*
X332163Y443473D1*
X327885Y444899D1*
X314952D1*
Y414755D1*
X365382Y444866D2*
X351056D1*
X349630Y431966D1*
X351056Y433392D1*
X355367Y434851D1*
X359645D1*
X363956Y433392D1*
X366841Y430540D1*
X368267Y426229D1*
Y423377D1*
X366841Y419066D1*
X363956Y416181D1*
X359645Y414755D1*
X355367D1*
X351056Y416181D1*
X349630Y417640D1*
X348171Y420492D1*
X1292510Y1357399D2*
Y1327255D1*
X1282462Y1357399D2*
X1302558D1*
X1315682Y1341614D2*
X1328615D1*
X1332892Y1343040D1*
X1334352Y1344499D1*
X1335778Y1347351D1*
Y1351662D1*
X1334352Y1354514D1*
X1332892Y1355973D1*
X1328615Y1357399D1*
X1315682D1*
Y1327255D1*
X1366112Y1353088D2*
X1364686Y1355940D1*
X1360375Y1357366D1*
X1357523D1*
X1353212Y1355940D1*
X1350327Y1351629D1*
X1348901Y1344466D1*
Y1337303D1*
X1350327Y1331566D1*
X1353212Y1328681D1*
X1357523Y1327255D1*
X1358949D1*
X1363227Y1328681D1*
X1366112Y1331566D1*
X1367538Y1335877D1*
Y1337303D1*
X1366112Y1341614D1*
X1363227Y1344466D1*
X1358949Y1345892D1*
X1357523D1*
X1353212Y1344466D1*
X1350327Y1341614D1*
X1348901Y1337303D1*
X1291781Y1069899D2*
Y1039755D1*
X1281733Y1069899D2*
X1301829D1*
X1314952Y1054114D2*
X1327885D1*
X1332163Y1055540D1*
X1333622Y1056999D1*
X1335048Y1059851D1*
Y1064162D1*
X1333622Y1067014D1*
X1332163Y1068473D1*
X1327885Y1069899D1*
X1314952D1*
Y1039755D1*
X1353908D2*
X1368267Y1069866D1*
X1348171D1*
X1604297Y1119899D2*
Y1089755D1*
X1594249Y1119899D2*
X1614345D1*
X1627469Y1104114D2*
X1640402D1*
X1644680Y1105540D1*
X1646139Y1106999D1*
X1647565Y1109851D1*
Y1114162D1*
X1646139Y1117014D1*
X1644680Y1118473D1*
X1640402Y1119899D1*
X1627469D1*
Y1089755D1*
X1667851Y1119866D2*
X1663573Y1118440D1*
X1662114Y1115588D1*
Y1112703D1*
X1663573Y1109851D1*
X1666425Y1108392D1*
X1672162Y1106966D1*
X1676473Y1105540D1*
X1679325Y1102655D1*
X1680751Y1099803D1*
Y1095492D1*
X1679325Y1092640D1*
X1677899Y1091181D1*
X1673588Y1089755D1*
X1667851D1*
X1663573Y1091181D1*
X1662114Y1092640D1*
X1660688Y1095492D1*
Y1099803D1*
X1662114Y1102655D1*
X1664999Y1105540D1*
X1669277Y1106966D1*
X1675014Y1108392D1*
X1677899Y1109851D1*
X1679325Y1112703D1*
Y1115588D1*
X1677899Y1118440D1*
X1673588Y1119866D1*
X1667851D1*
X1529994Y1269899D2*
Y1239755D1*
X1519946Y1269899D2*
X1540042D1*
X1553165Y1254114D2*
X1566098D1*
X1570376Y1255540D1*
X1571835Y1256999D1*
X1573261Y1259851D1*
Y1264162D1*
X1571835Y1267014D1*
X1570376Y1268473D1*
X1566098Y1269899D1*
X1553165D1*
Y1239755D1*
X1605054Y1259851D2*
X1603595Y1255540D1*
X1600743Y1252655D1*
X1596432Y1251229D1*
X1595006D1*
X1590695Y1252655D1*
X1587843Y1255540D1*
X1586384Y1259851D1*
Y1261277D1*
X1587843Y1265588D1*
X1590695Y1268440D1*
X1595006Y1269866D1*
X1596432D1*
X1600743Y1268440D1*
X1603595Y1265588D1*
X1605054Y1259851D1*
Y1252655D1*
X1603595Y1245492D1*
X1600743Y1241181D1*
X1596432Y1239755D1*
X1593580D1*
X1589269Y1241181D1*
X1587843Y1244066D1*
X1061091Y1243326D2*
Y1221804D1*
X1062517Y1217493D1*
X1065403Y1214641D1*
X1069714Y1213182D1*
X1072565D1*
X1076876Y1214641D1*
X1079762Y1217493D1*
X1081187Y1221804D1*
Y1243326D1*
X1094311Y1237556D2*
X1097196Y1239015D1*
X1101507Y1243293D1*
Y1213182D1*
X992435Y960289D2*
X980928Y990433D1*
X969454Y960289D1*
X973765Y970337D2*
X988124D1*
X1005559Y990433D2*
Y960289D1*
X1015607D1*
X1019918Y961748D1*
X1022803Y964600D1*
X1024229Y967485D1*
X1025655Y971763D1*
Y978959D1*
X1024229Y983270D1*
X1022803Y986122D1*
X1019918Y989007D1*
X1015607Y990433D1*
X1005559D1*
X1045941Y990400D2*
X1041663Y988974D1*
X1040204Y986122D1*
Y983237D1*
X1041663Y980385D1*
X1044515Y978926D1*
X1050252Y977500D1*
X1054563Y976074D1*
X1057415Y973189D1*
X1058841Y970337D1*
Y966026D1*
X1057415Y963174D1*
X1055989Y961715D1*
X1051678Y960289D1*
X1045941D1*
X1041663Y961715D1*
X1040204Y963174D1*
X1038778Y966026D1*
Y970337D1*
X1040204Y973189D1*
X1043089Y976074D1*
X1047367Y977500D1*
X1053104Y978926D1*
X1055989Y980385D1*
X1057415Y983237D1*
Y986122D1*
X1055989Y988974D1*
X1051678Y990400D1*
X1045941D1*
X1073423Y983237D2*
Y984663D1*
X1074849Y987548D1*
X1076275Y988974D1*
X1079160Y990400D1*
X1084897D1*
X1087749Y988974D1*
X1089175Y987548D1*
X1090634Y984663D1*
Y981811D1*
X1089175Y978926D1*
X1086323Y974648D1*
X1071964Y960289D1*
X1092060D1*
X1122394Y986122D2*
X1120969Y988974D1*
X1116658Y990400D1*
X1113806D1*
X1109495Y988974D1*
X1106610Y984663D1*
X1105184Y977500D1*
Y970337D1*
X1106610Y964600D1*
X1109495Y961715D1*
X1113806Y960289D1*
X1115232D1*
X1119509Y961715D1*
X1122394Y964600D1*
X1123820Y968911D1*
Y970337D1*
X1122394Y974648D1*
X1119509Y977500D1*
X1115232Y978926D1*
X1113806D1*
X1109495Y977500D1*
X1106610Y974648D1*
X1105184Y970337D1*
X1159925Y960289D2*
X1148418Y990433D1*
X1136944Y960289D1*
X1141255Y970337D2*
X1155614D1*
X1173048Y976074D2*
X1185948D1*
X1190259Y977533D1*
X1191718Y978959D1*
X1193144Y981811D1*
Y984696D1*
X1191718Y987548D1*
X1190259Y989007D1*
X1185948Y990433D1*
X1173048D1*
Y960289D1*
X1183096Y976074D2*
X1193144Y960289D1*
X1217043Y443326D2*
Y421804D1*
X1218469Y417493D1*
X1221354Y414641D1*
X1225665Y413182D1*
X1228517D1*
X1232828Y414641D1*
X1235713Y417493D1*
X1237139Y421804D1*
Y443326D1*
X1251722Y436130D2*
Y437556D1*
X1253148Y440441D1*
X1254573Y441867D1*
X1257459Y443293D1*
X1263196D1*
X1266047Y441867D1*
X1267473Y440441D1*
X1268933Y437556D1*
Y434704D1*
X1267473Y431819D1*
X1264621Y427541D1*
X1250262Y413182D1*
X1270358D1*
X1064267Y184269D2*
Y154125D1*
X1054219Y184269D2*
X1074315D1*
X1087439D2*
Y154125D1*
X1104649D1*
X1139295Y177106D2*
X1137869Y179958D1*
X1134984Y182843D1*
X1132132Y184269D1*
X1126395D1*
X1123510Y182843D1*
X1120658Y179958D1*
X1119199Y177106D1*
X1117773Y172795D1*
Y165599D1*
X1119199Y161321D1*
X1120658Y158436D1*
X1123510Y155584D1*
X1126395Y154125D1*
X1132132D1*
X1134984Y155584D1*
X1137869Y158436D1*
X1139295Y161321D1*
X1169629Y184235D2*
X1155303D1*
X1153877Y171336D1*
X1155303Y172762D1*
X1159614Y174221D1*
X1163892D1*
X1168203Y172762D1*
X1171088Y169910D1*
X1172514Y165599D1*
Y162747D1*
X1171088Y158436D1*
X1168203Y155551D1*
X1163892Y154125D1*
X1159614D1*
X1155303Y155551D1*
X1153877Y157010D1*
X1152418Y159862D1*
X1202848Y184235D2*
X1188523D1*
X1187097Y171336D1*
X1188523Y172762D1*
X1192834Y174221D1*
X1197111D1*
X1201422Y172762D1*
X1204308Y169910D1*
X1205734Y165599D1*
Y162747D1*
X1204308Y158436D1*
X1201422Y155551D1*
X1197111Y154125D1*
X1192834D1*
X1188523Y155551D1*
X1187097Y157010D1*
X1185638Y159862D1*
X1236068Y184235D2*
X1221742D1*
X1220316Y171336D1*
X1221742Y172762D1*
X1226053Y174221D1*
X1230331D1*
X1234642Y172762D1*
X1237527Y169910D1*
X1238953Y165599D1*
Y162747D1*
X1237527Y158436D1*
X1234642Y155551D1*
X1230331Y154125D1*
X1226053D1*
X1221742Y155551D1*
X1220316Y157010D1*
X1218857Y159862D1*
X1273598Y177106D2*
X1272172Y179958D1*
X1269287Y182843D1*
X1266435Y184269D1*
X1260698D1*
X1257813Y182843D1*
X1254961Y179958D1*
X1253502Y177106D1*
X1252076Y172795D1*
Y165599D1*
X1253502Y161321D1*
X1254961Y158436D1*
X1257813Y155584D1*
X1260698Y154125D1*
X1266435D1*
X1269287Y155584D1*
X1272172Y158436D1*
X1273598Y161321D1*
X1286722Y184269D2*
Y154125D1*
X1296770D1*
X1301081Y155584D1*
X1303966Y158436D1*
X1305392Y161321D1*
X1306818Y165599D1*
Y172795D1*
X1305392Y177106D1*
X1303966Y179958D1*
X1301081Y182843D1*
X1296770Y184269D1*
X1286722D1*
X1212657Y529513D2*
Y507991D1*
X1214083Y503680D1*
X1216968Y500828D1*
X1221279Y499369D1*
X1224131D1*
X1228442Y500828D1*
X1231327Y503680D1*
X1232753Y507991D1*
Y529513D1*
X1248762Y529480D2*
X1264514D1*
X1255925Y518006D1*
X1260236D1*
X1263088Y516580D1*
X1264514Y515154D1*
X1265973Y510843D1*
Y507991D1*
X1264514Y503680D1*
X1261662Y500795D1*
X1257351Y499369D1*
X1253040D1*
X1248762Y500795D1*
X1247336Y502254D1*
X1245877Y505106D1*
X1387060Y486563D2*
X1356949Y500922D1*
Y480826D1*
X1387060Y528404D2*
X1356949D1*
X1377012Y514045D1*
Y535567D1*
X1356916Y548690D2*
X1387060D1*
X1356916Y568786D2*
X1387060D1*
X1371275Y548690D2*
Y568786D1*
X1364079Y603432D2*
X1361227Y602006D1*
X1358342Y599121D1*
X1356916Y596269D1*
Y590532D1*
X1358342Y587647D1*
X1361227Y584795D1*
X1364079Y583336D1*
X1368390Y581910D1*
X1375586D1*
X1379864Y583336D1*
X1382749Y584795D1*
X1385601Y587647D1*
X1387060Y590532D1*
Y596269D1*
X1385601Y599121D1*
X1382749Y602006D1*
X1379864Y603432D1*
X1362686Y616555D2*
X1361227Y619440D1*
X1356949Y623751D1*
X1387060D1*
X1364079Y658396D2*
X1361227Y656970D1*
X1358342Y654085D1*
X1356916Y651233D1*
Y645496D1*
X1358342Y642611D1*
X1361227Y639759D1*
X1364079Y638300D1*
X1368390Y636874D1*
X1375586D1*
X1379864Y638300D1*
X1382749Y639759D1*
X1385601Y642611D1*
X1387060Y645496D1*
Y651233D1*
X1385601Y654085D1*
X1382749Y656970D1*
X1379864Y658396D1*
X1375586D1*
Y651233D1*
X1356949Y680142D2*
X1358375Y675831D1*
X1362686Y672946D1*
X1369849Y671520D1*
X1374160D1*
X1381323Y672946D1*
X1385634Y675831D1*
X1387060Y680142D1*
Y682994D1*
X1385634Y687305D1*
X1381323Y690157D1*
X1374160Y691616D1*
X1369849D1*
X1362686Y690157D1*
X1358375Y687305D1*
X1356949Y682994D1*
Y680142D1*
X1362686Y690157D2*
X1381323Y672946D1*
X1387060Y719098D2*
X1356949D1*
X1377012Y704739D1*
Y726261D1*
X410537Y941591D2*
D65*
Y963699D1*
X390419Y981197D2*
X430611Y996495D1*
X390419Y1011794D1*
X393315Y496291D2*
X427759D1*
X410559Y479091D2*
Y513535D1*
X390419Y531033D2*
X430611Y546331D1*
X390419Y561630D1*
X399970Y720287D2*
X396167Y718386D1*
X392320Y714539D1*
X390419Y710736D1*
Y703087D1*
X392320Y699240D1*
X396167Y695438D1*
X399970Y693492D1*
X405718Y691591D1*
X415313D1*
X421016Y693492D1*
X424863Y695438D1*
X428666Y699240D1*
X430611Y703087D1*
Y710736D1*
X428666Y714539D1*
X424863Y718386D1*
X421016Y720287D1*
X415313D1*
Y710736D1*
X390419Y764579D2*
X430611D1*
X390419Y737785D1*
X430611D1*
X390419Y782077D2*
X430611D1*
Y795475D1*
X428666Y801223D1*
X424863Y805069D1*
X421016Y806971D1*
X415313Y808872D1*
X405718D1*
X399970Y806971D1*
X396167Y805069D1*
X392320Y801223D1*
X390419Y795475D1*
Y782077D1*
X677253Y52674D2*
Y92866D1*
X661954Y52674D1*
X646655Y92866D1*
Y52674D1*
X704301Y79468D2*
X700498Y77567D1*
X696652Y73720D1*
X694750Y67972D1*
Y64170D1*
X696652Y58422D1*
X700498Y54619D1*
X704301Y52674D1*
X710049D1*
X713896Y54619D1*
X717698Y58422D1*
X719644Y64170D1*
Y67972D1*
X717698Y73720D1*
X713896Y77567D1*
X710049Y79468D1*
X704301D1*
X742890Y92866D2*
Y60323D1*
X744791Y54619D1*
X748638Y52674D1*
X752440D1*
X737142Y79468D2*
X750539D1*
X779489D2*
X775686Y77567D1*
X771839Y73720D1*
X769938Y67972D1*
Y64170D1*
X771839Y58422D1*
X775686Y54619D1*
X779489Y52674D1*
X785237D1*
X789083Y54619D1*
X792886Y58422D1*
X794831Y64170D1*
Y67972D1*
X792886Y73720D1*
X789083Y77567D1*
X785237Y79468D1*
X779489D1*
X812329D2*
Y52674D1*
Y67972D2*
X814275Y73720D1*
X818077Y77567D1*
X821924Y79468D1*
X827672D1*
X889197Y92866D2*
Y52674D1*
X902594D1*
X908342Y54619D1*
X912189Y58422D1*
X914090Y62268D1*
X915992Y67972D1*
Y77567D1*
X914090Y83315D1*
X912189Y87118D1*
X908342Y90964D1*
X902594Y92866D1*
X889197D1*
X933489Y79468D2*
Y52674D1*
Y67972D2*
X935435Y73720D1*
X939237Y77567D1*
X943084Y79468D1*
X948832D1*
X966330Y92866D2*
X968231Y90964D1*
X970177Y92866D1*
X968231Y94811D1*
X966330Y92866D1*
X968231Y79468D2*
Y52674D1*
X987675Y79468D2*
X999171Y52674D1*
X1010623Y79468D1*
X1028120Y67972D2*
X1051068D1*
Y71819D1*
X1049167Y75666D1*
X1047266Y77567D1*
X1043419Y79468D1*
X1037671D1*
X1033868Y77567D1*
X1030022Y73720D1*
X1028120Y67972D1*
Y64170D1*
X1030022Y58422D1*
X1033868Y54619D1*
X1037671Y52674D1*
X1043419D1*
X1047266Y54619D1*
X1051068Y58422D1*
X1068566Y79468D2*
Y52674D1*
Y67972D2*
X1070512Y73720D1*
X1074314Y77567D1*
X1078161Y79468D1*
X1083909D1*
X1145434Y92866D2*
Y52674D1*
X1162678D1*
X1168426Y54619D1*
X1170327Y56520D1*
X1172229Y60323D1*
Y66071D1*
X1170327Y69918D1*
X1168426Y71819D1*
X1162678Y73720D1*
X1168426Y75666D1*
X1170327Y77567D1*
X1172229Y81370D1*
Y85216D1*
X1170327Y89019D1*
X1168426Y90964D1*
X1162678Y92866D1*
X1145434D1*
Y73720D2*
X1162678D1*
X1199277Y79468D2*
X1195474Y77567D1*
X1191628Y73720D1*
X1189726Y67972D1*
Y64170D1*
X1191628Y58422D1*
X1195474Y54619D1*
X1199277Y52674D1*
X1205025D1*
X1208872Y54619D1*
X1212674Y58422D1*
X1214620Y64170D1*
Y67972D1*
X1212674Y73720D1*
X1208872Y77567D1*
X1205025Y79468D1*
X1199277D1*
X1255066D2*
Y52674D1*
Y73720D2*
X1251263Y77567D1*
X1247416Y79468D1*
X1241712D1*
X1237866Y77567D1*
X1234063Y73720D1*
X1232118Y67972D1*
Y64170D1*
X1234063Y58422D1*
X1237866Y54619D1*
X1241712Y52674D1*
X1247416D1*
X1251263Y54619D1*
X1255066Y58422D1*
X1272563Y79468D2*
Y52674D1*
Y67972D2*
X1274509Y73720D1*
X1278311Y77567D1*
X1282158Y79468D1*
X1287906D1*
X1328352Y92866D2*
Y52674D1*
Y73720D2*
X1324549Y77567D1*
X1320703Y79468D1*
X1314955D1*
X1311152Y77567D1*
X1307305Y73720D1*
X1305404Y67972D1*
Y64170D1*
X1307305Y58422D1*
X1311152Y54619D1*
X1314955Y52674D1*
X1320703D1*
X1324549Y54619D1*
X1328352Y58422D1*
X532097Y195685D2*
D66*
X544997D1*
X549308Y197144D1*
X550767Y198570D1*
X552193Y201422D1*
Y204307D1*
X550767Y207159D1*
X549308Y208618D1*
X544997Y210044D1*
X532097D1*
Y179900D1*
X542145Y195685D2*
X552193Y179900D1*
X578667Y199996D2*
Y179900D1*
Y195685D2*
X575815Y198570D1*
X572930Y199996D1*
X568652D1*
X565767Y198570D1*
X562915Y195685D1*
X561456Y191374D1*
Y188522D1*
X562915Y184211D1*
X565767Y181359D1*
X568652Y179900D1*
X572930D1*
X575815Y181359D1*
X578667Y184211D1*
X589390Y199996D2*
X597979Y179900D1*
X595127Y174163D1*
X592242Y171278D1*
X589390Y169852D1*
X587931D1*
X606601Y199996D2*
X597979Y179900D1*
X665121Y205733D2*
X662269Y208618D1*
X657958Y210044D1*
X652221D1*
X647910Y208618D1*
X645025Y205733D1*
Y202881D1*
X646484Y199996D1*
X647910Y198570D1*
X650762Y197144D1*
X659384Y194259D1*
X662269Y192833D1*
X663695Y191374D1*
X665121Y188522D1*
Y184211D1*
X662269Y181359D1*
X657958Y179900D1*
X652221D1*
X647910Y181359D1*
X645025Y184211D1*
X674384Y199996D2*
Y185637D1*
X675810Y181359D1*
X678696Y179900D1*
X683007D1*
X685858Y181359D1*
X690169Y185637D1*
Y199996D2*
Y179900D1*
X699433Y199996D2*
Y179900D1*
Y194259D2*
X703744Y198570D1*
X706629Y199996D1*
X710907D1*
X713792Y198570D1*
X715218Y194259D1*
Y179900D1*
X550734Y160044D2*
X532097D1*
Y129900D1*
X550734D1*
X532097Y145685D2*
X543571D1*
X578634Y160044D2*
X559997D1*
Y129900D1*
X578634D1*
X559997Y145685D2*
X571471D1*
X635728Y149996D2*
X634269Y145685D1*
X631417Y142800D1*
X627106Y141374D1*
X625680D1*
X621369Y142800D1*
X618517Y145685D1*
X617058Y149996D1*
Y151422D1*
X618517Y155733D1*
X621369Y158585D1*
X625680Y160011D1*
X627106D1*
X631417Y158585D1*
X634269Y155733D1*
X635728Y149996D1*
Y142800D1*
X634269Y135637D1*
X631417Y131326D1*
X627106Y129900D1*
X624254D1*
X619943Y131326D1*
X618517Y134211D1*
X644992Y154274D2*
X647877Y155733D1*
X652188Y160011D1*
Y129900D1*
X709282Y160044D2*
X690612D1*
Y129900D1*
Y145685D2*
X702086D1*
X735757Y149996D2*
Y129900D1*
Y145685D2*
X732905Y148570D1*
X730020Y149996D1*
X725742D1*
X722857Y148570D1*
X720005Y145685D1*
X718546Y141374D1*
Y138522D1*
X720005Y134211D1*
X722857Y131359D1*
X725742Y129900D1*
X730020D1*
X732905Y131359D1*
X735757Y134211D1*
X745020Y160044D2*
Y129900D1*
X754284Y160044D2*
Y129900D1*
X794167Y152848D2*
Y154274D1*
X795593Y157159D1*
X797019Y158585D1*
X799904Y160011D1*
X805641D1*
X808493Y158585D1*
X809919Y157159D1*
X811378Y154274D1*
Y151422D1*
X809919Y148537D1*
X807067Y144259D1*
X792708Y129900D1*
X812804D1*
X830689Y160011D2*
X826378Y158585D1*
X823493Y154274D1*
X822067Y147111D1*
Y142800D1*
X823493Y135637D1*
X826378Y131326D1*
X830689Y129900D1*
X833541D1*
X837852Y131326D1*
X840704Y135637D1*
X842163Y142800D1*
Y147111D1*
X840704Y154274D1*
X837852Y158585D1*
X833541Y160011D1*
X830689D1*
X840704Y154274D2*
X823493Y135637D1*
X851427Y154274D2*
X854312Y155733D1*
X858623Y160011D1*
Y129900D1*
X886557Y149996D2*
X885097Y145685D1*
X882246Y142800D1*
X877934Y141374D1*
X876509D1*
X872198Y142800D1*
X869346Y145685D1*
X867886Y149996D1*
Y151422D1*
X869346Y155733D1*
X872198Y158585D1*
X876509Y160011D1*
X877934D1*
X882246Y158585D1*
X885097Y155733D1*
X886557Y149996D1*
Y142800D1*
X885097Y135637D1*
X882246Y131326D1*
X877934Y129900D1*
X875083D1*
X870772Y131326D1*
X869346Y134211D1*
M02*
