G04 DipTrace 3.3.1.3*
G04 Bottom.gbr*
%MOIN*%
G04 #@! TF.FileFunction,Copper,L2,Bot*
G04 #@! TF.Part,Single*
G04 #@! TA.AperFunction,ViaPad*
%ADD14C,0.03*%
G04 #@! TA.AperFunction,Conductor*
%ADD16C,0.01*%
G04 #@! TA.AperFunction,CopperBalancing*
%ADD17C,0.025*%
%ADD18C,0.013*%
%ADD20R,0.05X0.06*%
%ADD21R,0.06X0.05*%
G04 #@! TA.AperFunction,ViaPad*
%ADD22C,0.05*%
G04 #@! TA.AperFunction,ComponentPad*
%ADD23R,0.05937X0.05937*%
%ADD24C,0.05937*%
%ADD30C,0.08*%
%FSLAX26Y26*%
G04*
G70*
G90*
G75*
G01*
G04 Bottom*
%LPD*%
X300000Y827500D2*
D14*
X254075D1*
X125000Y698425D1*
X475000Y827500D2*
X300000D1*
X675000Y810000D2*
Y725000D1*
X662500D1*
X300000Y375000D2*
X250000D1*
X125000Y500000D1*
X475000Y375000D2*
X300000D1*
X875000Y400000D2*
X850000Y375000D1*
X787500D1*
X625000Y600000D2*
D16*
X650000Y575000D1*
X800000D1*
X825000Y600000D1*
Y625000D1*
X1050000Y500000D2*
Y337500D1*
X1012500Y300000D1*
X850000D1*
D14*
X875000Y400000D3*
X625000Y600000D3*
X825000Y625000D3*
X850000Y300000D3*
X1050000Y500000D3*
D22*
Y250000D3*
Y775000D3*
X662500Y725000D3*
X214989Y1137631D2*
D17*
X985016D1*
X1215010D2*
X1392194D1*
X214989Y1112762D2*
X985016D1*
X1215010D2*
X1417061D1*
X214989Y1087894D2*
X985016D1*
X1215010D2*
X1435004D1*
X214989Y1063025D2*
X326290D1*
X373705D2*
X985016D1*
X1215010D2*
X1435004D1*
X214989Y1038156D2*
X293025D1*
X406970D2*
X985016D1*
X1215010D2*
X1435004D1*
X214989Y1013287D2*
X282332D1*
X417663D2*
X985016D1*
X1215010D2*
X1435004D1*
X207202Y988419D2*
X282009D1*
X417986D2*
X992803D1*
X1207187D2*
X1308045D1*
X1391955D2*
X1435004D1*
X40018Y963550D2*
X291877D1*
X408118D2*
X1293405D1*
X1406595D2*
X1435004D1*
X40018Y938681D2*
X321768D1*
X378226D2*
X621007D1*
X728994D2*
X1292149D1*
X1407851D2*
X1435004D1*
X40018Y913812D2*
X621007D1*
X728994D2*
X1303237D1*
X1396763D2*
X1435004D1*
X40018Y888944D2*
X621007D1*
X728994D2*
X1291323D1*
X1408677D2*
X1435004D1*
X40018Y864075D2*
X231950D1*
X529012D2*
X621007D1*
X728994D2*
X1291323D1*
X1408677D2*
X1435004D1*
X40018Y839206D2*
X204607D1*
X529012D2*
X621007D1*
X728994D2*
X1291323D1*
X1408677D2*
X1435004D1*
X40018Y814337D2*
X179739D1*
X529012D2*
X621007D1*
X728994D2*
X1291323D1*
X1408677D2*
X1435004D1*
X40018Y789469D2*
X154871D1*
X529012D2*
X621007D1*
X728994D2*
X1435004D1*
X40018Y764600D2*
X129967D1*
X354005D2*
X420988D1*
X529012D2*
X621007D1*
X728994D2*
X1435004D1*
X40018Y739731D2*
X84430D1*
X227513D2*
X246017D1*
X354005D2*
X420988D1*
X529012D2*
X610636D1*
X718983D2*
X1435004D1*
X40018Y714862D2*
X68785D1*
X202609D2*
X246017D1*
X354005D2*
X420988D1*
X529012D2*
X609524D1*
X717727D2*
X1435004D1*
X40018Y689993D2*
X66955D1*
X183052D2*
X246017D1*
X354005D2*
X420988D1*
X529012D2*
X622227D1*
X702763D2*
X1435004D1*
X40018Y665125D2*
X77254D1*
X172754D2*
X334041D1*
X365954D2*
X811911D1*
X838082D2*
X1184030D1*
X1215943D2*
X1435004D1*
X40018Y640256D2*
X85005D1*
X165003D2*
X294568D1*
X405427D2*
X612430D1*
X637597D2*
X783921D1*
X866108D2*
X1144557D1*
X1255415D2*
X1435004D1*
X40018Y615387D2*
X68928D1*
X181079D2*
X282798D1*
X417197D2*
X583974D1*
X666053D2*
X782127D1*
X867866D2*
X1132787D1*
X1267185D2*
X1435004D1*
X40018Y590518D2*
X66883D1*
X183124D2*
X281686D1*
X418309D2*
X582108D1*
X857531D2*
X1131675D1*
X1268334D2*
X1435004D1*
X40018Y565650D2*
X76859D1*
X173148D2*
X290549D1*
X409446D2*
X599225D1*
X837688D2*
X1140574D1*
X1259434D2*
X1435004D1*
X40018Y540781D2*
X66309D1*
X183698D2*
X317247D1*
X382748D2*
X1039811D1*
X1060205D2*
X1167236D1*
X1232772D2*
X1435004D1*
X40018Y515912D2*
X66309D1*
X183698D2*
X246017D1*
X354005D2*
X420988D1*
X529012D2*
X1009166D1*
X1090815D2*
X1435004D1*
X40018Y491043D2*
X66309D1*
X195145D2*
X246017D1*
X354005D2*
X420988D1*
X529012D2*
X1006977D1*
X1093039D2*
X1435004D1*
X40018Y466175D2*
X66309D1*
X220013D2*
X246017D1*
X354005D2*
X420988D1*
X529012D2*
X1015984D1*
X1083997D2*
X1435004D1*
X40018Y441306D2*
X122504D1*
X354005D2*
X420988D1*
X529012D2*
X868500D1*
X881528D2*
X1015984D1*
X1083997D2*
X1435004D1*
X40018Y416437D2*
X147371D1*
X529012D2*
X638482D1*
X915592D2*
X1015984D1*
X1083997D2*
X1435004D1*
X40018Y391568D2*
X172239D1*
X529012D2*
X638482D1*
X918140D2*
X1015984D1*
X1083997D2*
X1311490D1*
X1388510D2*
X1435004D1*
X40018Y366699D2*
X197107D1*
X529012D2*
X638482D1*
X902889D2*
X1015984D1*
X1083997D2*
X1294373D1*
X1405627D2*
X1435004D1*
X40018Y341831D2*
X222549D1*
X529012D2*
X638482D1*
X877447D2*
X1007300D1*
X1083997D2*
X1291718D1*
X1408282D2*
X1435004D1*
X40018Y316962D2*
X809614D1*
X1076389D2*
X1300940D1*
X1399060D2*
X1435004D1*
X40018Y292093D2*
X806743D1*
X1051629D2*
X1291323D1*
X1408677D2*
X1435004D1*
X40018Y267224D2*
X822030D1*
X877950D2*
X1291323D1*
X1408677D2*
X1435004D1*
X40018Y242356D2*
X296219D1*
X403776D2*
X1291323D1*
X1408677D2*
X1435004D1*
X40018Y217487D2*
X283337D1*
X416658D2*
X1291323D1*
X1408677D2*
X1435004D1*
X214989Y192618D2*
X281399D1*
X418596D2*
X985016D1*
X1215010D2*
X1435004D1*
X214989Y167749D2*
X289329D1*
X410666D2*
X985016D1*
X1215010D2*
X1435004D1*
X214989Y142881D2*
X313443D1*
X386552D2*
X985016D1*
X1215010D2*
X1435004D1*
X214989Y118012D2*
X985016D1*
X1215010D2*
X1435004D1*
X214989Y93143D2*
X985016D1*
X1215010D2*
X1424346D1*
X214989Y68274D2*
X985016D1*
X1215010D2*
X1401667D1*
X214989Y43406D2*
X985016D1*
X1215010D2*
X1378988D1*
X351500Y333500D2*
Y318500D1*
X248500D1*
Y333535D1*
X243508Y334011D1*
X237176Y335531D1*
X231159Y338023D1*
X225607Y341426D1*
X220655Y345655D1*
X122483Y443827D1*
X68815Y443815D1*
Y556185D1*
X87941D1*
X82825Y561303D1*
X78344Y567121D1*
X74659Y573474D1*
X71835Y580253D1*
X69919Y587342D1*
X68944Y594621D1*
X68927Y601965D1*
X69867Y609248D1*
X71750Y616347D1*
X74542Y623139D1*
X78197Y629509D1*
X82651Y635348D1*
X87828Y640556D1*
X93641Y645044D1*
X99384Y648423D1*
X91975Y652971D1*
X85271Y658696D1*
X79545Y665400D1*
X74939Y672918D1*
X71565Y681063D1*
X69507Y689636D1*
X68815Y698425D1*
X69507Y707214D1*
X71565Y715787D1*
X74939Y723933D1*
X79545Y731450D1*
X85271Y738154D1*
X91975Y743880D1*
X99493Y748486D1*
X107638Y751860D1*
X116211Y753919D1*
X122400Y754508D1*
X227123Y859057D1*
X232391Y862885D1*
X238193Y865841D1*
X244387Y867853D1*
X247595Y868491D1*
X248500Y872050D1*
Y884000D1*
X351500D1*
Y868964D1*
X423477Y869000D1*
X423500Y884000D1*
X526500D1*
Y681000D1*
X423500D1*
Y786004D1*
X351523Y786000D1*
X351500Y681000D1*
X248500D1*
Y763239D1*
X181137Y695873D1*
X180493Y689636D1*
X178435Y681063D1*
X175061Y672918D1*
X170455Y665400D1*
X164729Y658696D1*
X158025Y652971D1*
X150613Y648423D1*
X156029Y645265D1*
X161873Y640818D1*
X167087Y635647D1*
X171582Y629839D1*
X175282Y623495D1*
X178122Y616723D1*
X180055Y609638D1*
X181047Y602362D1*
X181065Y594753D1*
X180107Y587472D1*
X178208Y580378D1*
X175399Y573593D1*
X171730Y567231D1*
X167262Y561403D1*
X162045Y556183D1*
X181185Y556185D1*
Y502538D1*
X248508Y435182D1*
X248500Y521500D1*
X351500D1*
Y416496D1*
X423477Y416500D1*
X423500Y521500D1*
X526500D1*
Y318500D1*
X423500D1*
Y333535D1*
X351523Y333500D1*
X740186Y426500D2*
X842802D1*
X848048Y431557D1*
X853316Y435385D1*
X859119Y438341D1*
X865312Y440353D1*
X871744Y441372D1*
X878256D1*
X884688Y440353D1*
X890881Y438341D1*
X896684Y435385D1*
X901952Y431557D1*
X906557Y426952D1*
X910385Y421684D1*
X913341Y415881D1*
X915353Y409688D1*
X916372Y403256D1*
Y396744D1*
X915353Y390312D1*
X913341Y384119D1*
X910385Y378316D1*
X906557Y373048D1*
X879345Y345655D1*
X874393Y341426D1*
X868829Y338018D1*
X868841Y336977D1*
X874393Y333574D1*
X877018Y331496D1*
X999458Y331500D1*
X1018518Y350566D1*
X1018443Y473048D1*
X1014615Y478316D1*
X1011659Y484119D1*
X1009647Y490312D1*
X1008628Y496744D1*
Y503256D1*
X1009647Y509688D1*
X1011659Y515881D1*
X1014615Y521684D1*
X1018443Y526952D1*
X1023048Y531557D1*
X1028316Y535385D1*
X1034119Y538341D1*
X1040312Y540353D1*
X1046744Y541372D1*
X1053256D1*
X1059688Y540353D1*
X1065881Y538341D1*
X1071684Y535385D1*
X1076952Y531557D1*
X1081557Y526952D1*
X1085385Y521684D1*
X1088341Y515881D1*
X1090353Y509688D1*
X1091372Y503256D1*
Y496744D1*
X1090353Y490312D1*
X1088341Y484119D1*
X1085385Y478316D1*
X1081496Y472982D1*
X1081403Y335029D1*
X1080630Y330146D1*
X1079102Y325445D1*
X1076858Y321041D1*
X1073953Y317042D1*
X1034774Y277726D1*
X1031015Y274516D1*
X1026801Y271933D1*
X1022234Y270042D1*
X1017428Y268888D1*
X1012500Y268500D1*
X876952Y268443D1*
X871684Y264615D1*
X865881Y261659D1*
X859688Y259647D1*
X853256Y258628D1*
X846744D1*
X840312Y259647D1*
X834119Y261659D1*
X828316Y264615D1*
X823048Y268443D1*
X818443Y273048D1*
X814615Y278316D1*
X811659Y284119D1*
X809647Y290312D1*
X808628Y296744D1*
Y303256D1*
X809647Y309688D1*
X811659Y315881D1*
X814615Y321684D1*
X815825Y323493D1*
X641000Y323500D1*
Y426500D1*
X740186D1*
X625337Y956500D2*
X726500D1*
Y753500D1*
X716489D1*
X716372Y721744D1*
X715354Y715312D1*
X713341Y709119D1*
X710385Y703316D1*
X704164Y694729D1*
X698916Y688584D1*
X692771Y683336D1*
X685881Y679113D1*
X678414Y676021D1*
X670556Y674134D1*
X662500Y673500D1*
X654444Y674134D1*
X646586Y676021D1*
X639119Y679113D1*
X632229Y683336D1*
X626084Y688584D1*
X620836Y694729D1*
X616613Y701619D1*
X613521Y709086D1*
X611634Y716944D1*
X611000Y725000D1*
X611634Y733056D1*
X613521Y740914D1*
X616613Y748381D1*
X620836Y755271D1*
X623500Y758621D1*
Y956500D1*
X625337D1*
X1295652Y906185D2*
X1312956D1*
X1307277Y911936D1*
X1302094Y919069D1*
X1298092Y926924D1*
X1295367Y935309D1*
X1293988Y944017D1*
Y952833D1*
X1295367Y961541D1*
X1298092Y969926D1*
X1302094Y977782D1*
X1307277Y984914D1*
X1313511Y991149D1*
X1320643Y996331D1*
X1328499Y1000333D1*
X1336884Y1003058D1*
X1345592Y1004437D1*
X1354408D1*
X1363116Y1003058D1*
X1371501Y1000333D1*
X1379357Y996331D1*
X1386489Y991149D1*
X1392723Y984914D1*
X1397906Y977782D1*
X1401908Y969926D1*
X1404633Y961541D1*
X1406012Y952833D1*
Y944017D1*
X1404633Y935309D1*
X1401908Y926924D1*
X1397906Y919069D1*
X1392723Y911936D1*
X1387008Y906181D1*
X1406185Y906185D1*
Y793815D1*
X1293815D1*
Y906185D1*
X1295652D1*
Y306185D2*
X1312956D1*
X1307277Y311936D1*
X1302094Y319069D1*
X1298092Y326924D1*
X1295367Y335309D1*
X1293988Y344017D1*
Y352833D1*
X1295367Y361541D1*
X1298092Y369926D1*
X1302094Y377782D1*
X1307277Y384914D1*
X1313511Y391149D1*
X1320643Y396331D1*
X1328499Y400333D1*
X1336884Y403058D1*
X1345592Y404437D1*
X1354408D1*
X1363116Y403058D1*
X1371501Y400333D1*
X1379357Y396331D1*
X1386489Y391149D1*
X1392723Y384914D1*
X1397906Y377782D1*
X1401908Y369926D1*
X1404633Y361541D1*
X1406012Y352833D1*
Y344017D1*
X1404633Y335309D1*
X1401908Y326924D1*
X1397906Y319069D1*
X1392723Y311936D1*
X1387008Y306181D1*
X1406185Y306185D1*
Y193815D1*
X1293815D1*
Y306185D1*
X1295652D1*
X416295Y194782D2*
X414663Y184476D1*
X411438Y174552D1*
X406701Y165254D1*
X400567Y156812D1*
X393188Y149433D1*
X384746Y143299D1*
X375448Y138562D1*
X365524Y135337D1*
X355218Y133705D1*
X344782D1*
X334476Y135337D1*
X324552Y138562D1*
X315254Y143299D1*
X306812Y149433D1*
X299433Y156812D1*
X293299Y165254D1*
X288562Y174552D1*
X285337Y184476D1*
X283705Y194782D1*
Y205218D1*
X285337Y215524D1*
X288562Y225448D1*
X293299Y234746D1*
X299433Y243188D1*
X306812Y250567D1*
X315254Y256701D1*
X324552Y261438D1*
X334476Y264663D1*
X344782Y266295D1*
X355218D1*
X365524Y264663D1*
X375448Y261438D1*
X384746Y256701D1*
X393188Y250567D1*
X400567Y243188D1*
X406701Y234746D1*
X411438Y225448D1*
X414663Y215524D1*
X416295Y205218D1*
Y194782D1*
X416475Y598163D2*
X415867Y590843D1*
X414455Y583634D1*
X412257Y576626D1*
X409299Y569902D1*
X405618Y563546D1*
X401258Y557634D1*
X396273Y552240D1*
X390723Y547428D1*
X384677Y543257D1*
X378207Y539779D1*
X371393Y537035D1*
X364319Y535060D1*
X357069Y533877D1*
X349734Y533501D1*
X342401Y533936D1*
X335161Y535177D1*
X328103Y537209D1*
X321311Y540007D1*
X314870Y543537D1*
X308857Y547756D1*
X303346Y552612D1*
X298404Y558046D1*
X294092Y563993D1*
X290462Y570378D1*
X287558Y577125D1*
X285416Y584151D1*
X284062Y591371D1*
X283513Y598696D1*
X283775Y606036D1*
X284844Y613303D1*
X286709Y620408D1*
X289346Y627264D1*
X292723Y633787D1*
X296798Y639898D1*
X301523Y645522D1*
X306839Y650591D1*
X312682Y655042D1*
X318980Y658822D1*
X325657Y661884D1*
X332630Y664192D1*
X339816Y665716D1*
X347126Y666438D1*
X354471Y666350D1*
X361761Y665452D1*
X368908Y663755D1*
X375824Y661281D1*
X382425Y658059D1*
X388630Y654129D1*
X394364Y649538D1*
X399557Y644343D1*
X404145Y638607D1*
X408073Y632400D1*
X411292Y625798D1*
X413763Y618881D1*
X415457Y611733D1*
X416351Y604443D1*
X416475Y598163D1*
X416295Y994782D2*
X414663Y984476D1*
X411438Y974552D1*
X406701Y965254D1*
X400567Y956812D1*
X393188Y949433D1*
X384746Y943299D1*
X375448Y938562D1*
X365524Y935337D1*
X355218Y933705D1*
X344782D1*
X334476Y935337D1*
X324552Y938562D1*
X315254Y943299D1*
X306812Y949433D1*
X299433Y956812D1*
X293299Y965254D1*
X288562Y974552D1*
X285337Y984476D1*
X283705Y994782D1*
Y1005218D1*
X285337Y1015524D1*
X288562Y1025448D1*
X293299Y1034746D1*
X299433Y1043188D1*
X306812Y1050567D1*
X315254Y1056701D1*
X324552Y1061438D1*
X334476Y1064663D1*
X344782Y1066295D1*
X355218D1*
X365524Y1064663D1*
X375448Y1061438D1*
X384746Y1056701D1*
X393188Y1050567D1*
X400567Y1043188D1*
X406701Y1034746D1*
X411438Y1025448D1*
X414663Y1015524D1*
X416295Y1005218D1*
Y994782D1*
X1266295Y594782D2*
X1264663Y584476D1*
X1261438Y574552D1*
X1256701Y565254D1*
X1250567Y556812D1*
X1243188Y549433D1*
X1234746Y543299D1*
X1225448Y538562D1*
X1215524Y535337D1*
X1205218Y533705D1*
X1194782D1*
X1184476Y535337D1*
X1174552Y538562D1*
X1165254Y543299D1*
X1156812Y549433D1*
X1149433Y556812D1*
X1143299Y565254D1*
X1138562Y574552D1*
X1135337Y584476D1*
X1133705Y594782D1*
Y605218D1*
X1135337Y615524D1*
X1138562Y625448D1*
X1143299Y634746D1*
X1149433Y643188D1*
X1156812Y650567D1*
X1165254Y656701D1*
X1174552Y661438D1*
X1184476Y664663D1*
X1194782Y666295D1*
X1205218D1*
X1215524Y664663D1*
X1225448Y661438D1*
X1234746Y656701D1*
X1243188Y650567D1*
X1250567Y643188D1*
X1256701Y634746D1*
X1261438Y625448D1*
X1264663Y615524D1*
X1266295Y605218D1*
Y594782D1*
X665968Y606500D2*
X786970D1*
X786659Y609119D1*
X784647Y615312D1*
X783628Y621744D1*
Y628256D1*
X784647Y634688D1*
X786659Y640881D1*
X789615Y646684D1*
X793443Y651952D1*
X798048Y656557D1*
X803316Y660385D1*
X809119Y663341D1*
X815312Y665353D1*
X821744Y666372D1*
X828256D1*
X834688Y665353D1*
X840881Y663341D1*
X846684Y660385D1*
X851952Y656557D1*
X856557Y651952D1*
X860385Y646684D1*
X863341Y640881D1*
X865353Y634688D1*
X866372Y628256D1*
Y621744D1*
X865353Y615312D1*
X863341Y609119D1*
X860385Y603316D1*
X856427Y597908D1*
X855630Y592646D1*
X854102Y587945D1*
X851858Y583541D1*
X848953Y579542D1*
X822274Y552726D1*
X818515Y549516D1*
X814301Y546933D1*
X809734Y545042D1*
X804928Y543888D1*
X799990Y543500D1*
X647529Y543597D1*
X642646Y544370D1*
X637945Y545898D1*
X633541Y548142D1*
X629542Y551047D1*
X621744Y558628D1*
X615312Y559647D1*
X609119Y561659D1*
X603316Y564615D1*
X598048Y568443D1*
X593443Y573048D1*
X589615Y578316D1*
X586659Y584119D1*
X584647Y590312D1*
X583628Y596744D1*
Y603256D1*
X584647Y609688D1*
X586659Y615881D1*
X589615Y621684D1*
X593443Y626952D1*
X598048Y631557D1*
X603316Y635385D1*
X609119Y638341D1*
X615312Y640353D1*
X621744Y641372D1*
X628256D1*
X634688Y640353D1*
X640881Y638341D1*
X646684Y635385D1*
X651952Y631557D1*
X656557Y626952D1*
X660385Y621684D1*
X663341Y615881D1*
X665353Y609688D1*
X665987Y606505D1*
X199964Y987500D2*
X37481D1*
X37500Y212522D1*
X201955Y212346D1*
X204784Y211549D1*
X207347Y210113D1*
X209505Y208118D1*
X211138Y205675D1*
X212155Y202918D1*
X212500Y199996D1*
Y37481D1*
X987478Y37500D1*
X987654Y201955D1*
X988451Y204784D1*
X989887Y207347D1*
X991882Y209505D1*
X994325Y211138D1*
X997082Y212155D1*
X1000004Y212500D1*
X1201955Y212346D1*
X1204784Y211549D1*
X1207347Y210113D1*
X1209505Y208118D1*
X1211138Y205675D1*
X1212155Y202918D1*
X1212500Y199996D1*
Y37552D1*
X1376681Y38101D1*
X1437504Y104846D1*
X1437500Y1094802D1*
X1370237Y1162076D1*
X1212507Y1162470D1*
X1212346Y998045D1*
X1211549Y995216D1*
X1210113Y992653D1*
X1208118Y990495D1*
X1205675Y988862D1*
X1202918Y987845D1*
X1199996Y987500D1*
X998045Y987654D1*
X995216Y988451D1*
X992653Y989887D1*
X990495Y991882D1*
X988862Y994325D1*
X987845Y997082D1*
X987500Y1000004D1*
Y1162519D1*
X212522Y1162500D1*
X212346Y998045D1*
X211549Y995216D1*
X210113Y992653D1*
X208118Y990495D1*
X205675Y988862D1*
X202918Y987845D1*
X199996Y987500D1*
X300000Y521464D2*
D18*
Y465000D1*
X248536D2*
X351464D1*
X300000Y737500D2*
Y681036D1*
X248536Y737500D2*
X351464D1*
X475000Y521464D2*
Y465000D1*
X423536D2*
X526464D1*
X475000Y737500D2*
Y681036D1*
X423536Y737500D2*
X526464D1*
X697500Y426464D2*
Y323536D1*
X641036Y375000D2*
X697500D1*
X675000Y956464D2*
Y900000D1*
X623536D2*
X726464D1*
X68851Y598425D2*
X181149D1*
X1350000Y850000D2*
Y793851D1*
X1293851Y850000D2*
X1406149D1*
X1350000Y250000D2*
Y193851D1*
X1293851Y250000D2*
X1406149D1*
X350000Y666464D2*
Y533536D1*
X283536Y600000D2*
X416464D1*
D20*
X300000Y375000D3*
Y465000D3*
Y737500D3*
Y827500D3*
X475000Y375000D3*
Y465000D3*
Y737500D3*
Y827500D3*
D21*
X787500Y375000D3*
X697500D3*
D20*
X675000Y900000D3*
Y810000D3*
D23*
X125000Y500000D3*
D24*
Y598425D3*
Y698425D3*
D23*
X1350000Y850000D3*
D24*
Y948425D3*
D23*
Y250000D3*
D24*
Y348425D3*
D30*
X350000Y200000D3*
Y600000D3*
Y1000000D3*
X1200000Y600000D3*
M02*
