G04 DipTrace 3.3.1.3*
G04 Bottom.gbr*
%MOIN*%
G04 #@! TF.FileFunction,Copper,L2,Bot*
G04 #@! TF.Part,Single*
G04 #@! TA.AperFunction,ViaPad*
%ADD14C,0.03*%
G04 #@! TA.AperFunction,Conductor*
%ADD16C,0.01*%
G04 #@! TA.AperFunction,CopperBalancing*
%ADD17C,0.025*%
%ADD18C,0.013*%
%ADD20R,0.05X0.06*%
%ADD21R,0.06X0.05*%
G04 #@! TA.AperFunction,ViaPad*
%ADD22C,0.05*%
G04 #@! TA.AperFunction,ComponentPad*
%ADD23R,0.05937X0.05937*%
%ADD24C,0.05937*%
%ADD30C,0.08*%
%FSLAX26Y26*%
G04*
G70*
G90*
G75*
G01*
G04 Bottom*
%LPD*%
X300000Y827500D2*
D14*
X254075D1*
X125000Y698425D1*
X475000Y827500D2*
X300000D1*
X675000Y810000D2*
Y725000D1*
X662500D1*
X300000Y375000D2*
X250000D1*
X125000Y500000D1*
X475000Y375000D2*
X300000D1*
X875000Y400000D2*
X850000Y375000D1*
X787500D1*
X625000Y600000D2*
D16*
X650000Y575000D1*
X800000D1*
X825000Y600000D1*
Y625000D1*
X1050000Y500000D2*
Y337500D1*
X1012500Y300000D1*
X850000D1*
D14*
X875000Y400000D3*
X625000Y600000D3*
X825000Y625000D3*
X850000Y300000D3*
X1050000Y500000D3*
D22*
Y250000D3*
Y775000D3*
X662500Y725000D3*
X214990Y1137631D2*
D17*
X985016D1*
X1215009D2*
X1392194D1*
X214990Y1112762D2*
X985016D1*
X1215009D2*
X1417062D1*
X214990Y1087894D2*
X985016D1*
X1215009D2*
X1435004D1*
X214990Y1063025D2*
X326290D1*
X373705D2*
X985016D1*
X1215009D2*
X1435004D1*
X214990Y1038156D2*
X293025D1*
X406970D2*
X985016D1*
X1215009D2*
X1435004D1*
X214990Y1013287D2*
X282332D1*
X417663D2*
X985016D1*
X1215009D2*
X1435004D1*
X207202Y988419D2*
X282009D1*
X417986D2*
X992803D1*
X1207186D2*
X1308046D1*
X1391954D2*
X1435004D1*
X40018Y963550D2*
X291877D1*
X408118D2*
X1293404D1*
X1406596D2*
X1435004D1*
X40018Y938681D2*
X321769D1*
X378227D2*
X621007D1*
X728995D2*
X1292148D1*
X1407852D2*
X1435004D1*
X40018Y913812D2*
X621007D1*
X728995D2*
X1303236D1*
X1396764D2*
X1435004D1*
X40018Y888944D2*
X621007D1*
X728995D2*
X1291323D1*
X1408677D2*
X1435004D1*
X40018Y864075D2*
X231950D1*
X529012D2*
X621007D1*
X728995D2*
X1291323D1*
X1408677D2*
X1435004D1*
X40018Y839206D2*
X204606D1*
X529012D2*
X621007D1*
X728995D2*
X1291323D1*
X1408677D2*
X1435004D1*
X40018Y814337D2*
X179739D1*
X529012D2*
X621007D1*
X728995D2*
X1291323D1*
X1408677D2*
X1435004D1*
X40018Y789469D2*
X154871D1*
X529012D2*
X621007D1*
X728995D2*
X1435004D1*
X40018Y764600D2*
X129967D1*
X354004D2*
X420988D1*
X529012D2*
X621007D1*
X728995D2*
X1435004D1*
X40018Y739731D2*
X84430D1*
X227513D2*
X246017D1*
X354004D2*
X420988D1*
X529012D2*
X610636D1*
X718983D2*
X1435004D1*
X40018Y714862D2*
X68785D1*
X202609D2*
X246017D1*
X354004D2*
X420988D1*
X529012D2*
X609524D1*
X717727D2*
X1435004D1*
X40018Y689993D2*
X66955D1*
X183052D2*
X246017D1*
X354004D2*
X420988D1*
X529012D2*
X622227D1*
X702762D2*
X1435004D1*
X40018Y665125D2*
X77253D1*
X172753D2*
X334041D1*
X365954D2*
X811911D1*
X838083D2*
X1184030D1*
X1215942D2*
X1435004D1*
X40018Y640256D2*
X85005D1*
X165003D2*
X294568D1*
X405427D2*
X612430D1*
X637597D2*
X783921D1*
X866108D2*
X1144556D1*
X1255415D2*
X1435004D1*
X40018Y615387D2*
X68929D1*
X181079D2*
X282798D1*
X417197D2*
X583974D1*
X666054D2*
X782127D1*
X867866D2*
X1132787D1*
X1267185D2*
X1435004D1*
X40018Y590518D2*
X66883D1*
X183125D2*
X281686D1*
X418308D2*
X582108D1*
X857531D2*
X1131675D1*
X1268333D2*
X1435004D1*
X40018Y565650D2*
X76858D1*
X173148D2*
X290550D1*
X409446D2*
X599224D1*
X837688D2*
X1140573D1*
X1259434D2*
X1435004D1*
X40018Y540781D2*
X66308D1*
X183698D2*
X317247D1*
X382748D2*
X1039811D1*
X1060205D2*
X1167236D1*
X1232773D2*
X1435004D1*
X40018Y515912D2*
X66308D1*
X183698D2*
X246017D1*
X354004D2*
X420988D1*
X529012D2*
X1009165D1*
X1090815D2*
X1435004D1*
X40018Y491043D2*
X66308D1*
X195146D2*
X246017D1*
X354004D2*
X420988D1*
X529012D2*
X1006976D1*
X1093039D2*
X1435004D1*
X40018Y466175D2*
X66308D1*
X220013D2*
X246017D1*
X354004D2*
X420988D1*
X529012D2*
X1015984D1*
X1083996D2*
X1435004D1*
X40018Y441306D2*
X122504D1*
X354004D2*
X420988D1*
X529012D2*
X868500D1*
X881529D2*
X1015984D1*
X1083996D2*
X1435004D1*
X40018Y416437D2*
X147371D1*
X529012D2*
X638483D1*
X915592D2*
X1015984D1*
X1083996D2*
X1435004D1*
X40018Y391568D2*
X172239D1*
X529012D2*
X638483D1*
X918140D2*
X1015984D1*
X1083996D2*
X1311491D1*
X1388509D2*
X1435004D1*
X40018Y366699D2*
X197106D1*
X529012D2*
X638483D1*
X902888D2*
X1015984D1*
X1083996D2*
X1294374D1*
X1405626D2*
X1435004D1*
X40018Y341831D2*
X222549D1*
X529012D2*
X638483D1*
X877448D2*
X1007301D1*
X1083996D2*
X1291718D1*
X1408282D2*
X1435004D1*
X40018Y316962D2*
X809614D1*
X1076390D2*
X1300940D1*
X1399060D2*
X1435004D1*
X40018Y292093D2*
X806743D1*
X1051629D2*
X1291323D1*
X1408677D2*
X1435004D1*
X40018Y267224D2*
X822030D1*
X877950D2*
X1291323D1*
X1408677D2*
X1435004D1*
X40018Y242356D2*
X296219D1*
X403776D2*
X1291323D1*
X1408677D2*
X1435004D1*
X40018Y217487D2*
X283336D1*
X416659D2*
X1291323D1*
X1408677D2*
X1435004D1*
X214990Y192618D2*
X281399D1*
X418596D2*
X985016D1*
X1215009D2*
X1435004D1*
X214990Y167749D2*
X289329D1*
X410665D2*
X985016D1*
X1215009D2*
X1435004D1*
X214990Y142881D2*
X313444D1*
X386551D2*
X985016D1*
X1215009D2*
X1435004D1*
X214990Y118012D2*
X985016D1*
X1215009D2*
X1435004D1*
X214990Y93143D2*
X985016D1*
X1215009D2*
X1424346D1*
X214990Y68274D2*
X985016D1*
X1215009D2*
X1401667D1*
X214990Y43406D2*
X985016D1*
X1215009D2*
X1378988D1*
X351500Y333500D2*
Y318500D1*
X248500D1*
Y333535D1*
X243508Y334010D1*
X237176Y335531D1*
X231159Y338024D1*
X225606Y341425D1*
X220655Y345655D1*
X122483Y443827D1*
X68815Y443815D1*
Y556185D1*
X87941D1*
X82825Y561303D1*
X78344Y567121D1*
X74659Y573474D1*
X71835Y580253D1*
X69919Y587343D1*
X68944Y594621D1*
X68927Y601965D1*
X69867Y609248D1*
X71749Y616346D1*
X74542Y623139D1*
X78197Y629509D1*
X82651Y635348D1*
X87828Y640556D1*
X93640Y645045D1*
X99383Y648423D1*
X91975Y652971D1*
X85272Y658697D1*
X79546Y665400D1*
X74938Y672917D1*
X71564Y681063D1*
X69507Y689636D1*
X68815Y698425D1*
X69507Y707214D1*
X71564Y715787D1*
X74938Y723933D1*
X79546Y731450D1*
X85272Y738154D1*
X91975Y743879D1*
X99492Y748487D1*
X107638Y751861D1*
X116211Y753919D1*
X122400Y754508D1*
X227122Y859056D1*
X232391Y862885D1*
X238193Y865841D1*
X244387Y867853D1*
X247596Y868491D1*
X248500Y872050D1*
Y884000D1*
X351500D1*
Y868965D1*
X423478Y869000D1*
X423500Y884000D1*
X526500D1*
Y681000D1*
X423500D1*
Y786004D1*
X351522Y786000D1*
X351500Y681000D1*
X248500D1*
Y763239D1*
X181138Y695873D1*
X180493Y689636D1*
X178436Y681063D1*
X175062Y672917D1*
X170454Y665400D1*
X164728Y658697D1*
X158025Y652971D1*
X150613Y648423D1*
X156029Y645265D1*
X161873Y640818D1*
X167087Y635647D1*
X171583Y629840D1*
X175282Y623495D1*
X178122Y616723D1*
X180055Y609638D1*
X181047Y602362D1*
X181064Y594753D1*
X180108Y587472D1*
X178207Y580378D1*
X175399Y573593D1*
X171730Y567231D1*
X167262Y561403D1*
X162045Y556184D1*
X181185Y556185D1*
Y502538D1*
X248508Y435182D1*
X248500Y521500D1*
X351500D1*
Y416496D1*
X423478Y416500D1*
X423500Y521500D1*
X526500D1*
Y318500D1*
X423500D1*
Y333535D1*
X351522Y333500D1*
X740186Y426500D2*
X842802D1*
X848047Y431556D1*
X853316Y435385D1*
X859118Y438341D1*
X865312Y440353D1*
X871744Y441373D1*
X878256D1*
X884688Y440353D1*
X890882Y438341D1*
X896684Y435385D1*
X901953Y431556D1*
X906556Y426953D1*
X910385Y421684D1*
X913341Y415882D1*
X915353Y409688D1*
X916373Y403256D1*
Y396744D1*
X915353Y390312D1*
X913341Y384118D1*
X910385Y378316D1*
X906556Y373047D1*
X879345Y345655D1*
X874394Y341425D1*
X868829Y338018D1*
X868841Y336976D1*
X874394Y333575D1*
X877017Y331496D1*
X999458Y331500D1*
X1018518Y350566D1*
X1018444Y473049D1*
X1014615Y478316D1*
X1011659Y484118D1*
X1009647Y490312D1*
X1008627Y496744D1*
Y503256D1*
X1009647Y509688D1*
X1011659Y515882D1*
X1014615Y521684D1*
X1018444Y526951D1*
X1023049Y531556D1*
X1028316Y535385D1*
X1034118Y538341D1*
X1040312Y540353D1*
X1046744Y541373D1*
X1053256D1*
X1059688Y540353D1*
X1065882Y538341D1*
X1071684Y535385D1*
X1076951Y531556D1*
X1081556Y526951D1*
X1085385Y521684D1*
X1088341Y515882D1*
X1090353Y509688D1*
X1091373Y503256D1*
Y496744D1*
X1090353Y490312D1*
X1088341Y484118D1*
X1085385Y478316D1*
X1081496Y472983D1*
X1081403Y335029D1*
X1080630Y330147D1*
X1079102Y325445D1*
X1076858Y321041D1*
X1073953Y317042D1*
X1034774Y277726D1*
X1031016Y274516D1*
X1026801Y271933D1*
X1022234Y270042D1*
X1017428Y268887D1*
X1012500Y268500D1*
X876951Y268444D1*
X871684Y264615D1*
X865882Y261659D1*
X859688Y259647D1*
X853256Y258627D1*
X846744D1*
X840312Y259647D1*
X834118Y261659D1*
X828316Y264615D1*
X823049Y268444D1*
X818444Y273049D1*
X814615Y278316D1*
X811659Y284118D1*
X809647Y290312D1*
X808627Y296744D1*
Y303256D1*
X809647Y309688D1*
X811659Y315882D1*
X814615Y321684D1*
X815824Y323493D1*
X641000Y323500D1*
Y426500D1*
X740186D1*
X625337Y956500D2*
X726500D1*
Y753500D1*
X716488D1*
X716373Y721744D1*
X715353Y715312D1*
X713341Y709118D1*
X710385Y703316D1*
X704164Y694730D1*
X698916Y688584D1*
X692770Y683336D1*
X685881Y679113D1*
X678415Y676021D1*
X670556Y674134D1*
X662500Y673500D1*
X654444Y674134D1*
X646585Y676021D1*
X639119Y679113D1*
X632230Y683336D1*
X626084Y688584D1*
X620836Y694730D1*
X616613Y701619D1*
X613521Y709085D1*
X611634Y716944D1*
X611000Y725000D1*
X611634Y733056D1*
X613521Y740915D1*
X616613Y748381D1*
X620836Y755270D1*
X623500Y758621D1*
Y956500D1*
X625337D1*
X1295652Y906185D2*
X1312955D1*
X1307277Y911936D1*
X1302094Y919068D1*
X1298092Y926924D1*
X1295367Y935310D1*
X1293988Y944017D1*
Y952833D1*
X1295367Y961541D1*
X1298092Y969927D1*
X1302094Y977782D1*
X1307277Y984915D1*
X1313510Y991148D1*
X1320643Y996331D1*
X1328499Y1000333D1*
X1336885Y1003058D1*
X1345592Y1004437D1*
X1354408D1*
X1363115Y1003058D1*
X1371501Y1000333D1*
X1379357Y996331D1*
X1386490Y991148D1*
X1392723Y984915D1*
X1397906Y977782D1*
X1401908Y969927D1*
X1404633Y961541D1*
X1406012Y952833D1*
Y944017D1*
X1404633Y935310D1*
X1401908Y926924D1*
X1397906Y919068D1*
X1392723Y911936D1*
X1387008Y906181D1*
X1406185Y906185D1*
Y793815D1*
X1293815D1*
Y906185D1*
X1295652D1*
Y306185D2*
X1312955D1*
X1307277Y311936D1*
X1302094Y319068D1*
X1298092Y326924D1*
X1295367Y335310D1*
X1293988Y344017D1*
Y352833D1*
X1295367Y361541D1*
X1298092Y369927D1*
X1302094Y377782D1*
X1307277Y384915D1*
X1313510Y391148D1*
X1320643Y396331D1*
X1328499Y400333D1*
X1336885Y403058D1*
X1345592Y404437D1*
X1354408D1*
X1363115Y403058D1*
X1371501Y400333D1*
X1379357Y396331D1*
X1386490Y391148D1*
X1392723Y384915D1*
X1397906Y377782D1*
X1401908Y369927D1*
X1404633Y361541D1*
X1406012Y352833D1*
Y344017D1*
X1404633Y335310D1*
X1401908Y326924D1*
X1397906Y319068D1*
X1392723Y311936D1*
X1387008Y306181D1*
X1406185Y306185D1*
Y193815D1*
X1293815D1*
Y306185D1*
X1295652D1*
X416295Y194782D2*
X414663Y184476D1*
X411438Y174551D1*
X406701Y165253D1*
X400567Y156812D1*
X393188Y149433D1*
X384747Y143299D1*
X375449Y138562D1*
X365524Y135337D1*
X355218Y133705D1*
X344782D1*
X334476Y135337D1*
X324551Y138562D1*
X315253Y143299D1*
X306812Y149433D1*
X299433Y156812D1*
X293299Y165253D1*
X288562Y174551D1*
X285337Y184476D1*
X283705Y194782D1*
Y205218D1*
X285337Y215524D1*
X288562Y225449D1*
X293299Y234747D1*
X299433Y243188D1*
X306812Y250567D1*
X315253Y256701D1*
X324551Y261438D1*
X334476Y264663D1*
X344782Y266295D1*
X355218D1*
X365524Y264663D1*
X375449Y261438D1*
X384747Y256701D1*
X393188Y250567D1*
X400567Y243188D1*
X406701Y234747D1*
X411438Y225449D1*
X414663Y215524D1*
X416295Y205218D1*
Y194782D1*
X416475Y598163D2*
X415866Y590843D1*
X414455Y583634D1*
X412257Y576626D1*
X409299Y569902D1*
X405618Y563546D1*
X401259Y557634D1*
X396273Y552240D1*
X390723Y547428D1*
X384677Y543257D1*
X378207Y539778D1*
X371394Y537035D1*
X364319Y535060D1*
X357070Y533877D1*
X349734Y533500D1*
X342402Y533936D1*
X335161Y535177D1*
X328102Y537209D1*
X321311Y540007D1*
X314870Y543537D1*
X308857Y547756D1*
X303345Y552612D1*
X298404Y558046D1*
X294092Y563992D1*
X290462Y570378D1*
X287558Y577126D1*
X285416Y584151D1*
X284062Y591371D1*
X283513Y598696D1*
X283774Y606037D1*
X284844Y613303D1*
X286709Y620408D1*
X289346Y627264D1*
X292723Y633787D1*
X296798Y639898D1*
X301524Y645522D1*
X306840Y650591D1*
X312682Y655042D1*
X318980Y658822D1*
X325657Y661885D1*
X332630Y664192D1*
X339816Y665715D1*
X347126Y666438D1*
X354471Y666349D1*
X361761Y665451D1*
X368908Y663756D1*
X375824Y661281D1*
X382425Y658059D1*
X388630Y654129D1*
X394365Y649538D1*
X399558Y644344D1*
X404146Y638608D1*
X408073Y632400D1*
X411293Y625798D1*
X413764Y618881D1*
X415457Y611734D1*
X416352Y604442D1*
X416475Y598163D1*
X416295Y994782D2*
X414663Y984476D1*
X411438Y974551D1*
X406701Y965253D1*
X400567Y956812D1*
X393188Y949433D1*
X384747Y943299D1*
X375449Y938562D1*
X365524Y935337D1*
X355218Y933705D1*
X344782D1*
X334476Y935337D1*
X324551Y938562D1*
X315253Y943299D1*
X306812Y949433D1*
X299433Y956812D1*
X293299Y965253D1*
X288562Y974551D1*
X285337Y984476D1*
X283705Y994782D1*
Y1005218D1*
X285337Y1015524D1*
X288562Y1025449D1*
X293299Y1034747D1*
X299433Y1043188D1*
X306812Y1050567D1*
X315253Y1056701D1*
X324551Y1061438D1*
X334476Y1064663D1*
X344782Y1066295D1*
X355218D1*
X365524Y1064663D1*
X375449Y1061438D1*
X384747Y1056701D1*
X393188Y1050567D1*
X400567Y1043188D1*
X406701Y1034747D1*
X411438Y1025449D1*
X414663Y1015524D1*
X416295Y1005218D1*
Y994782D1*
X1266295Y594782D2*
X1264663Y584476D1*
X1261438Y574551D1*
X1256701Y565253D1*
X1250567Y556812D1*
X1243188Y549433D1*
X1234747Y543299D1*
X1225449Y538562D1*
X1215524Y535337D1*
X1205218Y533705D1*
X1194782D1*
X1184476Y535337D1*
X1174551Y538562D1*
X1165253Y543299D1*
X1156812Y549433D1*
X1149433Y556812D1*
X1143299Y565253D1*
X1138562Y574551D1*
X1135337Y584476D1*
X1133705Y594782D1*
Y605218D1*
X1135337Y615524D1*
X1138562Y625449D1*
X1143299Y634747D1*
X1149433Y643188D1*
X1156812Y650567D1*
X1165253Y656701D1*
X1174551Y661438D1*
X1184476Y664663D1*
X1194782Y666295D1*
X1205218D1*
X1215524Y664663D1*
X1225449Y661438D1*
X1234747Y656701D1*
X1243188Y650567D1*
X1250567Y643188D1*
X1256701Y634747D1*
X1261438Y625449D1*
X1264663Y615524D1*
X1266295Y605218D1*
Y594782D1*
X665969Y606500D2*
X786970D1*
X786659Y609118D1*
X784647Y615312D1*
X783627Y621744D1*
Y628256D1*
X784647Y634688D1*
X786659Y640882D1*
X789615Y646684D1*
X793444Y651951D1*
X798049Y656556D1*
X803316Y660385D1*
X809118Y663341D1*
X815312Y665353D1*
X821744Y666373D1*
X828256D1*
X834688Y665353D1*
X840882Y663341D1*
X846684Y660385D1*
X851951Y656556D1*
X856556Y651951D1*
X860385Y646684D1*
X863341Y640882D1*
X865353Y634688D1*
X866373Y628256D1*
Y621744D1*
X865353Y615312D1*
X863341Y609118D1*
X860385Y603316D1*
X856428Y597908D1*
X855630Y592647D1*
X854102Y587945D1*
X851858Y583541D1*
X848953Y579542D1*
X822274Y552726D1*
X818516Y549516D1*
X814301Y546933D1*
X809734Y545042D1*
X804928Y543887D1*
X799991Y543500D1*
X647529Y543597D1*
X642647Y544370D1*
X637945Y545898D1*
X633541Y548142D1*
X629542Y551047D1*
X621744Y558627D1*
X615312Y559647D1*
X609118Y561659D1*
X603316Y564615D1*
X598049Y568444D1*
X593444Y573049D1*
X589615Y578316D1*
X586659Y584118D1*
X584647Y590312D1*
X583627Y596744D1*
Y603256D1*
X584647Y609688D1*
X586659Y615882D1*
X589615Y621684D1*
X593444Y626951D1*
X598049Y631556D1*
X603316Y635385D1*
X609118Y638341D1*
X615312Y640353D1*
X621744Y641373D1*
X628256D1*
X634688Y640353D1*
X640882Y638341D1*
X646684Y635385D1*
X651951Y631556D1*
X656556Y626951D1*
X660385Y621684D1*
X663341Y615882D1*
X665353Y609688D1*
X665987Y606504D1*
X199965Y987500D2*
X37480D1*
X37500Y212521D1*
X201955Y212346D1*
X204783Y211549D1*
X207348Y210113D1*
X209505Y208118D1*
X211138Y205675D1*
X212155Y202919D1*
X212500Y199996D1*
Y37480D1*
X987479Y37500D1*
X987654Y201955D1*
X988451Y204783D1*
X989887Y207348D1*
X991882Y209505D1*
X994325Y211138D1*
X997081Y212155D1*
X1000004Y212500D1*
X1201955Y212346D1*
X1204783Y211549D1*
X1207348Y210113D1*
X1209505Y208118D1*
X1211138Y205675D1*
X1212155Y202919D1*
X1212500Y199996D1*
Y37552D1*
X1376681Y38101D1*
X1437504Y104846D1*
X1437500Y1094802D1*
X1370238Y1162076D1*
X1212507Y1162470D1*
X1212346Y998045D1*
X1211549Y995217D1*
X1210113Y992652D1*
X1208118Y990495D1*
X1205675Y988862D1*
X1202919Y987845D1*
X1199996Y987500D1*
X998045Y987654D1*
X995217Y988451D1*
X992652Y989887D1*
X990495Y991882D1*
X988862Y994325D1*
X987845Y997081D1*
X987500Y1000004D1*
Y1162520D1*
X212521Y1162500D1*
X212346Y998045D1*
X211549Y995217D1*
X210113Y992652D1*
X208118Y990495D1*
X205675Y988862D1*
X202919Y987845D1*
X199996Y987500D1*
X300000Y521465D2*
D18*
Y465000D1*
X248535D2*
X351465D1*
X300000Y737500D2*
Y681035D1*
X248535Y737500D2*
X351465D1*
X475000Y521465D2*
Y465000D1*
X423535D2*
X526465D1*
X475000Y737500D2*
Y681035D1*
X423535Y737500D2*
X526465D1*
X697500Y426465D2*
Y323535D1*
X641035Y375000D2*
X697500D1*
X675000Y956465D2*
Y900000D1*
X623535D2*
X726465D1*
X68850Y598425D2*
X181150D1*
X1350000Y850000D2*
Y793850D1*
X1293852Y850000D2*
X1406150D1*
X1350000Y250000D2*
Y193850D1*
X1293852Y250000D2*
X1406150D1*
X350000Y666465D2*
Y533535D1*
X283535Y600000D2*
X416465D1*
D20*
X300000Y375000D3*
Y465000D3*
Y737500D3*
Y827500D3*
X475000Y375000D3*
Y465000D3*
Y737500D3*
Y827500D3*
D21*
X787500Y375000D3*
X697500D3*
D20*
X675000Y900000D3*
Y810000D3*
D23*
X125000Y500000D3*
D24*
Y598425D3*
Y698425D3*
D23*
X1350000Y850000D3*
D24*
Y948425D3*
D23*
Y250000D3*
D24*
Y348425D3*
D30*
X350000Y200000D3*
Y600000D3*
Y1000000D3*
X1200000Y600000D3*
M02*
