M48
INCH
T01C0.015
T02C0.025
T03C0.0394
T04C0.063
T05C0.125
%
T01
X+008500Y+003000
X+008750Y+004000
X+010500Y+005000
X+008250Y+006250
X+006250Y+006000
T02
X+010500Y+002500
X+010500Y+007750
X+006625Y+007250
T03
X+001250Y+005000
X+001250Y+005984
X+001250Y+006984
X+013500Y+008500
X+013500Y+009484
X+013500Y+003484
X+013500Y+002500
T04
X+003500Y+002000
X+003500Y+006000
X+003500Y+010000
X+012000Y+006000
T05
X+011000Y+011000
X+011000Y+001000
X+001000Y+001000
X+001000Y+011000
T00
M30
