G04 DipTrace 3.3.1.3*
G04 Top.gbr*
%MOIN*%
G04 #@! TF.FileFunction,Copper,L1,Top*
G04 #@! TF.Part,Single*
G04 #@! TA.AperFunction,ViaPad*
%ADD14C,0.03*%
G04 #@! TA.AperFunction,Conductor*
%ADD15C,0.023622*%
%ADD16C,0.01*%
G04 #@! TA.AperFunction,CopperBalancing*
%ADD17C,0.025*%
%ADD18C,0.013*%
%ADD20R,0.05X0.06*%
%ADD21R,0.06X0.05*%
G04 #@! TA.AperFunction,ViaPad*
%ADD22C,0.05*%
G04 #@! TA.AperFunction,ComponentPad*
%ADD23R,0.05937X0.05937*%
%ADD24C,0.05937*%
%ADD26R,0.047244X0.047244*%
%ADD27R,0.062992X0.059055*%
%ADD29R,0.059055X0.062992*%
G04 #@! TA.AperFunction,ComponentPad*
%ADD30C,0.08*%
%ADD31R,0.023622X0.07874*%
%FSLAX26Y26*%
G04*
G70*
G90*
G75*
G01*
G04 Top*
%LPD*%
X550000Y535000D2*
D14*
X445000D1*
X350000Y440000D1*
X550000Y535000D2*
X565000D1*
X600000Y500000D1*
Y325000D1*
X625000Y300000D1*
X675000D1*
X825000Y487402D2*
D15*
X775000D1*
X725000D1*
X698189D1*
D14*
X612598D1*
X600000Y500000D1*
X1000039Y321260D2*
Y299961D1*
X1050000Y250000D1*
X992362Y825000D2*
X1000000D1*
X1050000Y775000D1*
X350000Y600000D2*
X353891Y601109D1*
X350000Y605000D1*
Y762500D1*
X445000Y535000D2*
X420000D1*
X353891Y601109D1*
X875000Y487402D2*
D15*
Y433031D1*
D14*
Y400000D1*
Y700000D2*
D15*
X901811D1*
D14*
X1015000D1*
X1050000Y665000D1*
X775000Y875000D2*
Y850000D1*
X875000Y750000D1*
D15*
Y700000D1*
X1050000Y665000D2*
D14*
X1135000D1*
X1200000Y600000D1*
X992323Y903740D2*
X953740D1*
X925000Y875000D1*
Y800000D1*
X875000Y750000D1*
X1000000Y400000D2*
X1050000D1*
X1200000Y550000D1*
Y600000D1*
X550000Y625000D2*
D16*
X600000D1*
X625000Y600000D1*
X825000Y625000D2*
Y700000D1*
X550000Y887500D2*
X687500D1*
X825000Y750000D1*
Y700000D1*
X765000Y300000D2*
X850000D1*
X1050000Y575000D2*
Y500000D1*
X775000Y700000D2*
Y600000D1*
X800000Y575000D1*
X1050000D1*
X814370Y1001772D2*
Y987500D1*
X560000D1*
X550000Y977500D1*
X1119094Y864370D2*
D14*
X1139370D1*
X1223425Y948425D1*
X1350000D1*
X1126772Y360630D2*
X1337795D1*
X1350000Y348425D1*
X875000Y400000D3*
X625000Y600000D3*
X825000Y625000D3*
X850000Y300000D3*
X1050000Y500000D3*
D22*
Y250000D3*
Y775000D3*
X662500Y725000D3*
X40018Y512631D2*
D17*
X66309D1*
X183698D2*
X361456D1*
X915807D2*
X934993D1*
X40018Y487762D2*
X66309D1*
X183698D2*
X296004D1*
X458966D2*
X495986D1*
X915807D2*
X934993D1*
X40018Y462894D2*
X66309D1*
X183698D2*
X296004D1*
X434098D2*
X555985D1*
X915807D2*
X934993D1*
X40018Y438025D2*
X296004D1*
X409230D2*
X555985D1*
X915807D2*
X934993D1*
X40018Y413156D2*
X296004D1*
X403991D2*
X555985D1*
X643985D2*
X934993D1*
X40018Y388287D2*
X296004D1*
X403991D2*
X555985D1*
X643985D2*
X934993D1*
X40018Y363419D2*
X296004D1*
X403991D2*
X555985D1*
X643985D2*
X934993D1*
X40018Y338550D2*
X296004D1*
X403991D2*
X555985D1*
X824016D2*
X832105D1*
X867866D2*
X934993D1*
X40018Y313681D2*
X296004D1*
X403991D2*
X557563D1*
X891693D2*
X934993D1*
X40018Y288812D2*
X575003D1*
X892447D2*
X934993D1*
X40018Y263944D2*
X329232D1*
X370762D2*
X601952D1*
X873033D2*
X934993D1*
X40018Y239075D2*
X293707D1*
X406324D2*
X934993D1*
X40018Y214206D2*
X282547D1*
X417448D2*
X934993D1*
X214989Y189337D2*
X281865D1*
X418130D2*
X934993D1*
X214989Y164469D2*
X291303D1*
X408728D2*
X934993D1*
X214989Y139600D2*
X319687D1*
X380308D2*
X934993D1*
X214989Y114731D2*
X934993D1*
X214989Y89862D2*
X934993D1*
X214989Y64993D2*
X934993D1*
X214989Y40125D2*
X934993D1*
X401500Y383498D2*
Y293500D1*
X298500D1*
Y496500D1*
X347841D1*
X373813Y522503D1*
X361754Y534556D1*
X355218Y533705D1*
X344782D1*
X334476Y535337D1*
X327441Y537496D1*
X181194Y537500D1*
X181185Y443815D1*
X68815D1*
Y537494D1*
X37513Y537500D1*
X37500Y212509D1*
X201955Y212346D1*
X204784Y211549D1*
X207347Y210113D1*
X209505Y208118D1*
X211138Y205675D1*
X212155Y202918D1*
X212500Y199996D1*
Y37481D1*
X937528Y37500D1*
X937500Y537534D1*
X913290Y537500D1*
X913311Y421531D1*
X686689D1*
Y437500D1*
X641477D1*
X641500Y351475D1*
X821500Y351500D1*
Y331512D1*
X823048Y331557D1*
X828316Y335385D1*
X834119Y338341D1*
X840312Y340353D1*
X846744Y341372D1*
X853256D1*
X859688Y340353D1*
X865881Y338341D1*
X871684Y335385D1*
X876952Y331557D1*
X881557Y326952D1*
X885385Y321684D1*
X888341Y315881D1*
X890353Y309688D1*
X891372Y303256D1*
Y296744D1*
X890353Y290312D1*
X888341Y284119D1*
X885385Y278316D1*
X881557Y273048D1*
X876952Y268443D1*
X871684Y264615D1*
X865881Y261659D1*
X859688Y259647D1*
X853256Y258628D1*
X846744D1*
X840312Y259647D1*
X834119Y261659D1*
X828316Y264615D1*
X822982Y268504D1*
X821472Y268500D1*
X821500Y248500D1*
X618500D1*
Y259014D1*
X612176Y260531D1*
X606159Y263023D1*
X600607Y266426D1*
X595646Y270664D1*
X568443Y298048D1*
X564615Y303316D1*
X561659Y309119D1*
X559647Y315312D1*
X558628Y321744D1*
X558500Y361745D1*
Y478477D1*
X498500Y478500D1*
Y493535D1*
X462191Y493500D1*
X401496Y432806D1*
X401464Y383500D1*
X416475Y198163D2*
X415867Y190843D1*
X414455Y183634D1*
X412257Y176626D1*
X409299Y169902D1*
X405618Y163546D1*
X401258Y157634D1*
X396273Y152240D1*
X390723Y147428D1*
X384677Y143257D1*
X378207Y139779D1*
X371393Y137035D1*
X364319Y135060D1*
X357069Y133877D1*
X349734Y133501D1*
X342401Y133936D1*
X335161Y135177D1*
X328103Y137209D1*
X321311Y140007D1*
X314870Y143537D1*
X308857Y147756D1*
X303346Y152612D1*
X298404Y158046D1*
X294092Y163993D1*
X290462Y170378D1*
X287558Y177125D1*
X285416Y184151D1*
X284062Y191371D1*
X283513Y198696D1*
X283775Y206036D1*
X284844Y213303D1*
X286709Y220408D1*
X289346Y227264D1*
X292723Y233787D1*
X296798Y239898D1*
X301523Y245522D1*
X306839Y250591D1*
X312682Y255042D1*
X318980Y258822D1*
X325657Y261884D1*
X332630Y264192D1*
X339816Y265716D1*
X347126Y266438D1*
X354471Y266350D1*
X361761Y265452D1*
X368908Y263755D1*
X375824Y261281D1*
X382425Y258059D1*
X388630Y254129D1*
X394364Y249538D1*
X399557Y244343D1*
X404145Y238607D1*
X408073Y232400D1*
X411292Y225798D1*
X413763Y218881D1*
X415457Y211733D1*
X416351Y204443D1*
X416475Y198163D1*
X350000Y350000D2*
D18*
Y293536D1*
X298536Y350000D2*
X401464D1*
X125000Y500000D2*
Y443851D1*
X68851Y500000D2*
X181149D1*
X350000Y266464D2*
Y133536D1*
X283536Y200000D2*
X416464D1*
X875000Y487402D2*
Y421567D1*
Y487402D2*
X913275D1*
X214989Y1137631D2*
D17*
X485006D1*
X214989Y1112762D2*
X485006D1*
X214989Y1087894D2*
X485006D1*
X214989Y1063025D2*
X326290D1*
X373705D2*
X485006D1*
X214989Y1038156D2*
X293025D1*
X406970D2*
X485006D1*
X214989Y1013287D2*
X282332D1*
X417663D2*
X485006D1*
X207202Y988419D2*
X282009D1*
X417986D2*
X485006D1*
X40018Y963550D2*
X291877D1*
X408118D2*
X485006D1*
X40018Y938681D2*
X321768D1*
X378226D2*
X485006D1*
X40018Y913812D2*
X485006D1*
X40018Y888944D2*
X296004D1*
X403991D2*
X485006D1*
X40018Y864075D2*
X296004D1*
X403991D2*
X485006D1*
X40018Y839206D2*
X296004D1*
X403991D2*
X485006D1*
X40018Y814337D2*
X296004D1*
X403991D2*
X713624D1*
X40018Y789469D2*
X296004D1*
X403991D2*
X735011D1*
X40018Y764600D2*
X296004D1*
X403991D2*
X684199D1*
X40018Y739731D2*
X84430D1*
X165577D2*
X296004D1*
X403991D2*
X684199D1*
X40018Y714862D2*
X68785D1*
X181222D2*
X296004D1*
X403991D2*
X684199D1*
X40018Y689993D2*
X66955D1*
X183052D2*
X306015D1*
X394015D2*
X684199D1*
X40018Y665125D2*
X77254D1*
X172754D2*
X306015D1*
X394015D2*
X495986D1*
X604010D2*
X684199D1*
X401500Y795998D2*
Y706000D1*
X391488D1*
X391500Y662491D1*
X498492Y662500D1*
X498500Y681500D1*
X601500D1*
Y662517D1*
X686669Y662500D1*
X686689Y765870D1*
X737514D1*
X737500Y792927D1*
X705468Y824984D1*
X498045Y825154D1*
X495216Y825951D1*
X492653Y827387D1*
X490495Y829382D1*
X488862Y831825D1*
X487845Y834582D1*
X487500Y837500D1*
Y1162503D1*
X212532Y1162500D1*
X212461Y999019D1*
X211888Y996137D1*
X210658Y993469D1*
X208839Y991161D1*
X206531Y989342D1*
X203863Y988112D1*
X200981Y987539D1*
X37481Y987500D1*
X37500Y662509D1*
X81634Y662702D1*
X77345Y668663D1*
X73870Y675133D1*
X71269Y682001D1*
X69586Y689149D1*
X68849Y696456D1*
X69072Y703796D1*
X70251Y711045D1*
X72364Y718078D1*
X75377Y724775D1*
X79238Y731023D1*
X83880Y736713D1*
X89225Y741749D1*
X95182Y746045D1*
X101647Y749527D1*
X108512Y752137D1*
X115658Y753828D1*
X122964Y754573D1*
X130305Y754359D1*
X137555Y753189D1*
X144591Y751084D1*
X151292Y748079D1*
X157543Y744226D1*
X163239Y739590D1*
X168281Y734251D1*
X172584Y728300D1*
X176074Y721838D1*
X178692Y714976D1*
X180392Y707832D1*
X181146Y700527D1*
X180915Y692922D1*
X179720Y685676D1*
X177589Y678648D1*
X174561Y671958D1*
X170685Y665720D1*
X168195Y662503D1*
X308521Y662500D1*
X308500Y706014D1*
X298500Y706000D1*
Y909000D1*
X401500D1*
X401493Y796000D1*
X416475Y998163D2*
X415867Y990843D1*
X414455Y983634D1*
X412257Y976626D1*
X409299Y969902D1*
X405618Y963546D1*
X401258Y957634D1*
X396273Y952240D1*
X390723Y947428D1*
X384677Y943257D1*
X378207Y939779D1*
X371393Y937035D1*
X364319Y935060D1*
X357069Y933877D1*
X349734Y933501D1*
X342401Y933936D1*
X335161Y935177D1*
X328103Y937209D1*
X321311Y940007D1*
X314870Y943537D1*
X308857Y947756D1*
X303346Y952612D1*
X298404Y958046D1*
X294092Y963993D1*
X290462Y970378D1*
X287558Y977125D1*
X285416Y984151D1*
X284062Y991371D1*
X283513Y998696D1*
X283775Y1006036D1*
X284844Y1013303D1*
X286709Y1020408D1*
X289346Y1027264D1*
X292723Y1033787D1*
X296798Y1039898D1*
X301523Y1045522D1*
X306839Y1050591D1*
X312682Y1055042D1*
X318980Y1058822D1*
X325657Y1061884D1*
X332630Y1064192D1*
X339816Y1065716D1*
X347126Y1066438D1*
X354471Y1066350D1*
X361761Y1065452D1*
X368908Y1063755D1*
X375824Y1061281D1*
X382425Y1058059D1*
X388630Y1054129D1*
X394364Y1049538D1*
X399557Y1044343D1*
X404145Y1038607D1*
X408073Y1032400D1*
X411292Y1025798D1*
X413763Y1018881D1*
X415457Y1011733D1*
X416351Y1004443D1*
X416475Y998163D1*
X350000Y908964D2*
D18*
Y852500D1*
X298536D2*
X401464D1*
X125000Y754574D2*
Y698425D1*
X68851D2*
X181149D1*
X350000Y1066464D2*
Y933536D1*
X283536Y1000000D2*
X416464D1*
X725000Y765834D2*
Y700000D1*
X686725D2*
X725000D1*
D20*
X350000Y350000D3*
Y440000D3*
Y762500D3*
Y852500D3*
X550000Y625000D3*
Y535000D3*
D23*
X125000Y500000D3*
D24*
Y598425D3*
Y698425D3*
D23*
X1350000Y850000D3*
D24*
Y948425D3*
D23*
Y250000D3*
D24*
Y348425D3*
D20*
X550000Y887500D3*
Y977500D3*
D26*
X775000Y875000D3*
D27*
X814370Y1001772D3*
D26*
X853740Y875040D3*
D20*
X1050000Y575000D3*
Y665000D3*
D21*
X675000Y300000D3*
X765000D3*
D26*
X992323Y903740D3*
D29*
X1119095Y864370D3*
D26*
X992363Y825000D3*
X1000000Y400000D3*
D29*
X1126772Y360630D3*
D26*
X1000040Y321260D3*
D30*
X350000Y200000D3*
Y600000D3*
Y1000000D3*
X1200000Y600000D3*
D31*
X875000Y700000D3*
X825000D3*
X775000D3*
X725000D3*
Y487402D3*
X775000D3*
X825000D3*
X875000D3*
M02*
