G04 DipTrace 3.3.1.3*
G04 TopSilk.gbr*
%MOIN*%
G04 #@! TF.FileFunction,Legend,Top*
G04 #@! TF.Part,Single*
%ADD10C,0.009843*%
%ADD12C,0.003*%
%ADD16C,0.01*%
%ADD19C,0.012*%
%ADD22C,0.05*%
%ADD25C,0.015748*%
%ADD28C,0.015761*%
%ADD59C,0.006562*%
%ADD60C,0.008749*%
%ADD61C,0.004632*%
%FSLAX26Y26*%
G04*
G70*
G90*
G75*
G01*
G04 TopSilk*
%LPD*%
X305000Y300000D2*
D19*
Y374993D1*
X395000Y300000D2*
Y374993D1*
Y415007D2*
Y490000D1*
X305000Y415007D2*
Y490000D1*
X395000Y300000D2*
X305000D1*
X395000Y490000D2*
X305000D1*
Y712500D2*
Y787493D1*
X395000Y712500D2*
Y787493D1*
Y827507D2*
Y902500D1*
X305000Y827507D2*
Y902500D1*
X395000Y712500D2*
X305000D1*
X395000Y902500D2*
X305000D1*
X595000Y675000D2*
Y600007D1*
X505000Y675000D2*
Y600007D1*
Y559993D2*
Y485000D1*
X595000Y559993D2*
Y485000D1*
X505000Y675000D2*
X595000D1*
X505000Y485000D2*
X595000D1*
D22*
X125000Y324213D3*
X25000Y399213D2*
D10*
X225000D1*
Y799213D1*
X25000D1*
Y399213D1*
D22*
X1350000Y674213D3*
X1250000Y749213D2*
D10*
X1450000D1*
Y1049213D1*
X1250000D1*
Y749213D1*
D22*
X1350000Y74213D3*
X1250000Y149213D2*
D10*
X1450000D1*
Y449213D1*
X1250000D1*
Y149213D1*
X505000Y837500D2*
D19*
Y912493D1*
X595000Y837500D2*
Y912493D1*
Y952507D2*
Y1027500D1*
X505000Y952507D2*
Y1027500D1*
X595000Y837500D2*
X505000D1*
X595000Y1027500D2*
X505000D1*
X755309Y919629D2*
D10*
Y1015680D1*
X873431Y919629D2*
X873419Y1015680D1*
X755321D2*
X769091Y1015700D1*
X873431Y1015680D2*
X859649Y1015700D1*
D25*
X775000Y838405D3*
X1005000Y525000D2*
D19*
Y599993D1*
X1095000Y525000D2*
Y599993D1*
Y640007D2*
Y715000D1*
X1005000Y640007D2*
Y715000D1*
X1095000Y525000D2*
X1005000D1*
X1095000Y715000D2*
X1005000D1*
X625000Y345000D2*
X699993D1*
X625000Y255000D2*
X699993D1*
X740007D2*
X815000D1*
X740007Y345000D2*
X815000D1*
X625000Y255000D2*
Y345000D1*
X815000Y255000D2*
Y345000D1*
X1036952Y923431D2*
D10*
X1133003D1*
X1036952Y805309D2*
X1133003Y805321D1*
Y923419D2*
X1133023Y909649D1*
X1133003Y805309D2*
X1133023Y819091D1*
D28*
X955728Y903740D3*
X1044629Y419691D2*
D10*
X1140680D1*
X1044629Y301569D2*
X1140680Y301581D1*
Y419679D2*
X1140700Y405909D1*
X1140680Y301569D2*
X1140700Y315351D1*
D28*
X963405Y400000D3*
X300000Y200000D2*
D10*
G02X300000Y200000I50000J0D01*
G01*
Y600000D2*
G02X300000Y600000I50000J0D01*
G01*
Y1000000D2*
G02X300000Y1000000I50000J0D01*
G01*
X1150000Y600000D2*
G02X1150000Y600000I50000J0D01*
G01*
X898427Y644889D2*
X701573D1*
X898427Y542513D2*
X701573D1*
Y644889D2*
Y542513D1*
X898427Y613395D2*
Y644889D1*
Y574006D2*
Y542513D1*
Y613395D2*
G03X898427Y574006I9J-19694D01*
G01*
X100000Y12500D2*
D16*
X1375000D1*
X1350000D1*
X1462500Y100000D2*
Y1100000D1*
X1375000Y1187500D2*
X100000D1*
X12500Y1100000D2*
Y100000D1*
Y1100000D2*
G02X12500Y1100000I87500J0D01*
G01*
X1012500D2*
G02X1012500Y1100000I87500J0D01*
G01*
X12500Y100000D2*
G02X12500Y100000I87500J0D01*
G01*
X1462500Y1100000D2*
G03X1375000Y1187500I-85417J2083D01*
G01*
X1012500Y100000D2*
G02X1012500Y100000I87500J0D01*
G01*
X1375000Y12500D2*
G03X1462500Y100000I2083J85417D01*
G01*
X516781Y1155719D2*
D12*
X524281D1*
X514646Y1154219D2*
X526980D1*
X572281D2*
X576781D1*
X512913Y1152719D2*
X529305D1*
X569281D2*
X577351D1*
X511613Y1151219D2*
X531116D1*
X566281D2*
X577995D1*
X609781D2*
X615781D1*
X510645Y1149719D2*
X532494D1*
X563281D2*
X578692D1*
X609549D2*
X614799D1*
X509924Y1148219D2*
X533662D1*
X560281D2*
X579421D1*
X609177D2*
X613799D1*
X509350Y1146719D2*
X512344D1*
X519781D2*
X534746D1*
X557287D2*
X561838D1*
X568019D2*
X580160D1*
X608783D2*
X612774D1*
X508805Y1145219D2*
X511095D1*
X521281D2*
X535710D1*
X554339D2*
X559030D1*
X568443D2*
X580902D1*
X608463D2*
X611781D1*
X508339Y1143719D2*
X510204D1*
X522775D2*
X536575D1*
X551519D2*
X556390D1*
X569029D2*
X581597D1*
X608092D2*
X610735D1*
X678781D2*
X680281D1*
X508043Y1142219D2*
X509696D1*
X524222D2*
X537416D1*
X548764D2*
X553774D1*
X569703D2*
X582157D1*
X607512D2*
X609548D1*
X677338D2*
X680281D1*
X507884Y1140719D2*
X509440D1*
X525525D2*
X538313D1*
X545689D2*
X551042D1*
X570424D2*
X582546D1*
X606781D2*
X608281D1*
X676030D2*
X680275D1*
X507781Y1139219D2*
X509281D1*
X526607D2*
X539281D1*
X541948D2*
X548245D1*
X571162D2*
X582907D1*
X674890D2*
X680222D1*
X527479Y1137719D2*
X545617D1*
X571903D2*
X583341D1*
X673774D2*
X680031D1*
X528161Y1136219D2*
X543508D1*
X572597D2*
X583757D1*
X672536D2*
X679672D1*
X528719Y1134719D2*
X541898D1*
X573151D2*
X584030D1*
X671175D2*
X679287D1*
X529266Y1133219D2*
X541391D1*
X573494D2*
X584173D1*
X669745D2*
X679026D1*
X529782Y1131719D2*
X541571D1*
X573716D2*
X584238D1*
X668324D2*
X678886D1*
X530267Y1130219D2*
X541851D1*
X573970D2*
X584265D1*
X644281D2*
X645781D1*
X667031D2*
X678820D1*
X717781D2*
X719281D1*
X759781D2*
D3*
X779281D2*
D3*
X804781D2*
D3*
X828781D2*
D3*
X530778Y1128719D2*
X542089D1*
X574315D2*
X584275D1*
X602281D2*
X606781D1*
X642543D2*
X648262D1*
X665952D2*
X690781D1*
X715467D2*
X721594D1*
X757588D2*
X761281D1*
X777268D2*
X780781D1*
X802588D2*
X806281D1*
X826588D2*
X830281D1*
X531230Y1127219D2*
X542335D1*
X574688D2*
X584279D1*
X600787D2*
X608794D1*
X640619D2*
X650751D1*
X665088D2*
X690781D1*
X712851D2*
X724216D1*
X755658D2*
X762719D1*
X775310D2*
X781588D1*
X800658D2*
X807718D1*
X824652D2*
X831211D1*
X531525Y1125719D2*
X542643D1*
X572933D2*
X584280D1*
X599351D2*
X610744D1*
X638545D2*
X653153D1*
X664455D2*
X690781D1*
X709943D2*
X727178D1*
X753940D2*
X763986D1*
X773411D2*
X782652D1*
X798945D2*
X808967D1*
X822881D2*
X832066D1*
X531728Y1124219D2*
X547868D1*
X566545D2*
X584281D1*
X598160D2*
X612552D1*
X636482D2*
X655088D1*
X664061D2*
X690781D1*
X706988D2*
X730323D1*
X752343D2*
X764973D1*
X771300D2*
X783869D1*
X797406D2*
X809858D1*
X821081D2*
X832870D1*
X531987Y1122719D2*
X556118D1*
X556359D2*
X584281D1*
X597268D2*
X614281D1*
X634707D2*
X656507D1*
X669781D2*
X678781D1*
X704502D2*
X733169D1*
X750803D2*
X765781D1*
X768706D2*
X784964D1*
X796099D2*
X810366D1*
X819069D2*
X833641D1*
X532373Y1121219D2*
X570781D1*
X575224D2*
X584275D1*
X597354D2*
X613299D1*
X633288D2*
X656601D1*
X669781D2*
X678781D1*
X702572D2*
X711781D1*
X714480D2*
X735522D1*
X749281D2*
X750781D1*
X753492D2*
X770281D1*
X775019D2*
X785806D1*
X795096D2*
X795781D1*
X798486D2*
X810622D1*
X816702D2*
X834395D1*
X532769Y1119719D2*
X543781D1*
X548281D2*
X566281D1*
X575031D2*
X584222D1*
X598005D2*
X612305D1*
X632768D2*
X655992D1*
X669781D2*
X678781D1*
X701901D2*
X711781D1*
X718293D2*
X736578D1*
X754422D2*
X768844D1*
X775449D2*
X785689D1*
X794281D2*
D3*
X799369D2*
X810781D1*
X813886D2*
X816781D1*
X823019D2*
X835095D1*
X533034Y1118219D2*
X543781D1*
X574672D2*
X584031D1*
X598583D2*
X611339D1*
X632488D2*
X641281D1*
X647281D2*
X655362D1*
X669781D2*
X678781D1*
X701542D2*
X711781D1*
X721487D2*
X736954D1*
X755115D2*
X767595D1*
X776087D2*
X784755D1*
X799924D2*
X815287D1*
X823443D2*
X835650D1*
X533169Y1116719D2*
X543775D1*
X574287D2*
X583666D1*
X598951D2*
X610595D1*
X632362D2*
X641281D1*
X650281D2*
X654781D1*
X669781D2*
X678781D1*
X701382D2*
X711781D1*
X723872D2*
X737147D1*
X755718D2*
X766704D1*
X776954D2*
X783559D1*
X800359D2*
X813845D1*
X824023D2*
X835987D1*
X533176Y1115219D2*
X543722D1*
X574020D2*
X583229D1*
X599141D2*
X610154D1*
X632311D2*
X641281D1*
X669781D2*
X678781D1*
X701318D2*
X711781D1*
X725644D2*
X737230D1*
X756208D2*
X766198D1*
X778061D2*
X782200D1*
X800824D2*
X812595D1*
X824650D2*
X836157D1*
X519781Y1113719D2*
X527281D1*
X532970D2*
X543531D1*
X573828D2*
X582776D1*
X599226D2*
X609937D1*
X632291D2*
X641281D1*
X669781D2*
X678781D1*
X701294D2*
X711781D1*
X726235D2*
X737263D1*
X756512D2*
X765953D1*
X779281D2*
X780781D1*
X801250D2*
X811704D1*
X825227D2*
X836232D1*
X518163Y1112219D2*
X530984D1*
X532468D2*
X543172D1*
X573573D2*
X582272D1*
X599260D2*
X609841D1*
X632284D2*
X641281D1*
X669781D2*
X678781D1*
X701285D2*
X711781D1*
X726551D2*
X737275D1*
X756667D2*
X765847D1*
X801528D2*
X811198D1*
X825744D2*
X836263D1*
X516914Y1110719D2*
X542787D1*
X573182D2*
X581771D1*
X599274D2*
X609803D1*
X632282D2*
X641281D1*
X669781D2*
X678781D1*
X701282D2*
X711781D1*
X726692D2*
X737279D1*
X756736D2*
X765805D1*
X801672D2*
X810953D1*
X826268D2*
X836274D1*
X516005Y1109219D2*
X542526D1*
X572734D2*
X581286D1*
X599278D2*
X609789D1*
X632281D2*
X641281D1*
X669781D2*
X678781D1*
X701281D2*
X711781D1*
X726748D2*
X737280D1*
X756764D2*
X765789D1*
X801738D2*
X810847D1*
X826727D2*
X836273D1*
X515281Y1107719D2*
X516781D1*
X525781D2*
X542386D1*
X572272D2*
X580719D1*
X599280D2*
X609784D1*
X632281D2*
X641281D1*
X669781D2*
X678781D1*
X701281D2*
X711781D1*
X726769D2*
X737281D1*
X756775D2*
X765784D1*
X801765D2*
X810805D1*
X827013D2*
X836222D1*
X527275Y1106219D2*
X542320D1*
X571715D2*
X580023D1*
X599281D2*
X609782D1*
X632281D2*
X641281D1*
X669781D2*
X678781D1*
X701281D2*
X711781D1*
X726777D2*
X737281D1*
X756779D2*
X765782D1*
X801775D2*
X810789D1*
X827110D2*
X836031D1*
X528716Y1104719D2*
X542281D1*
X546781D2*
X561781D1*
X571031D2*
X579177D1*
X599281D2*
X609781D1*
X632281D2*
X641281D1*
X669781D2*
X678781D1*
X701281D2*
X711781D1*
X726780D2*
X737281D1*
X756780D2*
X765781D1*
X801779D2*
X810784D1*
X826987D2*
X835666D1*
X529967Y1103219D2*
X568484D1*
X570206D2*
X578225D1*
X599281D2*
X609781D1*
X632281D2*
X641281D1*
X669781D2*
X678781D1*
X701281D2*
X711781D1*
X726780D2*
X737281D1*
X756781D2*
X765781D1*
X801780D2*
X810782D1*
X826650D2*
X835223D1*
X530858Y1101719D2*
X546108D1*
X560954D2*
X577268D1*
X599281D2*
X609781D1*
X632281D2*
X641281D1*
X669781D2*
X678781D1*
X701281D2*
X711781D1*
X726781D2*
X737281D1*
X756781D2*
X765781D1*
X801781D2*
X810781D1*
X826223D2*
X834717D1*
X531364Y1100219D2*
X543284D1*
X565375D2*
X576283D1*
X599281D2*
X609781D1*
X632281D2*
X641281D1*
X669781D2*
X678781D1*
X701281D2*
X711781D1*
X726781D2*
X737281D1*
X756781D2*
X765781D1*
X801781D2*
X810781D1*
X825768D2*
X834022D1*
X531609Y1098719D2*
X541145D1*
X569281D2*
X575267D1*
X599281D2*
X609781D1*
X632281D2*
X641281D1*
X669781D2*
X678781D1*
X701281D2*
X711781D1*
X726781D2*
X737281D1*
X756781D2*
X765781D1*
X801781D2*
X810781D1*
X825218D2*
X833156D1*
X531715Y1097219D2*
X540177D1*
X568351D2*
X574278D1*
X599281D2*
X609781D1*
X632281D2*
X641281D1*
X669781D2*
X678781D1*
X701281D2*
X711781D1*
X726781D2*
X737281D1*
X756781D2*
X765781D1*
X801781D2*
X810781D1*
X824573D2*
X832234D1*
X531757Y1095719D2*
X539452D1*
X567495D2*
X573230D1*
X599281D2*
X609781D1*
X632281D2*
X641281D1*
X669781D2*
X678781D1*
X701281D2*
X711781D1*
X726781D2*
X737281D1*
X756781D2*
X765781D1*
X801781D2*
X810781D1*
X823868D2*
X831214D1*
X531772Y1094219D2*
X538787D1*
X566692D2*
X572025D1*
X599281D2*
X609781D1*
X632281D2*
X641281D1*
X669781D2*
X678781D1*
X701281D2*
X711781D1*
X726781D2*
X737281D1*
X756775D2*
X765781D1*
X801781D2*
X810781D1*
X823090D2*
X830014D1*
X531772Y1092719D2*
X538098D1*
X565915D2*
X570728D1*
X599281D2*
X609781D1*
X632275D2*
X641281D1*
X669775D2*
X678781D1*
X701281D2*
X711781D1*
X726781D2*
X737281D1*
X756722D2*
X765781D1*
X801781D2*
X810781D1*
X822205D2*
X828661D1*
X531721Y1091219D2*
X537382D1*
X565102D2*
X569487D1*
X599281D2*
X609781D1*
X632222D2*
X641281D1*
X669722D2*
X678781D1*
X701281D2*
X711787D1*
X726781D2*
X737281D1*
X756531D2*
X765781D1*
X801781D2*
X810781D1*
X821236D2*
X827178D1*
X531531Y1089719D2*
X536646D1*
X564158D2*
X568373D1*
X599281D2*
X609781D1*
X632031D2*
X641293D1*
X669531D2*
X678787D1*
X701281D2*
X711851D1*
X726781D2*
X737281D1*
X756172D2*
X765787D1*
X801775D2*
X810781D1*
X820260D2*
X825514D1*
X531166Y1088219D2*
X535897D1*
X563041D2*
X567269D1*
X599281D2*
X609787D1*
X631672D2*
X641410D1*
X669166D2*
X678851D1*
X701275D2*
X712009D1*
X726781D2*
X737281D1*
X755781D2*
X765845D1*
X801722D2*
X810787D1*
X819156D2*
X823660D1*
X530729Y1086719D2*
X535101D1*
X561845D2*
X566034D1*
X599287D2*
X609839D1*
X631281D2*
X641691D1*
X668723D2*
X679009D1*
X701216D2*
X712792D1*
X726781D2*
X737281D1*
X755467D2*
X766101D1*
X801531D2*
X810844D1*
X817641D2*
X821727D1*
X530270Y1085219D2*
X534209D1*
X560561D2*
X564674D1*
X599339D2*
X610032D1*
X630961D2*
X643134D1*
X668217D2*
X679919D1*
X700972D2*
X714805D1*
X726775D2*
X737275D1*
X755131D2*
X766587D1*
X801172D2*
X811076D1*
X815457D2*
X819769D1*
X529719Y1083719D2*
X533237D1*
X543781D2*
X555781D1*
X559026D2*
X563244D1*
X599531D2*
X610404D1*
X630573D2*
X645392D1*
X657781D2*
X659281D1*
X667534D2*
X681310D1*
X700421D2*
X717524D1*
X726718D2*
X737205D1*
X754651D2*
X767966D1*
X800787D2*
X811588D1*
X812555D2*
X817713D1*
X529074Y1082219D2*
X532272D1*
X540314D2*
X561824D1*
X599890D2*
X610850D1*
X617281D2*
X618781D1*
X629905D2*
X648402D1*
X656281D2*
X657960D1*
X666796D2*
X683007D1*
X689281D2*
X690781D1*
X699660D2*
X720807D1*
X726486D2*
X737029D1*
X754004D2*
X769859D1*
X777781D2*
X779281D1*
X800520D2*
X815521D1*
X528374Y1080719D2*
X531289D1*
X537199D2*
X560525D1*
X600280D2*
X611281D1*
X614375D2*
X617455D1*
X628919D2*
X651781D1*
X654781D2*
X656445D1*
X666208D2*
X684781D1*
X687781D2*
X689460D1*
X698930D2*
X724454D1*
X725973D2*
X736112D1*
X753197D2*
X772217D1*
X774078D2*
X777955D1*
X800322D2*
X813177D1*
X527643Y1079219D2*
X530314D1*
X534140D2*
X559388D1*
X600601D2*
X615886D1*
X627781D2*
X654878D1*
X666265D2*
X687945D1*
X698281D2*
X733911D1*
X752281D2*
X776386D1*
X800015D2*
X810725D1*
X526897Y1077719D2*
X529486D1*
X530813D2*
X558274D1*
X600989D2*
X614129D1*
X633669D2*
X653328D1*
X668594D2*
X686373D1*
X704737D2*
X731224D1*
X755275D2*
X774623D1*
X799432D2*
X808268D1*
X526110Y1076219D2*
X557036D1*
X601662D2*
X612219D1*
X638147D2*
X651801D1*
X671273D2*
X684765D1*
X709834D2*
X728355D1*
X758218D2*
X772656D1*
X798619D2*
X805789D1*
X525236Y1074719D2*
X533281D1*
X544729D2*
X555675D1*
X602680D2*
X610303D1*
X641473D2*
X650288D1*
X673976D2*
X683006D1*
X713694D2*
X725592D1*
X760986D2*
X770509D1*
X797720D2*
X803332D1*
X524281Y1073219D2*
X530281D1*
X548177D2*
X554242D1*
X603934D2*
X608506D1*
X644281D2*
X648781D1*
X676462D2*
X680981D1*
X716683D2*
X723097D1*
X763473D2*
X768199D1*
X796715D2*
X801092D1*
X525781Y1071719D2*
X527281D1*
X551281D2*
X552781D1*
X605281D2*
X606781D1*
X678781D2*
D3*
X719281D2*
X720781D1*
X765781D2*
D3*
X795576D2*
X799159D1*
X794481Y1070219D2*
X797501D1*
X793659Y1068719D2*
X796156D1*
X793181Y1067219D2*
X795075D1*
X792953Y1065719D2*
X794731D1*
X792910Y1064219D2*
X794603D1*
X793119Y1062719D2*
X795103D1*
X813781D2*
X816781D1*
X793567Y1061219D2*
X796249D1*
X812531D2*
X816480D1*
X794726Y1059719D2*
X799142D1*
X811015D2*
X815977D1*
X796239Y1058219D2*
X803669D1*
X809281D2*
X814617D1*
X798148Y1056719D2*
X812826D1*
X800281Y1055219D2*
X810781D1*
X516781Y1155719D2*
X514646Y1154219D1*
X512913Y1152719D1*
X511613Y1151219D1*
X510645Y1149719D1*
X509924Y1148219D1*
X509350Y1146719D1*
X508805Y1145219D1*
X508339Y1143719D1*
X508043Y1142219D1*
X507884Y1140719D1*
X507781Y1139219D1*
X524281Y1155719D2*
X526980Y1154219D1*
X529305Y1152719D1*
X531116Y1151219D1*
X532494Y1149719D1*
X533662Y1148219D1*
X534746Y1146719D1*
X535710Y1145219D1*
X536575Y1143719D1*
X537416Y1142219D1*
X538313Y1140719D1*
X539281Y1139219D1*
X572281Y1154219D2*
X569281Y1152719D1*
X566281Y1151219D1*
X563281Y1149719D1*
X560281Y1148219D1*
X557287Y1146719D1*
X554339Y1145219D1*
X551519Y1143719D1*
X548764Y1142219D1*
X545689Y1140719D1*
X541948Y1139219D1*
X537781Y1137719D1*
X576781Y1154219D2*
X577351Y1152719D1*
X577995Y1151219D1*
X578692Y1149719D1*
X579421Y1148219D1*
X580160Y1146719D1*
X580902Y1145219D1*
X581597Y1143719D1*
X582157Y1142219D1*
X582546Y1140719D1*
X582907Y1139219D1*
X583341Y1137719D1*
X583757Y1136219D1*
X584030Y1134719D1*
X584173Y1133219D1*
X584238Y1131719D1*
X584265Y1130219D1*
X584275Y1128719D1*
X584279Y1127219D1*
X584280Y1125719D1*
X584281Y1124219D1*
Y1122719D1*
X584275Y1121219D1*
X584222Y1119719D1*
X584031Y1118219D1*
X583666Y1116719D1*
X583229Y1115219D1*
X582776Y1113719D1*
X582272Y1112219D1*
X581771Y1110719D1*
X581286Y1109219D1*
X580719Y1107719D1*
X580023Y1106219D1*
X579177Y1104719D1*
X578225Y1103219D1*
X577268Y1101719D1*
X576283Y1100219D1*
X575267Y1098719D1*
X574278Y1097219D1*
X573230Y1095719D1*
X572025Y1094219D1*
X570728Y1092719D1*
X569487Y1091219D1*
X568373Y1089719D1*
X567269Y1088219D1*
X566034Y1086719D1*
X564674Y1085219D1*
X563244Y1083719D1*
X561824Y1082219D1*
X560525Y1080719D1*
X559388Y1079219D1*
X558274Y1077719D1*
X557036Y1076219D1*
X555675Y1074719D1*
X554242Y1073219D1*
X552781Y1071719D1*
X609781Y1151219D2*
X609549Y1149719D1*
X609177Y1148219D1*
X608783Y1146719D1*
X608463Y1145219D1*
X608092Y1143719D1*
X607512Y1142219D1*
X606781Y1140719D1*
X615781Y1151219D2*
X614799Y1149719D1*
X613799Y1148219D1*
X612774Y1146719D1*
X611781Y1145219D1*
X610735Y1143719D1*
X609548Y1142219D1*
X608281Y1140719D1*
X513781Y1148219D2*
X512344Y1146719D1*
X511095Y1145219D1*
X510204Y1143719D1*
X509696Y1142219D1*
X509440Y1140719D1*
X509281Y1139219D1*
X518281Y1148219D2*
X519781Y1146719D1*
X521281Y1145219D1*
X522775Y1143719D1*
X524222Y1142219D1*
X525525Y1140719D1*
X526607Y1139219D1*
X527479Y1137719D1*
X528161Y1136219D1*
X528719Y1134719D1*
X529266Y1133219D1*
X529782Y1131719D1*
X530267Y1130219D1*
X530778Y1128719D1*
X531230Y1127219D1*
X531525Y1125719D1*
X531728Y1124219D1*
X531987Y1122719D1*
X532373Y1121219D1*
X532769Y1119719D1*
X533034Y1118219D1*
X533169Y1116719D1*
X533176Y1115219D1*
X532970Y1113719D1*
X532468Y1112219D1*
X531781Y1110719D1*
X564781Y1148219D2*
X561838Y1146719D1*
X559030Y1145219D1*
X556390Y1143719D1*
X553774Y1142219D1*
X551042Y1140719D1*
X548245Y1139219D1*
X545617Y1137719D1*
X543508Y1136219D1*
X541898Y1134719D1*
X541391Y1133219D1*
X541571Y1131719D1*
X541851Y1130219D1*
X542089Y1128719D1*
X542335Y1127219D1*
X542643Y1125719D1*
X547868Y1124219D1*
X556118Y1122719D1*
X566281Y1121219D1*
X567781Y1148219D2*
X568019Y1146719D1*
X568443Y1145219D1*
X569029Y1143719D1*
X569703Y1142219D1*
X570424Y1140719D1*
X571162Y1139219D1*
X571903Y1137719D1*
X572597Y1136219D1*
X573151Y1134719D1*
X573494Y1133219D1*
X573716Y1131719D1*
X573970Y1130219D1*
X574315Y1128719D1*
X574688Y1127219D1*
X572933Y1125719D1*
X566545Y1124219D1*
X556359Y1122719D1*
X543781Y1121219D1*
X678781Y1143719D2*
X677338Y1142219D1*
X676030Y1140719D1*
X674890Y1139219D1*
X673774Y1137719D1*
X672536Y1136219D1*
X671175Y1134719D1*
X669745Y1133219D1*
X668324Y1131719D1*
X667031Y1130219D1*
X665952Y1128719D1*
X665088Y1127219D1*
X664455Y1125719D1*
X664061Y1124219D1*
X663781Y1122719D1*
X669781D1*
Y1121219D1*
Y1119719D1*
Y1118219D1*
Y1116719D1*
Y1115219D1*
Y1113719D1*
Y1112219D1*
Y1110719D1*
Y1109219D1*
Y1107719D1*
Y1106219D1*
Y1104719D1*
Y1103219D1*
Y1101719D1*
Y1100219D1*
Y1098719D1*
Y1097219D1*
Y1095719D1*
Y1094219D1*
X669775Y1092719D1*
X669722Y1091219D1*
X669531Y1089719D1*
X669166Y1088219D1*
X668723Y1086719D1*
X668217Y1085219D1*
X667534Y1083719D1*
X666796Y1082219D1*
X666208Y1080719D1*
X666265Y1079219D1*
X668594Y1077719D1*
X671273Y1076219D1*
X673976Y1074719D1*
X676462Y1073219D1*
X678781Y1071719D1*
X680281Y1143719D2*
Y1142219D1*
X680275Y1140719D1*
X680222Y1139219D1*
X680031Y1137719D1*
X679672Y1136219D1*
X679287Y1134719D1*
X679026Y1133219D1*
X678886Y1131719D1*
X678820Y1130219D1*
X678781Y1128719D1*
X690781D1*
Y1127219D1*
Y1125719D1*
Y1124219D1*
Y1122719D1*
X678781D1*
Y1121219D1*
Y1119719D1*
Y1118219D1*
Y1116719D1*
Y1115219D1*
Y1113719D1*
Y1112219D1*
Y1110719D1*
Y1109219D1*
Y1107719D1*
Y1106219D1*
Y1104719D1*
Y1103219D1*
Y1101719D1*
Y1100219D1*
Y1098719D1*
Y1097219D1*
Y1095719D1*
Y1094219D1*
Y1092719D1*
Y1091219D1*
X678787Y1089719D1*
X678851Y1088219D1*
X679009Y1086719D1*
X679919Y1085219D1*
X681310Y1083719D1*
X683007Y1082219D1*
X684781Y1080719D1*
X644281Y1130219D2*
X642543Y1128719D1*
X640619Y1127219D1*
X638545Y1125719D1*
X636482Y1124219D1*
X634707Y1122719D1*
X633288Y1121219D1*
X632768Y1119719D1*
X632488Y1118219D1*
X632362Y1116719D1*
X632311Y1115219D1*
X632291Y1113719D1*
X632284Y1112219D1*
X632282Y1110719D1*
X632281Y1109219D1*
Y1107719D1*
Y1106219D1*
Y1104719D1*
Y1103219D1*
Y1101719D1*
Y1100219D1*
Y1098719D1*
Y1097219D1*
Y1095719D1*
Y1094219D1*
X632275Y1092719D1*
X632222Y1091219D1*
X632031Y1089719D1*
X631672Y1088219D1*
X631281Y1086719D1*
X630961Y1085219D1*
X630573Y1083719D1*
X629905Y1082219D1*
X628919Y1080719D1*
X627781Y1079219D1*
X633669Y1077719D1*
X638147Y1076219D1*
X641473Y1074719D1*
X644281Y1073219D1*
X645781Y1130219D2*
X648262Y1128719D1*
X650751Y1127219D1*
X653153Y1125719D1*
X655088Y1124219D1*
X656507Y1122719D1*
X656601Y1121219D1*
X655992Y1119719D1*
X655362Y1118219D1*
X654781Y1116719D1*
X717781Y1130219D2*
X715467Y1128719D1*
X712851Y1127219D1*
X709943Y1125719D1*
X706988Y1124219D1*
X704502Y1122719D1*
X702572Y1121219D1*
X701901Y1119719D1*
X701542Y1118219D1*
X701382Y1116719D1*
X701318Y1115219D1*
X701294Y1113719D1*
X701285Y1112219D1*
X701282Y1110719D1*
X701281Y1109219D1*
Y1107719D1*
Y1106219D1*
Y1104719D1*
Y1103219D1*
Y1101719D1*
Y1100219D1*
Y1098719D1*
Y1097219D1*
Y1095719D1*
Y1094219D1*
Y1092719D1*
Y1091219D1*
Y1089719D1*
X701275Y1088219D1*
X701216Y1086719D1*
X700972Y1085219D1*
X700421Y1083719D1*
X699660Y1082219D1*
X698930Y1080719D1*
X698281Y1079219D1*
X704737Y1077719D1*
X709834Y1076219D1*
X713694Y1074719D1*
X716683Y1073219D1*
X719281Y1071719D1*
Y1130219D2*
X721594Y1128719D1*
X724216Y1127219D1*
X727178Y1125719D1*
X730323Y1124219D1*
X733169Y1122719D1*
X735522Y1121219D1*
X736578Y1119719D1*
X736954Y1118219D1*
X737147Y1116719D1*
X737230Y1115219D1*
X737263Y1113719D1*
X737275Y1112219D1*
X737279Y1110719D1*
X737280Y1109219D1*
X737281Y1107719D1*
Y1106219D1*
Y1104719D1*
Y1103219D1*
Y1101719D1*
Y1100219D1*
Y1098719D1*
Y1097219D1*
Y1095719D1*
Y1094219D1*
Y1092719D1*
Y1091219D1*
Y1089719D1*
Y1088219D1*
Y1086719D1*
X737275Y1085219D1*
X737205Y1083719D1*
X737029Y1082219D1*
X736112Y1080719D1*
X733911Y1079219D1*
X731224Y1077719D1*
X728355Y1076219D1*
X725592Y1074719D1*
X723097Y1073219D1*
X720781Y1071719D1*
X759781Y1130219D2*
X757588Y1128719D1*
X755658Y1127219D1*
X753940Y1125719D1*
X752343Y1124219D1*
X750803Y1122719D1*
X749281Y1121219D1*
X779281Y1130219D2*
X777268Y1128719D1*
X775310Y1127219D1*
X773411Y1125719D1*
X771300Y1124219D1*
X768706Y1122719D1*
X765781Y1121219D1*
X804781Y1130219D2*
X802588Y1128719D1*
X800658Y1127219D1*
X798945Y1125719D1*
X797406Y1124219D1*
X796099Y1122719D1*
X795096Y1121219D1*
X794281Y1119719D1*
X828781Y1130219D2*
X826588Y1128719D1*
X824652Y1127219D1*
X822881Y1125719D1*
X821081Y1124219D1*
X819069Y1122719D1*
X816702Y1121219D1*
X813886Y1119719D1*
X810781Y1118219D1*
X602281Y1128719D2*
X600787Y1127219D1*
X599351Y1125719D1*
X598160Y1124219D1*
X597268Y1122719D1*
X597354Y1121219D1*
X598005Y1119719D1*
X598583Y1118219D1*
X598951Y1116719D1*
X599141Y1115219D1*
X599226Y1113719D1*
X599260Y1112219D1*
X599274Y1110719D1*
X599278Y1109219D1*
X599280Y1107719D1*
X599281Y1106219D1*
Y1104719D1*
Y1103219D1*
Y1101719D1*
Y1100219D1*
Y1098719D1*
Y1097219D1*
Y1095719D1*
Y1094219D1*
Y1092719D1*
Y1091219D1*
Y1089719D1*
Y1088219D1*
X599287Y1086719D1*
X599339Y1085219D1*
X599531Y1083719D1*
X599890Y1082219D1*
X600280Y1080719D1*
X600601Y1079219D1*
X600989Y1077719D1*
X601662Y1076219D1*
X602680Y1074719D1*
X603934Y1073219D1*
X605281Y1071719D1*
X606781Y1128719D2*
X608794Y1127219D1*
X610744Y1125719D1*
X612552Y1124219D1*
X614281Y1122719D1*
X613299Y1121219D1*
X612305Y1119719D1*
X611339Y1118219D1*
X610595Y1116719D1*
X610154Y1115219D1*
X609937Y1113719D1*
X609841Y1112219D1*
X609803Y1110719D1*
X609789Y1109219D1*
X609784Y1107719D1*
X609782Y1106219D1*
X609781Y1104719D1*
Y1103219D1*
Y1101719D1*
Y1100219D1*
Y1098719D1*
Y1097219D1*
Y1095719D1*
Y1094219D1*
Y1092719D1*
Y1091219D1*
Y1089719D1*
X609787Y1088219D1*
X609839Y1086719D1*
X610032Y1085219D1*
X610404Y1083719D1*
X610850Y1082219D1*
X611281Y1080719D1*
X761281Y1128719D2*
X762719Y1127219D1*
X763986Y1125719D1*
X764973Y1124219D1*
X765781Y1122719D1*
X780781Y1128719D2*
X781588Y1127219D1*
X782652Y1125719D1*
X783869Y1124219D1*
X784964Y1122719D1*
X785806Y1121219D1*
X785689Y1119719D1*
X784755Y1118219D1*
X783559Y1116719D1*
X782200Y1115219D1*
X780781Y1113719D1*
X806281Y1128719D2*
X807718Y1127219D1*
X808967Y1125719D1*
X809858Y1124219D1*
X810366Y1122719D1*
X810622Y1121219D1*
X810781Y1119719D1*
X830281Y1128719D2*
X831211Y1127219D1*
X832066Y1125719D1*
X832870Y1124219D1*
X833641Y1122719D1*
X834395Y1121219D1*
X835095Y1119719D1*
X835650Y1118219D1*
X835987Y1116719D1*
X836157Y1115219D1*
X836232Y1113719D1*
X836263Y1112219D1*
X836274Y1110719D1*
X836273Y1109219D1*
X836222Y1107719D1*
X836031Y1106219D1*
X835666Y1104719D1*
X835223Y1103219D1*
X834717Y1101719D1*
X834022Y1100219D1*
X833156Y1098719D1*
X832234Y1097219D1*
X831214Y1095719D1*
X830014Y1094219D1*
X828661Y1092719D1*
X827178Y1091219D1*
X825514Y1089719D1*
X823660Y1088219D1*
X821727Y1086719D1*
X819769Y1085219D1*
X817713Y1083719D1*
X815521Y1082219D1*
X813177Y1080719D1*
X810725Y1079219D1*
X808268Y1077719D1*
X805789Y1076219D1*
X803332Y1074719D1*
X801092Y1073219D1*
X799159Y1071719D1*
X797501Y1070219D1*
X796156Y1068719D1*
X795075Y1067219D1*
X794731Y1065719D1*
X794603Y1064219D1*
X795103Y1062719D1*
X796249Y1061219D1*
X799142Y1059719D1*
X803669Y1058219D1*
X809281Y1056719D1*
X575281Y1122719D2*
X570781Y1121219D1*
X566281Y1119719D1*
X575281Y1122719D2*
X575224Y1121219D1*
X575031Y1119719D1*
X574672Y1118219D1*
X574287Y1116719D1*
X574020Y1115219D1*
X573828Y1113719D1*
X573573Y1112219D1*
X573182Y1110719D1*
X572734Y1109219D1*
X572272Y1107719D1*
X571715Y1106219D1*
X571031Y1104719D1*
X570206Y1103219D1*
X569281Y1101719D1*
X711781Y1122719D2*
Y1121219D1*
Y1119719D1*
Y1118219D1*
Y1116719D1*
Y1115219D1*
Y1113719D1*
Y1112219D1*
Y1110719D1*
Y1109219D1*
Y1107719D1*
Y1106219D1*
Y1104719D1*
Y1103219D1*
Y1101719D1*
Y1100219D1*
Y1098719D1*
Y1097219D1*
Y1095719D1*
Y1094219D1*
Y1092719D1*
X711787Y1091219D1*
X711851Y1089719D1*
X712009Y1088219D1*
X712792Y1086719D1*
X714805Y1085219D1*
X717524Y1083719D1*
X720807Y1082219D1*
X724454Y1080719D1*
X728281Y1079219D1*
X710281Y1122719D2*
X714480Y1121219D1*
X718293Y1119719D1*
X721487Y1118219D1*
X723872Y1116719D1*
X725644Y1115219D1*
X726235Y1113719D1*
X726551Y1112219D1*
X726692Y1110719D1*
X726748Y1109219D1*
X726769Y1107719D1*
X726777Y1106219D1*
X726780Y1104719D1*
Y1103219D1*
X726781Y1101719D1*
Y1100219D1*
Y1098719D1*
Y1097219D1*
Y1095719D1*
Y1094219D1*
Y1092719D1*
Y1091219D1*
Y1089719D1*
Y1088219D1*
Y1086719D1*
X726775Y1085219D1*
X726718Y1083719D1*
X726486Y1082219D1*
X725973Y1080719D1*
X725281Y1079219D1*
X750781Y1121219D2*
X752281Y1122719D2*
X753492Y1121219D1*
X754422Y1119719D1*
X755115Y1118219D1*
X755718Y1116719D1*
X756208Y1115219D1*
X756512Y1113719D1*
X756667Y1112219D1*
X756736Y1110719D1*
X756764Y1109219D1*
X756775Y1107719D1*
X756779Y1106219D1*
X756780Y1104719D1*
X756781Y1103219D1*
Y1101719D1*
Y1100219D1*
Y1098719D1*
Y1097219D1*
Y1095719D1*
X756775Y1094219D1*
X756722Y1092719D1*
X756531Y1091219D1*
X756172Y1089719D1*
X755781Y1088219D1*
X755467Y1086719D1*
X755131Y1085219D1*
X754651Y1083719D1*
X754004Y1082219D1*
X753197Y1080719D1*
X752281Y1079219D1*
X755275Y1077719D1*
X758218Y1076219D1*
X760986Y1074719D1*
X763473Y1073219D1*
X765781Y1071719D1*
X770281Y1121219D2*
X768844Y1119719D1*
X767595Y1118219D1*
X766704Y1116719D1*
X766198Y1115219D1*
X765953Y1113719D1*
X765847Y1112219D1*
X765805Y1110719D1*
X765789Y1109219D1*
X765784Y1107719D1*
X765782Y1106219D1*
X765781Y1104719D1*
Y1103219D1*
Y1101719D1*
Y1100219D1*
Y1098719D1*
Y1097219D1*
Y1095719D1*
Y1094219D1*
Y1092719D1*
Y1091219D1*
X765787Y1089719D1*
X765845Y1088219D1*
X766101Y1086719D1*
X766587Y1085219D1*
X767966Y1083719D1*
X769859Y1082219D1*
X772217Y1080719D1*
X774781Y1079219D1*
Y1122719D2*
X775019Y1121219D1*
X775449Y1119719D1*
X776087Y1118219D1*
X776954Y1116719D1*
X778061Y1115219D1*
X779281Y1113719D1*
X795781Y1121219D2*
X794281Y1119719D1*
X797281Y1122719D2*
X798486Y1121219D1*
X799369Y1119719D1*
X799924Y1118219D1*
X800359Y1116719D1*
X800824Y1115219D1*
X801250Y1113719D1*
X801528Y1112219D1*
X801672Y1110719D1*
X801738Y1109219D1*
X801765Y1107719D1*
X801775Y1106219D1*
X801779Y1104719D1*
X801780Y1103219D1*
X801781Y1101719D1*
Y1100219D1*
Y1098719D1*
Y1097219D1*
Y1095719D1*
Y1094219D1*
Y1092719D1*
Y1091219D1*
X801775Y1089719D1*
X801722Y1088219D1*
X801531Y1086719D1*
X801172Y1085219D1*
X800787Y1083719D1*
X800520Y1082219D1*
X800322Y1080719D1*
X800015Y1079219D1*
X799432Y1077719D1*
X798619Y1076219D1*
X797720Y1074719D1*
X796715Y1073219D1*
X795576Y1071719D1*
X794481Y1070219D1*
X793659Y1068719D1*
X793181Y1067219D1*
X792953Y1065719D1*
X792910Y1064219D1*
X793119Y1062719D1*
X793567Y1061219D1*
X794726Y1059719D1*
X796239Y1058219D1*
X798148Y1056719D1*
X800281Y1055219D1*
X543781Y1121219D2*
Y1119719D1*
Y1118219D1*
X543775Y1116719D1*
X543722Y1115219D1*
X543531Y1113719D1*
X543172Y1112219D1*
X542787Y1110719D1*
X542526Y1109219D1*
X542386Y1107719D1*
X542320Y1106219D1*
X542281Y1104719D1*
X546781Y1121219D2*
X548281Y1119719D1*
X816781D2*
X815287Y1118219D1*
X813845Y1116719D1*
X812595Y1115219D1*
X811704Y1113719D1*
X811198Y1112219D1*
X810953Y1110719D1*
X810847Y1109219D1*
X810805Y1107719D1*
X810789Y1106219D1*
X810784Y1104719D1*
X810782Y1103219D1*
X810781Y1101719D1*
Y1100219D1*
Y1098719D1*
Y1097219D1*
Y1095719D1*
Y1094219D1*
Y1092719D1*
Y1091219D1*
Y1089719D1*
X810787Y1088219D1*
X810844Y1086719D1*
X811076Y1085219D1*
X811588Y1083719D1*
X812281Y1082219D1*
X822781Y1121219D2*
X823019Y1119719D1*
X823443Y1118219D1*
X824023Y1116719D1*
X824650Y1115219D1*
X825227Y1113719D1*
X825744Y1112219D1*
X826268Y1110719D1*
X826727Y1109219D1*
X827013Y1107719D1*
X827110Y1106219D1*
X826987Y1104719D1*
X826650Y1103219D1*
X826223Y1101719D1*
X825768Y1100219D1*
X825218Y1098719D1*
X824573Y1097219D1*
X823868Y1095719D1*
X823090Y1094219D1*
X822205Y1092719D1*
X821236Y1091219D1*
X820260Y1089719D1*
X819156Y1088219D1*
X817641Y1086719D1*
X815457Y1085219D1*
X812555Y1083719D1*
X809281Y1082219D1*
X641281Y1119719D2*
Y1118219D1*
Y1116719D1*
Y1115219D1*
Y1113719D1*
Y1112219D1*
Y1110719D1*
Y1109219D1*
Y1107719D1*
Y1106219D1*
Y1104719D1*
Y1103219D1*
Y1101719D1*
Y1100219D1*
Y1098719D1*
Y1097219D1*
Y1095719D1*
Y1094219D1*
Y1092719D1*
Y1091219D1*
X641293Y1089719D1*
X641410Y1088219D1*
X641691Y1086719D1*
X643134Y1085219D1*
X645392Y1083719D1*
X648402Y1082219D1*
X651781Y1080719D1*
X644281Y1119719D2*
X647281Y1118219D1*
X650281Y1116719D1*
X519781Y1113719D2*
X518163Y1112219D1*
X516914Y1110719D1*
X516005Y1109219D1*
X515281Y1107719D1*
X527281Y1113719D2*
X530984Y1112219D1*
X534781Y1110719D1*
X518281Y1109219D2*
X516781Y1107719D1*
X524281Y1109219D2*
X525781Y1107719D1*
X527275Y1106219D1*
X528716Y1104719D1*
X529967Y1103219D1*
X530858Y1101719D1*
X531364Y1100219D1*
X531609Y1098719D1*
X531715Y1097219D1*
X531757Y1095719D1*
X531772Y1094219D1*
Y1092719D1*
X531721Y1091219D1*
X531531Y1089719D1*
X531166Y1088219D1*
X530729Y1086719D1*
X530270Y1085219D1*
X529719Y1083719D1*
X529074Y1082219D1*
X528374Y1080719D1*
X527643Y1079219D1*
X526897Y1077719D1*
X526110Y1076219D1*
X525236Y1074719D1*
X524281Y1073219D1*
X525781Y1071719D1*
X546781Y1104719D2*
X545281Y1103219D1*
X561781Y1104719D2*
X568484Y1103219D1*
X575281Y1101719D1*
X549781Y1103219D2*
X546108Y1101719D1*
X543284Y1100219D1*
X541145Y1098719D1*
X540177Y1097219D1*
X539452Y1095719D1*
X538787Y1094219D1*
X538098Y1092719D1*
X537382Y1091219D1*
X536646Y1089719D1*
X535897Y1088219D1*
X535101Y1086719D1*
X534209Y1085219D1*
X533237Y1083719D1*
X532272Y1082219D1*
X531289Y1080719D1*
X530314Y1079219D1*
X529486Y1077719D1*
X528781Y1076219D1*
X555781Y1103219D2*
X560954Y1101719D1*
X565375Y1100219D1*
X569281Y1098719D1*
X568351Y1097219D1*
X567495Y1095719D1*
X566692Y1094219D1*
X565915Y1092719D1*
X565102Y1091219D1*
X564158Y1089719D1*
X563041Y1088219D1*
X561845Y1086719D1*
X560561Y1085219D1*
X559026Y1083719D1*
X557281Y1082219D1*
X543781Y1083719D2*
X540314Y1082219D1*
X537199Y1080719D1*
X534140Y1079219D1*
X530813Y1077719D1*
X527281Y1076219D1*
X555781Y1083719D2*
X557281Y1082219D1*
X657781Y1083719D2*
X656281Y1082219D1*
X654781Y1080719D1*
X659281Y1083719D2*
X657960Y1082219D1*
X656445Y1080719D1*
X654878Y1079219D1*
X653328Y1077719D1*
X651801Y1076219D1*
X650288Y1074719D1*
X648781Y1073219D1*
X617281Y1082219D2*
X614375Y1080719D1*
X611281Y1079219D1*
X618781Y1082219D2*
X617455Y1080719D1*
X615886Y1079219D1*
X614129Y1077719D1*
X612219Y1076219D1*
X610303Y1074719D1*
X608506Y1073219D1*
X606781Y1071719D1*
X689281Y1082219D2*
X687781Y1080719D1*
X690781Y1082219D2*
X689460Y1080719D1*
X687945Y1079219D1*
X686373Y1077719D1*
X684765Y1076219D1*
X683006Y1074719D1*
X680981Y1073219D1*
X678781Y1071719D1*
X777781Y1082219D2*
X774078Y1080719D1*
X770281Y1079219D1*
X779281Y1082219D2*
X777955Y1080719D1*
X776386Y1079219D1*
X774623Y1077719D1*
X772656Y1076219D1*
X770509Y1074719D1*
X768199Y1073219D1*
X765781Y1071719D1*
X536281Y1076219D2*
X533281Y1074719D1*
X530281Y1073219D1*
X527281Y1071719D1*
X540781Y1076219D2*
X544729Y1074719D1*
X548177Y1073219D1*
X551281Y1071719D1*
X813781Y1062719D2*
X812531Y1061219D1*
X811015Y1059719D1*
X809281Y1058219D1*
X816781Y1062719D2*
X816480Y1061219D1*
X815977Y1059719D1*
X814617Y1058219D1*
X812826Y1056719D1*
X810781Y1055219D1*
X267264Y389151D2*
D59*
X264412Y387725D1*
X261527Y384840D1*
X260101Y381988D1*
Y376252D1*
X261527Y373366D1*
X264412Y370515D1*
X267264Y369055D1*
X271575Y367629D1*
X278771D1*
X283049Y369055D1*
X285934Y370515D1*
X288786Y373366D1*
X290245Y376251D1*
Y381988D1*
X288786Y384840D1*
X285934Y387725D1*
X283049Y389151D1*
X260134Y419486D2*
Y405160D1*
X273034Y403734D1*
X271608Y405160D1*
X270149Y409471D1*
Y413749D1*
X271608Y418060D1*
X274460Y420945D1*
X278771Y422371D1*
X281623D1*
X285934Y420945D1*
X288819Y418060D1*
X290245Y413749D1*
Y409471D1*
X288819Y405160D1*
X287360Y403734D1*
X284508Y402275D1*
X411910Y344442D2*
X410451Y347327D1*
X406173Y351638D1*
X436284D1*
X406173Y373383D2*
X407599Y369072D1*
X411910Y366187D1*
X419073Y364761D1*
X423384D1*
X430547Y366187D1*
X434858Y369072D1*
X436284Y373383D1*
Y376235D1*
X434858Y380546D1*
X430547Y383398D1*
X423384Y384857D1*
X419073D1*
X411910Y383398D1*
X407599Y380546D1*
X406173Y376235D1*
Y373383D1*
X411910Y383398D2*
X430547Y366187D1*
X416188Y397980D2*
X430547D1*
X434825Y399406D1*
X436284Y402291D1*
Y406602D1*
X434825Y409454D1*
X430547Y413765D1*
X416188D2*
X436284D1*
X406140Y445559D2*
Y426889D1*
X436284D1*
X420499D2*
Y438363D1*
X267264Y802381D2*
X264412Y800955D1*
X261527Y798070D1*
X260101Y795218D1*
Y789481D1*
X261527Y786596D1*
X264412Y783744D1*
X267264Y782285D1*
X271575Y780859D1*
X278771D1*
X283049Y782285D1*
X285934Y783744D1*
X288786Y786596D1*
X290245Y789481D1*
Y795218D1*
X288786Y798070D1*
X285934Y800955D1*
X283049Y802381D1*
X264412Y832715D2*
X261560Y831289D1*
X260134Y826978D1*
Y824126D1*
X261560Y819815D1*
X265871Y816930D1*
X273034Y815504D1*
X280197D1*
X285934Y816930D1*
X288819Y819815D1*
X290245Y824126D1*
Y825552D1*
X288819Y829830D1*
X285934Y832715D1*
X281623Y834141D1*
X280197D1*
X275886Y832715D1*
X273034Y829830D1*
X271608Y825552D1*
Y824126D1*
X273034Y819815D1*
X275886Y816930D1*
X280197Y815504D1*
X411910Y756942D2*
X410451Y759827D1*
X406173Y764138D1*
X436284D1*
X406173Y785883D2*
X407599Y781572D1*
X411910Y778687D1*
X419073Y777261D1*
X423384D1*
X430547Y778687D1*
X434858Y781572D1*
X436284Y785883D1*
Y788735D1*
X434858Y793046D1*
X430547Y795898D1*
X423384Y797357D1*
X419073D1*
X411910Y795898D1*
X407599Y793046D1*
X406173Y788735D1*
Y785883D1*
X411910Y795898D2*
X430547Y778687D1*
X416188Y810480D2*
X430547D1*
X434825Y811906D1*
X436284Y814791D1*
Y819102D1*
X434825Y821954D1*
X430547Y826265D1*
X416188D2*
X436284D1*
X406140Y858059D2*
Y839389D1*
X436284D1*
X420499D2*
Y850863D1*
X617264Y524151D2*
X614412Y522725D1*
X611527Y519840D1*
X610101Y516988D1*
Y511252D1*
X611527Y508366D1*
X614412Y505515D1*
X617264Y504055D1*
X621575Y502629D1*
X628771D1*
X633049Y504055D1*
X635934Y505515D1*
X638786Y508366D1*
X640245Y511251D1*
Y516988D1*
X638786Y519840D1*
X635934Y522725D1*
X633049Y524151D1*
X640245Y543012D2*
X610134Y557371D1*
Y537275D1*
X606173Y513450D2*
X607599Y509139D1*
X611910Y506254D1*
X619073Y504828D1*
X623384D1*
X630547Y506254D1*
X634858Y509139D1*
X636284Y513450D1*
Y516302D1*
X634858Y520613D1*
X630547Y523464D1*
X623384Y524924D1*
X619073D1*
X611910Y523464D1*
X607599Y520613D1*
X606173Y516302D1*
Y513450D1*
X611910Y523464D2*
X630547Y506254D1*
X633399Y539473D2*
X634858Y538047D1*
X636284Y539473D1*
X634858Y540932D1*
X633399Y539473D1*
X606173Y562677D2*
X607599Y558366D1*
X611910Y555481D1*
X619073Y554055D1*
X623384D1*
X630547Y555481D1*
X634858Y558366D1*
X636284Y562677D1*
Y565529D1*
X634858Y569840D1*
X630547Y572692D1*
X623384Y574151D1*
X619073D1*
X611910Y572692D1*
X607599Y569840D1*
X606173Y565529D1*
Y562677D1*
X611910Y572692D2*
X630547Y555481D1*
X611910Y587275D2*
X610451Y590160D1*
X606173Y594471D1*
X636284D1*
X616188Y607594D2*
X630547D1*
X634825Y609020D1*
X636284Y611905D1*
Y616216D1*
X634825Y619068D1*
X630547Y623379D1*
X616188D2*
X636284D1*
X606140Y655173D2*
Y636502D1*
X636284D1*
X620499D2*
Y647976D1*
X122020Y844111D2*
Y821163D1*
X120594Y816852D1*
X119135Y815427D1*
X116283Y813967D1*
X113398D1*
X110546Y815427D1*
X109120Y816852D1*
X107661Y821163D1*
Y824015D1*
X135143Y838341D2*
X138028Y839800D1*
X142339Y844078D1*
Y813967D1*
X77422Y272287D2*
X90355D1*
X94633Y273713D1*
X96092Y275173D1*
X97518Y278024D1*
Y282335D1*
X96092Y285187D1*
X94633Y286646D1*
X90355Y288072D1*
X77422D1*
Y257928D1*
X110641Y288072D2*
X117837Y257928D1*
X125000Y288072D1*
X132163Y257928D1*
X139359Y288072D1*
X152482Y273713D2*
X165382D1*
X169693Y275173D1*
X171152Y276598D1*
X172578Y279450D1*
Y282335D1*
X171152Y285187D1*
X169693Y286646D1*
X165382Y288072D1*
X152482D1*
Y257928D1*
X162530Y273713D2*
X172578Y257928D1*
X1340570Y1094111D2*
Y1071163D1*
X1339144Y1066852D1*
X1337685Y1065427D1*
X1334833Y1063967D1*
X1331948D1*
X1329096Y1065427D1*
X1327670Y1066852D1*
X1326211Y1071163D1*
Y1074015D1*
X1355152Y1086915D2*
Y1088341D1*
X1356578Y1091226D1*
X1358004Y1092652D1*
X1360889Y1094078D1*
X1366626D1*
X1369478Y1092652D1*
X1370904Y1091226D1*
X1372363Y1088341D1*
Y1085489D1*
X1370904Y1082604D1*
X1368052Y1078326D1*
X1353693Y1063967D1*
X1373789D1*
X1243223Y1138072D2*
Y1107928D1*
X1233175Y1138072D2*
X1253271D1*
X1266395D2*
X1286491Y1107928D1*
Y1138072D2*
X1266395Y1107928D1*
X1299614Y1138072D2*
Y1107928D1*
X1316825D1*
X1340570Y494111D2*
Y471163D1*
X1339144Y466852D1*
X1337685Y465427D1*
X1334833Y463967D1*
X1331948D1*
X1329096Y465427D1*
X1327670Y466852D1*
X1326211Y471163D1*
Y474015D1*
X1356578Y494078D2*
X1372330D1*
X1363741Y482604D1*
X1368052D1*
X1370904Y481178D1*
X1372330Y479752D1*
X1373789Y475441D1*
Y472589D1*
X1372330Y468278D1*
X1369478Y465393D1*
X1365167Y463967D1*
X1360856D1*
X1356578Y465393D1*
X1355152Y466852D1*
X1353693Y469704D1*
X1216781Y113072D2*
Y82928D1*
X1206733Y113072D2*
X1226829D1*
X1239952D2*
X1260048Y82928D1*
Y113072D2*
X1239952Y82928D1*
X1273171Y98713D2*
X1286071D1*
X1290382Y100173D1*
X1291841Y101598D1*
X1293267Y104450D1*
Y107335D1*
X1291841Y110187D1*
X1290382Y111646D1*
X1286071Y113072D1*
X1273171D1*
Y82928D1*
X1283219Y98713D2*
X1293267Y82928D1*
X474460Y912292D2*
Y925192D1*
X473001Y929503D1*
X471575Y930962D1*
X468723Y932388D1*
X465838D1*
X462986Y930962D1*
X461527Y929503D1*
X460101Y925192D1*
Y912292D1*
X490245D1*
X474460Y922340D2*
X490245Y932388D1*
X465871Y945512D2*
X464412Y948397D1*
X460134Y952708D1*
X490245D1*
X611910Y912292D2*
X610451Y915177D1*
X606173Y919488D1*
X636284D1*
X606140Y932612D2*
X636284D1*
X606140Y952708D2*
X626236Y932612D1*
X619040Y939775D2*
X636284Y952708D1*
X720838Y904255D2*
Y917154D1*
X719379Y921465D1*
X717953Y922925D1*
X715101Y924350D1*
X712216D1*
X709364Y922925D1*
X707905Y921465D1*
X706479Y917154D1*
Y904255D1*
X736623D1*
X720838Y914303D2*
X736623Y924350D1*
X713675Y938933D2*
X712249D1*
X709364Y940359D1*
X707938Y941785D1*
X706512Y944670D1*
Y950407D1*
X707938Y953259D1*
X709364Y954685D1*
X712249Y956144D1*
X715101D1*
X717986Y954685D1*
X722264Y951833D1*
X736623Y937474D1*
Y957570D1*
X974460Y593342D2*
Y606242D1*
X973001Y610553D1*
X971575Y612012D1*
X968723Y613438D1*
X965838D1*
X962986Y612012D1*
X961527Y610553D1*
X960101Y606242D1*
Y593342D1*
X990245D1*
X974460Y603390D2*
X990245Y613438D1*
X960134Y629447D2*
Y645199D1*
X971608Y636610D1*
Y640921D1*
X973034Y643773D1*
X974460Y645199D1*
X978771Y646658D1*
X981623D1*
X985934Y645199D1*
X988819Y642347D1*
X990245Y638036D1*
Y633725D1*
X988819Y629447D1*
X987360Y628021D1*
X984508Y626562D1*
X1106173Y579618D2*
Y595370D1*
X1117647Y586781D1*
Y591092D1*
X1119073Y593944D1*
X1120499Y595370D1*
X1124810Y596829D1*
X1127662D1*
X1131973Y595370D1*
X1134858Y592518D1*
X1136284Y588207D1*
Y583896D1*
X1134858Y579618D1*
X1133399Y578192D1*
X1130547Y576733D1*
X1106173Y612837D2*
Y628589D1*
X1117647Y620000D1*
Y624311D1*
X1119073Y627163D1*
X1120499Y628589D1*
X1124810Y630048D1*
X1127662D1*
X1131973Y628589D1*
X1134858Y625737D1*
X1136284Y621426D1*
Y617115D1*
X1134858Y612837D1*
X1133399Y611411D1*
X1130547Y609952D1*
X1106140Y643171D2*
X1136284D1*
X1106140Y663267D2*
X1126236Y643171D1*
X1119040Y650334D2*
X1136284Y663267D1*
X692629Y375540D2*
X705529D1*
X709840Y376999D1*
X711299Y378425D1*
X712725Y381277D1*
Y384162D1*
X711299Y387014D1*
X709840Y388473D1*
X705529Y389899D1*
X692629D1*
Y359755D1*
X702677Y375540D2*
X712725Y359755D1*
X740208D2*
Y389866D1*
X725849Y369803D1*
X747371D1*
X680331Y243827D2*
X696083D1*
X687494Y232353D1*
X691805D1*
X694657Y230927D1*
X696083Y229501D1*
X697542Y225190D1*
Y222338D1*
X696083Y218027D1*
X693231Y215142D1*
X688920Y213716D1*
X684609D1*
X680331Y215142D1*
X678905Y216601D1*
X677446Y219453D1*
X729335Y233812D2*
X727876Y229501D1*
X725024Y226616D1*
X720713Y225190D1*
X719287D1*
X714976Y226616D1*
X712124Y229501D1*
X710665Y233812D1*
Y235238D1*
X712124Y239549D1*
X714976Y242401D1*
X719287Y243827D1*
X720713D1*
X725024Y242401D1*
X727876Y239549D1*
X729335Y233812D1*
Y226616D1*
X727876Y219453D1*
X725024Y215142D1*
X720713Y213716D1*
X717861D1*
X713550Y215142D1*
X712124Y218027D1*
X742458Y243860D2*
Y213716D1*
X762554Y243860D2*
X742458Y223764D1*
X749621Y230960D2*
X762554Y213716D1*
X1021577Y957902D2*
X1034477D1*
X1038788Y959361D1*
X1040247Y960787D1*
X1041673Y963639D1*
Y966524D1*
X1040247Y969376D1*
X1038788Y970835D1*
X1034477Y972261D1*
X1021577D1*
Y942117D1*
X1031625Y957902D2*
X1041673Y942117D1*
X1072008Y972228D2*
X1057682D1*
X1056256Y959328D1*
X1057682Y960754D1*
X1061993Y962213D1*
X1066271D1*
X1070582Y960754D1*
X1073467Y957902D1*
X1074893Y953591D1*
Y950739D1*
X1073467Y946428D1*
X1070582Y943543D1*
X1066271Y942117D1*
X1061993D1*
X1057682Y943543D1*
X1056256Y945002D1*
X1054797Y947854D1*
X1029984Y454162D2*
X1042884D1*
X1047195Y455621D1*
X1048654Y457047D1*
X1050080Y459899D1*
Y462784D1*
X1048654Y465636D1*
X1047195Y467095D1*
X1042884Y468521D1*
X1029984D1*
Y438377D1*
X1040032Y454162D2*
X1050080Y438377D1*
X1080414Y464210D2*
X1078988Y467062D1*
X1074677Y468488D1*
X1071825D1*
X1067514Y467062D1*
X1064629Y462751D1*
X1063203Y455588D1*
Y448425D1*
X1064629Y442688D1*
X1067514Y439803D1*
X1071825Y438377D1*
X1073251D1*
X1077529Y439803D1*
X1080414Y442688D1*
X1081840Y446999D1*
Y448425D1*
X1080414Y452736D1*
X1077529Y455588D1*
X1073251Y457014D1*
X1071825D1*
X1067514Y455588D1*
X1064629Y452736D1*
X1063203Y448425D1*
X435731Y219899D2*
Y189755D1*
X425683Y219899D2*
X445779D1*
X458902Y204114D2*
X471835D1*
X476113Y205540D1*
X477572Y206999D1*
X478998Y209851D1*
Y214162D1*
X477572Y217014D1*
X476113Y218473D1*
X471835Y219899D1*
X458902D1*
Y189755D1*
X492121Y214129D2*
X495006Y215588D1*
X499317Y219866D1*
Y189755D1*
X416781Y644899D2*
Y614755D1*
X406733Y644899D2*
X426829D1*
X439952Y629114D2*
X452885D1*
X457163Y630540D1*
X458622Y631999D1*
X460048Y634851D1*
Y639162D1*
X458622Y642014D1*
X457163Y643473D1*
X452885Y644899D1*
X439952D1*
Y614755D1*
X474630Y637703D2*
Y639129D1*
X476056Y642014D1*
X477482Y643440D1*
X480367Y644866D1*
X486104D1*
X488956Y643440D1*
X490382Y642014D1*
X491841Y639129D1*
Y636277D1*
X490382Y633392D1*
X487530Y629114D1*
X473171Y614755D1*
X493267D1*
X316781Y1094899D2*
Y1064755D1*
X306733Y1094899D2*
X326829D1*
X339952Y1079114D2*
X352885D1*
X357163Y1080540D1*
X358622Y1081999D1*
X360048Y1084851D1*
Y1089162D1*
X358622Y1092014D1*
X357163Y1093473D1*
X352885Y1094899D1*
X339952D1*
Y1064755D1*
X376056Y1094866D2*
X391808D1*
X383219Y1083392D1*
X387530D1*
X390382Y1081966D1*
X391808Y1080540D1*
X393267Y1076229D1*
Y1073377D1*
X391808Y1069066D1*
X388956Y1066181D1*
X384645Y1064755D1*
X380334D1*
X376056Y1066181D1*
X374630Y1067640D1*
X373171Y1070492D1*
X1166068Y694899D2*
Y664755D1*
X1156020Y694899D2*
X1176116D1*
X1189239Y679114D2*
X1202172D1*
X1206450Y680540D1*
X1207909Y681999D1*
X1209335Y684851D1*
Y689162D1*
X1207909Y692014D1*
X1206450Y693473D1*
X1202172Y694899D1*
X1189239D1*
Y664755D1*
X1236817D2*
Y694866D1*
X1222458Y674803D1*
X1243980D1*
X779792Y784269D2*
Y762747D1*
X781218Y758436D1*
X784103Y755584D1*
X788414Y754125D1*
X791266D1*
X795577Y755584D1*
X798462Y758436D1*
X799888Y762747D1*
Y784269D1*
X813012Y778499D2*
X815897Y779958D1*
X820208Y784236D1*
Y754125D1*
X947745Y509168D2*
X917601Y497661D1*
X947745Y486187D1*
X937697Y490498D2*
Y504857D1*
X917601Y522291D2*
X947745D1*
Y532339D1*
X946285Y536650D1*
X943434Y539535D1*
X940548Y540961D1*
X936271Y542387D1*
X929075D1*
X924764Y540961D1*
X921912Y539535D1*
X919027Y536650D1*
X917601Y532339D1*
Y522291D1*
X917634Y562673D2*
X919060Y558395D1*
X921912Y556936D1*
X924797D1*
X927649Y558395D1*
X929108Y561247D1*
X930534Y566984D1*
X931960Y571295D1*
X934845Y574147D1*
X937697Y575573D1*
X942008D1*
X944859Y574147D1*
X946319Y572721D1*
X947745Y568410D1*
Y562673D1*
X946319Y558395D1*
X944860Y556936D1*
X942008Y555510D1*
X937697D1*
X934845Y556936D1*
X931960Y559821D1*
X930534Y564099D1*
X929108Y569836D1*
X927649Y572721D1*
X924797Y574147D1*
X921912D1*
X919060Y572721D1*
X917634Y568410D1*
Y562673D1*
X924797Y590156D2*
X923371D1*
X920486Y591582D1*
X919060Y593008D1*
X917634Y595893D1*
Y601630D1*
X919060Y604481D1*
X920486Y605907D1*
X923371Y607367D1*
X926223D1*
X929108Y605907D1*
X933386Y603056D1*
X947745Y588696D1*
Y608792D1*
X921912Y639127D2*
X919060Y637701D1*
X917634Y633390D1*
Y630538D1*
X919060Y626227D1*
X923371Y623342D1*
X930534Y621916D1*
X937697D1*
X943434Y623342D1*
X946319Y626227D1*
X947745Y630538D1*
Y631964D1*
X946319Y636242D1*
X943434Y639127D1*
X939123Y640553D1*
X937697D1*
X933386Y639127D1*
X930534Y636242D1*
X929108Y631964D1*
Y630538D1*
X930534Y626227D1*
X933386Y623342D1*
X937697Y621916D1*
X947745Y676657D2*
X917601Y665150D1*
X947745Y653676D1*
X937697Y657987D2*
Y672346D1*
X931960Y689781D2*
Y702680D1*
X930500Y706991D1*
X929075Y708451D1*
X926223Y709877D1*
X923338D1*
X920486Y708451D1*
X919027Y706991D1*
X917601Y702680D1*
Y689781D1*
X947745D1*
X931960Y699829D2*
X947745Y709877D1*
X263138Y967990D2*
D60*
Y990098D1*
X243020Y1007596D2*
X283212Y1022894D1*
X243020Y1038193D1*
X245916Y172690D2*
X280360D1*
X263160Y155490D2*
X263161Y189934D1*
X243020Y207432D2*
X283212Y222730D1*
X243020Y238029D1*
X252571Y571686D2*
X248768Y569785D1*
X244922Y565938D1*
X243020Y562135D1*
Y554486D1*
X244922Y550639D1*
X248768Y546837D1*
X252571Y544891D1*
X258319Y542990D1*
X267914D1*
X273617Y544891D1*
X277464Y546837D1*
X281267Y550639D1*
X283212Y554486D1*
Y562135D1*
X281267Y565938D1*
X277464Y569785D1*
X273618Y571686D1*
X267914D1*
Y562135D1*
X243020Y615978D2*
X283212D1*
X243020Y589184D1*
X283212D1*
X243020Y633476D2*
X283212D1*
Y646874D1*
X281267Y652622D1*
X277464Y656468D1*
X273617Y658370D1*
X267914Y660271D1*
X258319D1*
X252571Y658370D1*
X248768Y656468D1*
X244922Y652622D1*
X243020Y646874D1*
Y633476D1*
X1268020Y554486D2*
X1269922Y550639D1*
X1273768Y546837D1*
X1277571Y544891D1*
X1283319Y542990D1*
X1292914D1*
X1298617Y544891D1*
X1302464Y546837D1*
X1306267Y550639D1*
X1308212Y554486D1*
Y562135D1*
X1306267Y565938D1*
X1302464Y569785D1*
X1298618Y571686D1*
X1292914Y573587D1*
X1283319D1*
X1277571Y571686D1*
X1273768Y569785D1*
X1269922Y565938D1*
X1268020Y562135D1*
Y554486D1*
Y591085D2*
X1296716D1*
X1302464Y592986D1*
X1306267Y596833D1*
X1308212Y602581D1*
Y606384D1*
X1306267Y612132D1*
X1302464Y615978D1*
X1296716Y617880D1*
X1268020D1*
Y648775D2*
X1308212D1*
X1268020Y635377D2*
Y662172D1*
X285053Y80366D2*
Y40174D1*
X271655Y80366D2*
X298450D1*
X315948Y66968D2*
Y40174D1*
Y55472D2*
X317893Y61220D1*
X321696Y65067D1*
X325543Y66968D1*
X331291D1*
X371736D2*
Y40174D1*
Y61220D2*
X367934Y65067D1*
X364087Y66968D1*
X358383D1*
X354536Y65067D1*
X350734Y61220D1*
X348788Y55472D1*
Y51670D1*
X350734Y45922D1*
X354536Y42119D1*
X358383Y40174D1*
X364087D1*
X367934Y42119D1*
X371736Y45922D1*
X389234Y66968D2*
Y40174D1*
Y59319D2*
X394982Y65067D1*
X398829Y66968D1*
X404533D1*
X408380Y65067D1*
X410281Y59319D1*
Y40174D1*
X448825Y61220D2*
X446924Y65067D1*
X441176Y66968D1*
X435428D1*
X429680Y65067D1*
X427779Y61220D1*
X429680Y57418D1*
X433527Y55472D1*
X443077Y53571D1*
X446924Y51670D1*
X448825Y47823D1*
Y45922D1*
X446924Y42119D1*
X441176Y40174D1*
X435428D1*
X429680Y42119D1*
X427779Y45922D1*
X466323Y66968D2*
Y40174D1*
Y59319D2*
X472071Y65067D1*
X475918Y66968D1*
X481622D1*
X485468Y65067D1*
X487370Y59319D1*
Y40174D1*
Y59319D2*
X493118Y65067D1*
X496964Y66968D1*
X502668D1*
X506515Y65067D1*
X508461Y59319D1*
Y40174D1*
X525958Y80366D2*
X527860Y78464D1*
X529805Y80366D1*
X527860Y82311D1*
X525958Y80366D1*
X527860Y66968D2*
Y40174D1*
X553051Y80366D2*
Y47823D1*
X554952Y42119D1*
X558799Y40174D1*
X562602D1*
X547303Y66968D2*
X560700D1*
X585847Y80366D2*
Y47823D1*
X587749Y42119D1*
X591595Y40174D1*
X595398D1*
X580099Y66968D2*
X593497D1*
X612896Y55472D2*
X635844D1*
Y59319D1*
X633942Y63166D1*
X632041Y65067D1*
X628194Y66968D1*
X622446D1*
X618644Y65067D1*
X614797Y61220D1*
X612896Y55472D1*
Y51670D1*
X614797Y45922D1*
X618644Y42119D1*
X622446Y40174D1*
X628194D1*
X632041Y42119D1*
X635844Y45922D1*
X653341Y66968D2*
Y40174D1*
Y55472D2*
X655287Y61220D1*
X659090Y65067D1*
X662936Y66968D1*
X668684D1*
X730209Y80366D2*
Y40174D1*
X747453D1*
X753201Y42119D1*
X755103Y44020D1*
X757004Y47823D1*
Y53571D1*
X755103Y57418D1*
X753201Y59319D1*
X747453Y61220D1*
X753201Y63166D1*
X755103Y65067D1*
X757004Y68870D1*
Y72716D1*
X755103Y76519D1*
X753201Y78464D1*
X747453Y80366D1*
X730209D1*
Y61220D2*
X747453D1*
X784052Y66968D2*
X780250Y65067D1*
X776403Y61220D1*
X774502Y55472D1*
Y51670D1*
X776403Y45922D1*
X780250Y42119D1*
X784052Y40174D1*
X789800D1*
X793647Y42119D1*
X797450Y45922D1*
X799395Y51670D1*
Y55472D1*
X797450Y61220D1*
X793647Y65067D1*
X789800Y66968D1*
X784052D1*
X839841D2*
Y40174D1*
Y61220D2*
X836038Y65067D1*
X832192Y66968D1*
X826488D1*
X822641Y65067D1*
X818838Y61220D1*
X816893Y55472D1*
Y51670D1*
X818838Y45922D1*
X822641Y42119D1*
X826488Y40174D1*
X832192D1*
X836038Y42119D1*
X839841Y45922D1*
X857339Y66968D2*
Y40174D1*
Y55472D2*
X859284Y61220D1*
X863087Y65067D1*
X866934Y66968D1*
X872682D1*
X913127Y80366D2*
Y40174D1*
Y61220D2*
X909325Y65067D1*
X905478Y66968D1*
X899730D1*
X895927Y65067D1*
X892081Y61220D1*
X890179Y55472D1*
Y51670D1*
X892081Y45922D1*
X895927Y42119D1*
X899730Y40174D1*
X905478D1*
X909325Y42119D1*
X913127Y45922D1*
X557097Y170685D2*
D61*
X569997D1*
X574308Y172144D1*
X575767Y173570D1*
X577193Y176422D1*
Y179307D1*
X575767Y182159D1*
X574308Y183618D1*
X569997Y185044D1*
X557097D1*
Y154900D1*
X567145Y170685D2*
X577193Y154900D1*
X603667Y174996D2*
Y154900D1*
Y170685D2*
X600815Y173570D1*
X597930Y174996D1*
X593652D1*
X590767Y173570D1*
X587915Y170685D1*
X586456Y166374D1*
Y163522D1*
X587915Y159211D1*
X590767Y156359D1*
X593652Y154900D1*
X597930D1*
X600815Y156359D1*
X603667Y159211D1*
X614390Y174996D2*
X622979Y154900D1*
X620127Y149163D1*
X617242Y146278D1*
X614390Y144852D1*
X612931D1*
X631601Y174996D2*
X622979Y154900D1*
X690121Y180733D2*
X687269Y183618D1*
X682958Y185044D1*
X677221D1*
X672910Y183618D1*
X670025Y180733D1*
Y177881D1*
X671484Y174996D1*
X672910Y173570D1*
X675762Y172144D1*
X684384Y169259D1*
X687269Y167833D1*
X688695Y166374D1*
X690121Y163522D1*
Y159211D1*
X687269Y156359D1*
X682958Y154900D1*
X677221D1*
X672910Y156359D1*
X670025Y159211D1*
X699384Y174996D2*
Y160637D1*
X700810Y156359D1*
X703696Y154900D1*
X708007D1*
X710858Y156359D1*
X715169Y160637D1*
Y174996D2*
Y154900D1*
X724433Y174996D2*
Y154900D1*
Y169259D2*
X728744Y173570D1*
X731629Y174996D1*
X735907D1*
X738792Y173570D1*
X740218Y169259D1*
Y154900D1*
X575734Y135044D2*
X557097D1*
Y104900D1*
X575734D1*
X557097Y120685D2*
X568571D1*
X603634Y135044D2*
X584997D1*
Y104900D1*
X603634D1*
X584997Y120685D2*
X596471D1*
X660728Y124996D2*
X659269Y120685D1*
X656417Y117800D1*
X652106Y116374D1*
X650680D1*
X646369Y117800D1*
X643517Y120685D1*
X642058Y124996D1*
Y126422D1*
X643517Y130733D1*
X646369Y133585D1*
X650680Y135011D1*
X652106D1*
X656417Y133585D1*
X659269Y130733D1*
X660728Y124996D1*
Y117800D1*
X659269Y110637D1*
X656417Y106326D1*
X652106Y104900D1*
X649254D1*
X644943Y106326D1*
X643517Y109211D1*
X669992Y129274D2*
X672877Y130733D1*
X677188Y135011D1*
Y104900D1*
X703662Y124996D2*
Y104900D1*
Y120685D2*
X700810Y123570D1*
X697925Y124996D1*
X693648D1*
X690762Y123570D1*
X687911Y120685D1*
X686451Y116374D1*
Y113522D1*
X687911Y109211D1*
X690762Y106359D1*
X693648Y104900D1*
X697925D1*
X700810Y106359D1*
X703662Y109211D1*
X760757Y135044D2*
X742086D1*
Y104900D1*
Y120685D2*
X753560D1*
X787231Y124996D2*
Y104900D1*
Y120685D2*
X784379Y123570D1*
X781494Y124996D1*
X777216D1*
X774331Y123570D1*
X771479Y120685D1*
X770020Y116374D1*
Y113522D1*
X771479Y109211D1*
X774331Y106359D1*
X777216Y104900D1*
X781494D1*
X784379Y106359D1*
X787231Y109211D1*
X796495Y135044D2*
Y104900D1*
X805758Y135044D2*
Y104900D1*
X845641Y127848D2*
Y129274D1*
X847067Y132159D1*
X848493Y133585D1*
X851378Y135011D1*
X857115D1*
X859967Y133585D1*
X861393Y132159D1*
X862852Y129274D1*
Y126422D1*
X861393Y123537D1*
X858541Y119259D1*
X844182Y104900D1*
X864278D1*
X882164Y135011D2*
X877853Y133585D1*
X874968Y129274D1*
X873542Y122111D1*
Y117800D1*
X874968Y110637D1*
X877853Y106326D1*
X882164Y104900D1*
X885016D1*
X889327Y106326D1*
X892179Y110637D1*
X893638Y117800D1*
Y122111D1*
X892179Y129274D1*
X889327Y133585D1*
X885016Y135011D1*
X882164D1*
X892179Y129274D2*
X874968Y110637D1*
X902901Y129274D2*
X905786Y130733D1*
X910097Y135011D1*
Y104900D1*
X938031Y124996D2*
X936572Y120685D1*
X933720Y117800D1*
X929409Y116374D1*
X927983D1*
X923672Y117800D1*
X920820Y120685D1*
X919361Y124996D1*
Y126422D1*
X920820Y130733D1*
X923672Y133585D1*
X927983Y135011D1*
X929409D1*
X933720Y133585D1*
X936572Y130733D1*
X938031Y124996D1*
Y117800D1*
X936572Y110637D1*
X933720Y106326D1*
X929409Y104900D1*
X926557D1*
X922246Y106326D1*
X920820Y109211D1*
M02*
