G04 DipTrace 3.3.1.3*
G04 TopSilk.gbr*
%MOIN*%
G04 #@! TF.FileFunction,Legend,Top*
G04 #@! TF.Part,Single*
%ADD10C,0.009843*%
%ADD12C,0.003*%
%ADD16C,0.01*%
%ADD19C,0.012*%
%ADD22C,0.05*%
%ADD25C,0.015748*%
%ADD28C,0.015761*%
%ADD59C,0.006562*%
%ADD60C,0.008749*%
%ADD61C,0.004632*%
%FSLAX26Y26*%
G04*
G70*
G90*
G75*
G01*
G04 TopSilk*
%LPD*%
X305000Y300000D2*
D19*
Y374993D1*
X395000Y300000D2*
Y374993D1*
Y415007D2*
Y490000D1*
X305000Y415007D2*
Y490000D1*
X395000Y300000D2*
X305000D1*
X395000Y490000D2*
X305000D1*
Y712500D2*
Y787493D1*
X395000Y712500D2*
Y787493D1*
Y827507D2*
Y902500D1*
X305000Y827507D2*
Y902500D1*
X395000Y712500D2*
X305000D1*
X395000Y902500D2*
X305000D1*
X595000Y675000D2*
Y600007D1*
X505000Y675000D2*
Y600007D1*
Y559993D2*
Y485000D1*
X595000Y559993D2*
Y485000D1*
X505000Y675000D2*
X595000D1*
X505000Y485000D2*
X595000D1*
D22*
X125000Y324213D3*
X25000Y399213D2*
D10*
X225000D1*
Y799213D1*
X25000D1*
Y399213D1*
D22*
X1350000Y674213D3*
X1250000Y749213D2*
D10*
X1450000D1*
Y1049213D1*
X1250000D1*
Y749213D1*
D22*
X1350000Y74213D3*
X1250000Y149213D2*
D10*
X1450000D1*
Y449213D1*
X1250000D1*
Y149213D1*
X505000Y837500D2*
D19*
Y912493D1*
X595000Y837500D2*
Y912493D1*
Y952507D2*
Y1027500D1*
X505000Y952507D2*
Y1027500D1*
X595000Y837500D2*
X505000D1*
X595000Y1027500D2*
X505000D1*
X755309Y919629D2*
D10*
Y1015680D1*
X873431Y919629D2*
X873419Y1015680D1*
X755321D2*
X769091Y1015700D1*
X873431Y1015680D2*
X859649Y1015700D1*
D25*
X775000Y838405D3*
X1005000Y525000D2*
D19*
Y599993D1*
X1095000Y525000D2*
Y599993D1*
Y640007D2*
Y715000D1*
X1005000Y640007D2*
Y715000D1*
X1095000Y525000D2*
X1005000D1*
X1095000Y715000D2*
X1005000D1*
X625000Y345000D2*
X699993D1*
X625000Y255000D2*
X699993D1*
X740007D2*
X815000D1*
X740007Y345000D2*
X815000D1*
X625000Y255000D2*
Y345000D1*
X815000Y255000D2*
Y345000D1*
X1036952Y923431D2*
D10*
X1133003D1*
X1036952Y805309D2*
X1133003Y805321D1*
Y923419D2*
X1133023Y909649D1*
X1133003Y805309D2*
X1133023Y819091D1*
D28*
X955728Y903740D3*
X1044629Y419691D2*
D10*
X1140680D1*
X1044629Y301569D2*
X1140680Y301581D1*
Y419679D2*
X1140700Y405909D1*
X1140680Y301569D2*
X1140700Y315351D1*
D28*
X963405Y400000D3*
X300000Y200000D2*
D10*
G02X300000Y200000I50000J0D01*
G01*
Y600000D2*
G02X300000Y600000I50000J0D01*
G01*
Y1000000D2*
G02X300000Y1000000I50000J0D01*
G01*
X1150000Y600000D2*
G02X1150000Y600000I50000J0D01*
G01*
X898427Y644889D2*
X701573D1*
X898427Y542513D2*
X701573D1*
Y644889D2*
Y542513D1*
X898427Y613395D2*
Y644889D1*
Y574006D2*
Y542513D1*
Y613395D2*
G03X898427Y574006I9J-19694D01*
G01*
X100000Y12500D2*
D16*
X1375000D1*
X1350000D1*
X1462500Y100000D2*
Y1100000D1*
X1375000Y1187500D2*
X100000D1*
X12500Y1100000D2*
Y100000D1*
Y1100000D2*
G02X12500Y1100000I87500J0D01*
G01*
X1012500D2*
G02X1012500Y1100000I87500J0D01*
G01*
X12500Y100000D2*
G02X12500Y100000I87500J0D01*
G01*
X1462500Y1100000D2*
G03X1375000Y1187500I-85417J2083D01*
G01*
X1012500Y100000D2*
G02X1012500Y100000I87500J0D01*
G01*
X1375000Y12500D2*
G03X1462500Y100000I2083J85417D01*
G01*
X534781Y1157219D2*
D12*
X543781D1*
X470281Y1155719D2*
X501781D1*
X532588D2*
X546480D1*
X469357Y1154219D2*
X503556D1*
X530663D2*
X548799D1*
X468554Y1152719D2*
X505072D1*
X529004D2*
X550557D1*
X467948Y1151219D2*
X506218D1*
X527657D2*
X551756D1*
X563281D2*
X572281D1*
X467588Y1149719D2*
X506993D1*
X526727D2*
X552675D1*
X561027D2*
X574980D1*
X467410Y1148219D2*
X507427D1*
X526206D2*
X553797D1*
X558862D2*
X577299D1*
X467331Y1146719D2*
X507635D1*
X525956D2*
X555395D1*
X556619D2*
X579057D1*
X467298Y1145219D2*
X507725D1*
X525848D2*
X580245D1*
X467281Y1143719D2*
X507754D1*
X525811D2*
X581048D1*
X488281Y1142219D2*
X507715D1*
X525854D2*
X581694D1*
X488281Y1140719D2*
X507529D1*
X526098D2*
X582194D1*
X488281Y1139219D2*
X507171D1*
X526705D2*
X582450D1*
X488281Y1137719D2*
X506787D1*
X527704D2*
X582416D1*
X684781D2*
X695281D1*
X488281Y1136219D2*
X506526D1*
X529012D2*
X582121D1*
X683851D2*
X694531D1*
X488275Y1134719D2*
X506387D1*
X530591D2*
X550986D1*
X554049D2*
X581706D1*
X682995D2*
X693908D1*
X488222Y1133219D2*
X506323D1*
X532344D2*
X550369D1*
X555177D2*
X581200D1*
X682192D2*
X693325D1*
X488031Y1131719D2*
X506297D1*
X533904D2*
X549424D1*
X556295D2*
X580397D1*
X681415D2*
X692791D1*
X487672Y1130219D2*
X506286D1*
X535096D2*
X548359D1*
X557589D2*
X579092D1*
X680602D2*
X692299D1*
X487287Y1128719D2*
X506277D1*
X535109D2*
X547324D1*
X559181D2*
X577207D1*
X679653D2*
X691780D1*
X786781D2*
X800281D1*
X487026Y1127219D2*
X506223D1*
X534224D2*
X546250D1*
X561128D2*
X574847D1*
X678488D2*
X691273D1*
X783896D2*
X800043D1*
X486887Y1125719D2*
X506031D1*
X533102D2*
X545028D1*
X563281D2*
X572281D1*
X677152D2*
X690793D1*
X781540D2*
X799619D1*
X486823Y1124219D2*
X505672D1*
X531939D2*
X543678D1*
X675668D2*
X690278D1*
X779663D2*
X799039D1*
X486797Y1122719D2*
X505287D1*
X530856D2*
X542296D1*
X673943D2*
X689773D1*
X778219D2*
X798411D1*
X486786Y1121219D2*
X505026D1*
X529763D2*
X541015D1*
X671799D2*
X689291D1*
X777089D2*
X797829D1*
X486783Y1119719D2*
X504887D1*
X528538D2*
X539884D1*
X669177D2*
X688769D1*
X776674D2*
X797254D1*
X486776Y1118219D2*
X504823D1*
X527232D2*
X538772D1*
X666319D2*
X688253D1*
X776448D2*
X796484D1*
X486722Y1116719D2*
X504797D1*
X525988D2*
X537541D1*
X663702D2*
X687781D1*
X776342D2*
X795449D1*
X486531Y1115219D2*
X504781D1*
X524874D2*
X536234D1*
X554281D2*
X573781D1*
X609781D2*
X635281D1*
X661674D2*
X701281D1*
X726781D2*
X825781D1*
X852781D2*
X870781D1*
X882781D2*
X900781D1*
X486172Y1113719D2*
X504724D1*
X523769D2*
X534988D1*
X554049D2*
X573083D1*
X605459D2*
X637416D1*
X660223D2*
X700288D1*
X722459D2*
X825549D1*
X852031D2*
X870268D1*
X882031D2*
X900549D1*
X485787Y1112219D2*
X504532D1*
X522540D2*
X533874D1*
X553671D2*
X572599D1*
X601848D2*
X639149D1*
X659194D2*
X699152D1*
X718848D2*
X825171D1*
X851408D2*
X869816D1*
X881408D2*
X900171D1*
X485526Y1110719D2*
X504172D1*
X521233D2*
X532769D1*
X553230D2*
X572190D1*
X599022D2*
X640449D1*
X658498D2*
X697482D1*
X716027D2*
X824730D1*
X850825D2*
X869479D1*
X880825D2*
X899730D1*
X485387Y1109219D2*
X503787D1*
X519988D2*
X531540D1*
X552776D2*
X571728D1*
X596822D2*
X641411D1*
X658104D2*
X694819D1*
X713880D2*
X824276D1*
X850291D2*
X869141D1*
X880291D2*
X899276D1*
X485323Y1107719D2*
X503526D1*
X518874D2*
X530233D1*
X552272D2*
X571252D1*
X595005D2*
X642074D1*
X657905D2*
X691263D1*
X712254D2*
X823778D1*
X849799D2*
X868709D1*
X879799D2*
X898772D1*
X485297Y1106219D2*
X503387D1*
X517769D2*
X528988D1*
X551771D2*
X570784D1*
X593422D2*
X613070D1*
X620513D2*
X642403D1*
X665281D2*
X687850D1*
X711031D2*
X730070D1*
X743224D2*
X757013D1*
X782224D2*
X792549D1*
X806049D2*
X823323D1*
X849280D2*
X868245D1*
X879286D2*
X898271D1*
X485286Y1104719D2*
X503323D1*
X516540D2*
X527874D1*
X551292D2*
X570274D1*
X592066D2*
X612140D1*
X620890D2*
X642392D1*
X665049D2*
X685105D1*
X710060D2*
X729140D1*
X743031D2*
X757390D1*
X782026D2*
X792171D1*
X805671D2*
X822983D1*
X848773D2*
X867782D1*
X878826D2*
X897792D1*
X485283Y1103219D2*
X503297D1*
X515233D2*
X526769D1*
X550777D2*
X569772D1*
X590965D2*
X611446D1*
X621337D2*
X642056D1*
X664671D2*
X683925D1*
X709220D2*
X728446D1*
X742666D2*
X757831D1*
X781613D2*
X791730D1*
X805230D2*
X822642D1*
X848287D2*
X867274D1*
X878484D2*
X897277D1*
X485281Y1101719D2*
X503286D1*
X513988D2*
X525540D1*
X550273D2*
X569292D1*
X590086D2*
X610838D1*
X621856D2*
X641448D1*
X664230D2*
X683047D1*
X708486D2*
X727838D1*
X742229D2*
X758285D1*
X781038D2*
X791270D1*
X804776D2*
X822210D1*
X847725D2*
X866771D1*
X878143D2*
X896773D1*
X485275Y1100219D2*
X503277D1*
X512874D2*
X524233D1*
X549792D2*
X568777D1*
X589402D2*
X610295D1*
X622661D2*
X640533D1*
X663776D2*
X682426D1*
X707918D2*
X727295D1*
X741776D2*
X758778D1*
X780411D2*
X790719D1*
X804272D2*
X821745D1*
X847082D2*
X866292D1*
X877710D2*
X896292D1*
X485222Y1098719D2*
X503223D1*
X511769D2*
X522988D1*
X549278D2*
X568273D1*
X588843D2*
X609800D1*
X623949D2*
X639174D1*
X663272D2*
X682020D1*
X707577D2*
X726800D1*
X741272D2*
X759174D1*
X779834D2*
X790080D1*
X803771D2*
X821282D1*
X846427D2*
X865777D1*
X877245D2*
X895778D1*
X485031Y1097219D2*
X503031D1*
X510540D2*
X521874D1*
X548773D2*
X567792D1*
X588302D2*
X609280D1*
X625732D2*
X637353D1*
X662771D2*
X681655D1*
X707405D2*
X726280D1*
X740771D2*
X759392D1*
X779318D2*
X789427D1*
X803292D2*
X820774D1*
X845840D2*
X865273D1*
X876782D2*
X895273D1*
X484672Y1095719D2*
X502672D1*
X509233D2*
X520769D1*
X548292D2*
X567278D1*
X587838D2*
X608769D1*
X627781D2*
X635281D1*
X662292D2*
X681214D1*
X707330D2*
X725774D1*
X740292D2*
X759091D1*
X778787D2*
X788840D1*
X802777D2*
X820271D1*
X845320D2*
X864792D1*
X876274D2*
X894792D1*
X484287Y1094219D2*
X502293D1*
X507982D2*
X519534D1*
X547778D2*
X566773D1*
X587550D2*
X608246D1*
X661777D2*
X680746D1*
X707299D2*
X725293D1*
X739777D2*
X758745D1*
X778276D2*
X788314D1*
X802273D2*
X819792D1*
X844788D2*
X864278D1*
X875771D2*
X894283D1*
X484026Y1092719D2*
X502089D1*
X506811D2*
X518180D1*
X547273D2*
X566292D1*
X587452D2*
X607576D1*
X661273D2*
X680282D1*
X707293D2*
X724789D1*
X739273D2*
X758453D1*
X777794D2*
X787729D1*
X801792D2*
X819277D1*
X844277D2*
X863773D1*
X875292D2*
X893825D1*
X483887Y1091219D2*
X502056D1*
X505478D2*
X516797D1*
X546792D2*
X565783D1*
X587581D2*
X606781D1*
X660792D2*
X679780D1*
X707347D2*
X724402D1*
X738792D2*
X758126D1*
X777284D2*
X787021D1*
X801278D2*
X818767D1*
X843794D2*
X863291D1*
X874783D2*
X893478D1*
X483823Y1089719D2*
X502596D1*
X503753D2*
X515515D1*
X546283D2*
X565331D1*
X587971D2*
X608062D1*
X660283D2*
X679330D1*
X707595D2*
X724217D1*
X738254D2*
X757648D1*
X776827D2*
X786125D1*
X800773D2*
X818228D1*
X843284D2*
X862769D1*
X874327D2*
X893079D1*
X483797Y1088219D2*
X514384D1*
X545831D2*
X565041D1*
X588595D2*
X609729D1*
X659827D2*
X679040D1*
X708199D2*
X724964D1*
X737516D2*
X756988D1*
X776514D2*
X785007D1*
X800298D2*
X817474D1*
X842827D2*
X862253D1*
X874014D2*
X892407D1*
X483786Y1086719D2*
X513272D1*
X545542D2*
X564883D1*
X589461D2*
X611885D1*
X659514D2*
X678883D1*
X709158D2*
X728011D1*
X736492D2*
X756108D1*
X776281D2*
X783781D1*
X799842D2*
X816445D1*
X842514D2*
X861781D1*
X873781D2*
X891420D1*
X483783Y1085219D2*
X512030D1*
X545398D2*
X587281D1*
X590598D2*
X732840D1*
X733452D2*
X754966D1*
X799458D2*
X915781D1*
X483776Y1083719D2*
X510610D1*
X545389D2*
X586467D1*
X591987D2*
X707275D1*
X710293D2*
X753587D1*
X799683D2*
X915142D1*
X483718Y1082219D2*
X508925D1*
X545611D2*
X585341D1*
X593771D2*
X705718D1*
X711910D2*
X751910D1*
X800192D2*
X914195D1*
X483486Y1080719D2*
X506848D1*
X546204D2*
X583828D1*
X596307D2*
X655729D1*
X659668D2*
X703986D1*
X713909D2*
X749776D1*
X800997D2*
X839281D1*
X844027D2*
X912701D1*
X482973Y1079219D2*
X504399D1*
X547160D2*
X581915D1*
X599779D2*
X653177D1*
X660844D2*
X701973D1*
X716616D2*
X747064D1*
X802076D2*
X836281D1*
X846459D2*
X910628D1*
X482281Y1077719D2*
X501781D1*
X548281D2*
X579781D1*
X603781D2*
X650281D1*
X662281D2*
X699781D1*
X720034D2*
X743812D1*
X803281D2*
X833281D1*
X850011D2*
X908281D1*
X723781Y1076219D2*
X740281D1*
X854281D2*
X888549D1*
X853019Y1074719D2*
X866633D1*
X869224D2*
X888171D1*
X851943Y1073219D2*
X864454D1*
X869031D2*
X887730D1*
X851029Y1071719D2*
X862869D1*
X868666D2*
X887270D1*
X850209Y1070219D2*
X861754D1*
X868229D2*
X886719D1*
X849483Y1068719D2*
X860967D1*
X867776D2*
X886074D1*
X848917Y1067219D2*
X860366D1*
X867272D2*
X885368D1*
X848576Y1065719D2*
X859816D1*
X866771D2*
X884590D1*
X848405Y1064219D2*
X859399D1*
X866292D2*
X883705D1*
X848329Y1062719D2*
X859172D1*
X865771D2*
X882736D1*
X848305Y1061219D2*
X859595D1*
X865205D2*
X881766D1*
X848352Y1059719D2*
X860404D1*
X864451D2*
X880726D1*
X848591Y1058219D2*
X861691D1*
X863268D2*
X879518D1*
X849152Y1056719D2*
X878163D1*
X850013Y1055219D2*
X876672D1*
X851157Y1053719D2*
X874951D1*
X852767Y1052219D2*
X872857D1*
X854899Y1050719D2*
X870402D1*
X857281Y1049219D2*
X867781D1*
X534781Y1157219D2*
X532588Y1155719D1*
X530663Y1154219D1*
X529004Y1152719D1*
X527657Y1151219D1*
X526727Y1149719D1*
X526206Y1148219D1*
X525956Y1146719D1*
X525848Y1145219D1*
X525811Y1143719D1*
X525854Y1142219D1*
X526098Y1140719D1*
X526705Y1139219D1*
X527704Y1137719D1*
X529012Y1136219D1*
X530591Y1134719D1*
X532344Y1133219D1*
X533904Y1131719D1*
X535096Y1130219D1*
X535109Y1128719D1*
X534224Y1127219D1*
X533102Y1125719D1*
X531939Y1124219D1*
X530856Y1122719D1*
X529763Y1121219D1*
X528538Y1119719D1*
X527232Y1118219D1*
X525988Y1116719D1*
X524874Y1115219D1*
X523769Y1113719D1*
X522540Y1112219D1*
X521233Y1110719D1*
X519988Y1109219D1*
X518874Y1107719D1*
X517769Y1106219D1*
X516540Y1104719D1*
X515233Y1103219D1*
X513988Y1101719D1*
X512874Y1100219D1*
X511769Y1098719D1*
X510540Y1097219D1*
X509233Y1095719D1*
X507982Y1094219D1*
X506811Y1092719D1*
X505478Y1091219D1*
X503753Y1089719D1*
X501781Y1088219D1*
X543781Y1157219D2*
X546480Y1155719D1*
X548799Y1154219D1*
X550557Y1152719D1*
X551756Y1151219D1*
X552675Y1149719D1*
X553797Y1148219D1*
X555395Y1146719D1*
X557281Y1145219D1*
X470281Y1155719D2*
X469357Y1154219D1*
X468554Y1152719D1*
X467948Y1151219D1*
X467588Y1149719D1*
X467410Y1148219D1*
X467331Y1146719D1*
X467298Y1145219D1*
X467281Y1143719D1*
X501781Y1155719D2*
X503556Y1154219D1*
X505072Y1152719D1*
X506218Y1151219D1*
X506993Y1149719D1*
X507427Y1148219D1*
X507635Y1146719D1*
X507725Y1145219D1*
X507754Y1143719D1*
X507715Y1142219D1*
X507529Y1140719D1*
X507171Y1139219D1*
X506787Y1137719D1*
X506526Y1136219D1*
X506387Y1134719D1*
X506323Y1133219D1*
X506297Y1131719D1*
X506286Y1130219D1*
X506277Y1128719D1*
X506223Y1127219D1*
X506031Y1125719D1*
X505672Y1124219D1*
X505287Y1122719D1*
X505026Y1121219D1*
X504887Y1119719D1*
X504823Y1118219D1*
X504797Y1116719D1*
X504781Y1115219D1*
X504724Y1113719D1*
X504532Y1112219D1*
X504172Y1110719D1*
X503787Y1109219D1*
X503526Y1107719D1*
X503387Y1106219D1*
X503323Y1104719D1*
X503297Y1103219D1*
X503286Y1101719D1*
X503277Y1100219D1*
X503223Y1098719D1*
X503031Y1097219D1*
X502672Y1095719D1*
X502293Y1094219D1*
X502089Y1092719D1*
X502056Y1091219D1*
X502596Y1089719D1*
X503281Y1088219D1*
X563281Y1151219D2*
X561027Y1149719D1*
X558862Y1148219D1*
X556619Y1146719D1*
X554281Y1145219D1*
X572281Y1151219D2*
X574980Y1149719D1*
X577299Y1148219D1*
X579057Y1146719D1*
X580245Y1145219D1*
X581048Y1143719D1*
X581694Y1142219D1*
X582194Y1140719D1*
X582450Y1139219D1*
X582416Y1137719D1*
X582121Y1136219D1*
X581706Y1134719D1*
X581200Y1133219D1*
X580397Y1131719D1*
X579092Y1130219D1*
X577207Y1128719D1*
X574847Y1127219D1*
X572281Y1125719D1*
X488281Y1143719D2*
Y1142219D1*
Y1140719D1*
Y1139219D1*
Y1137719D1*
Y1136219D1*
X488275Y1134719D1*
X488222Y1133219D1*
X488031Y1131719D1*
X487672Y1130219D1*
X487287Y1128719D1*
X487026Y1127219D1*
X486887Y1125719D1*
X486823Y1124219D1*
X486797Y1122719D1*
X486786Y1121219D1*
X486783Y1119719D1*
X486776Y1118219D1*
X486722Y1116719D1*
X486531Y1115219D1*
X486172Y1113719D1*
X485787Y1112219D1*
X485526Y1110719D1*
X485387Y1109219D1*
X485323Y1107719D1*
X485297Y1106219D1*
X485286Y1104719D1*
X485283Y1103219D1*
X485281Y1101719D1*
X485275Y1100219D1*
X485222Y1098719D1*
X485031Y1097219D1*
X484672Y1095719D1*
X484287Y1094219D1*
X484026Y1092719D1*
X483887Y1091219D1*
X483823Y1089719D1*
X483797Y1088219D1*
X483786Y1086719D1*
X483783Y1085219D1*
X483776Y1083719D1*
X483718Y1082219D1*
X483486Y1080719D1*
X482973Y1079219D1*
X482281Y1077719D1*
X684781Y1137719D2*
X683851Y1136219D1*
X682995Y1134719D1*
X682192Y1133219D1*
X681415Y1131719D1*
X680602Y1130219D1*
X679653Y1128719D1*
X678488Y1127219D1*
X677152Y1125719D1*
X675668Y1124219D1*
X673943Y1122719D1*
X671799Y1121219D1*
X669177Y1119719D1*
X666319Y1118219D1*
X663702Y1116719D1*
X661674Y1115219D1*
X660223Y1113719D1*
X659194Y1112219D1*
X658498Y1110719D1*
X658104Y1109219D1*
X657905Y1107719D1*
X657781Y1106219D1*
X665281D1*
X665049Y1104719D1*
X664671Y1103219D1*
X664230Y1101719D1*
X663776Y1100219D1*
X663272Y1098719D1*
X662771Y1097219D1*
X662292Y1095719D1*
X661777Y1094219D1*
X661273Y1092719D1*
X660792Y1091219D1*
X660283Y1089719D1*
X659827Y1088219D1*
X659514Y1086719D1*
X659281Y1085219D1*
X695281Y1137719D2*
X694531Y1136219D1*
X693908Y1134719D1*
X693325Y1133219D1*
X692791Y1131719D1*
X692299Y1130219D1*
X691780Y1128719D1*
X691273Y1127219D1*
X690793Y1125719D1*
X690278Y1124219D1*
X689773Y1122719D1*
X689291Y1121219D1*
X688769Y1119719D1*
X688253Y1118219D1*
X687781Y1116719D1*
X701281Y1115219D1*
X700288Y1113719D1*
X699152Y1112219D1*
X697482Y1110719D1*
X694819Y1109219D1*
X691263Y1107719D1*
X687850Y1106219D1*
X685105Y1104719D1*
X683925Y1103219D1*
X683047Y1101719D1*
X682426Y1100219D1*
X682020Y1098719D1*
X681655Y1097219D1*
X681214Y1095719D1*
X680746Y1094219D1*
X680282Y1092719D1*
X679780Y1091219D1*
X679330Y1089719D1*
X679040Y1088219D1*
X678883Y1086719D1*
X678781Y1085219D1*
X551281Y1136219D2*
X550986Y1134719D1*
X550369Y1133219D1*
X549424Y1131719D1*
X548359Y1130219D1*
X547324Y1128719D1*
X546250Y1127219D1*
X545028Y1125719D1*
X543678Y1124219D1*
X542296Y1122719D1*
X541015Y1121219D1*
X539884Y1119719D1*
X538772Y1118219D1*
X537541Y1116719D1*
X536234Y1115219D1*
X534988Y1113719D1*
X533874Y1112219D1*
X532769Y1110719D1*
X531540Y1109219D1*
X530233Y1107719D1*
X528988Y1106219D1*
X527874Y1104719D1*
X526769Y1103219D1*
X525540Y1101719D1*
X524233Y1100219D1*
X522988Y1098719D1*
X521874Y1097219D1*
X520769Y1095719D1*
X519534Y1094219D1*
X518180Y1092719D1*
X516797Y1091219D1*
X515515Y1089719D1*
X514384Y1088219D1*
X513272Y1086719D1*
X512030Y1085219D1*
X510610Y1083719D1*
X508925Y1082219D1*
X506848Y1080719D1*
X504399Y1079219D1*
X501781Y1077719D1*
X552781Y1136219D2*
X554049Y1134719D1*
X555177Y1133219D1*
X556295Y1131719D1*
X557589Y1130219D1*
X559181Y1128719D1*
X561128Y1127219D1*
X563281Y1125719D1*
X786781Y1128719D2*
X783896Y1127219D1*
X781540Y1125719D1*
X779663Y1124219D1*
X778219Y1122719D1*
X777089Y1121219D1*
X776674Y1119719D1*
X776448Y1118219D1*
X776342Y1116719D1*
X776281Y1115219D1*
X800281Y1128719D2*
X800043Y1127219D1*
X799619Y1125719D1*
X799039Y1124219D1*
X798411Y1122719D1*
X797829Y1121219D1*
X797254Y1119719D1*
X796484Y1118219D1*
X795449Y1116719D1*
X794281Y1115219D1*
X554281D2*
X554049Y1113719D1*
X553671Y1112219D1*
X553230Y1110719D1*
X552776Y1109219D1*
X552272Y1107719D1*
X551771Y1106219D1*
X551292Y1104719D1*
X550777Y1103219D1*
X550273Y1101719D1*
X549792Y1100219D1*
X549278Y1098719D1*
X548773Y1097219D1*
X548292Y1095719D1*
X547778Y1094219D1*
X547273Y1092719D1*
X546792Y1091219D1*
X546283Y1089719D1*
X545831Y1088219D1*
X545542Y1086719D1*
X545398Y1085219D1*
X545389Y1083719D1*
X545611Y1082219D1*
X546204Y1080719D1*
X547160Y1079219D1*
X548281Y1077719D1*
X573781Y1115219D2*
X573083Y1113719D1*
X572599Y1112219D1*
X572190Y1110719D1*
X571728Y1109219D1*
X571252Y1107719D1*
X570784Y1106219D1*
X570274Y1104719D1*
X569772Y1103219D1*
X569292Y1101719D1*
X568777Y1100219D1*
X568273Y1098719D1*
X567792Y1097219D1*
X567278Y1095719D1*
X566773Y1094219D1*
X566292Y1092719D1*
X565783Y1091219D1*
X565331Y1089719D1*
X565041Y1088219D1*
X564883Y1086719D1*
X564781Y1085219D1*
X609781Y1115219D2*
X605459Y1113719D1*
X601848Y1112219D1*
X599022Y1110719D1*
X596822Y1109219D1*
X595005Y1107719D1*
X593422Y1106219D1*
X592066Y1104719D1*
X590965Y1103219D1*
X590086Y1101719D1*
X589402Y1100219D1*
X588843Y1098719D1*
X588302Y1097219D1*
X587838Y1095719D1*
X587550Y1094219D1*
X587452Y1092719D1*
X587581Y1091219D1*
X587971Y1089719D1*
X588595Y1088219D1*
X589461Y1086719D1*
X590598Y1085219D1*
X591987Y1083719D1*
X593771Y1082219D1*
X596307Y1080719D1*
X599779Y1079219D1*
X603781Y1077719D1*
X635281Y1115219D2*
X637416Y1113719D1*
X639149Y1112219D1*
X640449Y1110719D1*
X641411Y1109219D1*
X642074Y1107719D1*
X642403Y1106219D1*
X642392Y1104719D1*
X642056Y1103219D1*
X641448Y1101719D1*
X640533Y1100219D1*
X639174Y1098719D1*
X637353Y1097219D1*
X635281Y1095719D1*
X726781Y1115219D2*
X722459Y1113719D1*
X718848Y1112219D1*
X716027Y1110719D1*
X713880Y1109219D1*
X712254Y1107719D1*
X711031Y1106219D1*
X710060Y1104719D1*
X709220Y1103219D1*
X708486Y1101719D1*
X707918Y1100219D1*
X707577Y1098719D1*
X707405Y1097219D1*
X707330Y1095719D1*
X707299Y1094219D1*
X707293Y1092719D1*
X707347Y1091219D1*
X707595Y1089719D1*
X708199Y1088219D1*
X709158Y1086719D1*
X710281Y1085219D1*
X825781Y1115219D2*
X825549Y1113719D1*
X825171Y1112219D1*
X824730Y1110719D1*
X824276Y1109219D1*
X823778Y1107719D1*
X823323Y1106219D1*
X822983Y1104719D1*
X822642Y1103219D1*
X822210Y1101719D1*
X821745Y1100219D1*
X821282Y1098719D1*
X820774Y1097219D1*
X820271Y1095719D1*
X819792Y1094219D1*
X819277Y1092719D1*
X818767Y1091219D1*
X818228Y1089719D1*
X817474Y1088219D1*
X816445Y1086719D1*
X815281Y1085219D1*
X852781Y1115219D2*
X852031Y1113719D1*
X851408Y1112219D1*
X850825Y1110719D1*
X850291Y1109219D1*
X849799Y1107719D1*
X849280Y1106219D1*
X848773Y1104719D1*
X848287Y1103219D1*
X847725Y1101719D1*
X847082Y1100219D1*
X846427Y1098719D1*
X845840Y1097219D1*
X845320Y1095719D1*
X844788Y1094219D1*
X844277Y1092719D1*
X843794Y1091219D1*
X843284Y1089719D1*
X842827Y1088219D1*
X842514Y1086719D1*
X842281Y1085219D1*
X870781Y1115219D2*
X870268Y1113719D1*
X869816Y1112219D1*
X869479Y1110719D1*
X869141Y1109219D1*
X868709Y1107719D1*
X868245Y1106219D1*
X867782Y1104719D1*
X867274Y1103219D1*
X866771Y1101719D1*
X866292Y1100219D1*
X865777Y1098719D1*
X865273Y1097219D1*
X864792Y1095719D1*
X864278Y1094219D1*
X863773Y1092719D1*
X863291Y1091219D1*
X862769Y1089719D1*
X862253Y1088219D1*
X861781Y1086719D1*
X872281Y1085219D1*
X882781Y1115219D2*
X882031Y1113719D1*
X881408Y1112219D1*
X880825Y1110719D1*
X880291Y1109219D1*
X879799Y1107719D1*
X879286Y1106219D1*
X878826Y1104719D1*
X878484Y1103219D1*
X878143Y1101719D1*
X877710Y1100219D1*
X877245Y1098719D1*
X876782Y1097219D1*
X876274Y1095719D1*
X875771Y1094219D1*
X875292Y1092719D1*
X874783Y1091219D1*
X874327Y1089719D1*
X874014Y1088219D1*
X873781Y1086719D1*
X863281Y1085219D1*
X900781Y1115219D2*
X900549Y1113719D1*
X900171Y1112219D1*
X899730Y1110719D1*
X899276Y1109219D1*
X898772Y1107719D1*
X898271Y1106219D1*
X897792Y1104719D1*
X897277Y1103219D1*
X896773Y1101719D1*
X896292Y1100219D1*
X895778Y1098719D1*
X895273Y1097219D1*
X894792Y1095719D1*
X894283Y1094219D1*
X893825Y1092719D1*
X893478Y1091219D1*
X893079Y1089719D1*
X892407Y1088219D1*
X891420Y1086719D1*
X890281Y1085219D1*
X614281Y1107719D2*
X613070Y1106219D1*
X612140Y1104719D1*
X611446Y1103219D1*
X610838Y1101719D1*
X610295Y1100219D1*
X609800Y1098719D1*
X609280Y1097219D1*
X608769Y1095719D1*
X608246Y1094219D1*
X607576Y1092719D1*
X606781Y1091219D1*
X608062Y1089719D1*
X609729Y1088219D1*
X611885Y1086719D1*
X614281Y1085219D1*
X620281Y1107719D2*
X620513Y1106219D1*
X620890Y1104719D1*
X621337Y1103219D1*
X621856Y1101719D1*
X622661Y1100219D1*
X623949Y1098719D1*
X625732Y1097219D1*
X627781Y1095719D1*
X731281Y1107719D2*
X730070Y1106219D1*
X729140Y1104719D1*
X728446Y1103219D1*
X727838Y1101719D1*
X727295Y1100219D1*
X726800Y1098719D1*
X726280Y1097219D1*
X725774Y1095719D1*
X725293Y1094219D1*
X724789Y1092719D1*
X724402Y1091219D1*
X724217Y1089719D1*
X724964Y1088219D1*
X728011Y1086719D1*
X732840Y1085219D1*
X738781Y1083719D1*
X743281Y1107719D2*
X743224Y1106219D1*
X743031Y1104719D1*
X742666Y1103219D1*
X742229Y1101719D1*
X741776Y1100219D1*
X741272Y1098719D1*
X740771Y1097219D1*
X740292Y1095719D1*
X739777Y1094219D1*
X739273Y1092719D1*
X738792Y1091219D1*
X738254Y1089719D1*
X737516Y1088219D1*
X736492Y1086719D1*
X733452Y1085219D1*
X729781Y1083719D1*
X756781Y1107719D2*
X757013Y1106219D1*
X757390Y1104719D1*
X757831Y1103219D1*
X758285Y1101719D1*
X758778Y1100219D1*
X759174Y1098719D1*
X759392Y1097219D1*
X759091Y1095719D1*
X758745Y1094219D1*
X758453Y1092719D1*
X758126Y1091219D1*
X757648Y1089719D1*
X756988Y1088219D1*
X756108Y1086719D1*
X754966Y1085219D1*
X753587Y1083719D1*
X751910Y1082219D1*
X749776Y1080719D1*
X747064Y1079219D1*
X743812Y1077719D1*
X740281Y1076219D1*
X782281Y1107719D2*
X782224Y1106219D1*
X782026Y1104719D1*
X781613Y1103219D1*
X781038Y1101719D1*
X780411Y1100219D1*
X779834Y1098719D1*
X779318Y1097219D1*
X778787Y1095719D1*
X778276Y1094219D1*
X777794Y1092719D1*
X777284Y1091219D1*
X776827Y1089719D1*
X776514Y1088219D1*
X776281Y1086719D1*
X792781Y1107719D2*
X792549Y1106219D1*
X792171Y1104719D1*
X791730Y1103219D1*
X791270Y1101719D1*
X790719Y1100219D1*
X790080Y1098719D1*
X789427Y1097219D1*
X788840Y1095719D1*
X788314Y1094219D1*
X787729Y1092719D1*
X787021Y1091219D1*
X786125Y1089719D1*
X785007Y1088219D1*
X783781Y1086719D1*
X806281Y1107719D2*
X806049Y1106219D1*
X805671Y1104719D1*
X805230Y1103219D1*
X804776Y1101719D1*
X804272Y1100219D1*
X803771Y1098719D1*
X803292Y1097219D1*
X802777Y1095719D1*
X802273Y1094219D1*
X801792Y1092719D1*
X801278Y1091219D1*
X800773Y1089719D1*
X800298Y1088219D1*
X799842Y1086719D1*
X799458Y1085219D1*
X799683Y1083719D1*
X800192Y1082219D1*
X800997Y1080719D1*
X802076Y1079219D1*
X803281Y1077719D1*
X587281Y1085219D2*
X586467Y1083719D1*
X585341Y1082219D1*
X583828Y1080719D1*
X581915Y1079219D1*
X579781Y1077719D1*
X915781Y1085219D2*
X915142Y1083719D1*
X914195Y1082219D1*
X912701Y1080719D1*
X910628Y1079219D1*
X908281Y1077719D1*
X708781Y1085219D2*
X707275Y1083719D1*
X705718Y1082219D1*
X703986Y1080719D1*
X701973Y1079219D1*
X699781Y1077719D1*
X708781Y1085219D2*
X710293Y1083719D1*
X711910Y1082219D1*
X713909Y1080719D1*
X716616Y1079219D1*
X720034Y1077719D1*
X723781Y1076219D1*
X657781Y1082219D2*
X655729Y1080719D1*
X653177Y1079219D1*
X650281Y1077719D1*
X659281Y1082219D2*
X659668Y1080719D1*
X660844Y1079219D1*
X662281Y1077719D1*
X842281Y1082219D2*
X839281Y1080719D1*
X836281Y1079219D1*
X833281Y1077719D1*
X842281Y1082219D2*
X844027Y1080719D1*
X846459Y1079219D1*
X850011Y1077719D1*
X854281Y1076219D1*
X853019Y1074719D1*
X851943Y1073219D1*
X851029Y1071719D1*
X850209Y1070219D1*
X849483Y1068719D1*
X848917Y1067219D1*
X848576Y1065719D1*
X848405Y1064219D1*
X848329Y1062719D1*
X848305Y1061219D1*
X848352Y1059719D1*
X848591Y1058219D1*
X849152Y1056719D1*
X850013Y1055219D1*
X851157Y1053719D1*
X852767Y1052219D1*
X854899Y1050719D1*
X857281Y1049219D1*
X888781Y1077719D2*
X888549Y1076219D1*
X888171Y1074719D1*
X887730Y1073219D1*
X887270Y1071719D1*
X886719Y1070219D1*
X886074Y1068719D1*
X885368Y1067219D1*
X884590Y1065719D1*
X883705Y1064219D1*
X882736Y1062719D1*
X881766Y1061219D1*
X880726Y1059719D1*
X879518Y1058219D1*
X878163Y1056719D1*
X876672Y1055219D1*
X874951Y1053719D1*
X872857Y1052219D1*
X870402Y1050719D1*
X867781Y1049219D1*
X869281Y1076219D2*
X866633Y1074719D1*
X864454Y1073219D1*
X862869Y1071719D1*
X861754Y1070219D1*
X860967Y1068719D1*
X860366Y1067219D1*
X859816Y1065719D1*
X859399Y1064219D1*
X859172Y1062719D1*
X859595Y1061219D1*
X860404Y1059719D1*
X861691Y1058219D1*
X863281Y1056719D1*
X869281Y1076219D2*
X869224Y1074719D1*
X869031Y1073219D1*
X868666Y1071719D1*
X868229Y1070219D1*
X867776Y1068719D1*
X867272Y1067219D1*
X866771Y1065719D1*
X866292Y1064219D1*
X865771Y1062719D1*
X865205Y1061219D1*
X864451Y1059719D1*
X863268Y1058219D1*
X861781Y1056719D1*
X267264Y389151D2*
D59*
X264412Y387725D1*
X261527Y384840D1*
X260101Y381988D1*
Y376252D1*
X261527Y373366D1*
X264412Y370515D1*
X267264Y369055D1*
X271575Y367629D1*
X278771D1*
X283049Y369055D1*
X285934Y370515D1*
X288786Y373366D1*
X290245Y376251D1*
Y381988D1*
X288786Y384840D1*
X285934Y387725D1*
X283049Y389151D1*
X260134Y419486D2*
Y405160D1*
X273034Y403734D1*
X271608Y405160D1*
X270149Y409471D1*
Y413749D1*
X271608Y418060D1*
X274460Y420945D1*
X278771Y422371D1*
X281623D1*
X285934Y420945D1*
X288819Y418060D1*
X290245Y413749D1*
Y409471D1*
X288819Y405160D1*
X287360Y403734D1*
X284508Y402275D1*
X411910Y344442D2*
X410451Y347327D1*
X406173Y351638D1*
X436284D1*
X406173Y373383D2*
X407599Y369072D1*
X411910Y366187D1*
X419073Y364761D1*
X423384D1*
X430547Y366187D1*
X434858Y369072D1*
X436284Y373383D1*
Y376235D1*
X434858Y380546D1*
X430547Y383398D1*
X423384Y384857D1*
X419073D1*
X411910Y383398D1*
X407599Y380546D1*
X406173Y376235D1*
Y373383D1*
X411910Y383398D2*
X430547Y366187D1*
X416188Y397980D2*
X430547D1*
X434825Y399406D1*
X436284Y402291D1*
Y406602D1*
X434825Y409454D1*
X430547Y413765D1*
X416188D2*
X436284D1*
X406140Y445559D2*
Y426889D1*
X436284D1*
X420499D2*
Y438363D1*
X267264Y802381D2*
X264412Y800955D1*
X261527Y798070D1*
X260101Y795218D1*
Y789481D1*
X261527Y786596D1*
X264412Y783744D1*
X267264Y782285D1*
X271575Y780859D1*
X278771D1*
X283049Y782285D1*
X285934Y783744D1*
X288786Y786596D1*
X290245Y789481D1*
Y795218D1*
X288786Y798070D1*
X285934Y800955D1*
X283049Y802381D1*
X264412Y832715D2*
X261560Y831289D1*
X260134Y826978D1*
Y824126D1*
X261560Y819815D1*
X265871Y816930D1*
X273034Y815504D1*
X280197D1*
X285934Y816930D1*
X288819Y819815D1*
X290245Y824126D1*
Y825552D1*
X288819Y829830D1*
X285934Y832715D1*
X281623Y834141D1*
X280197D1*
X275886Y832715D1*
X273034Y829830D1*
X271608Y825552D1*
Y824126D1*
X273034Y819815D1*
X275886Y816930D1*
X280197Y815504D1*
X411910Y756942D2*
X410451Y759827D1*
X406173Y764138D1*
X436284D1*
X406173Y785883D2*
X407599Y781572D1*
X411910Y778687D1*
X419073Y777261D1*
X423384D1*
X430547Y778687D1*
X434858Y781572D1*
X436284Y785883D1*
Y788735D1*
X434858Y793046D1*
X430547Y795898D1*
X423384Y797357D1*
X419073D1*
X411910Y795898D1*
X407599Y793046D1*
X406173Y788735D1*
Y785883D1*
X411910Y795898D2*
X430547Y778687D1*
X416188Y810480D2*
X430547D1*
X434825Y811906D1*
X436284Y814791D1*
Y819102D1*
X434825Y821954D1*
X430547Y826265D1*
X416188D2*
X436284D1*
X406140Y858059D2*
Y839389D1*
X436284D1*
X420499D2*
Y850863D1*
X617264Y524151D2*
X614412Y522725D1*
X611527Y519840D1*
X610101Y516988D1*
Y511252D1*
X611527Y508366D1*
X614412Y505515D1*
X617264Y504055D1*
X621575Y502629D1*
X628771D1*
X633049Y504055D1*
X635934Y505515D1*
X638786Y508366D1*
X640245Y511251D1*
Y516988D1*
X638786Y519840D1*
X635934Y522725D1*
X633049Y524151D1*
X640245Y543012D2*
X610134Y557371D1*
Y537275D1*
X606173Y513450D2*
X607599Y509139D1*
X611910Y506254D1*
X619073Y504828D1*
X623384D1*
X630547Y506254D1*
X634858Y509139D1*
X636284Y513450D1*
Y516302D1*
X634858Y520613D1*
X630547Y523464D1*
X623384Y524924D1*
X619073D1*
X611910Y523464D1*
X607599Y520613D1*
X606173Y516302D1*
Y513450D1*
X611910Y523464D2*
X630547Y506254D1*
X633399Y539473D2*
X634858Y538047D1*
X636284Y539473D1*
X634858Y540932D1*
X633399Y539473D1*
X606173Y562677D2*
X607599Y558366D1*
X611910Y555481D1*
X619073Y554055D1*
X623384D1*
X630547Y555481D1*
X634858Y558366D1*
X636284Y562677D1*
Y565529D1*
X634858Y569840D1*
X630547Y572692D1*
X623384Y574151D1*
X619073D1*
X611910Y572692D1*
X607599Y569840D1*
X606173Y565529D1*
Y562677D1*
X611910Y572692D2*
X630547Y555481D1*
X611910Y587275D2*
X610451Y590160D1*
X606173Y594471D1*
X636284D1*
X616188Y607594D2*
X630547D1*
X634825Y609020D1*
X636284Y611905D1*
Y616216D1*
X634825Y619068D1*
X630547Y623379D1*
X616188D2*
X636284D1*
X606140Y655173D2*
Y636502D1*
X636284D1*
X620499D2*
Y647976D1*
X122020Y844111D2*
Y821163D1*
X120594Y816852D1*
X119135Y815427D1*
X116283Y813967D1*
X113398D1*
X110546Y815427D1*
X109120Y816852D1*
X107661Y821163D1*
Y824015D1*
X135143Y838341D2*
X138028Y839800D1*
X142339Y844078D1*
Y813967D1*
X77422Y272287D2*
X90355D1*
X94633Y273713D1*
X96092Y275173D1*
X97518Y278024D1*
Y282335D1*
X96092Y285187D1*
X94633Y286646D1*
X90355Y288072D1*
X77422D1*
Y257928D1*
X110641Y288072D2*
X117837Y257928D1*
X125000Y288072D1*
X132163Y257928D1*
X139359Y288072D1*
X152482Y273713D2*
X165382D1*
X169693Y275173D1*
X171152Y276598D1*
X172578Y279450D1*
Y282335D1*
X171152Y285187D1*
X169693Y286646D1*
X165382Y288072D1*
X152482D1*
Y257928D1*
X162530Y273713D2*
X172578Y257928D1*
X1340570Y1094111D2*
Y1071163D1*
X1339144Y1066852D1*
X1337685Y1065427D1*
X1334833Y1063967D1*
X1331948D1*
X1329096Y1065427D1*
X1327670Y1066852D1*
X1326211Y1071163D1*
Y1074015D1*
X1355152Y1086915D2*
Y1088341D1*
X1356578Y1091226D1*
X1358004Y1092652D1*
X1360889Y1094078D1*
X1366626D1*
X1369478Y1092652D1*
X1370904Y1091226D1*
X1372363Y1088341D1*
Y1085489D1*
X1370904Y1082604D1*
X1368052Y1078326D1*
X1353693Y1063967D1*
X1373789D1*
X1243223Y1138072D2*
Y1107928D1*
X1233175Y1138072D2*
X1253271D1*
X1266395D2*
X1286491Y1107928D1*
Y1138072D2*
X1266395Y1107928D1*
X1299614Y1138072D2*
Y1107928D1*
X1316825D1*
X1340570Y494111D2*
Y471163D1*
X1339144Y466852D1*
X1337685Y465427D1*
X1334833Y463967D1*
X1331948D1*
X1329096Y465427D1*
X1327670Y466852D1*
X1326211Y471163D1*
Y474015D1*
X1356578Y494078D2*
X1372330D1*
X1363741Y482604D1*
X1368052D1*
X1370904Y481178D1*
X1372330Y479752D1*
X1373789Y475441D1*
Y472589D1*
X1372330Y468278D1*
X1369478Y465393D1*
X1365167Y463967D1*
X1360856D1*
X1356578Y465393D1*
X1355152Y466852D1*
X1353693Y469704D1*
X1216781Y113072D2*
Y82928D1*
X1206733Y113072D2*
X1226829D1*
X1239952D2*
X1260048Y82928D1*
Y113072D2*
X1239952Y82928D1*
X1273171Y98713D2*
X1286071D1*
X1290382Y100173D1*
X1291841Y101598D1*
X1293267Y104450D1*
Y107335D1*
X1291841Y110187D1*
X1290382Y111646D1*
X1286071Y113072D1*
X1273171D1*
Y82928D1*
X1283219Y98713D2*
X1293267Y82928D1*
X474460Y912292D2*
Y925192D1*
X473001Y929503D1*
X471575Y930962D1*
X468723Y932388D1*
X465838D1*
X462986Y930962D1*
X461527Y929503D1*
X460101Y925192D1*
Y912292D1*
X490245D1*
X474460Y922340D2*
X490245Y932388D1*
X465871Y945512D2*
X464412Y948397D1*
X460134Y952708D1*
X490245D1*
X611910Y912292D2*
X610451Y915177D1*
X606173Y919488D1*
X636284D1*
X606140Y932612D2*
X636284D1*
X606140Y952708D2*
X626236Y932612D1*
X619040Y939775D2*
X636284Y952708D1*
X720838Y904255D2*
Y917154D1*
X719379Y921465D1*
X717953Y922925D1*
X715101Y924350D1*
X712216D1*
X709364Y922925D1*
X707905Y921465D1*
X706479Y917154D1*
Y904255D1*
X736623D1*
X720838Y914303D2*
X736623Y924350D1*
X713675Y938933D2*
X712249D1*
X709364Y940359D1*
X707938Y941785D1*
X706512Y944670D1*
Y950407D1*
X707938Y953259D1*
X709364Y954685D1*
X712249Y956144D1*
X715101D1*
X717986Y954685D1*
X722264Y951833D1*
X736623Y937474D1*
Y957570D1*
X974460Y593342D2*
Y606242D1*
X973001Y610553D1*
X971575Y612012D1*
X968723Y613438D1*
X965838D1*
X962986Y612012D1*
X961527Y610553D1*
X960101Y606242D1*
Y593342D1*
X990245D1*
X974460Y603390D2*
X990245Y613438D1*
X960134Y629447D2*
Y645199D1*
X971608Y636610D1*
Y640921D1*
X973034Y643773D1*
X974460Y645199D1*
X978771Y646658D1*
X981623D1*
X985934Y645199D1*
X988819Y642347D1*
X990245Y638036D1*
Y633725D1*
X988819Y629447D1*
X987360Y628021D1*
X984508Y626562D1*
X1106173Y579618D2*
Y595370D1*
X1117647Y586781D1*
Y591092D1*
X1119073Y593944D1*
X1120499Y595370D1*
X1124810Y596829D1*
X1127662D1*
X1131973Y595370D1*
X1134858Y592518D1*
X1136284Y588207D1*
Y583896D1*
X1134858Y579618D1*
X1133399Y578192D1*
X1130547Y576733D1*
X1106173Y612837D2*
Y628589D1*
X1117647Y620000D1*
Y624311D1*
X1119073Y627163D1*
X1120499Y628589D1*
X1124810Y630048D1*
X1127662D1*
X1131973Y628589D1*
X1134858Y625737D1*
X1136284Y621426D1*
Y617115D1*
X1134858Y612837D1*
X1133399Y611411D1*
X1130547Y609952D1*
X1106140Y643171D2*
X1136284D1*
X1106140Y663267D2*
X1126236Y643171D1*
X1119040Y650334D2*
X1136284Y663267D1*
X692629Y375540D2*
X705529D1*
X709840Y376999D1*
X711299Y378425D1*
X712725Y381277D1*
Y384162D1*
X711299Y387014D1*
X709840Y388473D1*
X705529Y389899D1*
X692629D1*
Y359755D1*
X702677Y375540D2*
X712725Y359755D1*
X740208D2*
Y389866D1*
X725849Y369803D1*
X747371D1*
X680331Y243827D2*
X696083D1*
X687494Y232353D1*
X691805D1*
X694657Y230927D1*
X696083Y229501D1*
X697542Y225190D1*
Y222338D1*
X696083Y218027D1*
X693231Y215142D1*
X688920Y213716D1*
X684609D1*
X680331Y215142D1*
X678905Y216601D1*
X677446Y219453D1*
X729335Y233812D2*
X727876Y229501D1*
X725024Y226616D1*
X720713Y225190D1*
X719287D1*
X714976Y226616D1*
X712124Y229501D1*
X710665Y233812D1*
Y235238D1*
X712124Y239549D1*
X714976Y242401D1*
X719287Y243827D1*
X720713D1*
X725024Y242401D1*
X727876Y239549D1*
X729335Y233812D1*
Y226616D1*
X727876Y219453D1*
X725024Y215142D1*
X720713Y213716D1*
X717861D1*
X713550Y215142D1*
X712124Y218027D1*
X742458Y243860D2*
Y213716D1*
X762554Y243860D2*
X742458Y223764D1*
X749621Y230960D2*
X762554Y213716D1*
X1021577Y957902D2*
X1034477D1*
X1038788Y959361D1*
X1040247Y960787D1*
X1041673Y963639D1*
Y966524D1*
X1040247Y969376D1*
X1038788Y970835D1*
X1034477Y972261D1*
X1021577D1*
Y942117D1*
X1031625Y957902D2*
X1041673Y942117D1*
X1072008Y972228D2*
X1057682D1*
X1056256Y959328D1*
X1057682Y960754D1*
X1061993Y962213D1*
X1066271D1*
X1070582Y960754D1*
X1073467Y957902D1*
X1074893Y953591D1*
Y950739D1*
X1073467Y946428D1*
X1070582Y943543D1*
X1066271Y942117D1*
X1061993D1*
X1057682Y943543D1*
X1056256Y945002D1*
X1054797Y947854D1*
X1029984Y454162D2*
X1042884D1*
X1047195Y455621D1*
X1048654Y457047D1*
X1050080Y459899D1*
Y462784D1*
X1048654Y465636D1*
X1047195Y467095D1*
X1042884Y468521D1*
X1029984D1*
Y438377D1*
X1040032Y454162D2*
X1050080Y438377D1*
X1080414Y464210D2*
X1078988Y467062D1*
X1074677Y468488D1*
X1071825D1*
X1067514Y467062D1*
X1064629Y462751D1*
X1063203Y455588D1*
Y448425D1*
X1064629Y442688D1*
X1067514Y439803D1*
X1071825Y438377D1*
X1073251D1*
X1077529Y439803D1*
X1080414Y442688D1*
X1081840Y446999D1*
Y448425D1*
X1080414Y452736D1*
X1077529Y455588D1*
X1073251Y457014D1*
X1071825D1*
X1067514Y455588D1*
X1064629Y452736D1*
X1063203Y448425D1*
X435731Y219899D2*
Y189755D1*
X425683Y219899D2*
X445779D1*
X458902Y204114D2*
X471835D1*
X476113Y205540D1*
X477572Y206999D1*
X478998Y209851D1*
Y214162D1*
X477572Y217014D1*
X476113Y218473D1*
X471835Y219899D1*
X458902D1*
Y189755D1*
X492121Y214129D2*
X495006Y215588D1*
X499317Y219866D1*
Y189755D1*
X416781Y644899D2*
Y614755D1*
X406733Y644899D2*
X426829D1*
X439952Y629114D2*
X452885D1*
X457163Y630540D1*
X458622Y631999D1*
X460048Y634851D1*
Y639162D1*
X458622Y642014D1*
X457163Y643473D1*
X452885Y644899D1*
X439952D1*
Y614755D1*
X474630Y637703D2*
Y639129D1*
X476056Y642014D1*
X477482Y643440D1*
X480367Y644866D1*
X486104D1*
X488956Y643440D1*
X490382Y642014D1*
X491841Y639129D1*
Y636277D1*
X490382Y633392D1*
X487530Y629114D1*
X473171Y614755D1*
X493267D1*
X316781Y1094899D2*
Y1064755D1*
X306733Y1094899D2*
X326829D1*
X339952Y1079114D2*
X352885D1*
X357163Y1080540D1*
X358622Y1081999D1*
X360048Y1084851D1*
Y1089162D1*
X358622Y1092014D1*
X357163Y1093473D1*
X352885Y1094899D1*
X339952D1*
Y1064755D1*
X376056Y1094866D2*
X391808D1*
X383219Y1083392D1*
X387530D1*
X390382Y1081966D1*
X391808Y1080540D1*
X393267Y1076229D1*
Y1073377D1*
X391808Y1069066D1*
X388956Y1066181D1*
X384645Y1064755D1*
X380334D1*
X376056Y1066181D1*
X374630Y1067640D1*
X373171Y1070492D1*
X1166068Y694899D2*
Y664755D1*
X1156020Y694899D2*
X1176116D1*
X1189239Y679114D2*
X1202172D1*
X1206450Y680540D1*
X1207909Y681999D1*
X1209335Y684851D1*
Y689162D1*
X1207909Y692014D1*
X1206450Y693473D1*
X1202172Y694899D1*
X1189239D1*
Y664755D1*
X1236817D2*
Y694866D1*
X1222458Y674803D1*
X1243980D1*
X779792Y784269D2*
Y762747D1*
X781218Y758436D1*
X784103Y755584D1*
X788414Y754125D1*
X791266D1*
X795577Y755584D1*
X798462Y758436D1*
X799888Y762747D1*
Y784269D1*
X813012Y778499D2*
X815897Y779958D1*
X820208Y784236D1*
Y754125D1*
X947745Y509168D2*
X917601Y497661D1*
X947745Y486187D1*
X937697Y490498D2*
Y504857D1*
X917601Y522291D2*
X947745D1*
Y532339D1*
X946285Y536650D1*
X943434Y539535D1*
X940548Y540961D1*
X936271Y542387D1*
X929075D1*
X924764Y540961D1*
X921912Y539535D1*
X919027Y536650D1*
X917601Y532339D1*
Y522291D1*
X917634Y562673D2*
X919060Y558395D1*
X921912Y556936D1*
X924797D1*
X927649Y558395D1*
X929108Y561247D1*
X930534Y566984D1*
X931960Y571295D1*
X934845Y574147D1*
X937697Y575573D1*
X942008D1*
X944859Y574147D1*
X946319Y572721D1*
X947745Y568410D1*
Y562673D1*
X946319Y558395D1*
X944860Y556936D1*
X942008Y555510D1*
X937697D1*
X934845Y556936D1*
X931960Y559821D1*
X930534Y564099D1*
X929108Y569836D1*
X927649Y572721D1*
X924797Y574147D1*
X921912D1*
X919060Y572721D1*
X917634Y568410D1*
Y562673D1*
X924797Y590156D2*
X923371D1*
X920486Y591582D1*
X919060Y593008D1*
X917634Y595893D1*
Y601630D1*
X919060Y604481D1*
X920486Y605907D1*
X923371Y607367D1*
X926223D1*
X929108Y605907D1*
X933386Y603056D1*
X947745Y588696D1*
Y608792D1*
X921912Y639127D2*
X919060Y637701D1*
X917634Y633390D1*
Y630538D1*
X919060Y626227D1*
X923371Y623342D1*
X930534Y621916D1*
X937697D1*
X943434Y623342D1*
X946319Y626227D1*
X947745Y630538D1*
Y631964D1*
X946319Y636242D1*
X943434Y639127D1*
X939123Y640553D1*
X937697D1*
X933386Y639127D1*
X930534Y636242D1*
X929108Y631964D1*
Y630538D1*
X930534Y626227D1*
X933386Y623342D1*
X937697Y621916D1*
X947745Y676657D2*
X917601Y665150D1*
X947745Y653676D1*
X937697Y657987D2*
Y672346D1*
X931960Y689781D2*
Y702680D1*
X930500Y706991D1*
X929075Y708451D1*
X926223Y709877D1*
X923338D1*
X920486Y708451D1*
X919027Y706991D1*
X917601Y702680D1*
Y689781D1*
X947745D1*
X931960Y699829D2*
X947745Y709877D1*
X263138Y967990D2*
D60*
Y990098D1*
X243020Y1007596D2*
X283212Y1022894D1*
X243020Y1038193D1*
X245916Y172690D2*
X280360D1*
X263160Y155490D2*
X263161Y189934D1*
X243020Y207432D2*
X283212Y222730D1*
X243020Y238029D1*
X252571Y571686D2*
X248768Y569785D1*
X244922Y565938D1*
X243020Y562135D1*
Y554486D1*
X244922Y550639D1*
X248768Y546837D1*
X252571Y544891D1*
X258319Y542990D1*
X267914D1*
X273617Y544891D1*
X277464Y546837D1*
X281267Y550639D1*
X283212Y554486D1*
Y562135D1*
X281267Y565938D1*
X277464Y569785D1*
X273618Y571686D1*
X267914D1*
Y562135D1*
X243020Y615978D2*
X283212D1*
X243020Y589184D1*
X283212D1*
X243020Y633476D2*
X283212D1*
Y646874D1*
X281267Y652622D1*
X277464Y656468D1*
X273617Y658370D1*
X267914Y660271D1*
X258319D1*
X252571Y658370D1*
X248768Y656468D1*
X244922Y652622D1*
X243020Y646874D1*
Y633476D1*
X1268020Y554486D2*
X1269922Y550639D1*
X1273768Y546837D1*
X1277571Y544891D1*
X1283319Y542990D1*
X1292914D1*
X1298617Y544891D1*
X1302464Y546837D1*
X1306267Y550639D1*
X1308212Y554486D1*
Y562135D1*
X1306267Y565938D1*
X1302464Y569785D1*
X1298618Y571686D1*
X1292914Y573587D1*
X1283319D1*
X1277571Y571686D1*
X1273768Y569785D1*
X1269922Y565938D1*
X1268020Y562135D1*
Y554486D1*
Y591085D2*
X1296716D1*
X1302464Y592986D1*
X1306267Y596833D1*
X1308212Y602581D1*
Y606384D1*
X1306267Y612132D1*
X1302464Y615978D1*
X1296716Y617880D1*
X1268020D1*
Y648775D2*
X1308212D1*
X1268020Y635377D2*
Y662172D1*
X285053Y80366D2*
Y40174D1*
X271655Y80366D2*
X298450D1*
X315948Y66968D2*
Y40174D1*
Y55472D2*
X317893Y61220D1*
X321696Y65067D1*
X325543Y66968D1*
X331291D1*
X371736D2*
Y40174D1*
Y61220D2*
X367934Y65067D1*
X364087Y66968D1*
X358383D1*
X354536Y65067D1*
X350734Y61220D1*
X348788Y55472D1*
Y51670D1*
X350734Y45922D1*
X354536Y42119D1*
X358383Y40174D1*
X364087D1*
X367934Y42119D1*
X371736Y45922D1*
X389234Y66968D2*
Y40174D1*
Y59319D2*
X394982Y65067D1*
X398829Y66968D1*
X404533D1*
X408380Y65067D1*
X410281Y59319D1*
Y40174D1*
X448825Y61220D2*
X446924Y65067D1*
X441176Y66968D1*
X435428D1*
X429680Y65067D1*
X427779Y61220D1*
X429680Y57418D1*
X433527Y55472D1*
X443077Y53571D1*
X446924Y51670D1*
X448825Y47823D1*
Y45922D1*
X446924Y42119D1*
X441176Y40174D1*
X435428D1*
X429680Y42119D1*
X427779Y45922D1*
X466323Y66968D2*
Y40174D1*
Y59319D2*
X472071Y65067D1*
X475918Y66968D1*
X481622D1*
X485468Y65067D1*
X487370Y59319D1*
Y40174D1*
Y59319D2*
X493118Y65067D1*
X496964Y66968D1*
X502668D1*
X506515Y65067D1*
X508461Y59319D1*
Y40174D1*
X525958Y80366D2*
X527860Y78464D1*
X529805Y80366D1*
X527860Y82311D1*
X525958Y80366D1*
X527860Y66968D2*
Y40174D1*
X553051Y80366D2*
Y47823D1*
X554952Y42119D1*
X558799Y40174D1*
X562602D1*
X547303Y66968D2*
X560700D1*
X585847Y80366D2*
Y47823D1*
X587749Y42119D1*
X591595Y40174D1*
X595398D1*
X580099Y66968D2*
X593497D1*
X612896Y55472D2*
X635844D1*
Y59319D1*
X633942Y63166D1*
X632041Y65067D1*
X628194Y66968D1*
X622446D1*
X618644Y65067D1*
X614797Y61220D1*
X612896Y55472D1*
Y51670D1*
X614797Y45922D1*
X618644Y42119D1*
X622446Y40174D1*
X628194D1*
X632041Y42119D1*
X635844Y45922D1*
X653341Y66968D2*
Y40174D1*
Y55472D2*
X655287Y61220D1*
X659090Y65067D1*
X662936Y66968D1*
X668684D1*
X730209Y80366D2*
Y40174D1*
X747453D1*
X753201Y42119D1*
X755103Y44020D1*
X757004Y47823D1*
Y53571D1*
X755103Y57418D1*
X753201Y59319D1*
X747453Y61220D1*
X753201Y63166D1*
X755103Y65067D1*
X757004Y68870D1*
Y72716D1*
X755103Y76519D1*
X753201Y78464D1*
X747453Y80366D1*
X730209D1*
Y61220D2*
X747453D1*
X784052Y66968D2*
X780250Y65067D1*
X776403Y61220D1*
X774502Y55472D1*
Y51670D1*
X776403Y45922D1*
X780250Y42119D1*
X784052Y40174D1*
X789800D1*
X793647Y42119D1*
X797450Y45922D1*
X799395Y51670D1*
Y55472D1*
X797450Y61220D1*
X793647Y65067D1*
X789800Y66968D1*
X784052D1*
X839841D2*
Y40174D1*
Y61220D2*
X836038Y65067D1*
X832192Y66968D1*
X826488D1*
X822641Y65067D1*
X818838Y61220D1*
X816893Y55472D1*
Y51670D1*
X818838Y45922D1*
X822641Y42119D1*
X826488Y40174D1*
X832192D1*
X836038Y42119D1*
X839841Y45922D1*
X857339Y66968D2*
Y40174D1*
Y55472D2*
X859284Y61220D1*
X863087Y65067D1*
X866934Y66968D1*
X872682D1*
X913127Y80366D2*
Y40174D1*
Y61220D2*
X909325Y65067D1*
X905478Y66968D1*
X899730D1*
X895927Y65067D1*
X892081Y61220D1*
X890179Y55472D1*
Y51670D1*
X892081Y45922D1*
X895927Y42119D1*
X899730Y40174D1*
X905478D1*
X909325Y42119D1*
X913127Y45922D1*
X557097Y170685D2*
D61*
X569997D1*
X574308Y172144D1*
X575767Y173570D1*
X577193Y176422D1*
Y179307D1*
X575767Y182159D1*
X574308Y183618D1*
X569997Y185044D1*
X557097D1*
Y154900D1*
X567145Y170685D2*
X577193Y154900D1*
X603667Y174996D2*
Y154900D1*
Y170685D2*
X600815Y173570D1*
X597930Y174996D1*
X593652D1*
X590767Y173570D1*
X587915Y170685D1*
X586456Y166374D1*
Y163522D1*
X587915Y159211D1*
X590767Y156359D1*
X593652Y154900D1*
X597930D1*
X600815Y156359D1*
X603667Y159211D1*
X614390Y174996D2*
X622979Y154900D1*
X620127Y149163D1*
X617242Y146278D1*
X614390Y144852D1*
X612931D1*
X631601Y174996D2*
X622979Y154900D1*
X690121Y180733D2*
X687269Y183618D1*
X682958Y185044D1*
X677221D1*
X672910Y183618D1*
X670025Y180733D1*
Y177881D1*
X671484Y174996D1*
X672910Y173570D1*
X675762Y172144D1*
X684384Y169259D1*
X687269Y167833D1*
X688695Y166374D1*
X690121Y163522D1*
Y159211D1*
X687269Y156359D1*
X682958Y154900D1*
X677221D1*
X672910Y156359D1*
X670025Y159211D1*
X699384Y174996D2*
Y160637D1*
X700810Y156359D1*
X703696Y154900D1*
X708007D1*
X710858Y156359D1*
X715169Y160637D1*
Y174996D2*
Y154900D1*
X724433Y174996D2*
Y154900D1*
Y169259D2*
X728744Y173570D1*
X731629Y174996D1*
X735907D1*
X738792Y173570D1*
X740218Y169259D1*
Y154900D1*
X575734Y135044D2*
X557097D1*
Y104900D1*
X575734D1*
X557097Y120685D2*
X568571D1*
X603634Y135044D2*
X584997D1*
Y104900D1*
X603634D1*
X584997Y120685D2*
X596471D1*
X660728Y124996D2*
X659269Y120685D1*
X656417Y117800D1*
X652106Y116374D1*
X650680D1*
X646369Y117800D1*
X643517Y120685D1*
X642058Y124996D1*
Y126422D1*
X643517Y130733D1*
X646369Y133585D1*
X650680Y135011D1*
X652106D1*
X656417Y133585D1*
X659269Y130733D1*
X660728Y124996D1*
Y117800D1*
X659269Y110637D1*
X656417Y106326D1*
X652106Y104900D1*
X649254D1*
X644943Y106326D1*
X643517Y109211D1*
X669992Y129274D2*
X672877Y130733D1*
X677188Y135011D1*
Y104900D1*
X703662Y124996D2*
Y104900D1*
Y120685D2*
X700810Y123570D1*
X697925Y124996D1*
X693648D1*
X690762Y123570D1*
X687911Y120685D1*
X686451Y116374D1*
Y113522D1*
X687911Y109211D1*
X690762Y106359D1*
X693648Y104900D1*
X697925D1*
X700810Y106359D1*
X703662Y109211D1*
X760757Y135044D2*
X742086D1*
Y104900D1*
Y120685D2*
X753560D1*
X787231Y124996D2*
Y104900D1*
Y120685D2*
X784379Y123570D1*
X781494Y124996D1*
X777216D1*
X774331Y123570D1*
X771479Y120685D1*
X770020Y116374D1*
Y113522D1*
X771479Y109211D1*
X774331Y106359D1*
X777216Y104900D1*
X781494D1*
X784379Y106359D1*
X787231Y109211D1*
X796495Y135044D2*
Y104900D1*
X805758Y135044D2*
Y104900D1*
X845641Y127848D2*
Y129274D1*
X847067Y132159D1*
X848493Y133585D1*
X851378Y135011D1*
X857115D1*
X859967Y133585D1*
X861393Y132159D1*
X862852Y129274D1*
Y126422D1*
X861393Y123537D1*
X858541Y119259D1*
X844182Y104900D1*
X864278D1*
X882164Y135011D2*
X877853Y133585D1*
X874968Y129274D1*
X873542Y122111D1*
Y117800D1*
X874968Y110637D1*
X877853Y106326D1*
X882164Y104900D1*
X885016D1*
X889327Y106326D1*
X892179Y110637D1*
X893638Y117800D1*
Y122111D1*
X892179Y129274D1*
X889327Y133585D1*
X885016Y135011D1*
X882164D1*
X892179Y129274D2*
X874968Y110637D1*
X902901Y129274D2*
X905786Y130733D1*
X910097Y135011D1*
Y104900D1*
X938031Y124996D2*
X936572Y120685D1*
X933720Y117800D1*
X929409Y116374D1*
X927983D1*
X923672Y117800D1*
X920820Y120685D1*
X919361Y124996D1*
Y126422D1*
X920820Y130733D1*
X923672Y133585D1*
X927983Y135011D1*
X929409D1*
X933720Y133585D1*
X936572Y130733D1*
X938031Y124996D1*
Y117800D1*
X936572Y110637D1*
X933720Y106326D1*
X929409Y104900D1*
X926557D1*
X922246Y106326D1*
X920820Y109211D1*
M02*
