G04 DipTrace 3.3.1.3*
G04 Bottom.gbr*
%MOIN*%
G04 #@! TF.FileFunction,Copper,L2,Bot*
G04 #@! TF.Part,Single*
G04 #@! TA.AperFunction,CopperBalancing*
%ADD14C,0.025*%
%ADD15C,0.03*%
G04 #@! TA.AperFunction,ComponentPad*
%ADD18C,0.08*%
%ADD20R,0.05937X0.05937*%
%ADD21C,0.05937*%
%FSLAX26Y26*%
G04*
G70*
G90*
G75*
G01*
G04 Bottom*
%LPD*%
X215014Y1231381D2*
D14*
X1785007D1*
X215014Y1206512D2*
X1785007D1*
X215014Y1181644D2*
X1785007D1*
X215014Y1156775D2*
X1785007D1*
X215014Y1131906D2*
X1785007D1*
X206869Y1107037D2*
X1793117D1*
X65018Y1082169D2*
X1935003D1*
X65018Y1057300D2*
X1935003D1*
X65018Y1032431D2*
X291327D1*
X408681D2*
X1935003D1*
X65018Y1007562D2*
X91273D1*
X133701D2*
X291327D1*
X408681D2*
X1935003D1*
X168903Y982694D2*
X291327D1*
X408681D2*
X1935003D1*
X179991Y957825D2*
X291327D1*
X408681D2*
X1935003D1*
X180601Y932956D2*
X305789D1*
X394219D2*
X1935003D1*
X171127Y908087D2*
X292799D1*
X407210D2*
X1935003D1*
X65018Y883219D2*
X82482D1*
X142528D2*
X292619D1*
X407353D2*
X1935003D1*
X65018Y858350D2*
X305178D1*
X394794D2*
X1935003D1*
X65018Y833481D2*
X1935003D1*
X65018Y808612D2*
X641306D1*
X758696D2*
X1003808D1*
X1121197D2*
X1366310D1*
X1483699D2*
X1728812D1*
X1846201D2*
X1935003D1*
X65018Y783743D2*
X641306D1*
X758696D2*
X1003808D1*
X1121197D2*
X1366310D1*
X1483699D2*
X1728812D1*
X1846201D2*
X1935003D1*
X65018Y758875D2*
X641306D1*
X758696D2*
X1003808D1*
X1121197D2*
X1366310D1*
X1483699D2*
X1728812D1*
X1846201D2*
X1935003D1*
X65018Y734006D2*
X641306D1*
X758696D2*
X1003808D1*
X1121197D2*
X1366310D1*
X1483699D2*
X1728812D1*
X1846201D2*
X1935003D1*
X158388Y709137D2*
X641306D1*
X758696D2*
X1003808D1*
X1121197D2*
X1366310D1*
X1483699D2*
X1728812D1*
X1846201D2*
X1935003D1*
X176403Y684268D2*
X647945D1*
X752056D2*
X1010411D1*
X1114559D2*
X1372912D1*
X1477060D2*
X1735415D1*
X1839563D2*
X1935003D1*
X181497Y659400D2*
X641341D1*
X758659D2*
X1003844D1*
X1121161D2*
X1366346D1*
X1483663D2*
X1728848D1*
X1846165D2*
X1935003D1*
X176941Y634531D2*
X646366D1*
X753635D2*
X1008867D1*
X1116138D2*
X1371370D1*
X1478639D2*
X1733871D1*
X1841142D2*
X1935003D1*
X159860Y609662D2*
X668577D1*
X731423D2*
X1031080D1*
X1093925D2*
X1393581D1*
X1456428D2*
X1756084D1*
X1818929D2*
X1935003D1*
X65018Y584793D2*
X647370D1*
X752631D2*
X1009873D1*
X1115133D2*
X1372374D1*
X1477635D2*
X1734877D1*
X1840136D2*
X1935003D1*
X65018Y559925D2*
X641306D1*
X758696D2*
X1003808D1*
X1121197D2*
X1366310D1*
X1483699D2*
X1728812D1*
X1846165D2*
X1935003D1*
X65018Y535056D2*
X646867D1*
X753133D2*
X1009370D1*
X1115635D2*
X1371871D1*
X1478138D2*
X1734374D1*
X1840639D2*
X1935003D1*
X65018Y510187D2*
X670408D1*
X729593D2*
X1032874D1*
X1092094D2*
X1395377D1*
X1454597D2*
X1757878D1*
X1817100D2*
X1935003D1*
X65018Y485318D2*
X1935003D1*
X65018Y460449D2*
X291327D1*
X408681D2*
X1935003D1*
X65018Y435581D2*
X291327D1*
X408681D2*
X1935003D1*
X166606Y410712D2*
X291327D1*
X408681D2*
X1935003D1*
X179273Y385843D2*
X291327D1*
X408681D2*
X1935003D1*
X181031Y360974D2*
X308731D1*
X391277D2*
X1935003D1*
X172921Y336106D2*
X293588D1*
X406420D2*
X1935003D1*
X65018Y311237D2*
X76615D1*
X148377D2*
X292045D1*
X407963D2*
X1935003D1*
X65018Y286368D2*
X302739D1*
X397269D2*
X1935003D1*
X65018Y261499D2*
X1935003D1*
X65018Y236631D2*
X1935003D1*
X65018Y211762D2*
X1935003D1*
X215014Y186893D2*
X1785007D1*
X215014Y162024D2*
X1785007D1*
X215014Y137156D2*
X1785007D1*
X215014Y112287D2*
X1785007D1*
X215014Y87418D2*
X1785007D1*
X215014Y62549D2*
X1785007D1*
X178795Y363532D2*
X177163Y353226D1*
X173938Y343301D1*
X169201Y334003D1*
X163067Y325562D1*
X155688Y318183D1*
X147247Y312049D1*
X137949Y307312D1*
X128024Y304087D1*
X117718Y302455D1*
X107282D1*
X96976Y304087D1*
X87051Y307312D1*
X77753Y312049D1*
X69312Y318183D1*
X62501Y324948D1*
X62500Y211275D1*
X201955Y211096D1*
X204783Y210299D1*
X207348Y208863D1*
X209505Y206868D1*
X211138Y204425D1*
X212155Y201669D1*
X212500Y198746D1*
Y61278D1*
X1787480Y61250D1*
X1787654Y200705D1*
X1788451Y203533D1*
X1789887Y206098D1*
X1791882Y208255D1*
X1794325Y209888D1*
X1797081Y210905D1*
X1800004Y211250D1*
X1937472D1*
X1937500Y1106225D1*
X1798045Y1106404D1*
X1795217Y1107201D1*
X1792652Y1108637D1*
X1790495Y1110632D1*
X1788862Y1113075D1*
X1787845Y1115831D1*
X1787500Y1118754D1*
Y1256222D1*
X212520Y1256250D1*
X212346Y1116795D1*
X211549Y1113967D1*
X210113Y1111402D1*
X208118Y1109245D1*
X205675Y1107612D1*
X202919Y1106595D1*
X200000Y1106250D1*
X62528D1*
X62500Y987594D1*
X69312Y994317D1*
X77753Y1000451D1*
X87051Y1005188D1*
X96976Y1008413D1*
X107282Y1010045D1*
X117718D1*
X128024Y1008413D1*
X137949Y1005188D1*
X147247Y1000451D1*
X155688Y994317D1*
X163067Y986938D1*
X169201Y978497D1*
X173938Y969199D1*
X177163Y959274D1*
X178795Y948968D1*
Y938532D1*
X177163Y928226D1*
X173938Y918301D1*
X169201Y909003D1*
X163067Y900562D1*
X155688Y893183D1*
X147247Y887049D1*
X137949Y882312D1*
X128024Y879087D1*
X117718Y877455D1*
X107282D1*
X96976Y879087D1*
X87051Y882312D1*
X77753Y887049D1*
X69312Y893183D1*
X62501Y899948D1*
X62500Y702602D1*
X67958Y708129D1*
X73676Y712741D1*
X79867Y716692D1*
X86457Y719938D1*
X93364Y722438D1*
X100504Y724159D1*
X107791Y725083D1*
X115136Y725198D1*
X122449Y724502D1*
X129639Y723003D1*
X136621Y720721D1*
X143308Y717683D1*
X149621Y713926D1*
X155479Y709495D1*
X160814Y704446D1*
X165558Y698838D1*
X169656Y692742D1*
X173056Y686232D1*
X175718Y679385D1*
X177608Y672287D1*
X178703Y665024D1*
X178975Y656913D1*
X178366Y649593D1*
X176955Y642384D1*
X174757Y635376D1*
X171799Y628652D1*
X168118Y622296D1*
X163759Y616384D1*
X158773Y610990D1*
X153223Y606178D1*
X147177Y602007D1*
X140707Y598528D1*
X133894Y595785D1*
X126819Y593810D1*
X119570Y592627D1*
X112234Y592250D1*
X104902Y592686D1*
X97661Y593927D1*
X90602Y595959D1*
X83811Y598757D1*
X77370Y602287D1*
X71357Y606506D1*
X65845Y611362D1*
X62496Y614919D1*
X62500Y412585D1*
X69312Y419317D1*
X77753Y425451D1*
X87051Y430188D1*
X96976Y433413D1*
X107282Y435045D1*
X117718D1*
X128024Y433413D1*
X137949Y430188D1*
X147247Y425451D1*
X155688Y419317D1*
X163067Y411938D1*
X169201Y403497D1*
X173938Y394199D1*
X177163Y384274D1*
X178795Y373968D1*
Y363532D1*
X653001Y812435D2*
X756185D1*
Y700065D1*
X737059D1*
X742087Y695047D1*
X746583Y689240D1*
X750282Y682894D1*
X753122Y676123D1*
X755055Y669037D1*
X756047Y661762D1*
X756064Y654153D1*
X755108Y646872D1*
X753207Y639778D1*
X750399Y632993D1*
X746730Y626631D1*
X742262Y620802D1*
X737072Y615607D1*
X731249Y611132D1*
X727096Y608614D1*
X733025Y604854D1*
X739728Y599128D1*
X745454Y592425D1*
X750062Y584907D1*
X753436Y576762D1*
X755493Y568188D1*
X756185Y559400D1*
X755493Y550611D1*
X753436Y542037D1*
X750062Y533892D1*
X745454Y526375D1*
X739728Y519671D1*
X733025Y513946D1*
X725508Y509338D1*
X717362Y505964D1*
X708789Y503906D1*
X700000Y503215D1*
X691211Y503906D1*
X682638Y505964D1*
X674492Y509338D1*
X666975Y513946D1*
X660272Y519671D1*
X654546Y526375D1*
X649938Y533892D1*
X646564Y542037D1*
X644507Y550611D1*
X643815Y559400D1*
X644507Y568188D1*
X646564Y576762D1*
X649938Y584907D1*
X654546Y592425D1*
X660272Y599128D1*
X666975Y604854D1*
X672944Y608594D1*
X667349Y612102D1*
X661664Y616750D1*
X656634Y622102D1*
X652345Y628062D1*
X648870Y634532D1*
X646269Y641400D1*
X644587Y648549D1*
X643849Y655855D1*
X644072Y663196D1*
X645251Y670444D1*
X647365Y677477D1*
X650377Y684175D1*
X654238Y690422D1*
X658881Y696112D1*
X662954Y700062D1*
X643815Y700065D1*
Y812435D1*
X653001D1*
X1378001D2*
X1481185D1*
Y700065D1*
X1462059D1*
X1467087Y695047D1*
X1471583Y689240D1*
X1475282Y682894D1*
X1478122Y676123D1*
X1480055Y669037D1*
X1481047Y661762D1*
X1481064Y654153D1*
X1480108Y646872D1*
X1478207Y639778D1*
X1475399Y632993D1*
X1471730Y626631D1*
X1467262Y620802D1*
X1462072Y615607D1*
X1456249Y611132D1*
X1452096Y608614D1*
X1458025Y604854D1*
X1464728Y599128D1*
X1470454Y592425D1*
X1475062Y584907D1*
X1478436Y576762D1*
X1480493Y568188D1*
X1481185Y559400D1*
X1480493Y550611D1*
X1478436Y542037D1*
X1475062Y533892D1*
X1470454Y526375D1*
X1464728Y519671D1*
X1458025Y513946D1*
X1450508Y509338D1*
X1442362Y505964D1*
X1433789Y503906D1*
X1425000Y503215D1*
X1416211Y503906D1*
X1407638Y505964D1*
X1399492Y509338D1*
X1391975Y513946D1*
X1385272Y519671D1*
X1379546Y526375D1*
X1374938Y533892D1*
X1371564Y542037D1*
X1369507Y550611D1*
X1368815Y559400D1*
X1369507Y568188D1*
X1371564Y576762D1*
X1374938Y584907D1*
X1379546Y592425D1*
X1385272Y599128D1*
X1391975Y604854D1*
X1397944Y608594D1*
X1392349Y612102D1*
X1386664Y616750D1*
X1381634Y622102D1*
X1377345Y628062D1*
X1373870Y634532D1*
X1371269Y641400D1*
X1369587Y648549D1*
X1368849Y655855D1*
X1369072Y663196D1*
X1370251Y670444D1*
X1372365Y677477D1*
X1375377Y684175D1*
X1379238Y690422D1*
X1383881Y696112D1*
X1387954Y700062D1*
X1368815Y700065D1*
Y812435D1*
X1378001D1*
X1740501D2*
X1843685D1*
Y700065D1*
X1824559D1*
X1829587Y695047D1*
X1834083Y689240D1*
X1837782Y682894D1*
X1840622Y676123D1*
X1842555Y669037D1*
X1843547Y661762D1*
X1843564Y654153D1*
X1842608Y646872D1*
X1840707Y639778D1*
X1837899Y632993D1*
X1834230Y626631D1*
X1829762Y620802D1*
X1824572Y615607D1*
X1818749Y611132D1*
X1814596Y608614D1*
X1820525Y604854D1*
X1827228Y599128D1*
X1832954Y592425D1*
X1837562Y584907D1*
X1840936Y576762D1*
X1842993Y568188D1*
X1843685Y559400D1*
X1842993Y550611D1*
X1840936Y542037D1*
X1837562Y533892D1*
X1832954Y526375D1*
X1827228Y519671D1*
X1820525Y513946D1*
X1813008Y509338D1*
X1804862Y505964D1*
X1796289Y503906D1*
X1787500Y503215D1*
X1778711Y503906D1*
X1770138Y505964D1*
X1761992Y509338D1*
X1754475Y513946D1*
X1747772Y519671D1*
X1742046Y526375D1*
X1737438Y533892D1*
X1734064Y542037D1*
X1732007Y550611D1*
X1731315Y559400D1*
X1732007Y568188D1*
X1734064Y576762D1*
X1737438Y584907D1*
X1742046Y592425D1*
X1747772Y599128D1*
X1754475Y604854D1*
X1760444Y608594D1*
X1754849Y612102D1*
X1749164Y616750D1*
X1744134Y622102D1*
X1739845Y628062D1*
X1736370Y634532D1*
X1733769Y641400D1*
X1732087Y648549D1*
X1731349Y655855D1*
X1731572Y663196D1*
X1732751Y670444D1*
X1734865Y677477D1*
X1737877Y684175D1*
X1741738Y690422D1*
X1746381Y696112D1*
X1750454Y700062D1*
X1731315Y700065D1*
Y812435D1*
X1740501D1*
X1015501D2*
X1118685D1*
Y700065D1*
X1099559D1*
X1104587Y695047D1*
X1109083Y689240D1*
X1112782Y682894D1*
X1115622Y676123D1*
X1117555Y669037D1*
X1118547Y661762D1*
X1118564Y654153D1*
X1117608Y646872D1*
X1115707Y639778D1*
X1112899Y632993D1*
X1109230Y626631D1*
X1104762Y620802D1*
X1099572Y615607D1*
X1093749Y611132D1*
X1089596Y608614D1*
X1095525Y604854D1*
X1102228Y599128D1*
X1107954Y592425D1*
X1112562Y584907D1*
X1115936Y576762D1*
X1117993Y568188D1*
X1118685Y559400D1*
X1117993Y550611D1*
X1115936Y542037D1*
X1112562Y533892D1*
X1107954Y526375D1*
X1102228Y519671D1*
X1095525Y513946D1*
X1088008Y509338D1*
X1079862Y505964D1*
X1071289Y503906D1*
X1062500Y503215D1*
X1053711Y503906D1*
X1045138Y505964D1*
X1036992Y509338D1*
X1029475Y513946D1*
X1022772Y519671D1*
X1017046Y526375D1*
X1012438Y533892D1*
X1009064Y542037D1*
X1007007Y550611D1*
X1006315Y559400D1*
X1007007Y568188D1*
X1009064Y576762D1*
X1012438Y584907D1*
X1017046Y592425D1*
X1022772Y599128D1*
X1029475Y604854D1*
X1035444Y608594D1*
X1029849Y612102D1*
X1024164Y616750D1*
X1019134Y622102D1*
X1014845Y628062D1*
X1011370Y634532D1*
X1008769Y641400D1*
X1007087Y648549D1*
X1006349Y655855D1*
X1006572Y663196D1*
X1007751Y670444D1*
X1009865Y677477D1*
X1012877Y684175D1*
X1016738Y690422D1*
X1021381Y696112D1*
X1025454Y700062D1*
X1006315Y700065D1*
Y812435D1*
X1015501D1*
X303001Y1049935D2*
X406185D1*
Y937565D1*
X387059D1*
X392087Y932547D1*
X396583Y926740D1*
X400282Y920394D1*
X403122Y913623D1*
X405055Y906537D1*
X406047Y899262D1*
X406064Y891653D1*
X405108Y884372D1*
X403207Y877278D1*
X400399Y870493D1*
X396730Y864131D1*
X392262Y858302D1*
X387072Y853107D1*
X381249Y848632D1*
X374892Y844955D1*
X368110Y842138D1*
X361018Y840230D1*
X353738Y839264D1*
X346394Y839255D1*
X339112Y840205D1*
X332016Y842096D1*
X325227Y844896D1*
X318861Y848558D1*
X313028Y853019D1*
X307825Y858203D1*
X303344Y864020D1*
X299659Y870373D1*
X296835Y877153D1*
X294919Y884242D1*
X293944Y891520D1*
X293927Y898864D1*
X294867Y906148D1*
X296749Y913246D1*
X299542Y920039D1*
X303197Y926409D1*
X307651Y932247D1*
X312954Y937562D1*
X293815Y937565D1*
Y1049935D1*
X303001D1*
X295652Y474935D2*
X406185D1*
Y362565D1*
X387045D1*
X392723Y356814D1*
X397906Y349682D1*
X401908Y341826D1*
X404633Y333440D1*
X406012Y324733D1*
Y315917D1*
X404633Y307209D1*
X401908Y298823D1*
X397906Y290968D1*
X392723Y283835D1*
X386490Y277602D1*
X379357Y272419D1*
X371501Y268417D1*
X363115Y265692D1*
X354408Y264313D1*
X345592D1*
X336885Y265692D1*
X328499Y268417D1*
X320643Y272419D1*
X313510Y277602D1*
X307277Y283835D1*
X302094Y290968D1*
X298092Y298823D1*
X295367Y307209D1*
X293988Y315917D1*
Y324733D1*
X295367Y333440D1*
X298092Y341826D1*
X302094Y349682D1*
X307277Y356814D1*
X312992Y362569D1*
X293815Y362565D1*
Y474935D1*
X295652D1*
X112500Y725215D2*
D15*
Y592285D1*
Y658750D2*
X178965D1*
X643850Y657825D2*
X756150D1*
X1368850D2*
X1481150D1*
X1731350D2*
X1843650D1*
X1006350D2*
X1118650D1*
X350000Y895325D2*
Y839175D1*
X293850Y895325D2*
X406150D1*
X350000Y474900D2*
Y418750D1*
X293850D2*
X406150D1*
D18*
X112500Y368750D3*
Y658750D3*
D20*
X700000Y756250D3*
D21*
Y657825D3*
Y559400D3*
D20*
X1425000Y756250D3*
D21*
Y657825D3*
Y559400D3*
D20*
X1787500Y756250D3*
D21*
Y657825D3*
Y559400D3*
D20*
X1062500Y756250D3*
D21*
Y657825D3*
Y559400D3*
D20*
X350000Y993750D3*
D21*
Y895325D3*
D20*
Y418750D3*
D21*
Y320325D3*
D18*
X112500Y943750D3*
M02*
