M48
INCH
T01C0.0394
T02C0.063
T03C0.125
%
T01
X+007000Y+007562
X+007000Y+006578
X+007000Y+005594
X+010625Y+005594
X+010625Y+006578
X+010625Y+007562
X+014250Y+007562
X+014250Y+006578
X+014250Y+005594
X+017875Y+005594
X+017875Y+006578
X+017875Y+007562
X+003500Y+008953
X+003500Y+009938
X+003500Y+004187
X+003500Y+003203
T02
X+001125Y+003688
X+001125Y+006587
X+001125Y+009438
T03
X+019000Y+012188
X+019000Y+000988
X+001000Y+000988
X+001000Y+012188
T00
M30
