G04 DipTrace 3.3.1.3*
G04 Top.gbr*
%MOIN*%
G04 #@! TF.FileFunction,Copper,L1,Top*
G04 #@! TF.Part,Single*
G04 #@! TA.AperFunction,CopperBalancing*
%ADD14C,0.025*%
%ADD16C,0.013*%
G04 #@! TA.AperFunction,ComponentPad*
%ADD18C,0.08*%
%ADD20R,0.05937X0.05937*%
%ADD21C,0.05937*%
%FSLAX26Y26*%
G04*
G70*
G90*
G75*
G01*
G04 Top*
%LPD*%
X215014Y1231381D2*
D14*
X1785007D1*
X215014Y1206512D2*
X1785007D1*
X215014Y1181644D2*
X1785007D1*
X215014Y1156775D2*
X1785007D1*
X215014Y1131906D2*
X1785007D1*
X206869Y1107037D2*
X1793117D1*
X65018Y1082169D2*
X1935003D1*
X65018Y1057300D2*
X1935003D1*
X65018Y1032431D2*
X291327D1*
X408681D2*
X1935003D1*
X65018Y1007562D2*
X91273D1*
X133701D2*
X291327D1*
X408681D2*
X1935003D1*
X168903Y982694D2*
X291327D1*
X408681D2*
X1935003D1*
X179991Y957825D2*
X291327D1*
X408681D2*
X1935003D1*
X180601Y932956D2*
X305789D1*
X394219D2*
X1935003D1*
X171127Y908087D2*
X292799D1*
X407210D2*
X1935003D1*
X65018Y883219D2*
X82482D1*
X142528D2*
X292619D1*
X407353D2*
X1935003D1*
X65018Y858350D2*
X305178D1*
X394794D2*
X1935003D1*
X65018Y833481D2*
X1935003D1*
X65018Y808612D2*
X641306D1*
X758696D2*
X1003808D1*
X1121197D2*
X1366310D1*
X1483699D2*
X1728812D1*
X1846201D2*
X1935003D1*
X65018Y783743D2*
X641306D1*
X758696D2*
X1003808D1*
X1121197D2*
X1366310D1*
X1483699D2*
X1728812D1*
X1846201D2*
X1935003D1*
X215014Y758875D2*
X641306D1*
X758696D2*
X1003808D1*
X1121197D2*
X1366310D1*
X1483699D2*
X1728812D1*
X1846201D2*
X1935003D1*
X215014Y734006D2*
X641306D1*
X758696D2*
X1003808D1*
X1121197D2*
X1366310D1*
X1483699D2*
X1728812D1*
X1846201D2*
X1935003D1*
X215014Y709137D2*
X641306D1*
X758696D2*
X1003808D1*
X1121197D2*
X1366310D1*
X1483699D2*
X1728812D1*
X1846201D2*
X1935003D1*
X645652Y812435D2*
X756185D1*
Y700065D1*
X737045D1*
X742723Y694314D1*
X745146Y691242D1*
X1017335Y691250D1*
X1022772Y697553D1*
X1025492Y700069D1*
X1006315Y700065D1*
Y812435D1*
X1118685D1*
Y700065D1*
X1099545D1*
X1105223Y694314D1*
X1107646Y691242D1*
X1379836Y691250D1*
X1385272Y697553D1*
X1387992Y700069D1*
X1368815Y700065D1*
Y812435D1*
X1481185D1*
Y700065D1*
X1462045D1*
X1467723Y694314D1*
X1470146Y691242D1*
X1742339Y691250D1*
X1747772Y697553D1*
X1750492Y700069D1*
X1731315Y700065D1*
Y812435D1*
X1843685D1*
Y700065D1*
X1824545D1*
X1830223Y694314D1*
X1832646Y691242D1*
X1937476Y691250D1*
X1937500Y1106238D1*
X1798045Y1106404D1*
X1795217Y1107201D1*
X1792652Y1108637D1*
X1790495Y1110632D1*
X1788862Y1113075D1*
X1787845Y1115831D1*
X1787500Y1118754D1*
Y1256222D1*
X212520Y1256250D1*
X212346Y1116795D1*
X211549Y1113967D1*
X210113Y1111402D1*
X208118Y1109245D1*
X205675Y1107612D1*
X202919Y1106595D1*
X199996Y1106250D1*
X62528D1*
X62500Y987594D1*
X67958Y993129D1*
X73676Y997741D1*
X79867Y1001692D1*
X86457Y1004938D1*
X93364Y1007438D1*
X100504Y1009159D1*
X107791Y1010083D1*
X115136Y1010198D1*
X122449Y1009502D1*
X129639Y1008003D1*
X136621Y1005721D1*
X143308Y1002683D1*
X149621Y998926D1*
X155479Y994495D1*
X160814Y989446D1*
X165558Y983838D1*
X169656Y977742D1*
X173056Y971232D1*
X175718Y964385D1*
X177608Y957287D1*
X178703Y950024D1*
X178975Y941913D1*
X178366Y934593D1*
X176955Y927384D1*
X174757Y920376D1*
X171799Y913652D1*
X168118Y907296D1*
X163759Y901384D1*
X158773Y895990D1*
X153223Y891178D1*
X147177Y887007D1*
X140707Y883528D1*
X133894Y880785D1*
X126819Y878810D1*
X119570Y877627D1*
X112234Y877250D1*
X104902Y877686D1*
X97661Y878927D1*
X90602Y880959D1*
X83811Y883757D1*
X77370Y887287D1*
X71357Y891506D1*
X65845Y896362D1*
X62496Y899919D1*
X62500Y781259D1*
X201955Y781096D1*
X204783Y780299D1*
X207348Y778863D1*
X209505Y776868D1*
X211138Y774425D1*
X212155Y771669D1*
X212500Y768746D1*
Y691276D1*
X654832Y691250D1*
X660272Y697553D1*
X662992Y700069D1*
X643815Y700065D1*
Y812435D1*
X645652D1*
X295652Y1049935D2*
X406185D1*
Y937565D1*
X387045D1*
X392723Y931814D1*
X397906Y924682D1*
X401908Y916826D1*
X404633Y908440D1*
X406012Y899733D1*
Y890917D1*
X404633Y882209D1*
X401908Y873823D1*
X397906Y865968D1*
X392723Y858835D1*
X386490Y852602D1*
X379357Y847419D1*
X371501Y843417D1*
X363115Y840692D1*
X354408Y839313D1*
X345592D1*
X336885Y840692D1*
X328499Y843417D1*
X320643Y847419D1*
X313510Y852602D1*
X307277Y858835D1*
X302094Y865968D1*
X298092Y873823D1*
X295367Y882209D1*
X293988Y890917D1*
Y899733D1*
X295367Y908440D1*
X298092Y916826D1*
X302094Y924682D1*
X307277Y931814D1*
X312992Y937569D1*
X293815Y937565D1*
Y1049935D1*
X295652D1*
X700000Y812400D2*
D16*
Y756250D1*
X643850D2*
X756150D1*
X1425000Y812400D2*
Y756250D1*
X1368850D2*
X1481150D1*
X1787500Y812400D2*
Y756250D1*
X1731350D2*
X1843650D1*
X1062500Y812400D2*
Y756250D1*
X1006350D2*
X1118650D1*
X350000Y1049900D2*
Y993750D1*
X293850D2*
X406150D1*
X112500Y1010215D2*
Y877285D1*
Y943750D2*
X178965D1*
X215014Y601381D2*
D14*
X660146D1*
X739856D2*
X1022647D1*
X1102358D2*
X1385150D1*
X1464824D2*
X1747651D1*
X1827327D2*
X1935003D1*
X215014Y576512D2*
X643997D1*
X756004D2*
X1006499D1*
X1118505D2*
X1369001D1*
X1481008D2*
X1731467D1*
X1843510D2*
X1935003D1*
X215014Y551644D2*
X641844D1*
X758157D2*
X1004346D1*
X1120659D2*
X1366848D1*
X1483161D2*
X1729350D1*
X1845663D2*
X1935003D1*
X65018Y526775D2*
X651748D1*
X748253D2*
X1014251D1*
X1110755D2*
X1376752D1*
X1473257D2*
X1739255D1*
X1835759D2*
X1935003D1*
X65018Y501906D2*
X1935003D1*
X65018Y477037D2*
X1935003D1*
X65018Y452169D2*
X291327D1*
X408681D2*
X1935003D1*
X65018Y427300D2*
X78462D1*
X146547D2*
X291327D1*
X408681D2*
X1935003D1*
X172348Y402431D2*
X291327D1*
X408681D2*
X1935003D1*
X180924Y377562D2*
X291327D1*
X408681D2*
X1935003D1*
X179525Y352694D2*
X301591D1*
X398417D2*
X1935003D1*
X167432Y327825D2*
X291829D1*
X408178D2*
X1935003D1*
X65018Y302956D2*
X100352D1*
X124657D2*
X294055D1*
X405917D2*
X1935003D1*
X65018Y278087D2*
X310454D1*
X389555D2*
X1935003D1*
X65018Y253219D2*
X1935003D1*
X65018Y228350D2*
X1935003D1*
X214081Y203481D2*
X1785940D1*
X215014Y178612D2*
X1785007D1*
X215014Y153743D2*
X1785007D1*
X215014Y128875D2*
X1785007D1*
X215014Y104006D2*
X1785007D1*
X215014Y79137D2*
X1785007D1*
X178975Y366913D2*
X178366Y359593D1*
X176955Y352384D1*
X174757Y345376D1*
X171799Y338652D1*
X168118Y332296D1*
X163759Y326384D1*
X158773Y320990D1*
X153223Y316178D1*
X147177Y312007D1*
X140707Y308528D1*
X133894Y305785D1*
X126819Y303810D1*
X119570Y302627D1*
X112234Y302250D1*
X104902Y302686D1*
X97661Y303927D1*
X90602Y305959D1*
X83811Y308757D1*
X77370Y312287D1*
X71357Y316506D1*
X65845Y321362D1*
X62496Y324919D1*
X62500Y211259D1*
X201955Y211096D1*
X204783Y210299D1*
X207348Y208863D1*
X209505Y206868D1*
X211138Y204425D1*
X212155Y201669D1*
X212500Y198750D1*
Y61278D1*
X1787480Y61250D1*
X1787654Y200705D1*
X1788451Y203533D1*
X1789887Y206098D1*
X1791882Y208255D1*
X1794325Y209888D1*
X1797081Y210905D1*
X1800000Y211250D1*
X1937472D1*
X1937500Y626238D1*
X1833987Y626250D1*
X1830223Y621335D1*
X1823990Y615102D1*
X1816857Y609919D1*
X1814556Y608631D1*
X1820043Y605200D1*
X1825739Y600565D1*
X1830781Y595225D1*
X1835084Y589274D1*
X1838575Y582813D1*
X1841192Y575951D1*
X1842892Y568806D1*
X1843646Y561502D1*
X1843415Y553897D1*
X1842219Y546650D1*
X1840089Y539623D1*
X1837060Y532932D1*
X1833185Y526695D1*
X1828529Y521015D1*
X1823172Y515991D1*
X1817206Y511709D1*
X1810732Y508242D1*
X1803861Y505649D1*
X1796711Y503974D1*
X1789403Y503247D1*
X1782063Y503478D1*
X1774816Y504665D1*
X1767785Y506787D1*
X1761092Y509808D1*
X1754849Y513677D1*
X1749164Y518325D1*
X1744134Y523677D1*
X1739845Y529637D1*
X1736370Y536107D1*
X1733769Y542974D1*
X1732087Y550124D1*
X1731349Y557430D1*
X1731572Y564771D1*
X1732751Y572019D1*
X1734865Y579052D1*
X1737877Y585750D1*
X1741738Y591997D1*
X1746381Y597687D1*
X1751726Y602724D1*
X1757681Y607019D1*
X1760400Y608611D1*
X1754475Y612371D1*
X1747772Y618096D1*
X1742046Y624800D1*
X1741079Y626247D1*
X1471484Y626250D1*
X1467723Y621335D1*
X1461490Y615102D1*
X1454357Y609919D1*
X1452056Y608631D1*
X1457543Y605200D1*
X1463239Y600565D1*
X1468281Y595225D1*
X1472584Y589274D1*
X1476075Y582813D1*
X1478692Y575951D1*
X1480392Y568806D1*
X1481146Y561502D1*
X1480915Y553897D1*
X1479719Y546650D1*
X1477589Y539623D1*
X1474560Y532932D1*
X1470685Y526695D1*
X1466029Y521015D1*
X1460672Y515991D1*
X1454706Y511709D1*
X1448232Y508242D1*
X1441361Y505649D1*
X1434211Y503974D1*
X1426903Y503247D1*
X1419563Y503478D1*
X1412316Y504665D1*
X1405285Y506787D1*
X1398592Y509808D1*
X1392349Y513677D1*
X1386664Y518325D1*
X1381634Y523677D1*
X1377345Y529637D1*
X1373870Y536107D1*
X1371269Y542974D1*
X1369587Y550124D1*
X1368849Y557430D1*
X1369072Y564771D1*
X1370251Y572019D1*
X1372365Y579052D1*
X1375377Y585750D1*
X1379238Y591997D1*
X1383881Y597687D1*
X1389226Y602724D1*
X1395181Y607019D1*
X1397900Y608611D1*
X1391975Y612371D1*
X1385272Y618096D1*
X1379546Y624800D1*
X1378579Y626247D1*
X1108983Y626250D1*
X1105223Y621335D1*
X1098990Y615102D1*
X1091857Y609919D1*
X1089556Y608631D1*
X1095043Y605200D1*
X1100739Y600565D1*
X1105781Y595225D1*
X1110084Y589274D1*
X1113575Y582813D1*
X1116192Y575951D1*
X1117892Y568806D1*
X1118646Y561502D1*
X1118415Y553897D1*
X1117219Y546650D1*
X1115089Y539623D1*
X1112060Y532932D1*
X1108185Y526695D1*
X1103529Y521015D1*
X1098172Y515991D1*
X1092206Y511709D1*
X1085732Y508242D1*
X1078861Y505649D1*
X1071711Y503974D1*
X1064403Y503247D1*
X1057063Y503478D1*
X1049816Y504665D1*
X1042785Y506787D1*
X1036092Y509808D1*
X1029849Y513677D1*
X1024164Y518325D1*
X1019134Y523677D1*
X1014845Y529637D1*
X1011370Y536107D1*
X1008769Y542974D1*
X1007087Y550124D1*
X1006349Y557430D1*
X1006572Y564771D1*
X1007751Y572019D1*
X1009865Y579052D1*
X1012877Y585750D1*
X1016738Y591997D1*
X1021381Y597687D1*
X1026726Y602724D1*
X1032681Y607019D1*
X1035400Y608611D1*
X1029475Y612371D1*
X1022772Y618096D1*
X1017046Y624800D1*
X1016079Y626247D1*
X746480Y626250D1*
X742723Y621335D1*
X736490Y615102D1*
X729357Y609919D1*
X727056Y608631D1*
X732543Y605200D1*
X738239Y600565D1*
X743281Y595225D1*
X747584Y589274D1*
X751075Y582813D1*
X753692Y575951D1*
X755392Y568806D1*
X756146Y561502D1*
X755915Y553897D1*
X754719Y546650D1*
X752589Y539623D1*
X749560Y532932D1*
X745685Y526695D1*
X741029Y521015D1*
X735672Y515991D1*
X729706Y511709D1*
X723232Y508242D1*
X716361Y505649D1*
X709211Y503974D1*
X701903Y503247D1*
X694563Y503478D1*
X687316Y504665D1*
X680285Y506787D1*
X673592Y509808D1*
X667349Y513677D1*
X661664Y518325D1*
X656634Y523677D1*
X652345Y529637D1*
X648870Y536107D1*
X646269Y542974D1*
X644587Y550124D1*
X643849Y557430D1*
X644072Y564771D1*
X645251Y572019D1*
X647365Y579052D1*
X650377Y585750D1*
X654238Y591997D1*
X658881Y597687D1*
X664226Y602724D1*
X670181Y607019D1*
X672900Y608611D1*
X666975Y612371D1*
X660272Y618096D1*
X654546Y624800D1*
X653579Y626247D1*
X212524Y626250D1*
X212346Y546795D1*
X211549Y543967D1*
X210113Y541402D1*
X208118Y539245D1*
X205675Y537612D1*
X202919Y536595D1*
X200000Y536250D1*
X62528D1*
X62500Y412569D1*
X67958Y418129D1*
X73676Y422741D1*
X79867Y426692D1*
X86457Y429938D1*
X93364Y432438D1*
X100504Y434159D1*
X107791Y435083D1*
X115136Y435198D1*
X122449Y434502D1*
X129639Y433003D1*
X136621Y430721D1*
X143308Y427683D1*
X149621Y423926D1*
X155479Y419495D1*
X160814Y414446D1*
X165558Y408838D1*
X169656Y402742D1*
X173056Y396232D1*
X175718Y389385D1*
X177608Y382287D1*
X178703Y375024D1*
X178975Y366913D1*
X303001Y474935D2*
X406185D1*
Y362565D1*
X387059D1*
X392087Y357547D1*
X396583Y351740D1*
X400282Y345394D1*
X403122Y338623D1*
X405055Y331537D1*
X406047Y324262D1*
X406064Y316653D1*
X405108Y309372D1*
X403207Y302278D1*
X400399Y295493D1*
X396730Y289131D1*
X392262Y283302D1*
X387072Y278107D1*
X381249Y273632D1*
X374892Y269955D1*
X368110Y267138D1*
X361018Y265230D1*
X353738Y264264D1*
X346394Y264255D1*
X339112Y265205D1*
X332016Y267096D1*
X325227Y269896D1*
X318861Y273558D1*
X313028Y278019D1*
X307825Y283203D1*
X303344Y289020D1*
X299659Y295373D1*
X296835Y302153D1*
X294919Y309242D1*
X293944Y316520D1*
X293927Y323864D1*
X294867Y331148D1*
X296749Y338246D1*
X299542Y345039D1*
X303197Y351409D1*
X307651Y357247D1*
X312954Y362562D1*
X293815Y362565D1*
Y474935D1*
X303001D1*
X112500Y435215D2*
D16*
Y302285D1*
Y368750D2*
X178965D1*
X700000Y559400D2*
Y503250D1*
X643850Y559400D2*
X756150D1*
X1425000D2*
Y503250D1*
X1368850Y559400D2*
X1481150D1*
X1787500D2*
Y503250D1*
X1731350Y559400D2*
X1843650D1*
X1062500D2*
Y503250D1*
X1006350Y559400D2*
X1118650D1*
X350000Y320325D2*
Y264175D1*
X293850Y320325D2*
X406150D1*
D18*
X112500Y368750D3*
Y658750D3*
D20*
X700000Y756250D3*
D21*
Y657825D3*
Y559400D3*
D20*
X1425000Y756250D3*
D21*
Y657825D3*
Y559400D3*
D20*
X1787500Y756250D3*
D21*
Y657825D3*
Y559400D3*
D20*
X1062500Y756250D3*
D21*
Y657825D3*
Y559400D3*
D20*
X350000Y993750D3*
D21*
Y895325D3*
D20*
Y418750D3*
D21*
Y320325D3*
D18*
X112500Y943750D3*
M02*
