G04 DipTrace 3.3.1.3*
G04 TopSilk.gbr*
%MOIN*%
G04 #@! TF.FileFunction,Legend,Top*
G04 #@! TF.Part,Single*
%ADD10C,0.009843*%
%ADD17C,0.005*%
%ADD19C,0.049984*%
%ADD22C,0.049984*%
%ADD33C,0.006562*%
%ADD34C,0.012351*%
%ADD35C,0.010936*%
%FSLAX26Y26*%
G04*
G70*
G90*
G75*
G01*
G04 TopSilk*
%LPD*%
X62500Y368750D2*
D10*
G02X62500Y368750I50000J0D01*
G01*
Y658750D2*
G02X62500Y658750I50000J0D01*
G01*
X833858Y892084D2*
X607480D1*
Y423573D1*
X833858D1*
Y892084D1*
D19*
X700001Y982819D3*
X1558858Y892084D2*
D10*
X1332480D1*
Y423573D1*
X1558858D1*
Y892084D1*
D19*
X1425001Y982819D3*
X1921358Y892084D2*
D10*
X1694980D1*
Y423573D1*
X1921358D1*
Y892084D1*
D19*
X1787501Y982819D3*
X1196358Y892084D2*
D10*
X969980D1*
Y423573D1*
X1196358D1*
Y892084D1*
D19*
X1062501Y982819D3*
X483858Y1129583D2*
D10*
X257480D1*
Y759498D1*
X483858D1*
Y1129583D1*
D22*
X350001Y1219534D3*
X483858Y554583D2*
D10*
X257480D1*
Y184498D1*
X483858D1*
Y554583D1*
D22*
X350001Y644534D3*
X62500Y943750D2*
D10*
G02X62500Y943750I50000J0D01*
G01*
X25000Y1218750D2*
D17*
G02X25000Y1218750I75000J0D01*
G01*
X1825000D2*
G02X1825000Y1218750I75000J0D01*
G01*
X25000Y100000D2*
G02X25000Y100000I75000J0D01*
G01*
X1825000D2*
G02X1825000Y100000I75000J0D01*
G01*
X51529Y448560D2*
D33*
X68109D1*
X81233Y463649D2*
X92707Y433505D1*
X104181Y463649D1*
X138826Y456486D2*
X137400Y459338D1*
X134515Y462223D1*
X131663Y463649D1*
X125926D1*
X123041Y462223D1*
X120189Y459338D1*
X118730Y456486D1*
X117304Y452175D1*
Y444979D1*
X118730Y440701D1*
X120189Y437816D1*
X123041Y434964D1*
X125926Y433505D1*
X131663D1*
X134515Y434964D1*
X137400Y437816D1*
X138826Y440701D1*
X173471Y456486D2*
X172045Y459338D1*
X169160Y462223D1*
X166308Y463649D1*
X160571D1*
X157686Y462223D1*
X154834Y459338D1*
X153375Y456486D1*
X151949Y452175D1*
Y444979D1*
X153375Y440701D1*
X154834Y437816D1*
X157686Y434964D1*
X160571Y433505D1*
X166308D1*
X169160Y434964D1*
X172045Y437816D1*
X173471Y440701D1*
X90042Y746486D2*
X88616Y749338D1*
X85731Y752223D1*
X82879Y753649D1*
X77142D1*
X74257Y752223D1*
X71405Y749338D1*
X69946Y746486D1*
X68520Y742175D1*
Y734979D1*
X69946Y730701D1*
X71405Y727816D1*
X74257Y724964D1*
X77142Y723505D1*
X82879D1*
X85731Y724964D1*
X88616Y727816D1*
X90042Y730701D1*
Y734979D1*
X82879D1*
X123261Y753649D2*
Y723505D1*
X103165Y753649D1*
Y723505D1*
X136384Y753649D2*
Y723505D1*
X146432D1*
X150743Y724964D1*
X153628Y727816D1*
X155054Y730701D1*
X156480Y734979D1*
Y742175D1*
X155054Y746486D1*
X153628Y749338D1*
X150743Y752223D1*
X146432Y753649D1*
X136384D1*
X717689Y1052724D2*
Y1029776D1*
X716263Y1025465D1*
X714804Y1024039D1*
X711952Y1022580D1*
X709067D1*
X706215Y1024039D1*
X704789Y1025465D1*
X703330Y1029776D1*
Y1032628D1*
X730812Y1046953D2*
X733698Y1048413D1*
X738009Y1052690D1*
Y1022580D1*
X1436239Y1052724D2*
Y1029776D1*
X1434813Y1025465D1*
X1433354Y1024039D1*
X1430502Y1022580D1*
X1427617D1*
X1424765Y1024039D1*
X1423339Y1025465D1*
X1421880Y1029776D1*
Y1032628D1*
X1450822Y1045528D2*
Y1046953D1*
X1452248Y1049839D1*
X1453674Y1051264D1*
X1456559Y1052690D1*
X1462296D1*
X1465147Y1051264D1*
X1466573Y1049839D1*
X1468033Y1046953D1*
Y1044102D1*
X1466573Y1041216D1*
X1463722Y1036939D1*
X1449362Y1022580D1*
X1469458D1*
X1798739Y1052724D2*
Y1029776D1*
X1797313Y1025465D1*
X1795854Y1024039D1*
X1793002Y1022580D1*
X1790117D1*
X1787265Y1024039D1*
X1785839Y1025465D1*
X1784380Y1029776D1*
Y1032628D1*
X1814748Y1052690D2*
X1830499D1*
X1821910Y1041216D1*
X1826222D1*
X1829073Y1039791D1*
X1830499Y1038365D1*
X1831958Y1034054D1*
Y1031202D1*
X1830499Y1026891D1*
X1827647Y1024006D1*
X1823336Y1022580D1*
X1819025D1*
X1814748Y1024006D1*
X1813322Y1025465D1*
X1811862Y1028317D1*
X1073026Y1052724D2*
Y1029776D1*
X1071600Y1025465D1*
X1070141Y1024039D1*
X1067289Y1022580D1*
X1064404D1*
X1061552Y1024039D1*
X1060126Y1025465D1*
X1058667Y1029776D1*
Y1032628D1*
X1100509Y1022580D2*
Y1052690D1*
X1086150Y1032628D1*
X1107671D1*
X361239Y1289436D2*
Y1266488D1*
X359813Y1262177D1*
X358354Y1260751D1*
X355502Y1259292D1*
X352617D1*
X349765Y1260751D1*
X348339Y1262177D1*
X346880Y1266488D1*
Y1269340D1*
X391573Y1289403D2*
X377248D1*
X375822Y1276503D1*
X377248Y1277929D1*
X381559Y1279388D1*
X385836D1*
X390147Y1277929D1*
X393033Y1275077D1*
X394458Y1270766D1*
Y1267914D1*
X393033Y1263603D1*
X390147Y1260718D1*
X385836Y1259292D1*
X381559D1*
X377248Y1260718D1*
X375822Y1262177D1*
X374362Y1265029D1*
X361969Y714436D2*
Y691488D1*
X360543Y687177D1*
X359084Y685751D1*
X356232Y684292D1*
X353347D1*
X350495Y685751D1*
X349069Y687177D1*
X347610Y691488D1*
Y694340D1*
X392303Y710125D2*
X390877Y712977D1*
X386566Y714403D1*
X383714D1*
X379403Y712977D1*
X376518Y708666D1*
X375092Y701503D1*
Y694340D1*
X376518Y688603D1*
X379403Y685718D1*
X383714Y684292D1*
X385140D1*
X389418Y685718D1*
X392303Y688603D1*
X393729Y692914D1*
Y694340D1*
X392303Y698651D1*
X389418Y701503D1*
X385140Y702929D1*
X383714D1*
X379403Y701503D1*
X376518Y698651D1*
X375092Y694340D1*
X66381Y1038649D2*
X77855Y1008505D1*
X89329Y1038649D1*
X123974Y1031486D2*
X122548Y1034338D1*
X119663Y1037223D1*
X116811Y1038649D1*
X111074D1*
X108189Y1037223D1*
X105337Y1034338D1*
X103878Y1031486D1*
X102452Y1027175D1*
Y1019979D1*
X103878Y1015701D1*
X105337Y1012816D1*
X108189Y1009964D1*
X111074Y1008505D1*
X116811D1*
X119663Y1009964D1*
X122548Y1012816D1*
X123974Y1015701D1*
X158619Y1031486D2*
X157193Y1034338D1*
X154308Y1037223D1*
X151456Y1038649D1*
X145719D1*
X142834Y1037223D1*
X139982Y1034338D1*
X138523Y1031486D1*
X137097Y1027175D1*
Y1019979D1*
X138523Y1015701D1*
X139982Y1012816D1*
X142834Y1009964D1*
X145719Y1008505D1*
X151456D1*
X154308Y1009964D1*
X157193Y1012816D1*
X158619Y1015701D1*
X474187Y1241980D2*
D34*
Y1173092D1*
X439787Y1207492D2*
X508675D1*
X533378Y1247772D2*
X563975Y1167388D1*
X594572Y1247772D1*
X437500Y120056D2*
X481715D1*
X506418Y160292D2*
X537015Y79908D1*
X567613Y160292D1*
X673694Y304908D2*
Y385292D1*
X643097Y304908D1*
X612500Y385292D1*
Y304908D1*
X725192Y385292D2*
Y304908D1*
X698397Y385292D2*
X751986D1*
X776689Y347001D2*
X811089D1*
X822585Y350892D1*
X826476Y354695D1*
X830279Y362300D1*
Y369993D1*
X826476Y377598D1*
X822585Y381489D1*
X811089Y385292D1*
X776689D1*
Y304908D1*
X803484Y347001D2*
X830279Y304908D1*
X1039295Y385292D2*
Y304908D1*
X1012500Y385292D2*
X1066089D1*
X1090792D2*
X1144381Y304908D1*
Y385292D2*
X1090792Y304908D1*
X1325000Y347001D2*
X1359400D1*
X1370896Y350892D1*
X1374787Y354695D1*
X1378589Y362300D1*
Y369993D1*
X1374787Y377598D1*
X1370896Y381489D1*
X1359400Y385292D1*
X1325000D1*
Y304908D1*
X1351795Y347001D2*
X1378589Y304908D1*
X1403292Y385292D2*
X1456881Y304908D1*
Y385292D2*
X1403292Y304908D1*
X1481584Y345056D2*
X1525800D1*
X1550503Y385292D2*
Y304908D1*
X1596398D1*
X1675000Y347001D2*
X1709400D1*
X1720896Y350892D1*
X1724787Y354695D1*
X1728589Y362300D1*
Y369993D1*
X1724787Y377598D1*
X1720896Y381489D1*
X1709400Y385292D1*
X1675000D1*
Y304908D1*
X1701795Y347001D2*
X1728589Y304908D1*
X1753292Y385292D2*
X1806881Y304908D1*
Y385292D2*
X1753292Y304908D1*
X1831584Y345056D2*
X1875800D1*
X1900503Y347001D2*
X1934902D1*
X1946398Y350892D1*
X1950289Y354695D1*
X1954092Y362300D1*
Y369993D1*
X1950289Y377598D1*
X1946398Y381489D1*
X1934902Y385292D1*
X1900503D1*
Y304908D1*
X1927297Y347001D2*
X1954092Y304908D1*
X682028Y1202980D2*
D35*
X703584D1*
X710713Y1205356D1*
X713145Y1207788D1*
X715522Y1212541D1*
Y1219726D1*
X713145Y1224480D1*
X710713Y1226911D1*
X703584Y1229288D1*
X682028D1*
Y1179048D1*
X749332Y1212541D2*
X744579Y1210165D1*
X739771Y1205356D1*
X737394Y1198171D1*
Y1193418D1*
X739771Y1186233D1*
X744579Y1181480D1*
X749332Y1179048D1*
X756517D1*
X761326Y1181480D1*
X766079Y1186233D1*
X768511Y1193418D1*
Y1198171D1*
X766079Y1205356D1*
X761326Y1210165D1*
X756517Y1212541D1*
X749332D1*
X790383D2*
X799945Y1179048D1*
X809506Y1212541D1*
X819068Y1179048D1*
X828630Y1212541D1*
X850502Y1198171D2*
X879187D1*
Y1202980D1*
X876810Y1207788D1*
X874434Y1210165D1*
X869625Y1212541D1*
X862440D1*
X857687Y1210165D1*
X852878Y1205356D1*
X850502Y1198171D1*
Y1193418D1*
X852878Y1186233D1*
X857687Y1181480D1*
X862440Y1179048D1*
X869625D1*
X874434Y1181480D1*
X879187Y1186233D1*
X901059Y1212541D2*
Y1179048D1*
Y1198171D2*
X903491Y1205356D1*
X908244Y1210165D1*
X913052Y1212541D1*
X920238D1*
X997144Y1229288D2*
Y1179048D1*
X1013890D1*
X1021075Y1181480D1*
X1025884Y1186233D1*
X1028261Y1191042D1*
X1030637Y1198171D1*
Y1210165D1*
X1028261Y1217350D1*
X1025884Y1222103D1*
X1021075Y1226911D1*
X1013890Y1229288D1*
X997144D1*
X1052509D2*
X1054886Y1226911D1*
X1057318Y1229288D1*
X1054886Y1231720D1*
X1052509Y1229288D1*
X1054886Y1212541D2*
Y1179048D1*
X1105498Y1205356D2*
X1103122Y1210165D1*
X1095937Y1212541D1*
X1088752D1*
X1081567Y1210165D1*
X1079190Y1205356D1*
X1081567Y1200603D1*
X1086375Y1198171D1*
X1098313Y1195795D1*
X1103122Y1193418D1*
X1105498Y1188610D1*
Y1186233D1*
X1103122Y1181480D1*
X1095937Y1179048D1*
X1088752D1*
X1081567Y1181480D1*
X1079190Y1186233D1*
X1134556Y1229288D2*
Y1188610D1*
X1136932Y1181480D1*
X1141741Y1179048D1*
X1146494D1*
X1127371Y1212541D2*
X1144117D1*
X1168366D2*
Y1179048D1*
Y1198171D2*
X1170798Y1205356D1*
X1175551Y1210165D1*
X1180360Y1212541D1*
X1187545D1*
X1209417Y1229288D2*
X1211794Y1226911D1*
X1214225Y1229288D1*
X1211794Y1231720D1*
X1209417Y1229288D1*
X1211794Y1212541D2*
Y1179048D1*
X1236098Y1229288D2*
Y1179048D1*
Y1205356D2*
X1240906Y1210165D1*
X1245659Y1212541D1*
X1252844D1*
X1257598Y1210165D1*
X1262406Y1205356D1*
X1264783Y1198171D1*
Y1193418D1*
X1262406Y1186233D1*
X1257598Y1181480D1*
X1252844Y1179048D1*
X1245659D1*
X1240906Y1181480D1*
X1236098Y1186233D1*
X1286655Y1212541D2*
Y1188610D1*
X1289031Y1181480D1*
X1293840Y1179048D1*
X1301025D1*
X1305778Y1181480D1*
X1312963Y1188610D1*
Y1212541D2*
Y1179048D1*
X1342020Y1229288D2*
Y1188610D1*
X1344397Y1181480D1*
X1349205Y1179048D1*
X1353959D1*
X1334835Y1212541D2*
X1351582D1*
X1375831Y1229288D2*
X1378208Y1226911D1*
X1380639Y1229288D1*
X1378208Y1231720D1*
X1375831Y1229288D1*
X1378208Y1212541D2*
Y1179048D1*
X1414450Y1212541D2*
X1409697Y1210165D1*
X1404888Y1205356D1*
X1402512Y1198171D1*
Y1193418D1*
X1404888Y1186233D1*
X1409697Y1181480D1*
X1414450Y1179048D1*
X1421635D1*
X1426443Y1181480D1*
X1431197Y1186233D1*
X1433628Y1193418D1*
Y1198171D1*
X1431197Y1205356D1*
X1426443Y1210165D1*
X1421635Y1212541D1*
X1414450D1*
X1455501D2*
Y1179048D1*
Y1202980D2*
X1462686Y1210165D1*
X1467494Y1212541D1*
X1474624D1*
X1479432Y1210165D1*
X1481809Y1202980D1*
Y1179048D1*
X1558715Y1229288D2*
Y1179048D1*
X1580270D1*
X1587455Y1181480D1*
X1589832Y1183856D1*
X1592209Y1188610D1*
Y1195795D1*
X1589832Y1200603D1*
X1587455Y1202980D1*
X1580270Y1205356D1*
X1587455Y1207788D1*
X1589832Y1210165D1*
X1592209Y1214918D1*
Y1219726D1*
X1589832Y1224480D1*
X1587455Y1226911D1*
X1580270Y1229288D1*
X1558715D1*
Y1205356D2*
X1580270D1*
X1626019Y1212541D2*
X1621266Y1210165D1*
X1616457Y1205356D1*
X1614081Y1198171D1*
Y1193418D1*
X1616457Y1186233D1*
X1621266Y1181480D1*
X1626019Y1179048D1*
X1633204D1*
X1638013Y1181480D1*
X1642766Y1186233D1*
X1645198Y1193418D1*
Y1198171D1*
X1642766Y1205356D1*
X1638013Y1210165D1*
X1633204Y1212541D1*
X1626019D1*
X1695755D2*
Y1179048D1*
Y1205356D2*
X1691002Y1210165D1*
X1686193Y1212541D1*
X1679063D1*
X1674255Y1210165D1*
X1669502Y1205356D1*
X1667070Y1198171D1*
Y1193418D1*
X1669502Y1186233D1*
X1674255Y1181480D1*
X1679063Y1179048D1*
X1686193D1*
X1691002Y1181480D1*
X1695755Y1186233D1*
X1717627Y1212541D2*
Y1179048D1*
Y1198171D2*
X1720059Y1205356D1*
X1724812Y1210165D1*
X1729620Y1212541D1*
X1736806D1*
X1787363Y1229288D2*
Y1179048D1*
Y1205356D2*
X1782609Y1210165D1*
X1777801Y1212541D1*
X1770616D1*
X1765863Y1210165D1*
X1761054Y1205356D1*
X1758678Y1198171D1*
Y1193418D1*
X1761054Y1186233D1*
X1765863Y1181480D1*
X1770616Y1179048D1*
X1777801D1*
X1782609Y1181480D1*
X1787363Y1186233D1*
M02*
