G04 DipTrace 3.3.1.3*
G04 Bottom.gbr*
%MOIN*%
G04 #@! TF.FileFunction,Copper,L2,Bot*
G04 #@! TF.Part,Single*
G04 #@! TA.AperFunction,ViaPad*
%ADD15C,0.03*%
G04 #@! TA.AperFunction,CopperBalancing*
%ADD16C,0.013*%
%ADD17C,0.025*%
G04 #@! TA.AperFunction,ComponentPad*
%ADD19C,0.08*%
%ADD22R,0.05X0.06*%
%ADD23R,0.059055X0.051181*%
G04 #@! TA.AperFunction,ComponentPad*
%ADD27R,0.05937X0.05937*%
%ADD28C,0.05937*%
G04 #@! TA.AperFunction,ViaPad*
%ADD35C,0.05*%
%FSLAX26Y26*%
G04*
G70*
G90*
G75*
G01*
G04 Bottom*
%LPD*%
X375000Y575000D2*
D15*
Y600000D1*
X437402Y662402D1*
X500000D1*
X700000D1*
X787402D1*
X825000Y700000D1*
X900000D1*
X1050000D1*
X1225000Y525000D1*
X1325000D1*
X1500000Y350000D1*
X1575000D1*
X1650000D1*
X1700000Y400000D1*
Y450000D1*
X162500Y650000D2*
X262500Y550000D1*
X350000D1*
X375000Y575000D1*
Y378150D2*
X440551Y312598D1*
X500000D1*
X700000D1*
Y300000D1*
X815000Y185000D1*
X900000D1*
X1035000D1*
X1110000Y260000D1*
X1225000D1*
X162500Y300000D2*
X212500Y350000D1*
X346850D1*
X375000Y378150D1*
X1225000Y260000D2*
X1310000D1*
X1325000Y275000D1*
X1825000Y425000D2*
D16*
Y475000D1*
X1775000Y525000D1*
D35*
X1325000Y275000D3*
Y350000D3*
X1700000Y450000D3*
Y275000D3*
D15*
X1775000Y525000D3*
X1825000Y425000D3*
D35*
X2300000Y275000D3*
X215014Y862631D2*
D17*
X2634995D1*
X215014Y837762D2*
X2634995D1*
X215014Y812894D2*
X1100911D1*
X1149115D2*
X1425913D1*
X1474118D2*
X2175894D1*
X2224097D2*
X2634995D1*
X215014Y788025D2*
X1067933D1*
X1182056D2*
X1392936D1*
X1507060D2*
X2142951D1*
X2257039D2*
X2634995D1*
X215014Y763156D2*
X1057311D1*
X1192678D2*
X1382315D1*
X1517681D2*
X2132329D1*
X2267697D2*
X2634995D1*
X206869Y738287D2*
X806480D1*
X1192966D2*
X1382028D1*
X1517969D2*
X2132042D1*
X2267948D2*
X2643142D1*
X65018Y713419D2*
X140004D1*
X185014D2*
X441467D1*
X558533D2*
X641486D1*
X758516D2*
X777235D1*
X1183026D2*
X1391967D1*
X1508029D2*
X2141983D1*
X2258045D2*
X2784991D1*
X65018Y688550D2*
X105806D1*
X219176D2*
X402353D1*
X1152919D2*
X1422073D1*
X1477921D2*
X2172089D1*
X2227902D2*
X2784991D1*
X65018Y663681D2*
X94933D1*
X230085D2*
X377486D1*
X1147500D2*
X2784991D1*
X65018Y638812D2*
X94430D1*
X234894D2*
X352618D1*
X825009D2*
X845990D1*
X954013D2*
X1049991D1*
X1172367D2*
X2784991D1*
X65018Y613944D2*
X104119D1*
X259761D2*
X316303D1*
X558533D2*
X641486D1*
X758516D2*
X845990D1*
X954013D2*
X1074858D1*
X1197236D2*
X2784991D1*
X65018Y589075D2*
X133329D1*
X433692D2*
X441442D1*
X558533D2*
X641486D1*
X758516D2*
X845990D1*
X954013D2*
X1099726D1*
X1222104D2*
X2784991D1*
X65018Y564206D2*
X187119D1*
X433692D2*
X441442D1*
X558533D2*
X641486D1*
X758516D2*
X845990D1*
X954013D2*
X1124594D1*
X1341096D2*
X1758883D1*
X1791119D2*
X2591324D1*
X2708677D2*
X2784991D1*
X65018Y539337D2*
X143161D1*
X181822D2*
X211987D1*
X433692D2*
X441442D1*
X558533D2*
X641486D1*
X758516D2*
X841324D1*
X958677D2*
X1149462D1*
X1371848D2*
X1733549D1*
X1816453D2*
X2591324D1*
X2708677D2*
X2784991D1*
X65018Y514469D2*
X106488D1*
X218530D2*
X238542D1*
X418979D2*
X841324D1*
X958677D2*
X1174329D1*
X1396717D2*
X1732365D1*
X1834718D2*
X2591324D1*
X2708677D2*
X2784991D1*
X65018Y489600D2*
X95113D1*
X229870D2*
X317846D1*
X432150D2*
X841324D1*
X958677D2*
X1200848D1*
X1421584D2*
X1664579D1*
X1735427D2*
X1750845D1*
X1857110D2*
X2591324D1*
X2708677D2*
X2784991D1*
X65018Y464731D2*
X94287D1*
X230696D2*
X317594D1*
X432436D2*
X841324D1*
X958677D2*
X1324075D1*
X1446451D2*
X1648144D1*
X1751862D2*
X1786083D1*
X1860483D2*
X2606252D1*
X2693749D2*
X2784991D1*
X65018Y439862D2*
X103546D1*
X221472D2*
X329975D1*
X420020D2*
X856396D1*
X943606D2*
X1348942D1*
X1471319D2*
X1646996D1*
X1753010D2*
X1783751D1*
X1866261D2*
X2592903D1*
X2707098D2*
X2784991D1*
X65018Y414993D2*
X131356D1*
X193663D2*
X330083D1*
X419912D2*
X441467D1*
X558533D2*
X641486D1*
X758516D2*
X842940D1*
X957063D2*
X1373810D1*
X1496186D2*
X1653814D1*
X1744003D2*
X1782207D1*
X1867768D2*
X2592508D1*
X2707493D2*
X2784991D1*
X65018Y390125D2*
X199392D1*
X432400D2*
X441467D1*
X558533D2*
X641486D1*
X758516D2*
X842508D1*
X957493D2*
X1170992D1*
X1279016D2*
X1398677D1*
X1742819D2*
X1800007D1*
X1850005D2*
X2604745D1*
X2695257D2*
X2784991D1*
X65018Y365256D2*
X147181D1*
X558533D2*
X641486D1*
X758516D2*
X854638D1*
X945365D2*
X1170992D1*
X1279016D2*
X1423545D1*
X1726455D2*
X2784991D1*
X65018Y340387D2*
X107169D1*
X758516D2*
X1170992D1*
X1279016D2*
X1448413D1*
X1701588D2*
X2784991D1*
X65018Y315518D2*
X95328D1*
X758516D2*
X845990D1*
X954013D2*
X1170992D1*
X1279016D2*
X1290739D1*
X1359289D2*
X1474394D1*
X1675608D2*
X2784991D1*
X65018Y290650D2*
X94144D1*
X230839D2*
X401312D1*
X770537D2*
X845990D1*
X954013D2*
X1079524D1*
X1376549D2*
X1521007D1*
X1628995D2*
X2784991D1*
X65018Y265781D2*
X102971D1*
X222012D2*
X441467D1*
X558533D2*
X641486D1*
X795404D2*
X845990D1*
X954013D2*
X1054584D1*
X1378164D2*
X1521007D1*
X1628995D2*
X2784991D1*
X65018Y240912D2*
X129490D1*
X195493D2*
X697895D1*
X820273D2*
X845990D1*
X954013D2*
X1029717D1*
X1366106D2*
X1521007D1*
X1628995D2*
X2784991D1*
X65018Y216043D2*
X722762D1*
X1127226D2*
X1170992D1*
X1279016D2*
X1521007D1*
X1628995D2*
X2784991D1*
X215014Y191175D2*
X747631D1*
X1102358D2*
X2634995D1*
X215014Y166306D2*
X772499D1*
X1077491D2*
X2634995D1*
X215014Y141437D2*
X845990D1*
X954013D2*
X2634995D1*
X215014Y116568D2*
X2634995D1*
X215014Y91699D2*
X2634995D1*
X215014Y66831D2*
X2634995D1*
X228795Y294782D2*
X227163Y284476D1*
X223938Y274551D1*
X219201Y265253D1*
X213067Y256812D1*
X205688Y249433D1*
X197247Y243299D1*
X187949Y238562D1*
X178024Y235337D1*
X167718Y233705D1*
X157282D1*
X146976Y235337D1*
X137051Y238562D1*
X127753Y243299D1*
X119312Y249433D1*
X111933Y256812D1*
X105799Y265253D1*
X101062Y274551D1*
X97837Y284476D1*
X96205Y294782D1*
Y305218D1*
X97837Y315524D1*
X101062Y325449D1*
X105799Y334747D1*
X111933Y343188D1*
X119312Y350567D1*
X127753Y356701D1*
X137051Y361438D1*
X146976Y364663D1*
X157282Y366295D1*
X167718D1*
X169844Y366043D1*
X185547Y381556D1*
X190816Y385385D1*
X196618Y388341D1*
X202812Y390353D1*
X209244Y391373D1*
X249245Y391500D1*
X320404D1*
X323092Y399651D1*
X327094Y407507D1*
X332277Y414639D1*
X338510Y420873D1*
X345643Y426055D1*
X347944Y427344D1*
X342349Y430852D1*
X336664Y435500D1*
X331634Y440852D1*
X327345Y446812D1*
X323870Y453282D1*
X321269Y460150D1*
X319587Y467299D1*
X318849Y474605D1*
X319072Y481946D1*
X320251Y489194D1*
X322365Y496227D1*
X325377Y502925D1*
X328778Y508504D1*
X259244Y508627D1*
X252812Y509647D1*
X246618Y511659D1*
X240816Y514615D1*
X235547Y518444D1*
X207172Y546638D1*
X169898Y583912D1*
X162500Y583500D1*
X152097Y584319D1*
X141950Y586755D1*
X132310Y590748D1*
X123412Y596201D1*
X115478Y602978D1*
X108701Y610912D1*
X103248Y619810D1*
X99255Y629450D1*
X96819Y639597D1*
X96000Y650000D1*
X96819Y660403D1*
X99255Y670550D1*
X103248Y680190D1*
X108701Y689088D1*
X115478Y697022D1*
X123412Y703799D1*
X132310Y709252D1*
X141950Y713245D1*
X152097Y715681D1*
X162500Y716500D1*
X172903Y715681D1*
X183050Y713245D1*
X192690Y709252D1*
X201588Y703799D1*
X209522Y697022D1*
X216299Y689088D1*
X221752Y680190D1*
X225745Y670550D1*
X228181Y660403D1*
X229000Y650000D1*
X228543Y642656D1*
X279715Y591475D1*
X318802Y591500D1*
X318815Y631185D1*
X347487D1*
X410450Y693958D1*
X415718Y697786D1*
X421520Y700743D1*
X427714Y702755D1*
X434146Y703774D1*
X443969Y703902D1*
X443972Y714492D1*
X556028D1*
Y703907D1*
X644003Y703902D1*
X643972Y714492D1*
X756028D1*
Y703907D1*
X770226Y703902D1*
X798047Y731556D1*
X803316Y735385D1*
X809118Y738341D1*
X815312Y740353D1*
X821744Y741373D1*
X848504Y741500D1*
X848500Y756500D1*
X951500D1*
Y741465D1*
X1053256Y741373D1*
X1056504Y740987D1*
X1058705Y744782D1*
Y755218D1*
X1060337Y765524D1*
X1063562Y775449D1*
X1068299Y784747D1*
X1074433Y793188D1*
X1081812Y800567D1*
X1090253Y806701D1*
X1099551Y811438D1*
X1109476Y814663D1*
X1119782Y816295D1*
X1130218D1*
X1140524Y814663D1*
X1150449Y811438D1*
X1159747Y806701D1*
X1168188Y800567D1*
X1175567Y793188D1*
X1181701Y784747D1*
X1186438Y775449D1*
X1189663Y765524D1*
X1191295Y755218D1*
Y744782D1*
X1189663Y734476D1*
X1186438Y724551D1*
X1181701Y715253D1*
X1175567Y706812D1*
X1168188Y699433D1*
X1159747Y693299D1*
X1150449Y688562D1*
X1140524Y685337D1*
X1130218Y683705D1*
X1125184Y683507D1*
X1242169Y566520D1*
X1328256Y566373D1*
X1334688Y565353D1*
X1340882Y563341D1*
X1346684Y560385D1*
X1351953Y556556D1*
X1380328Y528362D1*
X1517169Y391520D1*
X1523504Y391500D1*
X1523500Y406500D1*
X1626500D1*
Y391465D1*
X1632810Y391500D1*
X1658488Y417177D1*
X1658336Y419730D1*
X1654113Y426619D1*
X1651021Y434085D1*
X1649134Y441944D1*
X1648500Y450000D1*
X1649134Y458056D1*
X1651021Y465915D1*
X1654113Y473381D1*
X1658336Y480270D1*
X1663584Y486416D1*
X1669730Y491664D1*
X1676619Y495887D1*
X1684085Y498979D1*
X1691944Y500866D1*
X1700000Y501500D1*
X1708056Y500866D1*
X1715915Y498979D1*
X1723381Y495887D1*
X1730270Y491664D1*
X1736416Y486416D1*
X1741664Y480270D1*
X1745887Y473381D1*
X1748979Y465915D1*
X1750866Y458056D1*
X1751500Y450000D1*
X1750866Y441944D1*
X1748979Y434085D1*
X1745887Y426619D1*
X1741499Y419518D1*
X1741373Y396744D1*
X1740353Y390312D1*
X1738341Y384118D1*
X1735385Y378316D1*
X1731556Y373047D1*
X1703362Y344672D1*
X1676953Y318444D1*
X1671684Y314615D1*
X1665882Y311659D1*
X1659688Y309647D1*
X1653256Y308627D1*
X1626496Y308500D1*
X1626500Y203500D1*
X1523500D1*
Y308535D1*
X1496744Y308627D1*
X1490312Y309647D1*
X1484118Y311659D1*
X1478316Y314615D1*
X1473047Y318444D1*
X1444672Y346638D1*
X1307831Y483480D1*
X1221744Y483627D1*
X1215312Y484647D1*
X1209118Y486659D1*
X1203316Y489615D1*
X1198047Y493444D1*
X1169672Y521638D1*
X1032831Y658480D1*
X951497Y658500D1*
X951500Y556185D1*
X956185D1*
Y443815D1*
X937059D1*
X942087Y438797D1*
X946583Y432990D1*
X950282Y426644D1*
X953122Y419873D1*
X955055Y412787D1*
X956047Y405512D1*
X956064Y397903D1*
X955108Y390622D1*
X953207Y383528D1*
X950399Y376743D1*
X946730Y370381D1*
X942262Y364552D1*
X937072Y359357D1*
X931249Y354882D1*
X924892Y351205D1*
X918110Y348388D1*
X911018Y346480D1*
X903738Y345514D1*
X896394Y345505D1*
X889112Y346455D1*
X882016Y348346D1*
X875227Y351146D1*
X868861Y354808D1*
X863028Y359269D1*
X857825Y364453D1*
X853344Y370270D1*
X849659Y376623D1*
X846835Y383403D1*
X844919Y390492D1*
X843944Y397770D1*
X843927Y405114D1*
X844867Y412398D1*
X846749Y419496D1*
X849542Y426289D1*
X853197Y432659D1*
X857651Y438497D1*
X862954Y443812D1*
X843815Y443815D1*
Y556185D1*
X848516D1*
X848500Y658535D1*
X842190Y658500D1*
X814354Y630845D1*
X809085Y627017D1*
X803283Y624060D1*
X797089Y622049D1*
X790657Y621029D1*
X756003Y620902D1*
X756028Y535508D1*
X643972D1*
Y620896D1*
X555997Y620902D1*
X556028Y535508D1*
X443972D1*
Y610283D1*
X431198Y597508D1*
X431185Y518815D1*
X412059D1*
X417087Y513797D1*
X421583Y507990D1*
X425282Y501644D1*
X428122Y494873D1*
X430055Y487787D1*
X431047Y480512D1*
X431064Y472903D1*
X430108Y465622D1*
X428207Y458528D1*
X425399Y451743D1*
X421730Y445381D1*
X417262Y439552D1*
X412072Y434357D1*
X406249Y429882D1*
X402096Y427364D1*
X408025Y423604D1*
X414728Y417878D1*
X420454Y411175D1*
X425062Y403657D1*
X428436Y395512D1*
X430493Y386938D1*
X431083Y380749D1*
X443954Y367886D1*
X443972Y439492D1*
X556028D1*
Y354102D1*
X644003Y354098D1*
X643972Y439492D1*
X756028D1*
Y302646D1*
X832173Y226517D1*
X848480Y226500D1*
X848500Y331500D1*
X951500D1*
Y226465D1*
X1017808Y226500D1*
X1083047Y291556D1*
X1088316Y295385D1*
X1094118Y298341D1*
X1100312Y300353D1*
X1106744Y301373D1*
X1146745Y301500D1*
X1173479D1*
X1173500Y406500D1*
X1276500D1*
Y301465D1*
X1280871Y301500D1*
X1283336Y305270D1*
X1288584Y311416D1*
X1294730Y316664D1*
X1301619Y320887D1*
X1309085Y323979D1*
X1316944Y325866D1*
X1325000Y326500D1*
X1333056Y325866D1*
X1340915Y323979D1*
X1348381Y320887D1*
X1355270Y316664D1*
X1361416Y311416D1*
X1366664Y305270D1*
X1370887Y298381D1*
X1373979Y290915D1*
X1375866Y283056D1*
X1376500Y275000D1*
X1375866Y266944D1*
X1373979Y259085D1*
X1370887Y251619D1*
X1366664Y244730D1*
X1361416Y238584D1*
X1355270Y233336D1*
X1348381Y229113D1*
X1340915Y226021D1*
X1333056Y224134D1*
X1330311Y223810D1*
X1325882Y221659D1*
X1319688Y219647D1*
X1313256Y218627D1*
X1276520Y218500D1*
X1276500Y203500D1*
X1173500D1*
Y218535D1*
X1127215Y218500D1*
X1061953Y153444D1*
X1056684Y149615D1*
X1050882Y146659D1*
X1044688Y144647D1*
X1038256Y143627D1*
X998255Y143500D1*
X951497D1*
X951500Y128500D1*
X848500D1*
Y143535D1*
X811744Y143627D1*
X805312Y144647D1*
X799118Y146659D1*
X793316Y149615D1*
X788049Y153444D1*
X759672Y181638D1*
X680785Y260526D1*
X643972Y260508D1*
Y271093D1*
X555997Y271098D1*
X556028Y260508D1*
X443972D1*
Y271093D1*
X437295Y271226D1*
X430864Y272245D1*
X424669Y274257D1*
X418867Y277214D1*
X413598Y281042D1*
X385223Y309236D1*
X374997Y319462D1*
X368534Y314615D1*
X362732Y311659D1*
X356538Y309647D1*
X350106Y308627D1*
X310105Y308500D1*
X229689D1*
X228575Y307385D1*
X229000Y300000D1*
X228795Y294782D1*
X2266295Y744782D2*
X2264663Y734476D1*
X2261438Y724551D1*
X2256701Y715253D1*
X2250567Y706812D1*
X2243188Y699433D1*
X2234747Y693299D1*
X2225449Y688562D1*
X2215524Y685337D1*
X2205218Y683705D1*
X2194782D1*
X2184476Y685337D1*
X2174551Y688562D1*
X2165253Y693299D1*
X2156812Y699433D1*
X2149433Y706812D1*
X2143299Y715253D1*
X2138562Y724551D1*
X2135337Y734476D1*
X2133705Y744782D1*
Y755218D1*
X2135337Y765524D1*
X2138562Y775449D1*
X2143299Y784747D1*
X2149433Y793188D1*
X2156812Y800567D1*
X2165253Y806701D1*
X2174551Y811438D1*
X2184476Y814663D1*
X2194782Y816295D1*
X2205218D1*
X2215524Y814663D1*
X2225449Y811438D1*
X2234747Y806701D1*
X2243188Y800567D1*
X2250567Y793188D1*
X2256701Y784747D1*
X2261438Y775449D1*
X2264663Y765524D1*
X2266295Y755218D1*
Y744782D1*
X1516295D2*
X1514663Y734476D1*
X1511438Y724551D1*
X1506701Y715253D1*
X1500567Y706812D1*
X1493188Y699433D1*
X1484747Y693299D1*
X1475449Y688562D1*
X1465524Y685337D1*
X1455218Y683705D1*
X1444782D1*
X1434476Y685337D1*
X1424551Y688562D1*
X1415253Y693299D1*
X1406812Y699433D1*
X1399433Y706812D1*
X1393299Y715253D1*
X1388562Y724551D1*
X1385337Y734476D1*
X1383705Y744782D1*
Y755218D1*
X1385337Y765524D1*
X1388562Y775449D1*
X1393299Y784747D1*
X1399433Y793188D1*
X1406812Y800567D1*
X1415253Y806701D1*
X1424551Y811438D1*
X1434476Y814663D1*
X1444782Y816295D1*
X1455218D1*
X1465524Y814663D1*
X1475449Y811438D1*
X1484747Y806701D1*
X1493188Y800567D1*
X1500567Y793188D1*
X1506701Y784747D1*
X1511438Y775449D1*
X1514663Y765524D1*
X1516295Y755218D1*
Y744782D1*
X228975Y473163D2*
X228366Y465843D1*
X226955Y458634D1*
X224757Y451626D1*
X221799Y444902D1*
X218118Y438546D1*
X213759Y432634D1*
X208773Y427240D1*
X203223Y422428D1*
X197177Y418257D1*
X190707Y414778D1*
X183894Y412035D1*
X176819Y410060D1*
X169570Y408877D1*
X162234Y408500D1*
X154902Y408936D1*
X147661Y410177D1*
X140602Y412209D1*
X133811Y415007D1*
X127370Y418537D1*
X121357Y422756D1*
X115845Y427612D1*
X110904Y433046D1*
X106592Y438992D1*
X102962Y445378D1*
X100058Y452126D1*
X97916Y459151D1*
X96562Y466371D1*
X96013Y473696D1*
X96274Y481037D1*
X97344Y488303D1*
X99209Y495408D1*
X101846Y502264D1*
X105223Y508787D1*
X109298Y514898D1*
X114024Y520522D1*
X119340Y525591D1*
X125182Y530042D1*
X131480Y533822D1*
X138157Y536885D1*
X145130Y539192D1*
X152316Y540715D1*
X159626Y541438D1*
X166971Y541349D1*
X174261Y540451D1*
X181408Y538756D1*
X188324Y536281D1*
X194925Y533059D1*
X201130Y529129D1*
X206865Y524538D1*
X212058Y519344D1*
X216646Y513608D1*
X220573Y507400D1*
X223793Y500798D1*
X226264Y493881D1*
X227957Y486734D1*
X228852Y479442D1*
X228975Y473163D1*
X2603001Y581185D2*
X2706185D1*
Y468815D1*
X2687059D1*
X2692723Y463064D1*
X2697906Y455932D1*
X2701908Y448076D1*
X2704633Y439690D1*
X2706012Y430983D1*
Y422167D1*
X2704633Y413459D1*
X2701908Y405073D1*
X2697906Y397218D1*
X2692723Y390085D1*
X2686490Y383852D1*
X2679357Y378669D1*
X2671501Y374667D1*
X2663115Y371942D1*
X2654408Y370563D1*
X2645592D1*
X2636885Y371942D1*
X2628499Y374667D1*
X2620643Y378669D1*
X2613510Y383852D1*
X2607277Y390085D1*
X2602094Y397218D1*
X2598092Y405073D1*
X2595367Y413459D1*
X2593988Y422167D1*
Y430983D1*
X2595367Y439690D1*
X2598092Y448076D1*
X2602094Y455932D1*
X2607277Y463064D1*
X2612992Y468819D1*
X2593815Y468815D1*
Y581185D1*
X2603001D1*
X1769430Y483902D2*
X1765312Y484647D1*
X1759118Y486659D1*
X1753316Y489615D1*
X1748049Y493444D1*
X1743444Y498049D1*
X1739615Y503316D1*
X1736659Y509118D1*
X1734647Y515312D1*
X1733627Y521744D1*
Y528256D1*
X1734647Y534688D1*
X1736659Y540882D1*
X1739615Y546684D1*
X1743444Y551951D1*
X1748049Y556556D1*
X1753316Y560385D1*
X1759118Y563341D1*
X1765312Y565353D1*
X1771744Y566373D1*
X1778256D1*
X1784688Y565353D1*
X1790882Y563341D1*
X1796684Y560385D1*
X1801951Y556556D1*
X1806556Y551951D1*
X1810385Y546684D1*
X1813341Y540882D1*
X1815353Y534688D1*
X1816098Y530570D1*
X1850093Y496432D1*
X1853138Y492243D1*
X1855488Y487629D1*
X1857088Y482703D1*
X1857899Y477589D1*
X1858000Y450133D1*
X1861976Y443841D1*
X1864469Y437824D1*
X1865990Y431492D1*
X1866500Y425000D1*
X1865990Y418508D1*
X1864469Y412176D1*
X1861976Y406159D1*
X1858575Y400606D1*
X1854345Y395655D1*
X1849394Y391425D1*
X1843841Y388024D1*
X1837824Y385531D1*
X1831492Y384010D1*
X1825000Y383500D1*
X1818508Y384010D1*
X1812176Y385531D1*
X1806159Y388024D1*
X1800606Y391425D1*
X1795655Y395655D1*
X1791425Y400606D1*
X1788024Y406159D1*
X1785531Y412176D1*
X1784010Y418508D1*
X1783500Y425000D1*
X1784010Y431492D1*
X1785531Y437824D1*
X1788024Y443841D1*
X1792001Y450123D1*
X1792000Y461350D1*
X1769466Y483865D1*
X62500Y737476D2*
Y212491D1*
X201955Y212346D1*
X204783Y211549D1*
X207348Y210113D1*
X209505Y208118D1*
X211138Y205675D1*
X212155Y202919D1*
X212500Y199996D1*
Y62528D1*
X2637505Y62500D1*
X2637654Y201955D1*
X2638451Y204783D1*
X2639887Y207348D1*
X2641882Y209505D1*
X2644325Y211138D1*
X2647081Y212155D1*
X2650004Y212500D1*
X2787472D1*
X2787500Y737509D1*
X2648045Y737654D1*
X2645217Y738451D1*
X2642652Y739887D1*
X2640495Y741882D1*
X2638862Y744325D1*
X2637845Y747081D1*
X2637500Y750004D1*
Y887472D1*
X212495Y887500D1*
X212346Y748045D1*
X211549Y745217D1*
X210113Y742652D1*
X208118Y740495D1*
X205675Y738862D1*
X202919Y737845D1*
X199996Y737500D1*
X62528D1*
X1575000Y260000D2*
D16*
Y203535D1*
X1523535Y260000D2*
X1626465D1*
X1225000Y406465D2*
Y350000D1*
X1173535D2*
X1276465D1*
X700000Y587598D2*
Y535543D1*
X644008Y587598D2*
X755992D1*
X500000D2*
Y535543D1*
X444008Y587598D2*
X555992D1*
X500000Y439457D2*
Y387402D1*
X444008D2*
X555992D1*
X700000Y439457D2*
Y387402D1*
X644008D2*
X755992D1*
X848537Y610000D2*
X951465D1*
X900000Y331463D2*
Y275000D1*
X848537D2*
X951465D1*
X162500Y541465D2*
Y408535D1*
X96035Y475000D2*
X228965D1*
X900000Y401575D2*
Y345425D1*
X843850Y401575D2*
X956150D1*
X318850Y476575D2*
X431150D1*
D19*
X162500Y300000D3*
X2200000Y750000D3*
D22*
X1575000Y350000D3*
Y260000D3*
X1225000Y350000D3*
Y260000D3*
D23*
X700000Y662402D3*
Y587598D3*
X500000Y662402D3*
Y587598D3*
Y387402D3*
Y312598D3*
X700000Y387402D3*
Y312598D3*
D22*
X900000Y700000D3*
Y610000D3*
Y275000D3*
Y185000D3*
D19*
X1450000Y750000D3*
X162500Y475000D3*
D27*
X900000Y500000D3*
D28*
Y401575D3*
D27*
X2650000Y525000D3*
D28*
Y426575D3*
D27*
X375000Y575000D3*
D28*
Y476575D3*
Y378150D3*
D19*
X1125000Y750000D3*
X162500Y650000D3*
M02*
