G04 DipTrace 3.3.1.3*
G04 BottomSilk.gbr*
%MOIN*%
G04 #@! TF.FileFunction,Legend,Bot*
G04 #@! TF.Part,Single*
%ADD10C,0.009843*%
%ADD18C,0.005*%
%ADD20C,0.012*%
%ADD65C,0.00772*%
%ADD66C,0.009264*%
%FSLAX26Y26*%
G04*
G70*
G90*
G75*
G01*
G04 BotSilk*
%LPD*%
X1530000Y400000D2*
D20*
Y325007D1*
X1620000Y400000D2*
Y325007D1*
Y284993D2*
Y210000D1*
X1530000Y284993D2*
Y210000D1*
X1620000Y400000D2*
X1530000D1*
X1620000Y210000D2*
X1530000D1*
X1180000Y400000D2*
Y325007D1*
X1270000Y400000D2*
Y325007D1*
Y284993D2*
Y210000D1*
X1180000Y284993D2*
Y210000D1*
X1270000Y400000D2*
X1180000D1*
X1270000Y210000D2*
X1180000D1*
X725571Y703761D2*
D10*
X674429D1*
X525571D2*
X474429D1*
X525571Y428761D2*
X474429D1*
X725571D2*
X674429D1*
X855000Y750000D2*
D20*
Y675007D1*
X945000Y750000D2*
Y675007D1*
Y634993D2*
Y560000D1*
X855000Y634993D2*
Y560000D1*
X945000Y750000D2*
X855000D1*
X945000Y560000D2*
X855000D1*
Y325000D2*
Y250007D1*
X945000Y325000D2*
Y250007D1*
Y209993D2*
Y135000D1*
X855000Y209993D2*
Y135000D1*
X945000Y325000D2*
X855000D1*
X945000Y135000D2*
X855000D1*
X25000Y850000D2*
D18*
G02X25000Y850000I75000J0D01*
G01*
Y100000D2*
G02X25000Y100000I75000J0D01*
G01*
X2675001Y850001D2*
G02X2675001Y850001I74999J0D01*
G01*
X2675000Y100000D2*
G02X2675000Y100000I75000J0D01*
G01*
X1587720Y466285D2*
D65*
X1590096Y471038D1*
X1594905Y475846D1*
X1599658Y478223D1*
X1609219D1*
X1614028Y475846D1*
X1618781Y471038D1*
X1621213Y466285D1*
X1623590Y459100D1*
Y447106D1*
X1621213Y439977D1*
X1618781Y435168D1*
X1614028Y430415D1*
X1609219Y427983D1*
X1599658D1*
X1594905Y430415D1*
X1590096Y435168D1*
X1587720Y439977D1*
X1548349Y427983D2*
Y478168D1*
X1572280Y444730D1*
X1536410D1*
X1640369Y178168D2*
X1647554Y175791D1*
X1652362Y168606D1*
X1654739Y156668D1*
Y149483D1*
X1652362Y137545D1*
X1647554Y130360D1*
X1640369Y127983D1*
X1635615D1*
X1628430Y130360D1*
X1623677Y137545D1*
X1621245Y149483D1*
Y156668D1*
X1623677Y168606D1*
X1628430Y175791D1*
X1635615Y178168D1*
X1640369D1*
X1623677Y168606D2*
X1652362Y137545D1*
X1603429Y132792D2*
X1605806Y130360D1*
X1603429Y127983D1*
X1600998Y130360D1*
X1603429Y132792D1*
X1585558Y168606D2*
X1580750Y171038D1*
X1573565Y178168D1*
Y127983D1*
X1558126Y161476D2*
Y137545D1*
X1555749Y130415D1*
X1550941Y127983D1*
X1543756D1*
X1539002Y130415D1*
X1531817Y137545D1*
Y161476D2*
Y127983D1*
X1485261Y178223D2*
X1516378D1*
Y127983D1*
Y154291D2*
X1497255D1*
X1236531Y466285D2*
X1238908Y471038D1*
X1243716Y475846D1*
X1248470Y478223D1*
X1258031D1*
X1262840Y475846D1*
X1267593Y471038D1*
X1270025Y466285D1*
X1272401Y459100D1*
Y447106D1*
X1270025Y439977D1*
X1267593Y435168D1*
X1262840Y430415D1*
X1258031Y427983D1*
X1248470D1*
X1243716Y430415D1*
X1238908Y435168D1*
X1236531Y439977D1*
X1192407Y478168D2*
X1216284D1*
X1218660Y456668D1*
X1216284Y459045D1*
X1209099Y461476D1*
X1201969D1*
X1194784Y459045D1*
X1189975Y454291D1*
X1187599Y447106D1*
Y442353D1*
X1189975Y435168D1*
X1194784Y430360D1*
X1201969Y427983D1*
X1209099D1*
X1216284Y430360D1*
X1218660Y432792D1*
X1221092Y437545D1*
X1291205Y181512D2*
X1298390Y179135D1*
X1303198Y171950D1*
X1305575Y160012D1*
Y152827D1*
X1303198Y140889D1*
X1298390Y133703D1*
X1291205Y131327D1*
X1286451D1*
X1279266Y133703D1*
X1274513Y140889D1*
X1272081Y152827D1*
Y160012D1*
X1274513Y171950D1*
X1279266Y179135D1*
X1286451Y181512D1*
X1291205D1*
X1274513Y171950D2*
X1303198Y140889D1*
X1254265Y136135D2*
X1256642Y133703D1*
X1254265Y131327D1*
X1251834Y133703D1*
X1254265Y136135D1*
X1236394Y171950D2*
X1231586Y174382D1*
X1224401Y181512D1*
Y131327D1*
X1208962Y164820D2*
Y140889D1*
X1206585Y133759D1*
X1201777Y131327D1*
X1194592D1*
X1189838Y133759D1*
X1182653Y140889D1*
Y164820D2*
Y131327D1*
X1136097Y181567D2*
X1167214D1*
Y131327D1*
Y157635D2*
X1148091D1*
X710315Y770046D2*
X712692Y774799D1*
X717500Y779608D1*
X722254Y781984D1*
X731815D1*
X736624Y779608D1*
X741377Y774799D1*
X743809Y770046D1*
X746185Y762861D1*
Y750867D1*
X743809Y743738D1*
X741377Y738929D1*
X736624Y734176D1*
X731815Y731744D1*
X722254D1*
X717500Y734176D1*
X712692Y738929D1*
X710315Y743738D1*
X666191Y774799D2*
X668568Y779552D1*
X675753Y781929D1*
X680506D1*
X687691Y779552D1*
X692500Y772367D1*
X694876Y760429D1*
Y748491D1*
X692500Y738929D1*
X687691Y734121D1*
X680506Y731744D1*
X678129D1*
X671000Y734121D1*
X666191Y738929D1*
X663815Y746114D1*
Y748491D1*
X666191Y755676D1*
X671000Y760429D1*
X678129Y762806D1*
X680506D1*
X687691Y760429D1*
X692500Y755676D1*
X694876Y748491D1*
X746832Y691630D2*
X749209Y698815D1*
X756394Y703623D1*
X768332Y706000D1*
X775517D1*
X787455Y703623D1*
X794640Y698815D1*
X797017Y691630D1*
Y686877D1*
X794640Y679692D1*
X787455Y674938D1*
X775517Y672506D1*
X768332D1*
X756394Y674938D1*
X749209Y679692D1*
X746832Y686877D1*
Y691630D1*
X756394Y674938D2*
X787455Y703623D1*
X792209Y654691D2*
X794640Y657067D1*
X797017Y654691D1*
X794640Y652259D1*
X792209Y654691D1*
X756394Y636820D2*
X753962Y632011D1*
X746832Y624826D1*
X797017D1*
X763524Y609387D2*
X787455D1*
X794585Y607010D1*
X797017Y602202D1*
Y595017D1*
X794585Y590264D1*
X787455Y583079D1*
X763524D2*
X797017D1*
X746777Y536523D2*
Y567639D1*
X797017D1*
X770709D2*
Y548516D1*
X511531Y770046D2*
X513908Y774799D1*
X518716Y779608D1*
X523470Y781984D1*
X533031D1*
X537840Y779608D1*
X542593Y774799D1*
X545025Y770046D1*
X547401Y762861D1*
Y750867D1*
X545025Y743738D1*
X542593Y738929D1*
X537840Y734176D1*
X533031Y731744D1*
X523470D1*
X518716Y734176D1*
X513908Y738929D1*
X511531Y743738D1*
X486530Y731744D2*
X462599Y781929D1*
X496092D1*
X546832Y703596D2*
X549209Y710781D1*
X556394Y715590D1*
X568332Y717966D1*
X575517D1*
X587455Y715590D1*
X594640Y710781D1*
X597017Y703596D1*
Y698843D1*
X594640Y691658D1*
X587455Y686905D1*
X575517Y684473D1*
X568332D1*
X556394Y686905D1*
X549209Y691658D1*
X546832Y698843D1*
Y703596D1*
X556394Y686905D2*
X587455Y715590D1*
X592208Y666657D2*
X594640Y669034D1*
X597017Y666657D1*
X594640Y664225D1*
X592208Y666657D1*
X546832Y634416D2*
X549209Y641601D1*
X556394Y646409D1*
X568332Y648786D1*
X575517D1*
X587455Y646409D1*
X594640Y641601D1*
X597017Y634416D1*
Y629663D1*
X594640Y622478D1*
X587455Y617724D1*
X575517Y615292D1*
X568332Y615293D1*
X556394Y617724D1*
X549209Y622478D1*
X546832Y629663D1*
Y634416D1*
X556394Y617724D2*
X587455Y646409D1*
X556394Y599853D2*
X553962Y595045D1*
X546832Y587860D1*
X597017D1*
X563524Y572421D2*
X587455D1*
X594585Y570044D1*
X597017Y565235D1*
Y558050D1*
X594585Y553297D1*
X587455Y546112D1*
X563524D2*
X597017D1*
X546777Y499556D2*
Y530673D1*
X597017D1*
X570709D2*
Y511550D1*
X511504Y195046D2*
X513880Y199799D1*
X518689Y204608D1*
X523442Y206984D1*
X533004D1*
X537812Y204608D1*
X542565Y199799D1*
X544997Y195046D1*
X547374Y187861D1*
Y175867D1*
X544997Y168738D1*
X542565Y163929D1*
X537812Y159176D1*
X533004Y156744D1*
X523442D1*
X518689Y159176D1*
X513880Y163929D1*
X511504Y168738D1*
X484126Y206929D2*
X491256Y204552D1*
X493688Y199799D1*
Y194991D1*
X491256Y190238D1*
X486503Y187806D1*
X476941Y185429D1*
X469756Y183053D1*
X465003Y178244D1*
X462626Y173491D1*
Y166306D1*
X465003Y161553D1*
X467380Y159121D1*
X474565Y156744D1*
X484126D1*
X491256Y159121D1*
X493688Y161553D1*
X496064Y166306D1*
Y173491D1*
X493688Y178244D1*
X488879Y183053D1*
X481750Y185429D1*
X472188Y187806D1*
X467380Y190238D1*
X465003Y194991D1*
Y199799D1*
X467380Y204552D1*
X474565Y206929D1*
X484126D1*
X546542Y452719D2*
X548918Y459904D1*
X556103Y464713D1*
X568041Y467089D1*
X575226D1*
X587165Y464713D1*
X594350Y459904D1*
X596726Y452719D1*
Y447966D1*
X594350Y440781D1*
X587165Y436028D1*
X575226Y433596D1*
X568041D1*
X556103Y436028D1*
X548918Y440781D1*
X546542Y447966D1*
Y452719D1*
X556103Y436028D2*
X587165Y464713D1*
X591918Y415780D2*
X594350Y418157D1*
X596726Y415780D1*
X594350Y413348D1*
X591918Y415780D1*
X546542Y383539D2*
X548918Y390724D1*
X556103Y395533D1*
X568041Y397909D1*
X575226D1*
X587165Y395533D1*
X594350Y390724D1*
X596726Y383539D1*
Y378786D1*
X594350Y371601D1*
X587165Y366848D1*
X575226Y364416D1*
X568041D1*
X556103Y366848D1*
X548918Y371601D1*
X546542Y378786D1*
Y383539D1*
X556103Y366848D2*
X587165Y395533D1*
X556103Y348977D2*
X553671Y344168D1*
X546542Y336983D1*
X596726D1*
X563233Y321544D2*
X587165D1*
X594294Y319167D1*
X596726Y314359D1*
Y307174D1*
X594294Y302421D1*
X587165Y295236D1*
X563233D2*
X596726D1*
X546486Y248680D2*
Y279796D1*
X596726D1*
X570418D2*
Y260673D1*
X710343Y195046D2*
X712720Y199799D1*
X717528Y204608D1*
X722281Y206984D1*
X731843D1*
X736651Y204608D1*
X741405Y199799D1*
X743836Y195046D1*
X746213Y187861D1*
Y175867D1*
X743836Y168738D1*
X741405Y163929D1*
X736651Y159176D1*
X731843Y156744D1*
X722281D1*
X717528Y159176D1*
X712720Y163929D1*
X710343Y168738D1*
X663787Y190238D2*
X666219Y183053D1*
X670972Y178244D1*
X678157Y175867D1*
X680534D1*
X687719Y178244D1*
X692472Y183053D1*
X694904Y190238D1*
Y192614D1*
X692472Y199799D1*
X687719Y204552D1*
X680534Y206929D1*
X678157D1*
X670972Y204552D1*
X666219Y199799D1*
X663787Y190238D1*
Y178244D1*
X666219Y166306D1*
X670972Y159121D1*
X678157Y156744D1*
X682910D1*
X690095Y159121D1*
X692472Y163929D1*
X746542Y428253D2*
X748918Y435438D1*
X756103Y440247D1*
X768041Y442623D1*
X775226D1*
X787165Y440247D1*
X794350Y435438D1*
X796726Y428253D1*
Y423500D1*
X794350Y416315D1*
X787165Y411562D1*
X775226Y409130D1*
X768041D1*
X756103Y411562D1*
X748918Y416315D1*
X746542Y423500D1*
Y428253D1*
X756103Y411562D2*
X787165Y440247D1*
X791918Y391314D2*
X794350Y393691D1*
X796726Y391314D1*
X794350Y388882D1*
X791918Y391314D1*
X756103Y373443D2*
X753671Y368634D1*
X746542Y361449D1*
X796726D1*
X763233Y346010D2*
X787165D1*
X794294Y343634D1*
X796726Y338825D1*
Y331640D1*
X794294Y326887D1*
X787165Y319702D1*
X763233D2*
X796726D1*
X746486Y273146D2*
Y304263D1*
X796726D1*
X770418D2*
Y285139D1*
X930287Y811875D2*
X932664Y816629D1*
X937472Y821437D1*
X942225Y823814D1*
X951787D1*
X956595Y821437D1*
X961349Y816629D1*
X963780Y811875D1*
X966157Y804690D1*
Y792697D1*
X963780Y785567D1*
X961349Y780759D1*
X956595Y776005D1*
X951787Y773574D1*
X942225D1*
X937472Y776005D1*
X932664Y780759D1*
X930287Y785567D1*
X914848Y814197D2*
X910039Y816629D1*
X902854Y823758D1*
Y773574D1*
X873045Y823758D2*
X880230Y821382D1*
X885038Y814197D1*
X887415Y802259D1*
Y795073D1*
X885038Y783135D1*
X880230Y775950D1*
X873045Y773574D1*
X868292D1*
X861107Y775950D1*
X856354Y783135D1*
X853922Y795073D1*
Y802259D1*
X856354Y814197D1*
X861107Y821382D1*
X868292Y823758D1*
X873045D1*
X856354Y814197D2*
X885038Y783135D1*
X971576Y729615D2*
X969144Y724806D1*
X962014Y717621D1*
X1012199D1*
X962014Y687812D2*
X964391Y694997D1*
X971576Y699806D1*
X983514Y702182D1*
X990699D1*
X1002637Y699805D1*
X1009822Y694997D1*
X1012199Y687812D1*
Y683059D1*
X1009822Y675874D1*
X1002637Y671121D1*
X990699Y668689D1*
X983514D1*
X971576Y671121D1*
X964391Y675874D1*
X962014Y683059D1*
Y687812D1*
X971576Y671121D2*
X1002637Y699805D1*
X978705Y653250D2*
X1002637D1*
X1009767Y650873D1*
X1012199Y646064D1*
Y638879D1*
X1009767Y634126D1*
X1002637Y626941D1*
X978705D2*
X1012199D1*
X961959Y580385D2*
Y611502D1*
X1012199D1*
X985890D2*
Y592379D1*
X919537Y86875D2*
X921914Y91629D1*
X926722Y96437D1*
X931475Y98814D1*
X941037D1*
X945845Y96437D1*
X950599Y91629D1*
X953030Y86875D1*
X955407Y79690D1*
Y67697D1*
X953030Y60567D1*
X950599Y55759D1*
X945845Y51005D1*
X941037Y48574D1*
X931475D1*
X926722Y51005D1*
X921914Y55759D1*
X919537Y60567D1*
X904098Y89197D2*
X899289Y91629D1*
X892104Y98758D1*
Y48574D1*
X876665Y89197D2*
X871857Y91629D1*
X864672Y98758D1*
Y48574D1*
X971576Y304615D2*
X969144Y299806D1*
X962014Y292621D1*
X1012199D1*
X962014Y262812D2*
X964391Y269997D1*
X971576Y274806D1*
X983514Y277182D1*
X990699D1*
X1002637Y274805D1*
X1009822Y269997D1*
X1012199Y262812D1*
Y258059D1*
X1009822Y250874D1*
X1002637Y246121D1*
X990699Y243689D1*
X983514D1*
X971576Y246121D1*
X964391Y250874D1*
X962014Y258059D1*
Y262812D1*
X971576Y246121D2*
X1002637Y274805D1*
X978705Y228250D2*
X1002637D1*
X1009767Y225873D1*
X1012199Y221064D1*
Y213879D1*
X1009767Y209126D1*
X1002637Y201941D1*
X978705D2*
X1012199D1*
X961959Y155385D2*
Y186502D1*
X1012199D1*
X985890D2*
Y167379D1*
X2536492Y242076D2*
D66*
X2573765D1*
Y181788D1*
X2536492D1*
X2573765Y213358D2*
X2550818D1*
X2517965Y221980D2*
X2500720Y181788D1*
X2483543Y221980D1*
X2430594D2*
Y181788D1*
Y213358D2*
X2436298Y219128D1*
X2442068Y221980D1*
X2450623D1*
X2456394Y219128D1*
X2462097Y213358D1*
X2465016Y204736D1*
Y199032D1*
X2462097Y190410D1*
X2456394Y184706D1*
X2450623Y181788D1*
X2442068D1*
X2436298Y184706D1*
X2430594Y190410D1*
X2412067Y221980D2*
Y181788D1*
Y210506D2*
X2403445Y219128D1*
X2397674Y221980D1*
X2389119D1*
X2383349Y219128D1*
X2380497Y210506D1*
Y181788D1*
X2303648Y242076D2*
X2280701Y213358D1*
Y181788D1*
X2257753Y242076D2*
X2280701Y213358D1*
X2239225Y204736D2*
X2204804D1*
Y210506D1*
X2207656Y216276D1*
X2210507Y219128D1*
X2216278Y221980D1*
X2224900D1*
X2230603Y219128D1*
X2236374Y213358D1*
X2239225Y204736D1*
Y199032D1*
X2236374Y190410D1*
X2230603Y184706D1*
X2224900Y181788D1*
X2216278D1*
X2210507Y184706D1*
X2204804Y190410D1*
X2186277Y242076D2*
Y181788D1*
Y210506D2*
X2177654Y219128D1*
X2171884Y221980D1*
X2163262D1*
X2157558Y219128D1*
X2154707Y210506D1*
Y181788D1*
X2538851Y148324D2*
X2576125D1*
Y88036D1*
X2538851D1*
X2576125Y119606D2*
X2553177D1*
X2483050Y148324D2*
X2520324D1*
Y88036D1*
X2483050D1*
X2520324Y119606D2*
X2497376D1*
X2368862Y128228D2*
X2371780Y119606D1*
X2377484Y113836D1*
X2386106Y110984D1*
X2388958D1*
X2397580Y113836D1*
X2403284Y119606D1*
X2406202Y128228D1*
Y131080D1*
X2403284Y139702D1*
X2397580Y145406D1*
X2388958Y148258D1*
X2386106D1*
X2377484Y145406D1*
X2371780Y139702D1*
X2368862Y128228D1*
Y113836D1*
X2371780Y99510D1*
X2377484Y90888D1*
X2386106Y88036D1*
X2391810D1*
X2400432Y90888D1*
X2403284Y96658D1*
X2350335Y136784D2*
X2344565Y139702D1*
X2335943Y148258D1*
Y88036D1*
X2221754Y148324D2*
X2259094D1*
Y88036D1*
Y119606D2*
X2236146D1*
X2168805Y128228D2*
Y88036D1*
Y119606D2*
X2174509Y125376D1*
X2180279Y128228D1*
X2188835D1*
X2194605Y125376D1*
X2200309Y119606D1*
X2203227Y110984D1*
Y105280D1*
X2200309Y96658D1*
X2194605Y90954D1*
X2188835Y88036D1*
X2180279D1*
X2174509Y90954D1*
X2168805Y96658D1*
X2150278Y148324D2*
Y88036D1*
X2131751Y148324D2*
Y88036D1*
X2051985Y133932D2*
Y136784D1*
X2049133Y142554D1*
X2046281Y145406D1*
X2040511Y148258D1*
X2029037D1*
X2023333Y145406D1*
X2020481Y142554D1*
X2017563Y136784D1*
Y131080D1*
X2020481Y125310D1*
X2026185Y116754D1*
X2054903Y88036D1*
X2014711D1*
X1978940Y148258D2*
X1987562Y145406D1*
X1993332Y136784D1*
X1996184Y122458D1*
Y113836D1*
X1993332Y99510D1*
X1987562Y90888D1*
X1978940Y88036D1*
X1973236D1*
X1964614Y90888D1*
X1958910Y99510D1*
X1955992Y113836D1*
Y122458D1*
X1958910Y136784D1*
X1964614Y145406D1*
X1973236Y148258D1*
X1978940D1*
X1958910Y136784D2*
X1993332Y99510D1*
X1937465Y136784D2*
X1931695Y139702D1*
X1923072Y148258D1*
Y88036D1*
X1867205Y128228D2*
X1870123Y119606D1*
X1875827Y113836D1*
X1884449Y110984D1*
X1887301D1*
X1895923Y113836D1*
X1901627Y119606D1*
X1904545Y128228D1*
Y131080D1*
X1901627Y139702D1*
X1895923Y145406D1*
X1887301Y148258D1*
X1884449D1*
X1875827Y145406D1*
X1870123Y139702D1*
X1867205Y128228D1*
Y113836D1*
X1870123Y99510D1*
X1875827Y90888D1*
X1884449Y88036D1*
X1890153D1*
X1898775Y90888D1*
X1901627Y96658D1*
M02*
