M48
INCH
T01C0.015
T02C0.025
T03C0.0394
T04C0.063
T05C0.125
%
T01
X+017750Y+005250
X+018250Y+004250
T02
X+013250Y+002750
X+013250Y+003500
X+017000Y+002750
X+017000Y+004500
X+023000Y+002750
T03
X+009000Y+005000
X+009000Y+004016
X+003750Y+003781
X+003750Y+004766
X+003750Y+005750
X+026500Y+005250
X+026500Y+004266
T04
X+001625Y+003000
X+001625Y+004750
X+001625Y+006500
X+011250Y+007500
X+014500Y+007500
X+022000Y+007500
T05
X+027500Y+008500
X+027500Y+001000
X+001000Y+001000
X+001000Y+008500
T00
M30
