G04 DipTrace 3.3.1.3*
G04 Top.gbr*
%MOIN*%
G04 #@! TF.FileFunction,Copper,L1,Top*
G04 #@! TF.Part,Single*
G04 #@! TA.AperFunction,Conductor*
%ADD14C,0.024*%
G04 #@! TA.AperFunction,ViaPad*
%ADD15C,0.03*%
G04 #@! TA.AperFunction,Conductor*
%ADD16C,0.013*%
G04 #@! TA.AperFunction,ComponentPad*
%ADD19C,0.08*%
%ADD21R,0.06X0.05*%
%ADD22R,0.05X0.06*%
%ADD25R,0.062992X0.031496*%
G04 #@! TA.AperFunction,ComponentPad*
%ADD27R,0.05937X0.05937*%
%ADD28C,0.05937*%
%ADD31R,0.047244X0.047244*%
%ADD32R,0.062992X0.059055*%
%ADD34O,0.08X0.024*%
G04 #@! TA.AperFunction,ViaPad*
%ADD35C,0.05*%
%FSLAX26Y26*%
G04*
G70*
G90*
G75*
G01*
G04 Top*
%LPD*%
X1620000Y450000D2*
D14*
X1675000D1*
D15*
X1700000D1*
X1400000Y300000D2*
D14*
X1350000D1*
D15*
X1325000Y275000D1*
X1620000Y300000D2*
D14*
X1675000D1*
D15*
X1700000Y275000D1*
X1325000Y350000D2*
X1345000D1*
D14*
X1400000D1*
X2175000Y275000D2*
D15*
X2300000D1*
X2425000D1*
X900000Y500000D2*
D16*
X975000D1*
X1025000Y450000D1*
X1200000D1*
X975000Y500000D2*
X1125000Y650000D1*
Y750000D1*
X1400000Y400000D2*
X1340000D1*
X1290000Y450000D1*
X1275000Y550000D2*
Y465000D1*
X1290000Y450000D1*
X1400000D2*
Y503780D1*
X1353740Y550040D1*
Y571260D1*
X1314370Y610630D1*
Y676772D1*
X1423228D1*
X1424690Y675310D1*
X1475000Y625000D1*
X1550000D1*
X1424690Y675310D2*
Y724690D1*
X1450000Y750000D1*
X1640000Y625000D2*
X1775000D1*
X1850000Y350000D2*
Y400000D1*
X1825000Y425000D1*
X1775000Y525000D2*
Y625000D1*
X1620000Y350000D2*
X1725000D1*
X1800000Y275000D1*
X1865000D1*
X1940000Y350000D1*
Y365000D1*
X2050000Y475000D1*
Y575000D1*
X1620000Y400000D2*
X1725000D1*
X1825000Y500000D1*
Y585000D1*
X1865000Y625000D1*
X2010000D1*
X2050000Y665000D1*
X2190000D1*
X2200000Y675000D1*
X2291142D1*
X2300000Y683858D1*
X2200000Y675000D2*
Y750000D1*
X2175000Y365000D2*
Y450000D1*
X2275000Y550000D1*
X2300000D1*
X2325000D1*
X2425000Y450000D1*
Y365000D1*
X2515000D1*
X2550000Y400000D1*
Y475000D1*
X2600000Y525000D1*
X2650000D1*
D35*
X1325000Y275000D3*
Y350000D3*
X1700000Y450000D3*
Y275000D3*
D15*
X1775000Y525000D3*
X1825000Y425000D3*
D35*
X2300000Y275000D3*
D19*
X162500Y300000D3*
X2200000Y750000D3*
D21*
X1850000Y350000D3*
X1940000D3*
X1775000Y625000D3*
X1865000D3*
D22*
X2175000Y275000D3*
Y365000D3*
D25*
X2300000Y550000D3*
Y683858D3*
D19*
X1450000Y750000D3*
X162500Y475000D3*
D27*
X900000Y500000D3*
D28*
Y401575D3*
D27*
X2650000Y525000D3*
D28*
Y426575D3*
D27*
X375000Y575000D3*
D28*
Y476575D3*
Y378150D3*
D21*
X1200000Y450000D3*
X1290000D3*
D31*
X1275000Y550000D3*
D32*
X1314370Y676772D3*
D31*
X1353740Y550040D3*
D21*
X1550000Y625000D3*
X1640000D3*
D22*
X2050000Y575000D3*
Y665000D3*
X2425000Y275000D3*
Y365000D3*
D34*
X1400000Y300000D3*
X1620000Y450000D3*
Y400000D3*
Y350000D3*
Y300000D3*
X1400000Y350000D3*
Y400000D3*
Y450000D3*
D19*
X1125000Y750000D3*
X162500Y650000D3*
M02*
